<svg width="151" height="150" viewBox="0 0 151 150" fill="none" xmlns="http://www.w3.org/2000/svg">
<g id="Group 133">
<rect id="Rectangle 60" x="0.5" width="150" height="150" rx="75" fill="white" fill-opacity="0.35"/>
<g id="Group 104">
<g id="Group">
<path id="Vector" d="M79.9666 83.9802C80.8432 86.2583 79.7091 88.8174 77.4295 89.6957C75.1514 90.5764 72.5906 89.4383 71.7125 87.1611C70.8343 84.8816 71.97 82.3239 74.2479 81.4424C76.5275 80.5658 79.0868 81.7016 79.9666 83.9804V83.9802ZM87.209 76.6969L88.6489 81.1603L88.7063 81.1382L92.293 83.4589L92.1799 84.4585L91.2122 84.8102C91.4377 85.3769 91.3525 86.0435 90.9269 86.5347L87.4919 90.4733C87.3476 90.6405 87.1729 90.7767 86.977 90.8751L80.576 94.0789C80.4588 95.2614 79.8856 100.398 78.2979 104.413L84.908 112.227C85.0957 112.45 85.236 112.714 85.318 113L88.2995 123.607C88.6078 124.7 87.9715 125.834 86.8784 126.139C86.6923 126.193 86.507 126.216 86.3225 126.216C85.4229 126.216 84.598 125.621 84.3438 124.718L81.4811 114.537L75.2596 107.185L74.3027 107.151L75.7672 112.589C75.8213 112.792 75.8451 113.006 75.8344 113.217L75.2547 125.748C75.2038 126.849 74.2969 127.708 73.2047 127.708C73.1719 127.708 73.1399 127.706 73.1096 127.706C71.9755 127.651 71.0997 126.691 71.1514 125.559L71.718 113.342L69.5138 105.162C69.4564 104.945 69.4376 104.729 69.4482 104.517L69.4376 104.493C69.4376 104.493 69.4466 104.458 69.4589 104.394C69.4695 104.298 69.4884 104.202 69.5105 104.109C69.586 103.683 69.7 102.911 69.7738 101.877L69.6163 101.856C68.283 101.707 67.3235 100.503 67.4736 99.1742L68.0345 94.1919L61.381 93.5113C60.8497 93.4572 60.3757 93.1513 60.1043 92.6921L55.9084 85.5785C55.6829 85.1964 55.6312 84.7659 55.7181 84.3632L54.8481 84.0328L54.7595 83.0299L58.4594 80.7961L58.6054 80.8527L61.1196 77.6128L59.9691 76.5574L58.8876 76.883L58.3505 75.0945L58.3693 75.0863L39.9782 58.2155C37.0861 57.079 33.3984 58.0564 33.3984 58.0564C33.3984 41.5209 52.3275 20.6504 75.6768 20.6504C99.0243 20.6504 117.955 41.5213 117.955 58.0564C113.365 56.1401 109.399 57.4628 107.142 58.6591L90.106 74.0704L89.5755 75.7703L88.5718 75.4578L87.209 76.6969ZM87.7461 75.2029L86.6136 74.8527L86.958 75.9155L87.7461 75.2029ZM81.8183 79.4087L82.6588 79.1274L82.8236 74.6059L82.2873 74.601L82.3062 72.7338L82.8917 72.7388L83.6256 52.3918C82.2832 48.7994 77.0139 48.833 77.0139 48.833L77.209 48.801C76.9163 48.7953 76.6227 48.7928 76.3283 48.7904C70.4694 48.8035 68.3637 51.1306 67.6092 52.7462L66.9204 74.3199L67.6019 74.4412L67.273 76.2797L66.8589 76.2042L66.7269 80.3649L66.9786 80.6298C70.8236 84.6313 70.9835 89.0012 70.8179 90.9676L78.6268 91.116L78.8105 91.0291C79.5542 90.2427 83.8289 85.4162 82.1159 80.2977L81.8183 79.4087ZM55.282 55.0409L63.2204 73.674C63.2737 73.6765 63.3237 73.674 63.3754 73.683L66.1758 74.1865L66.8482 53.0746C66.2676 51.656 64.7235 49.5387 60.7407 50.0816C60.735 50.0816 60.7292 50.0816 60.7218 50.084C60.5299 50.116 60.3372 50.1488 60.1462 50.1816C56.3117 50.9426 55.4616 53.6445 55.2819 55.0417L55.282 55.0409ZM66.1184 76.073L64.088 75.7073L65.9856 80.1591L66.1184 76.073ZM63.3697 75.9262L62.1274 77.5236L65.2835 80.4191L63.3697 75.9262ZM104.699 53.3218C104.678 53.3161 104.656 53.3087 104.634 53.3021C100.077 51.8728 96.4432 54.8642 94.7811 56.629L86.8376 72.966L89.3533 73.7499L107.181 57.6211C107.971 56.1722 108.021 54.3936 104.699 53.3219L104.699 53.3218ZM85.1961 74.6268L83.5676 74.6137L83.4372 78.2464L85.1961 74.6268ZM83.6373 72.7482L86.0711 72.7679C86.0801 72.7679 86.0924 72.7728 86.0982 72.7728L94.6483 55.1876C94.9468 53.2548 94.513 50.8447 90.8303 50.1175C90.6031 50.0774 90.3719 50.0413 90.1439 50.0036C86.4999 49.5165 84.9819 51.3041 84.3564 52.6981L83.6373 72.7482ZM84.1785 78.4285L86.3508 76.4654L85.8637 74.9614L84.1785 78.4285ZM59.1977 74.8361L62.4834 73.8488L54.5121 55.1369C53.2755 54.0521 50.4423 52.3129 45.8209 53.5691C45.5831 53.6404 45.3494 53.7126 45.1181 53.7839C41.155 55.0992 41.1516 57.3763 41.4806 58.5802L59.1977 74.8361ZM61.5774 77.0197L62.5352 75.7815L60.7968 76.3055L61.5774 77.0197ZM59.0338 84.2595L58.4155 82.1292L56.5672 83.246C57.3569 82.8254 58.3433 83.0919 58.8041 83.8692L59.0338 84.2595ZM56.3212 83.3952L56.3327 83.4009C56.3646 83.3763 56.3958 83.3501 56.4302 83.3279L56.3212 83.3952ZM62.568 90.2546L68.9501 90.9073C69.1026 89.3592 69.0633 85.4953 65.6314 81.9201L64.9853 81.2502L65.032 81.2043L61.6684 78.1209L59.3011 81.173L60.477 85.223L59.908 85.7462L62.568 90.2546ZM90.7396 83.7896L88.7093 82.4768L87.9532 84.8031L87.9811 84.7941L88.3886 84.3251C88.8979 83.7429 89.7162 83.6035 90.3788 83.9184L90.7396 83.7896ZM86.6002 77.2426L83.8842 79.6993V79.7018C84.819 82.4897 84.4377 85.5951 82.7788 88.6734C82.6517 88.9145 82.518 89.14 82.386 89.3614L83.3151 88.9284L83.3036 88.9481L85.1749 88.0133L86.9633 85.9608L86.5345 85.5459L87.8702 81.4352L87.944 81.4106L86.6002 77.2426Z" fill="black"/>
</g>
</g>
</g>
</svg>
