<svg width="90" height="88" viewBox="0 0 90 88" fill="none" xmlns="http://www.w3.org/2000/svg">
<g id="Group">
<path id="Vector" fill-rule="evenodd" clip-rule="evenodd" d="M8.92445 29.6664H81.3752L83.8332 77.3422C83.9157 78.8906 83.5696 80.0946 82.9173 80.8982C82.2632 81.7018 81.3989 82.1974 79.962 82.1974H10.3292C8.9023 82.1974 8.03072 81.7027 7.37487 80.8982C6.72799 80.0946 6.37466 78.8906 6.45711 77.3422L8.92445 29.6664ZM26.2776 2.1234e-05C24.1286 2.1234e-05 22.398 1.72773 22.398 3.87769V17.085C22.398 19.234 24.1285 20.9627 26.2776 20.9627C28.4193 20.9627 30.1497 19.235 30.1497 17.085V12.5751C31.9317 13.8381 32.9899 15.8755 32.9899 18.0536C32.9899 21.7598 29.9838 24.7668 26.2776 24.7668C22.5713 24.7668 19.5652 21.7589 19.5652 18.0536V6.95263H14.8144C12.1689 6.95263 9.64924 7.62215 7.67341 9.19221C5.70471 10.7623 4.45629 13.1984 4.19258 15.979L0.314917 77.093C0.134627 79.9042 0.765192 82.6176 2.4331 84.6706C4.10283 86.7209 6.741 88 9.67192 88H80.6105C83.5433 88 86.1815 86.7226 87.8493 84.6706C89.5172 82.6168 90.1478 79.9042 89.9693 77.093L86.0898 15.979C85.8262 13.1986 84.5786 10.7624 82.609 9.19221C80.6403 7.62215 78.1225 6.95263 75.468 6.95263L67.8876 6.95354V3.87859C67.8876 1.72961 66.1599 0.000927217 64.0081 0.000927217C61.8591 0.000927217 60.1385 1.72863 60.1385 3.87859V17.0859C60.1385 19.2349 61.859 20.9636 64.0081 20.9636C66.1598 20.9636 67.8876 19.2359 67.8876 17.0859V12.576C69.6615 13.839 70.7215 15.8764 70.7215 18.0545C70.7215 21.7607 67.7136 24.7677 64.0083 24.7677C60.3036 24.7677 57.296 21.7598 57.296 18.0545V6.95354H30.1507V3.87859C30.1507 1.7278 28.4203 0 26.2786 0L26.2776 2.1234e-05Z" fill="black"/>
<path id="Vector_2" fill-rule="evenodd" clip-rule="evenodd" d="M22.7744 78.6719C23.1803 79.0778 23.7574 79.3188 24.2539 79.124L45.8787 74.0948C45.1576 73.8484 44.4201 73.525 43.6446 73.1191C40.9032 71.6686 37.7902 69.256 34.9933 66.4592C32.1983 63.6642 29.7767 60.5496 28.3262 57.8007C27.9221 57.0333 27.5987 56.2895 27.3505 55.5684L22.3231 77.1923C22.1365 77.696 22.3693 78.2668 22.7743 78.6717L22.7744 78.6719Z" fill="black"/>
<path id="Vector_3" fill-rule="evenodd" clip-rule="evenodd" d="M54.4393 46.667C54.1394 46.3209 53.6946 46.0954 53.1909 46.1479C52.8086 46.1869 52.4697 46.3961 52.1997 46.6888L41.7675 57.6856C40.6087 56.5957 39.4138 55.5801 38.2351 54.6941C40.7303 50.9751 42.6555 46.2015 42.3846 43.2634C42.3402 42.7596 42.16 42.3456 41.9117 42.0294C41.1833 41.0754 39.8678 41.031 39.8216 42.1871C39.5897 48.4492 36.1777 54.1533 32.9453 57.8206C32.8864 57.8822 32.8628 57.9493 32.8239 58.0172C32.3736 57.7536 32.11 57.1756 32.5702 56.6565C33.5459 55.5521 34.5226 54.2439 35.4332 52.8159C32.5394 51.1172 30.3307 50.6741 29.3967 51.5983C28.555 52.4408 28.8323 54.3188 30.1568 56.8385C31.4786 59.348 33.749 62.2808 36.4542 64.9932C39.1676 67.7066 42.1066 69.9689 44.6161 71.2906C47.1275 72.6224 49.0075 72.8915 49.8473 72.0508C50.853 71.0361 50.2296 68.511 48.1721 65.2568C46.67 66.2035 45.302 67.2255 44.1505 68.2339C43.586 68.7358 42.9482 68.3842 42.7308 67.857C42.7824 67.828 42.8359 67.8126 42.8884 67.7664C46.5485 64.5356 52.2527 61.122 58.5148 60.8901C59.6736 60.8457 59.6346 59.5293 58.6806 58.7936C58.3644 58.5526 57.9522 58.3732 57.4394 58.3207C54.5403 58.0598 49.8184 59.937 46.1137 62.4022C45.5121 61.6448 44.8653 60.8765 44.174 60.1264L40.07 64.0936C39.4467 64.6879 38.7699 64.5148 38.4093 64.0863C38.5823 64.0274 38.7617 63.9359 38.9348 63.7629L54.4343 48.7834C55.0558 48.1782 54.9416 47.2441 54.4397 46.667L54.4393 46.667Z" fill="black"/>
<path id="Vector_4" d="M64.203 37.3918C64.2329 37.4145 64.2474 37.4453 64.2619 37.4824C64.3371 37.6482 64.3008 37.9273 64.1577 38.3323L63.615 39.8434L62.9754 41.6101L65.013 44.368C65.5683 45.1281 65.3128 45.4588 64.3661 45.4724L60.9314 45.5023L58.9528 48.2618C58.3059 49.1569 57.8946 49.1107 57.6536 48.2908L56.6769 44.9241L56.6724 44.9232L53.3131 43.9475C52.4859 43.7064 52.4415 43.2933 53.3421 42.6474L56.0944 40.6687L56.1334 37.234C56.1406 36.2873 56.4786 36.0318 57.2378 36.5871L59.9957 38.6175L63.2745 37.4388C63.5417 37.3482 64.0065 37.2132 64.2031 37.3917L64.203 37.3918Z" fill="black"/>
<path id="Vector_5" d="M68.0282 61.1835C68.0282 61.2052 68.021 61.2197 68.0065 61.2423C67.953 61.3402 67.7945 61.4371 67.539 61.5268L66.585 61.8729L65.4652 62.2716L64.7966 64.3091C64.6073 64.8736 64.3445 64.8862 64.0002 64.4432L62.7518 62.8496L60.6554 63.0154C59.9732 63.067 59.8427 62.8577 60.1752 62.4211L61.5278 60.639V60.6317H61.5206L60.8148 58.6793C60.6418 58.1992 60.8374 58.0098 61.4843 58.1756L63.4684 58.6875L65.2188 57.3485C65.708 56.9734 65.9563 57.0323 65.9399 57.6039L65.9037 59.694L67.6776 60.7622C67.8189 60.851 68.0581 61.0168 68.0282 61.1835L68.0282 61.1835Z" fill="black"/>
<path id="Vector_6" d="M39.7785 32.6715C39.7559 32.6715 39.7323 32.6878 39.7169 32.6941C39.6127 32.753 39.5221 32.9034 39.4324 33.1607L39.0864 34.1228L38.6877 35.2426L36.6438 35.9121C36.0885 36.0915 36.0722 36.3552 36.5152 36.7012L38.1025 37.9479L37.9367 40.0534C37.8832 40.7392 38.1025 40.866 38.5373 40.5335L40.3194 39.1809V39.1737L40.3266 39.1809L42.279 39.8867C42.7592 40.067 42.9413 39.8704 42.7755 39.2172L42.2736 37.2331L43.6117 35.4827C43.9795 35.0025 43.9279 34.7543 43.3562 34.7615L41.2598 34.8005L40.1934 33.0338C40.1083 32.888 39.9352 32.6488 39.7785 32.6714L39.7785 32.6715Z" fill="black"/>
<path id="Vector_7" fill-rule="evenodd" clip-rule="evenodd" d="M50.2166 40.3762C49.4356 41.1653 48.1573 41.1653 47.3692 40.3762C46.5801 39.5871 46.5801 38.3096 47.3692 37.5287C48.1583 36.7378 49.4357 36.7378 50.2166 37.5287C51.0075 38.3097 51.0075 39.589 50.2166 40.3762Z" fill="black"/>
<path id="Vector_8" fill-rule="evenodd" clip-rule="evenodd" d="M64.0781 54.2345C63.2872 55.0236 62.0098 55.0236 61.2207 54.2345C60.4316 53.4454 60.4316 52.1679 61.2207 51.3789C62.0098 50.5898 63.2873 50.5898 64.0781 51.3789C64.8672 52.168 64.8672 53.4473 64.0781 54.2345Z" fill="black"/>
<path id="Vector_9" d="M33.5683 46.0288C34.2894 47.6668 34.2378 48.1244 34.2378 49.6581C34.2378 50.6809 35.5524 50.9355 36.086 49.8384C36.6341 48.7186 36.867 46.7715 36.1974 45.4498C35.0505 43.1558 32.9376 44.5854 33.5683 46.0287L33.5683 46.0288Z" fill="black"/>
<path id="Vector_10" d="M55.4253 67.8788C53.78 67.1577 53.3225 67.2093 51.7886 67.2093C50.7667 67.2093 50.5184 65.9029 51.6083 65.3611C52.7281 64.813 54.6751 64.5801 55.9969 65.2497C58.2909 66.3966 56.8621 68.5095 55.4253 67.8788L55.4253 67.8788Z" fill="black"/>
<path id="Vector_11" d="M45.7894 46.1499C45.225 48.279 44.9931 48.7882 43.7156 50.2904C43.0389 51.0867 43.6993 52.1712 44.7738 51.4491C46.044 50.6002 47.9012 48.4131 47.9012 46.5034C47.9003 44.9777 46.1798 44.7068 45.7893 46.1501L45.7894 46.1499Z" fill="black"/>
<path id="Vector_12" d="M55.297 55.657C53.1789 56.2287 52.6588 56.4552 51.1566 57.7335C50.3675 58.4085 49.2758 57.7462 49.9978 56.6817C50.8477 55.4042 53.041 53.5469 54.9436 53.5469C56.4683 53.5469 56.7392 55.2673 55.2969 55.6569L55.297 55.657Z" fill="black"/>
</g>
</svg>
