<svg width="151" height="150" viewBox="0 0 151 150" fill="none" xmlns="http://www.w3.org/2000/svg">
<g id="Group 133">
<rect id="Rectangle 60" x="0.5" width="150" height="150" rx="75" fill="white" fill-opacity="0.35"/>
<g id="Group">
<path id="Vector" d="M65.7901 63.2369L77.3553 55.506L77.706 54.8047L68.5117 58.3509C67.33 58.8028 66.0581 58.9657 64.8009 58.8248L43.2773 56.4752L44.0191 56.8875L65.7901 63.2369Z" fill="black"/>
<path id="Vector_2" d="M32.8464 61.5859L31.8984 63.503L39.1343 66.4095L38.5775 65.3999L37.2172 63.008L32.8464 61.5859Z" fill="black"/>
<path id="Vector_3" d="M37.2143 58.9486L40.3067 64.3917L42.3683 67.9379L42.8635 68.7827L42.8626 68.7818C43.3872 69.7372 44.1934 70.5075 45.1717 70.9879L51.9952 74.4512H56.3043L55.7475 70.4927V70.4936C55.6748 70.0113 55.9629 69.5475 56.4286 69.4002L79.1061 61.6279V61.6288C79.3003 61.5671 79.5092 61.5671 79.7034 61.6288L80.8989 61.9795V61.9785C82.5059 62.4627 83.9407 63.395 85.036 64.6659C86.1312 65.936 86.8418 67.4932 87.0838 69.1536V69.5457L96.361 61.2993L89.393 54.4758V54.4749C88.5463 53.6466 87.4686 53.0952 86.3016 52.8928C85.1346 52.6903 83.9344 52.8468 82.8577 53.341L79.9512 54.8043L79.0851 56.6184C79.0032 56.7822 78.8836 56.9239 78.7345 57.0307L66.5296 65.1739H66.5305C66.3823 65.2714 66.2121 65.3285 66.0354 65.3395H65.6847L43.3578 58.8041H43.1516L40.9455 57.5874L30.7617 56.2888L36.6574 58.4949C36.8884 58.5787 37.0844 58.7388 37.2142 58.9486L37.2143 58.9486Z" fill="black"/>
<path id="Vector_4" d="M100.444 56.3917C100.31 56.6651 100.31 56.9844 100.444 57.2578L102.505 61.8965C102.678 62.3438 103.151 62.5978 103.618 62.4938L114.854 60.2463L117.74 61.8542V61.8551C117.849 61.9177 117.968 61.96 118.091 61.9784L127.142 63.3801H127.306V63.381C127.667 63.3801 127.999 63.1822 128.172 62.8656C128.404 62.5233 128.404 62.0741 128.172 61.7318C127.863 61.3609 120.483 52.7022 101.372 55.8561C100.981 55.8257 100.612 56.0383 100.444 56.3917L100.444 56.3917Z" fill="black"/>
<path id="Vector_5" d="M84.8782 45.4848C85.0347 45.4802 85.1884 45.4452 85.3311 45.3817L90.1344 42.9493L98.5455 61.5036H98.5464C98.7084 61.858 99.0637 62.0844 99.453 62.0807C99.5966 62.1101 99.7438 62.1101 99.8865 62.0807C100.384 61.8396 100.603 61.2478 100.381 60.7407L91.5361 41.3414V41.1969L91.4128 41.0524L91.248 40.9494H90.5053H90.5063C90.4455 40.9309 90.3811 40.9309 90.3203 40.9494L84.5681 43.8558L84.5691 43.8568C84.3289 43.9718 84.1457 44.1789 84.0601 44.4311C83.9745 44.6832 83.9948 44.9594 84.1153 45.1968C84.3187 45.3938 84.5948 45.4977 84.8783 45.4849L84.8782 45.4848Z" fill="black"/>
<path id="Vector_6" d="M102.898 63.0707C102.794 62.8249 102.596 62.6316 102.347 62.535C102.1 62.4375 101.823 62.4448 101.58 62.5553L97.7243 64.2045C97.2853 64.3932 97.0386 64.8635 97.1334 65.332C97.2282 65.8004 97.6378 66.1382 98.1155 66.1419C98.2443 66.1713 98.3787 66.1713 98.5075 66.1419L102.383 64.4724C102.651 64.3702 102.862 64.1576 102.96 63.8889C103.06 63.6201 103.037 63.321 102.898 63.0707L102.898 63.0707Z" fill="black"/>
<path id="Vector_7" d="M99.6406 68.8842C99.7768 68.9137 99.9167 68.9137 100.053 68.8842L103.908 67.2147C104.187 67.1337 104.418 66.9359 104.541 66.6726C104.665 66.4094 104.668 66.1057 104.552 65.8388C104.435 65.5728 104.209 65.3694 103.932 65.282C103.654 65.1936 103.353 65.2295 103.104 65.3795L99.2485 67.0288C99.0019 67.1374 98.8086 67.3399 98.712 67.592C98.6153 67.8433 98.6227 68.1231 98.7331 68.3688C98.9098 68.7029 99.2633 68.9045 99.6406 68.8842L99.6406 68.8842Z" fill="black"/>
<path id="Vector_8" d="M104.694 68.0371L100.819 69.7066C100.573 69.8106 100.38 70.0094 100.283 70.2579C100.186 70.5064 100.193 70.7834 100.303 71.0264C100.466 71.3917 100.831 71.6264 101.231 71.6246C101.36 71.6531 101.493 71.6531 101.622 71.6246L105.477 69.9753C105.745 69.886 105.963 69.69 106.079 69.4332C106.196 69.1765 106.2 68.8829 106.09 68.6233C105.981 68.3638 105.767 68.1613 105.502 68.0656C105.237 67.9698 104.945 67.9901 104.694 68.1199V68.0371Z" fill="black"/>
<path id="Vector_9" d="M28.2475 62.9682C28.3856 63.0464 28.542 63.0888 28.7012 63.0915C29.097 63.0768 29.4495 62.8366 29.6078 62.4731L30.6588 60.4115H30.6598C30.9156 59.9163 30.7214 59.307 30.2263 59.0512C29.7247 58.8101 29.1228 59.0107 28.866 59.504L27.815 61.5656H27.8141C27.6714 61.8067 27.6374 62.0957 27.7202 62.3626C27.8021 62.6304 27.9945 62.8495 28.2475 62.9682L28.2475 62.9682Z" fill="black"/>
<path id="Vector_10" d="M74.5301 79.5821C73.5794 79.5821 72.7226 80.1545 72.359 81.0325C71.9946 81.9115 72.1961 82.922 72.868 83.5938C73.5399 84.2666 74.5513 84.4673 75.4293 84.1037C76.3073 83.7402 76.8798 82.8824 76.8798 81.9326C76.8798 80.634 75.8278 79.582 74.5301 79.582L74.5301 79.5821Z" fill="black"/>
<path id="Vector_11" d="M80.4059 81.8933C80.07 81.9513 79.8242 82.2431 79.8242 82.5836C79.8242 82.925 80.07 83.2159 80.4059 83.2748C80.6093 83.3097 80.8182 83.2536 80.9765 83.1201C81.1348 82.9867 81.2269 82.7907 81.2269 82.5836C81.2269 82.3765 81.1348 82.1805 80.9765 82.047C80.8182 81.9145 80.6093 81.8574 80.4059 81.8933V81.8933Z" fill="black"/>
<path id="Vector_12" d="M86.137 72.4718C85.7881 72.3485 85.5396 72.0356 85.4982 71.6674L85.1688 69.4411H85.1678C84.981 68.1535 84.4261 66.9479 83.5701 65.9677C82.7142 64.9875 81.5941 64.2752 80.3444 63.9163L79.4581 63.6484L71.2937 66.4315L66.9229 79.9348C66.5934 80.8827 66.5934 81.9145 66.9229 82.8625L67.8506 85.1505C68.1672 85.9917 68.7296 86.7169 69.4658 87.2323C70.2012 87.7468 71.0755 88.0275 71.9739 88.0367H78.7569C79.6929 88.0395 80.6068 87.7459 81.3661 87.1983C82.1254 86.6497 82.6914 85.8757 82.9831 84.9857L87.1063 72.1421L86.983 72.2655H86.9821C86.7474 72.4606 86.4354 72.537 86.1372 72.4716L86.137 72.4718ZM72.2626 74.0594C72.3215 73.7962 72.4834 73.5671 72.7117 73.4244C72.9399 73.2808 73.216 73.2348 73.4783 73.2965L81.6015 75.1519C82.1712 75.2145 82.5817 75.7271 82.5191 76.2959C82.4565 76.8656 81.9438 77.2761 81.3751 77.2135H81.1689L73.0257 75.3783C72.734 75.3268 72.48 75.1528 72.3262 74.9006C72.1716 74.6475 72.1339 74.342 72.2213 74.0594L72.2626 74.0594ZM80.5089 85.2952C79.6843 85.252 78.925 84.8341 78.4473 84.1614C77.7626 85.3136 76.5864 86.0877 75.2565 86.2616C73.9275 86.4356 72.5919 85.9901 71.634 85.0523C70.6749 84.1144 70.2 82.7891 70.3454 81.4564C70.4899 80.1237 71.2382 78.9309 72.3758 78.2205C73.5124 77.5109 74.9123 77.3618 76.174 77.8174C77.4349 78.2721 78.4169 79.2808 78.8385 80.5535C79.3208 80.121 79.9439 79.8789 80.5909 79.8734C81.9972 79.9958 83.0759 81.1729 83.0759 82.5839C83.0759 83.9957 81.9972 85.1718 80.5909 85.2953L80.5089 85.2952ZM83.292 72.9257C83.187 73.3785 82.7876 73.7015 82.3228 73.7089H82.0964L73.85 71.8737C73.5868 71.8148 73.3577 71.6537 73.215 71.4246C73.0714 71.1963 73.0254 70.9202 73.0871 70.6579C73.2196 70.1168 73.758 69.779 74.3029 69.8949L82.426 71.7504C82.8936 71.8682 83.2129 72.2998 83.189 72.7812L83.292 72.9257ZM84.158 69.421C84.0531 69.8738 83.6537 70.1968 83.1889 70.2042H82.9625L74.8193 68.3488H74.8184C74.5552 68.2899 74.3269 68.1279 74.1833 67.8996C74.0407 67.6714 73.9947 67.3953 74.0563 67.1321C74.1143 66.8698 74.2772 66.6424 74.5064 66.5025C74.7356 66.3626 75.0126 66.3221 75.2721 66.3902L83.5185 68.2254C83.9465 68.4261 84.1784 68.8973 84.0753 69.3593L84.158 69.421Z" fill="black"/>
<path id="Vector_13" d="M63.0702 85.893L55.03 87.9546L39.0528 92.2425L38.0422 88.284L54.1226 83.8517L61.7303 81.7901V81.791C62.2153 81.6042 62.4795 81.0796 62.3414 80.5789C62.2024 80.0782 61.7064 79.7644 61.1946 79.8527L53.587 81.9143L36.5173 86.5943C35.9844 86.7443 35.6715 87.2965 35.8169 87.8312L37.3428 93.7269H37.3419C37.4045 93.992 37.5766 94.2175 37.8159 94.3454C37.9668 94.4338 38.1371 94.4835 38.311 94.4899H38.5789L55.5254 89.9544L63.5656 87.8928C64.1353 87.7511 64.4813 87.174 64.3387 86.6043C64.196 86.0355 63.6199 85.6895 63.0502 85.8312L63.0702 85.893Z" fill="black"/>
<path id="Vector_14" d="M98.8581 54.2262C99.0191 54.5962 99.3818 54.8383 99.7858 54.8447C100.215 54.8318 100.584 54.5382 100.692 54.1232C102.568 47.7525 102.403 43.692 100.239 41.7536H100.24C98.559 40.4881 96.3428 40.1835 94.3841 40.9492C94.1338 41.056 93.9341 41.2557 93.8273 41.506C93.7242 41.7573 93.7242 42.0389 93.8273 42.2892L98.8581 54.2262Z" fill="black"/>
<path id="Vector_15" d="M114.444 95.8283C116.514 95.8283 118.426 94.7239 119.461 92.932C120.496 91.14 120.496 88.9313 119.461 87.1393C118.426 85.3464 116.514 84.242 114.444 84.242C113.633 84.242 112.83 84.4177 112.094 84.7574L106.033 72.7798C105.91 72.547 105.699 72.373 105.448 72.2957C105.197 72.2184 104.925 72.2442 104.693 72.3675C104.452 72.4826 104.269 72.6906 104.187 72.9446C104.105 73.1977 104.132 73.4738 104.26 73.7076L110.445 85.8912C109.333 86.9763 108.704 88.4627 108.699 90.0153C108.693 91.5689 109.312 93.059 110.415 94.1515C111.519 95.2449 113.014 95.8486 114.568 95.8284L114.444 95.8283Z" fill="black"/>
<path id="Vector_16" d="M114.443 70.9664C112.226 70.9738 110.029 71.3714 107.949 72.1417L110.506 77.1725V77.1716C111.784 76.7915 113.11 76.5973 114.444 76.5945C118.679 76.5807 122.676 78.5512 125.243 81.9198C127.811 85.2883 128.652 89.6645 127.517 93.7446C126.382 97.8245 123.4 101.137 119.462 102.695C115.524 104.252 111.083 103.875 107.463 101.675C103.845 99.4756 101.465 95.7077 101.034 91.4952C100.603 87.2818 102.171 83.1098 105.269 80.2227L102.631 75.0687C97.8737 78.8356 95.1898 84.6394 95.4024 90.7036C95.615 96.7677 98.6971 102.37 103.706 105.795C108.715 109.22 115.054 110.06 120.782 108.057C126.51 106.054 130.945 101.447 132.728 95.6478C134.512 89.8477 133.431 83.5452 129.819 78.6699C126.206 73.7946 120.491 70.927 114.423 70.9454L114.443 70.9664Z" fill="black"/>
<path id="Vector_17" d="M50.2451 93.5189C49.2115 97.4616 46.4532 100.727 42.7388 102.404C39.0232 104.081 34.7502 103.99 31.1102 102.157C27.4703 100.325 24.8519 96.9454 23.9868 92.9631C23.1216 88.9799 24.1018 84.8199 26.6529 81.6418C29.2051 78.4639 33.0559 76.6084 37.1313 76.5926C41.2066 76.5769 45.0711 78.4039 47.6473 81.5617L53.4197 79.974V79.975C50.1994 74.8061 44.7085 71.4819 38.6361 71.0246C32.5637 70.5681 26.6364 73.0319 22.6782 77.6594C18.7197 82.287 17.204 88.5232 18.5965 94.4521C19.988 100.38 24.1232 105.29 29.7272 107.671C35.3321 110.052 41.737 109.62 46.9701 106.507C52.2042 103.394 55.6408 97.9722 56.2242 91.9109H56.0797L50.2451 93.5189Z" fill="black"/>
</g>
</g>
</svg>
