<svg width="75" height="75" viewBox="0 0 75 75" fill="none" xmlns="http://www.w3.org/2000/svg">
<g id="Group 112">
<g id="Group">
<path id="Vector" d="M54.5965 37.0746V42.602C54.5965 44.7018 54.6019 46.8071 54.5965 48.9068C54.5965 49.0094 54.5911 49.1119 54.5857 49.2145C54.5749 49.4682 54.6505 48.977 54.5803 49.2199C54.5695 49.2685 54.5588 49.317 54.548 49.3602C54.5372 49.4088 54.521 49.452 54.5048 49.5006C54.4994 49.5222 54.4886 49.5492 54.4832 49.5708C54.44 49.6787 54.4508 49.6625 54.5102 49.5168C54.5264 49.5708 54.386 49.7597 54.359 49.8083C54.3267 49.8622 54.2943 49.9108 54.2619 49.9594C54.1323 50.1645 54.4184 49.7921 54.2565 49.9702C54.1755 50.062 54.0945 50.1483 54.0028 50.2293C53.9758 50.2563 53.911 50.2941 53.8948 50.3265C53.992 50.1753 54.0136 50.2401 53.911 50.3103C53.8192 50.3696 53.7275 50.429 53.6303 50.4776C53.6087 50.4884 53.3928 50.5802 53.5601 50.5154C53.7275 50.4506 53.4468 50.5532 53.4144 50.5586C53.3658 50.5748 53.3226 50.5856 53.274 50.5963C53.2524 50.6017 53.2255 50.6071 53.2039 50.6125C53.1067 50.6287 53.1067 50.6287 53.2039 50.6179C53.2255 50.6125 53.2524 50.6125 53.274 50.6071C53.2255 50.6125 53.1769 50.6179 53.1283 50.6179C53.0797 50.6233 53.0311 50.6233 52.9772 50.6233H52.9664C52.6587 50.6287 52.351 50.6233 52.0433 50.6233H46.721H38.7752H30.5488H24.3736H22.8136H22.5383H22.4897C22.4249 50.6233 22.3655 50.6179 22.3062 50.6125C22.128 50.6017 22.3817 50.6071 22.3763 50.6233C22.3655 50.6503 21.9769 50.5154 21.9553 50.51C21.7988 50.4614 22.0039 50.5424 22.0147 50.537C21.9931 50.5478 21.8797 50.4668 21.8527 50.456C21.7556 50.402 21.6692 50.3427 21.5774 50.2833C21.3831 50.1591 21.6854 50.4074 21.599 50.2995C21.5612 50.2563 21.5073 50.2185 21.4641 50.1807C21.4047 50.1213 21.232 49.9972 21.2212 49.9162C21.2482 49.9486 21.2752 49.9864 21.3021 50.0188C21.2752 49.981 21.2482 49.9378 21.2212 49.9C21.1942 49.8622 21.1726 49.8191 21.1456 49.7759C21.1132 49.7219 21.0862 49.6679 21.0592 49.6139C20.9999 49.4898 21.0646 49.4736 21.0646 49.6409C21.0646 49.5492 20.9891 49.4196 20.9675 49.3279C20.9621 49.3063 20.9189 49.1551 20.9297 49.1497C20.9459 49.3009 20.9513 49.3387 20.9459 49.2523C20.9405 49.2145 20.9405 49.1767 20.9351 49.1389C20.9297 49.0526 20.9297 48.9716 20.9297 48.8906V48.0594V44.6316V37.5063V37.0745C20.568 37.4362 20.2118 37.7924 19.8501 38.1541H23.4342H31.9845H42.3436H51.2934C52.74 38.1541 54.1866 38.1865 55.6333 38.1541H55.6927C56.2595 38.1541 56.7993 37.6575 56.7723 37.0745C56.7453 36.4915 56.2973 35.9949 55.6927 35.9949H52.1085H43.5582H33.1991H24.2494C22.8028 35.9949 21.3561 35.9625 19.9094 35.9949H19.8501C19.2671 35.9949 18.7704 36.4915 18.7704 37.0745V42.7099C18.7704 44.7882 18.7596 46.8663 18.7704 48.9445C18.7812 51.0066 20.4545 52.7554 22.5328 52.777C22.8135 52.7824 23.0887 52.777 23.3694 52.777H28.6594H36.7131H45.0638H51.2498H52.7612C53.9649 52.777 55.12 52.3398 55.8865 51.379C56.4533 50.6719 56.7664 49.846 56.7718 48.9338V48.1727V44.7828V37.5225V37.0691C56.7718 36.5023 56.2752 35.9625 55.6922 35.9895C55.093 36.0219 54.5964 36.4699 54.5964 37.0744L54.5965 37.0746Z" fill="white"/>
<path id="Vector_2" d="M54.5939 25.5769V29.4688V35.644V37.0744L55.6735 35.9948H52.0893H43.539H33.18H24.2302C22.7889 35.9948 21.3315 35.9462 19.8902 35.9948H19.8309L20.9105 37.0744V33.663V27.7522V25.8791V25.5768C20.9105 25.2746 20.9267 24.9723 20.9537 24.67C20.9591 24.5836 20.9753 24.4973 20.9807 24.4109C20.9915 24.2867 20.9645 24.5135 20.9645 24.5135C20.9753 24.4649 20.9807 24.4163 20.9861 24.3677C21.0131 24.1842 21.0455 24.006 21.0886 23.8279C21.1642 23.4824 21.256 23.1424 21.3693 22.8077C21.4233 22.6458 21.4827 22.4892 21.5421 22.3327C21.5529 22.3003 21.5691 22.2679 21.5799 22.2301C21.6338 22.0952 21.4935 22.419 21.5529 22.2895C21.5907 22.2031 21.6284 22.1168 21.6716 22.025C21.9577 21.4096 22.314 20.832 22.7188 20.2869C22.8321 20.1358 22.5892 20.4488 22.7458 20.2545C22.7997 20.1897 22.8483 20.125 22.9023 20.0602C23.0157 19.9252 23.1344 19.7903 23.2586 19.6607C23.4961 19.4124 23.7444 19.1749 24.0035 18.9482C24.0683 18.8942 24.1276 18.8402 24.1924 18.7863C24.2302 18.7539 24.268 18.7269 24.3058 18.6945C24.3975 18.6189 24.2248 18.7539 24.2248 18.7539C24.3382 18.6297 24.5217 18.5326 24.6566 18.4408C24.9427 18.2465 25.2342 18.0629 25.5419 17.901C25.6876 17.82 25.8388 17.7445 25.9899 17.6743C26.0655 17.6365 26.1411 17.6041 26.2166 17.5717C26.4488 17.4638 26.0493 17.6365 26.2922 17.5393C26.6161 17.4098 26.9508 17.2964 27.2854 17.1993C27.6146 17.1075 27.9493 17.0319 28.284 16.9726C28.3811 16.9564 28.4783 16.9456 28.5755 16.9294C28.5755 16.9294 28.3487 16.9564 28.4729 16.9456C28.5107 16.9402 28.5485 16.9348 28.5862 16.9348C28.7698 16.9132 28.9587 16.9024 29.1476 16.8916C29.5039 16.8754 29.8656 16.8808 30.2273 16.8808H34.6589H40.7478H45.2227C45.5412 16.8808 45.865 16.8754 46.1835 16.8862C46.3563 16.8916 46.5344 16.9024 46.7071 16.9186C46.7935 16.924 46.8799 16.9348 46.9662 16.9456C47.004 16.951 47.1228 16.9456 46.9716 16.9456C46.7989 16.9456 47.004 16.951 47.0472 16.9564C47.3981 17.0103 47.7435 17.0859 48.089 17.1777C48.4291 17.2694 48.7638 17.3774 49.0876 17.5069C49.1254 17.5231 49.3845 17.6311 49.228 17.5609C49.0714 17.4908 49.3305 17.6095 49.3629 17.6203C49.5249 17.6959 49.6868 17.7768 49.8487 17.8578C50.1564 18.0197 50.4533 18.1979 50.7394 18.3868C50.8689 18.4732 50.9931 18.5595 51.1172 18.6513C51.155 18.6783 51.1928 18.7107 51.2306 18.7377C51.3278 18.8078 51.1496 18.6783 51.155 18.6783C51.2198 18.6945 51.3224 18.8132 51.3763 18.8564C51.6408 19.0777 51.8945 19.3099 52.132 19.5582C52.2454 19.6769 52.3588 19.8011 52.4721 19.9252C52.5477 20.0116 52.796 20.2221 52.8122 20.3355C52.8122 20.3247 52.6556 20.1303 52.7744 20.2869C52.796 20.3139 52.8176 20.3463 52.8392 20.3732C52.8877 20.438 52.9363 20.5082 52.9849 20.5784C53.0875 20.7241 53.1846 20.8752 53.2818 21.0264C53.4653 21.3179 53.6327 21.6256 53.7838 21.9332C53.8216 22.0088 53.854 22.0844 53.8918 22.16C53.9241 22.2301 53.9997 22.473 53.9134 22.1977C53.9673 22.3705 54.0483 22.5324 54.1077 22.7051C54.221 23.0398 54.3182 23.3745 54.3992 23.7199C54.437 23.8873 54.4693 24.0546 54.5017 24.2219C54.5125 24.2921 54.5233 24.3677 54.5395 24.4432C54.5719 24.6376 54.5125 24.2273 54.5449 24.4864C54.5719 24.8481 54.5935 25.2097 54.5935 25.5768C54.5935 26.1436 55.0901 26.6834 55.6731 26.6565C56.2562 26.6295 56.7528 26.1814 56.7528 25.5768C56.742 22.5054 55.3871 19.4988 53.0659 17.48C51.0364 15.7094 48.4616 14.7324 45.7679 14.7324H42.3349H36.2406H30.9884C29.5202 14.7324 28.0736 14.7378 26.6432 15.1535C23.7445 15.9901 21.2182 18.0683 19.8849 20.7835C19.1886 22.1977 18.8 23.7361 18.7567 25.3124C18.746 25.7064 18.7513 26.1005 18.7513 26.4945V32.0544V36.81V37.0745C18.7513 37.6575 19.248 38.1541 19.831 38.1541H23.4152H31.9655H42.3245H51.2743C52.7209 38.1541 54.1675 38.1865 55.6142 38.1541H55.6736C56.2566 38.1541 56.7532 37.6575 56.7532 37.0745V33.1826V27.0074V25.577C56.7532 25.0102 56.2566 24.4704 55.6736 24.4973C55.0906 24.5243 54.594 24.9723 54.594 25.577L54.5939 25.5769Z" fill="white"/>
<path id="Vector_3" d="M28.8096 44.3783C28.8096 44.4539 28.8042 44.5294 28.7988 44.605C28.7934 44.7832 28.7988 44.5349 28.8096 44.5402C28.8312 44.5564 28.734 44.8695 28.7232 44.8965C28.7178 44.9181 28.707 44.9397 28.7016 44.9667C28.6692 45.0531 28.6692 45.0585 28.707 44.9721C28.7178 44.9505 28.7232 44.9289 28.734 44.9073C28.7124 44.9505 28.6962 44.9937 28.6746 45.0369C28.6153 45.1502 28.5289 45.2582 28.4749 45.3715C28.4155 45.5011 28.6476 45.1826 28.4911 45.3499C28.4587 45.3823 28.4263 45.4201 28.3939 45.4525C28.3616 45.4849 28.1834 45.7008 28.1348 45.69C28.1726 45.663 28.205 45.636 28.2428 45.609C28.205 45.636 28.1672 45.663 28.1241 45.69C28.0863 45.717 28.0431 45.7386 28.0053 45.7656C27.9513 45.7926 27.8973 45.8196 27.8488 45.8465C27.6113 45.9761 28.0107 45.8088 27.811 45.8627C27.6922 45.8951 27.5789 45.9275 27.4601 45.9599C27.2982 46.0031 27.5195 45.9653 27.5303 45.9545C27.5141 45.9761 27.3738 45.9653 27.3414 45.9707C27.228 45.9761 27.1146 45.9653 27.0013 45.9653C26.7476 45.9599 27.2388 46.0247 26.9959 45.9653C26.9257 45.9491 26.8555 45.9329 26.7854 45.9167C26.726 45.9005 26.672 45.8789 26.6126 45.8627C26.4669 45.8196 26.8501 45.9869 26.6396 45.8735C26.5317 45.8196 26.4291 45.7656 26.3266 45.7008C26.3104 45.69 26.2078 45.6306 26.2078 45.6198C26.2078 45.636 26.3859 45.7818 26.2348 45.636C26.143 45.5443 26.0513 45.4525 25.9595 45.3607C25.7922 45.1826 26.0782 45.5604 25.9541 45.3553C25.9271 45.3175 25.9001 45.2744 25.8785 45.2366C25.8461 45.188 25.7004 44.9775 25.7112 44.9181C25.7058 44.9505 25.7814 45.1232 25.7436 44.9775C25.722 44.9073 25.7004 44.8371 25.6788 44.767C25.668 44.7184 25.6572 44.6698 25.6464 44.6266C25.5924 44.4161 25.6626 44.8641 25.641 44.5834C25.6356 44.4701 25.6302 44.3567 25.641 44.2434C25.641 44.2164 25.6464 44.1948 25.6464 44.1678C25.6572 44.049 25.6572 44.0706 25.6356 44.2326C25.6302 44.2272 25.668 44.0814 25.6626 44.0868C25.6842 43.9842 25.7652 43.8439 25.7652 43.7413C25.7652 43.9087 25.6896 43.8925 25.7544 43.7683C25.7922 43.6928 25.8299 43.6226 25.8731 43.547C25.9001 43.5092 25.9271 43.4661 25.9487 43.4283C26.0675 43.2339 25.8245 43.547 25.9271 43.4499C26.0135 43.3743 26.0836 43.2717 26.17 43.1962C26.1916 43.18 26.2834 43.0774 26.305 43.0828C26.2996 43.0828 26.116 43.2124 26.2564 43.126C26.3805 43.0504 26.4993 42.9802 26.6288 42.9155C26.8178 42.8183 26.5695 42.9425 26.5695 42.9425C26.5695 42.9263 26.7584 42.8777 26.7746 42.8723C26.8232 42.8615 26.8663 42.8453 26.9149 42.8345C26.9365 42.8291 26.9635 42.8237 26.9851 42.8183C27.1038 42.7967 27.0823 42.8021 26.9149 42.8237C26.9473 42.7805 27.201 42.8075 27.255 42.8075C27.3198 42.8075 27.3791 42.8129 27.4439 42.8183C27.6922 42.8291 27.2118 42.7589 27.4493 42.8183C27.4817 42.8291 27.865 42.8939 27.8704 42.9371C27.8704 42.9371 27.6598 42.8345 27.811 42.9101C27.8865 42.9479 27.9567 42.9856 28.0323 43.0288C28.0809 43.0612 28.1295 43.0936 28.1834 43.126C28.3831 43.2501 28.0161 42.9695 28.1888 43.1314C28.2914 43.2285 28.3939 43.3257 28.4857 43.4283C28.6261 43.5794 28.4425 43.3797 28.4479 43.3743C28.4695 43.3689 28.5667 43.5578 28.5829 43.5794C28.6153 43.628 28.6423 43.682 28.6692 43.7359C28.6854 43.7683 28.7016 43.8007 28.7178 43.8331C28.7502 43.9087 28.7394 43.8763 28.68 43.7413C28.7232 43.7467 28.788 44.1138 28.7988 44.1624C28.8528 44.3729 28.788 44.0922 28.7934 44.0922C28.8258 44.103 28.8096 44.3405 28.8096 44.3783C28.815 44.9451 29.3008 45.4849 29.8892 45.4579C30.4668 45.4309 30.9796 44.9829 30.9689 44.3783C30.9473 42.7751 29.9486 41.3878 28.448 40.8373C27.0445 40.3245 25.3334 40.7833 24.3834 41.9384C23.3686 43.1637 23.1688 44.9289 24.0109 46.3107C24.853 47.6926 26.4616 48.3457 28.0323 48.0381C29.7489 47.698 30.9526 46.0894 30.9742 44.3783C30.9796 43.8115 30.4722 43.2717 29.8946 43.2987C29.2954 43.3256 28.815 43.7737 28.8096 44.3783L28.8096 44.3783Z" fill="white"/>
<path id="Vector_4" d="M49.8877 44.3783C49.8877 44.4539 49.8823 44.5294 49.8769 44.605C49.8715 44.7832 49.8769 44.5349 49.8877 44.5402C49.9093 44.5564 49.8121 44.8695 49.8013 44.8965C49.7959 44.9181 49.7851 44.9397 49.7798 44.9667C49.7474 45.0531 49.7474 45.0585 49.7851 44.9721C49.7959 44.9505 49.8013 44.9289 49.8121 44.9073C49.7905 44.9505 49.7744 44.9937 49.7528 45.0369C49.6934 45.1502 49.607 45.2582 49.553 45.3715C49.4937 45.5011 49.7258 45.1826 49.5692 45.3499C49.5368 45.3823 49.5045 45.4201 49.4721 45.4525C49.4397 45.4849 49.2616 45.7008 49.213 45.69C49.2508 45.663 49.2831 45.636 49.3209 45.609C49.2832 45.636 49.2454 45.663 49.2022 45.69C49.1644 45.717 49.1212 45.7386 49.0834 45.7656C49.0295 45.7926 48.9755 45.8196 48.9269 45.8465C48.6894 45.9761 49.0888 45.8088 48.8891 45.8627C48.7704 45.8951 48.657 45.9275 48.5382 45.9599C48.3763 46.0031 48.5976 45.9653 48.6084 45.9545C48.5922 45.9761 48.4519 45.9653 48.4195 45.9707C48.3061 45.9761 48.1928 45.9653 48.0794 45.9653C47.8257 45.9599 48.3169 46.0247 48.074 45.9653C48.0039 45.9491 47.9337 45.9329 47.8635 45.9167C47.8041 45.9005 47.7502 45.8789 47.6908 45.8627C47.545 45.8196 47.9283 45.9869 47.7178 45.8735C47.6098 45.8196 47.5072 45.7656 47.4047 45.7008C47.3885 45.69 47.2859 45.6306 47.2859 45.6198C47.2859 45.636 47.4641 45.7818 47.3129 45.636C47.2212 45.5443 47.1294 45.4525 47.0376 45.3607C46.8703 45.1826 47.1564 45.5604 47.0322 45.3553C47.0052 45.3175 46.9782 45.2744 46.9567 45.2366C46.9243 45.188 46.7785 44.9775 46.7893 44.9181C46.7839 44.9505 46.8595 45.1232 46.8217 44.9775C46.8001 44.9073 46.7785 44.8371 46.7569 44.767C46.7461 44.7184 46.7353 44.6698 46.7245 44.6266C46.6706 44.4161 46.7407 44.8641 46.7191 44.5834C46.7137 44.4701 46.7083 44.3567 46.7191 44.2434C46.7191 44.2164 46.7245 44.1948 46.7245 44.1678C46.7353 44.049 46.7353 44.0706 46.7137 44.2326C46.7083 44.2272 46.7461 44.0814 46.7407 44.0868C46.7623 43.9842 46.8433 43.8439 46.8433 43.7413C46.8433 43.9087 46.7677 43.8925 46.8325 43.7683C46.8703 43.6928 46.9081 43.6226 46.9513 43.547C46.9782 43.5092 47.0052 43.4661 47.0268 43.4283C47.1456 43.2339 46.9027 43.547 47.0052 43.4499C47.0916 43.3743 47.1618 43.2717 47.2481 43.1962C47.2697 43.18 47.3615 43.0774 47.3831 43.0828C47.3777 43.0828 47.1942 43.2124 47.3345 43.126C47.4587 43.0504 47.5774 42.9802 47.707 42.9155C47.8959 42.8183 47.6476 42.9425 47.6476 42.9425C47.6476 42.9263 47.8365 42.8777 47.8527 42.8723C47.9013 42.8615 47.9445 42.8453 47.993 42.8345C48.0146 42.8291 48.0416 42.8237 48.0632 42.8183C48.182 42.7967 48.1604 42.8021 47.993 42.8237C48.0254 42.7805 48.2791 42.8075 48.3331 42.8075C48.3979 42.8075 48.4573 42.8129 48.522 42.8183C48.7703 42.8291 48.2899 42.7589 48.5274 42.8183C48.5598 42.8291 48.9431 42.8939 48.9485 42.9371C48.9485 42.9371 48.738 42.8345 48.8891 42.9101C48.9647 42.9479 49.0348 42.9856 49.1104 43.0288C49.159 43.0612 49.2076 43.0936 49.2616 43.126C49.4613 43.2501 49.0942 42.9695 49.267 43.1314C49.3695 43.2285 49.4721 43.3257 49.5638 43.4283C49.7042 43.5794 49.5207 43.3797 49.5261 43.3743C49.5476 43.3689 49.6448 43.5578 49.661 43.5794C49.6934 43.628 49.7204 43.682 49.7474 43.7359C49.7636 43.7683 49.7798 43.8007 49.7959 43.8331C49.8283 43.9087 49.8175 43.8763 49.7582 43.7413C49.8013 43.7467 49.8661 44.1138 49.8769 44.1624C49.9309 44.3729 49.8661 44.0922 49.8715 44.0922C49.9039 44.103 49.8877 44.3405 49.8877 44.3783C49.8931 44.9451 50.3789 45.4849 50.9673 45.4579C51.5449 45.4309 52.0577 44.9829 52.047 44.3783C52.0254 42.7751 51.0268 41.3878 49.5262 40.8373C48.1227 40.3245 46.4115 40.7833 45.4615 41.9384C44.4467 43.1637 44.2469 44.9289 45.089 46.3107C45.9311 47.6926 47.5397 48.3457 49.1105 48.0381C50.827 47.698 52.0308 46.0894 52.0524 44.3783C52.0578 43.8115 51.5504 43.2717 50.9727 43.2987C50.3736 43.3256 49.8985 43.7737 49.8878 44.3783L49.8877 44.3783Z" fill="white"/>
<path id="Vector_5" d="M28.2884 51.7032V54.2996V55.6977C28.2884 55.811 28.2884 55.9244 28.283 56.0378C28.283 56.0755 28.2614 56.1511 28.2722 56.1889C28.2668 56.1619 28.3208 55.9352 28.2776 56.1187C28.256 56.2159 28.2398 56.3077 28.2074 56.3994C28.1912 56.448 28.175 56.4912 28.1642 56.5344C28.1048 56.7395 28.1912 56.4696 28.1966 56.475C28.2182 56.529 28.0617 56.7395 28.0347 56.7935C28.0185 56.8259 27.9105 57.031 27.8781 57.031C27.8727 57.031 28.0563 56.8259 27.9159 56.977C27.8835 57.0094 27.8511 57.0472 27.8188 57.085C27.754 57.1551 27.6838 57.2199 27.6136 57.2847C27.6082 57.2901 27.5219 57.3764 27.5057 57.3764C27.619 57.2901 27.646 57.2685 27.5812 57.3117C27.5543 57.3333 27.5219 57.3549 27.4949 57.371C27.4139 57.425 27.3329 57.4682 27.2466 57.5168C27.2304 57.5276 27.1224 57.5816 27.117 57.5816C27.1116 57.5762 27.3761 57.4898 27.1764 57.5546C27.0846 57.587 26.9929 57.6194 26.9011 57.6409C26.8525 57.6517 26.8039 57.6625 26.7608 57.6733C26.723 57.6787 26.6906 57.6895 26.6528 57.6949C26.5718 57.7111 26.6042 57.7057 26.7554 57.6841C26.7176 57.7705 26.2372 57.6625 26.1562 57.6841C26.1832 57.6787 26.4153 57.7327 26.2264 57.6895C26.1778 57.6787 26.1292 57.6733 26.0806 57.6571C25.9619 57.6302 25.8485 57.5924 25.7352 57.5546C25.5786 57.5006 25.7891 57.587 25.7945 57.5816C25.7891 57.587 25.6596 57.5168 25.665 57.5168C25.5786 57.4736 25.4976 57.425 25.4167 57.371C25.4005 57.3602 25.2979 57.2955 25.2979 57.2901C25.2979 57.2847 25.503 57.4682 25.3465 57.3279C25.2601 57.2469 25.1684 57.1713 25.0874 57.085C25.055 57.0526 25.0226 57.0148 24.9902 56.977C24.8769 56.8582 25.0172 57.0256 25.028 57.031C24.9902 57.0256 24.8931 56.8313 24.8715 56.7935C24.8229 56.7125 24.7797 56.6261 24.7365 56.5398C24.661 56.3886 24.7635 56.5991 24.7635 56.5991C24.7473 56.5991 24.7096 56.4426 24.7042 56.4264C24.6718 56.3239 24.6502 56.2159 24.6232 56.1079C24.5854 55.9406 24.6232 56.1727 24.6286 56.1781C24.6232 56.1727 24.6178 56.0216 24.6178 56.027C24.6124 55.9622 24.6124 55.9028 24.6124 55.838V54.7207V51.6979C24.2507 52.0595 23.8945 52.4158 23.5328 52.7775H28.6284H29.3625C29.9293 52.7775 30.4691 52.2809 30.4421 51.6979C30.4152 51.1148 29.9671 50.6182 29.3625 50.6182H24.2669H23.5328C22.9498 50.6182 22.4531 51.1148 22.4531 51.6979V54.548V55.8219C22.4585 56.6585 22.696 57.4952 23.2034 58.1699C23.916 59.1254 24.9308 59.6976 26.113 59.8271C27.2141 59.9458 28.3153 59.5248 29.1358 58.8015C29.9455 58.0889 30.4097 57.0201 30.4421 55.9514C30.4529 55.6275 30.4421 55.3036 30.4421 54.9797V51.6978C30.4421 51.131 29.9454 50.5912 29.3624 50.6182C28.7848 50.6505 28.2882 51.0986 28.2882 51.7031L28.2884 51.7032Z" fill="white"/>
<path id="Vector_6" d="M51.4827 51.7017V54.2981V55.6962C51.4827 55.8096 51.4827 55.9229 51.4773 56.0363C51.4773 56.0795 51.4611 56.1442 51.4665 56.1874C51.4611 56.155 51.5151 55.9391 51.4719 56.1172C51.4503 56.2144 51.4288 56.3062 51.4018 56.3979C51.3856 56.4465 51.3694 56.4897 51.3532 56.5329C51.2938 56.7164 51.3586 56.4897 51.3802 56.4735C51.31 56.5329 51.256 56.711 51.2074 56.792C51.1804 56.8352 51.1535 56.873 51.1265 56.9107C51.0455 57.0349 51.1643 56.9161 51.1643 56.8676C51.1643 56.9215 51.0077 57.0457 50.9699 57.0835C50.8998 57.1536 50.8296 57.213 50.754 57.2832C50.6137 57.4127 50.7756 57.2562 50.8026 57.2508C50.7594 57.2562 50.6568 57.348 50.6191 57.375C50.5381 57.4289 50.4517 57.4721 50.3654 57.5207C50.3276 57.5369 50.2628 57.5585 50.2304 57.5855C50.252 57.5639 50.4625 57.5045 50.2844 57.5585C50.1926 57.5855 50.0955 57.6233 50.0037 57.6449C49.9551 57.6556 49.9065 57.6664 49.8579 57.6772C49.8202 57.6826 49.7824 57.6934 49.75 57.6988C49.669 57.715 49.7014 57.7096 49.8525 57.688C49.7986 57.7852 49.3451 57.661 49.2534 57.688C49.2804 57.6826 49.5125 57.7366 49.3181 57.6934C49.2696 57.6826 49.221 57.6772 49.1724 57.661C49.0537 57.6341 48.9349 57.5963 48.8161 57.5585C48.6866 57.5153 48.7891 57.5963 48.8701 57.5855C48.8485 57.5855 48.746 57.5261 48.7352 57.5207C48.6488 57.4775 48.5624 57.4289 48.4815 57.3749C48.4383 57.348 48.4005 57.321 48.3573 57.294C48.2548 57.2292 48.2925 57.3048 48.4005 57.3318C48.3195 57.3102 48.19 57.1482 48.1306 57.0889C48.0766 57.0295 48.0064 56.9107 47.9363 56.8729C47.9579 56.8891 48.0766 57.0781 47.9741 56.9161C47.9471 56.8729 47.9201 56.8352 47.8931 56.7974C47.8391 56.7164 47.7959 56.63 47.7527 56.5437C47.688 56.4195 47.715 56.5599 47.7743 56.6031C47.7419 56.5761 47.7257 56.4681 47.7096 56.4303C47.6772 56.3278 47.6502 56.2198 47.6232 56.1118C47.5854 55.9499 47.6178 56.1712 47.6286 56.182C47.6178 56.1766 47.6178 56.0309 47.6178 56.0309C47.6124 55.9661 47.6124 55.9067 47.6124 55.8419V54.7246V51.7018L46.5328 52.7814H51.8066H52.5569C53.1237 52.7814 53.6635 52.2848 53.6365 51.7018C53.6096 51.1187 53.1615 50.6221 52.5569 50.6221H47.2831H46.5328C45.9498 50.6221 45.4531 51.1187 45.4531 51.7018V54.5519V55.8258C45.4585 56.765 45.7824 57.6071 46.3654 58.3358C47.0617 59.2103 48.1143 59.7123 49.21 59.831C50.3274 59.9498 51.4286 59.5179 52.276 58.8054C53.1073 58.1036 53.6039 57.0348 53.6363 55.9553C53.6471 55.6314 53.6363 55.3075 53.6363 54.9836V51.7017C53.6363 51.1349 53.1397 50.5951 52.5566 50.6221C51.9791 50.6491 51.4824 51.0971 51.4824 51.7017L51.4827 51.7017Z" fill="white"/>
<path id="Vector_7" d="M55.1375 21.366H51.6666H43.3862H33.3193H24.661C23.2522 21.366 21.8379 21.3336 20.429 21.366H20.3697C19.8029 21.366 19.2631 21.8626 19.29 22.4456C19.317 23.0286 19.765 23.5252 20.3697 23.5252H23.8405H32.121H42.1879H50.8461C52.255 23.5252 53.6693 23.5576 55.0781 23.5252H55.1375C55.7043 23.5252 56.2441 23.0286 56.2171 22.4456C56.1902 21.8626 55.7421 21.366 55.1375 21.366Z" fill="white"/>
<path id="Vector_8" d="M36.6891 35.9952H32.8566H26.7515H25.3589L26.4385 37.0748C26.4709 36.8103 26.3953 37.3231 26.4439 37.064C26.4547 37.0155 26.4601 36.9669 26.4709 36.9183C26.4979 36.7833 26.5249 36.6538 26.5626 36.5188C26.595 36.4001 26.6274 36.2813 26.6706 36.168C26.6922 36.1086 26.7084 36.0546 26.73 35.9952C26.7462 35.9521 26.7624 35.9035 26.784 35.8603C26.7678 35.9035 26.7516 35.9413 26.73 35.9845C26.73 35.8927 26.8433 35.7415 26.8865 35.6552C26.9459 35.5364 27.0107 35.4231 27.0808 35.3097C27.1402 35.2071 27.2104 35.1046 27.2752 35.0074C27.2968 34.975 27.3454 34.8725 27.3777 34.8617C27.2806 34.9858 27.2698 35.002 27.34 34.9103C27.3562 34.8941 27.3723 34.8725 27.3831 34.8563C27.5397 34.662 27.7124 34.4784 27.8959 34.3111C27.9823 34.2301 28.0741 34.1546 28.1658 34.0736C28.1766 34.0682 28.182 34.0574 28.1928 34.052C28.2846 33.9818 28.2684 33.9926 28.1442 34.0898C28.1658 34.0466 28.2738 33.998 28.317 33.9656C28.5221 33.8199 28.738 33.6957 28.9647 33.577C29.0187 33.55 29.0727 33.523 29.1267 33.496C29.1483 33.4852 29.3534 33.3719 29.1968 33.4636C29.0403 33.55 29.2454 33.4474 29.267 33.4366C29.3372 33.4097 29.402 33.3881 29.4721 33.3611C29.715 33.2801 29.9687 33.2153 30.217 33.1614C30.2764 33.1506 30.3412 33.1398 30.4006 33.129C30.6489 33.0858 30.2116 33.1452 30.3736 33.1344C30.5139 33.1236 30.6489 33.1074 30.7892 33.102C31.0591 33.0912 31.3236 33.102 31.5881 33.1236C31.7177 33.1344 31.7447 33.0696 31.5611 33.1182C31.6097 33.1074 31.6961 33.1398 31.7447 33.1506C31.8796 33.1722 32.0092 33.2045 32.1441 33.2369C32.3924 33.3017 32.6353 33.3827 32.8728 33.4744C33.0186 33.5284 32.6299 33.3557 32.8458 33.4636C32.8998 33.4906 32.9538 33.5122 33.0078 33.5392C33.1373 33.604 33.2615 33.6742 33.3856 33.7443C33.4882 33.8037 33.5907 33.8685 33.6879 33.9387C33.7365 33.971 33.7851 34.0088 33.8337 34.0412C34.028 34.1762 33.6987 33.9225 33.8121 34.025C34.0064 34.2032 34.2061 34.3651 34.3896 34.554C34.4814 34.6512 34.5678 34.7484 34.6487 34.8509C34.6649 34.8671 34.6811 34.8887 34.6919 34.9049C34.7621 34.9966 34.7513 34.9805 34.6541 34.8563C34.6811 34.8617 34.7621 35.0074 34.7783 35.029C34.9402 35.2665 35.086 35.5149 35.2101 35.774C35.2371 35.8279 35.2587 35.8819 35.2857 35.9359C35.3181 36.0115 35.3073 35.9791 35.2479 35.8441C35.2641 35.8873 35.2857 35.9359 35.3019 35.9791C35.3559 36.114 35.3991 36.2544 35.4422 36.3947C35.4854 36.535 35.5178 36.6808 35.5502 36.8265C35.561 36.8751 35.5718 36.9237 35.5772 36.9723C35.588 37.0209 35.5934 37.0694 35.6042 37.118C35.5826 36.9561 35.5826 36.9345 35.5934 37.0533C35.6582 37.6146 36.0414 38.1598 36.673 38.1329C37.202 38.1113 37.8227 37.6525 37.7527 37.0533C37.5907 35.6714 37.0941 34.4461 36.2197 33.3611C35.4262 32.3733 34.3196 31.6607 33.1321 31.2559C30.6869 30.4301 27.8368 31.1534 26.077 33.0373C25.0298 34.1546 24.4414 35.5419 24.2633 37.0534C24.1931 37.6363 24.8139 38.133 25.3429 38.133H29.1754H35.2805H36.6731C37.2399 38.133 37.7797 37.6364 37.7528 37.0534C37.742 36.492 37.2939 35.9953 36.6894 35.9953L36.6891 35.9952Z" fill="white"/>
</g>
</g>
</svg>
