<svg width="56" height="56" viewBox="0 0 56 56" fill="none" xmlns="http://www.w3.org/2000/svg">
<g id="Group 104">
<g id="Group">
<path id="Vector" d="M39.6836 31.4386H17.114C14.4995 31.4386 13.0469 29.986 13.0469 27.3715V19.364C13.0469 16.7495 14.4995 15.2969 17.114 15.2969H39.6836C42.298 15.2969 43.7507 16.7314 43.7871 19.3459V27.3711C43.7506 30.004 42.298 31.4386 39.6836 31.4386ZM17.114 16.8763C15.3709 16.8763 14.6265 17.6207 14.6265 19.3638V27.3711C14.6265 29.1141 15.3709 29.8585 17.114 29.8585H39.6836C41.4266 29.8585 42.171 29.1141 42.2073 27.3529V19.3638C42.1892 17.6207 41.4267 16.8763 39.6836 16.8763H17.114Z" fill="black"/>
<path id="Vector_2" d="M39.6835 50.1771H17.114C14.4995 50.1771 13.0469 48.7246 13.0469 46.11V28.4974C13.0469 28.0615 13.3919 27.7168 13.8275 27.7168C14.2633 27.7168 14.6081 28.0619 14.6081 28.4974V46.11C14.6081 47.8531 15.3525 48.5975 17.0955 48.5975H39.6651C41.4082 48.5975 42.1526 47.8531 42.1888 46.0919V28.4983C42.1888 28.0625 42.5339 27.7177 42.9878 27.7177C43.4418 27.7177 43.7868 28.0628 43.7868 28.4983V46.111C43.7507 48.7251 42.298 50.1777 39.6836 50.1777L39.6835 50.1771Z" fill="black"/>
<path id="Vector_3" d="M20.6567 16.6048C20.2754 16.6048 19.9304 16.3324 19.8761 15.9331C19.8034 15.461 19.7853 14.989 19.8034 14.5712C19.7669 12.2834 20.6202 10.2317 22.3271 8.52481C24.034 6.81788 26.1037 5.98274 28.4278 6.0011C30.7337 5.96492 32.8037 6.81821 34.5103 8.52481C36.1991 10.1952 37.0343 12.2472 37.0343 14.6258V15.2067C37.0343 15.2794 37.0162 15.3702 36.9981 15.4429C36.9435 15.8422 36.5988 16.2054 36.1991 16.1511C35.7633 16.1511 35.4185 15.8061 35.4185 15.3886C35.4185 15.334 35.4185 15.2251 35.4547 15.0982V14.6258C35.4547 12.6649 34.783 11.0307 33.4031 9.65085C32.0231 8.27088 30.4254 7.59918 28.537 7.59918H28.3192C26.4126 7.59918 24.8149 8.27089 23.435 9.65085C22.0189 11.067 21.3468 12.6831 21.3833 14.6258C21.3652 15.007 21.3833 15.334 21.4379 15.6972C21.5106 16.133 21.2017 16.5324 20.7843 16.6051C20.7291 16.5867 20.6929 16.6048 20.6567 16.6048H20.6567Z" fill="black"/>
<path id="Vector_4" d="M26.0117 31.2578V34.9436C26.0298 36.0874 26.6111 36.6686 27.7548 36.6686H29.0985C30.2423 36.6686 30.8235 36.0877 30.8235 34.9436V31.2578" fill="black"/>
<path id="Vector_5" d="M42.9897 42.2241C42.5903 42.2241 42.2453 41.9336 42.2091 41.5158C42.1545 41.08 42.4815 40.6987 42.9173 40.6445C43.8614 40.5356 44.7331 39.6823 45.4956 38.0843C46.4216 36.1234 46.8936 33.7629 46.8936 31.0211C46.8936 28.3159 46.4216 25.9735 45.4956 24.0669C44.715 22.3965 43.8433 21.5067 42.9173 21.3978C42.4815 21.3432 42.1729 20.9619 42.2272 20.5264C42.2818 20.0906 42.663 19.782 43.0985 19.8363C44.6238 19.9998 45.913 21.1981 46.9298 23.3951C47.9647 25.5014 48.4913 28.0797 48.4913 31.0392C48.4913 33.9987 47.9646 36.6135 46.9298 38.774C45.913 40.8984 44.6238 42.0605 43.0985 42.224H42.9897L42.9897 42.2241Z" fill="black"/>
<path id="Vector_6" d="M13.4835 42.2238H13.3927C11.8674 42.0603 10.5783 40.862 9.56152 38.665C8.52663 36.5587 8 33.9804 8 31.0209C8 28.0614 8.52664 25.4466 9.56152 23.286C10.5783 21.1617 11.8674 19.9996 13.3927 19.836C13.8105 19.7814 14.2098 20.1084 14.2641 20.5262C14.3187 20.962 13.9917 21.3433 13.574 21.3975C12.6299 21.5064 11.7582 22.3597 10.9957 23.9577C10.0697 25.9186 9.59768 28.2791 9.59768 31.0209C9.59768 33.7262 10.0697 36.0686 10.9957 37.9751C11.7763 39.6455 12.648 40.5353 13.574 40.6443C14.0098 40.6989 14.3184 41.0801 14.2641 41.5156C14.2098 41.9153 13.8651 42.2238 13.4835 42.2238L13.4835 42.2238Z" fill="black"/>
</g>
</g>
</svg>
