<svg width="56" height="56" viewBox="0 0 56 56" fill="none" xmlns="http://www.w3.org/2000/svg">
<g id="Group 104">
<g id="Group">
<path id="Vector" d="M51.8034 39.0061C51.8048 38.9905 51.8078 38.9762 51.8078 38.9596C51.8085 38.946 51.8123 38.9341 51.8123 38.9198C51.8123 38.8004 51.7891 38.6872 51.7545 38.5801C51.7494 38.5644 51.7446 38.5478 51.7388 38.5321C51.6916 38.4053 51.6232 38.2914 51.5365 38.19C51.5297 38.1826 51.5283 38.1734 51.5215 38.1659C51.5171 38.1615 51.511 38.1598 51.5066 38.1547C51.4137 38.055 51.3032 37.9738 51.1788 37.9139C51.1682 37.9088 51.1601 37.902 51.1495 37.8983C51.0319 37.8449 50.9027 37.8143 50.767 37.8038C50.7527 37.8031 50.7408 37.8 50.7272 37.8C50.7129 37.7993 50.7003 37.7956 50.685 37.7956H49.7169C49.1732 27.702 41.362 19.4444 31.2673 17.8348C31.5982 17.2618 31.8029 16.6062 31.8029 15.8982C31.8029 13.7489 30.054 12 27.9046 12C25.7553 12 24.0064 13.7489 24.0064 15.8982C24.0064 16.58 24.1975 17.2115 24.5066 17.7695C14.2041 19.2078 6.17713 27.5575 5.62609 37.7947H5.12657C5.11229 37.7947 5.0997 37.7985 5.08542 37.7991C5.07046 37.7991 5.05686 37.8022 5.04258 37.8036C4.90758 37.8134 4.77939 37.844 4.66241 37.8974C4.65187 37.9018 4.64302 37.9086 4.63316 37.9131C4.50871 37.9739 4.39853 38.0549 4.30468 38.1552C4.30094 38.1589 4.29584 38.1603 4.29108 38.165C4.28496 38.1718 4.2836 38.1807 4.27748 38.1875C4.18975 38.2888 4.12072 38.4034 4.07345 38.5316C4.06733 38.5472 4.06359 38.5622 4.05849 38.5789C4.02414 38.6877 4 38.8002 4 38.9192C4 38.9328 4.00374 38.9454 4.00374 38.959C4.00374 38.9747 4.0068 38.9896 4.00816 39.0063C4.0187 39.1399 4.04863 39.2664 4.10099 39.3827C4.10609 39.3939 4.11289 39.4038 4.11901 39.415C4.17988 39.5381 4.26013 39.6483 4.35908 39.7405C4.3635 39.7449 4.3652 39.751 4.36963 39.7554L9.76505 44.6303C9.77254 44.6378 9.78308 44.6391 9.79124 44.6459C9.88577 44.7262 9.9922 44.7935 10.1099 44.8401C10.1235 44.8452 10.1367 44.8482 10.1503 44.8527C10.2666 44.8938 10.3887 44.92 10.5186 44.92H45.2894C45.4193 44.92 45.5421 44.8938 45.6584 44.8527C45.672 44.8482 45.6852 44.8452 45.6995 44.8401C45.8165 44.7935 45.9229 44.7275 46.0175 44.6459C46.0256 44.6391 46.0355 44.6371 46.0436 44.6303L51.4391 39.7554C51.4435 39.751 51.4452 39.7449 51.4503 39.7405C51.5492 39.6483 51.6295 39.5381 51.6897 39.415C51.6958 39.4038 51.7033 39.3939 51.7077 39.3827C51.7642 39.2664 51.7941 39.1389 51.8039 39.006L51.8034 39.0061ZM44.8587 42.6698H10.9541L8.04874 40.045H47.7632L44.8587 42.6698ZM27.9073 14.2493C28.8162 14.2493 29.5559 14.9889 29.5559 15.8979C29.5559 16.8069 28.8163 17.5465 27.9073 17.5465C26.9983 17.5465 26.2587 16.8069 26.2587 15.8979C26.2587 14.9889 26.9983 14.2493 27.9073 14.2493ZM27.6733 19.7965C38.2152 19.7965 46.8577 27.7725 47.4635 37.7952L7.88139 37.7948C8.48803 27.7726 17.1306 19.7961 27.6725 19.7961L27.6733 19.7965Z" fill="black"/>
<path id="Vector_2" d="M15.7143 26.2027C13.4479 28.1175 11.6912 30.5624 10.6354 33.2749C10.4103 33.853 10.6969 34.5062 11.276 34.7307C11.4103 34.783 11.5484 34.8078 11.6841 34.8078C12.135 34.8078 12.5594 34.5365 12.7324 34.091C13.6526 31.7287 15.1855 29.5956 17.1663 27.9216C17.641 27.5204 17.7012 26.811 17.2999 26.336C16.8983 25.8623 16.189 25.8021 15.7143 26.2027L15.7143 26.2027Z" fill="black"/>
</g>
</g>
</svg>
