<svg width="56" height="56" viewBox="0 0 56 56" fill="none" xmlns="http://www.w3.org/2000/svg">
<g id="Group 104">
<g id="Group">
<path id="Vector" d="M43.533 14.0858V10.2978C43.533 10.0129 43.42 9.7398 43.2185 9.53797C43.0167 9.3365 42.7436 9.22353 42.4587 9.22353H41.3841V8.1489H43.533C44.1266 8.1489 44.6076 7.66788 44.6076 7.07427C44.6076 6.48101 44.1266 6.00001 43.533 6.00001H37.0859C36.4927 6.00001 36.0117 6.48102 36.0117 7.07427C36.0117 7.66788 36.4927 8.1489 37.0859 8.1489H39.2348L39.2352 9.22353H38.1605C37.5673 9.22353 37.0859 9.70454 37.0859 10.2978V14.0858C35.2029 14.7528 33.5725 15.9861 32.4183 17.6162C31.2638 19.2466 30.6425 21.1945 30.6389 23.1919V26.4154H26.3411V23.1919C26.3375 21.1944 25.7162 19.2466 24.5617 17.6162C23.4076 15.9861 21.7772 14.7528 19.8941 14.0858V10.2978C19.8941 10.0128 19.7807 9.73979 19.5793 9.53796C19.3778 9.33649 19.1044 9.22352 18.8194 9.22352H17.7448V8.14889H19.8941C20.4873 8.14889 20.9683 7.66788 20.9683 7.07426C20.9683 6.481 20.4873 6 19.8941 6H13.447C12.8534 6 12.3724 6.48101 12.3724 7.07426C12.3724 7.66788 12.8534 8.14889 13.447 8.14889H15.5959V9.22352H14.5213C13.928 9.22352 13.447 9.70453 13.447 10.2978V14.0858C11.564 14.7528 9.93359 15.9861 8.77901 17.6162C7.6249 19.2466 7.00322 21.1945 7 23.1918V40.3843C7 43.8391 8.84311 47.0317 11.8353 48.7593C14.8271 50.4866 18.5137 50.4866 21.5058 48.7593C24.4976 47.0317 26.3411 43.8391 26.3411 40.3843V37.1607H30.6393V40.3843H30.6389C30.6389 43.8391 32.4824 47.0317 35.4742 48.7593C38.4663 50.4866 42.1529 50.4866 45.1447 48.7593C48.1369 47.0317 49.98 43.8391 49.98 40.3843V23.1918C49.9768 21.1944 49.3551 19.2466 48.201 17.6162C47.0465 15.9861 45.416 14.7528 43.533 14.0858L43.533 14.0858ZM32.7885 36.0858V24.2666H47.8313V39.3094H32.7885V36.0858ZM39.2356 13.5212V11.3723H41.3845V13.5212H39.2356ZM40.3102 15.6701L40.3098 15.6705C42.1169 15.6737 43.8621 16.3267 45.2275 17.5104C46.5925 18.694 47.4865 20.3291 47.7456 22.1175H32.875C33.1341 20.3291 34.0281 18.6939 35.393 17.5104C36.7583 16.3267 38.5036 15.6738 40.3104 15.6705L40.3102 15.6701ZM9.14891 24.2664H24.1917V39.3092H9.14891V24.2664ZM15.5959 13.521V11.3721H17.7448V13.521H15.5959ZM16.6706 15.6699V15.6703C18.4773 15.6735 20.2225 16.3265 21.5879 17.5102C22.9528 18.6939 23.8469 20.3289 24.1059 22.1173H9.23539C9.49442 20.3289 10.3885 18.6938 11.7534 17.5102C13.1187 16.3265 14.8639 15.6736 16.6711 15.6703L16.6706 15.6699ZM16.6706 47.9051V47.9055C14.8635 47.9022 13.1183 47.2489 11.7529 46.0653C10.3879 44.8816 9.49392 43.2466 9.23484 41.4584H24.1054C23.8464 43.2465 22.9523 44.8816 21.5874 46.0653C20.2221 47.249 18.4768 47.9022 16.67 47.9055L16.6706 47.9051ZM26.3411 35.011V28.5644H30.6393V35.0114L26.3411 35.011ZM40.3091 47.9051C38.5024 47.9019 36.7571 47.2485 35.3918 46.0649C34.0268 44.8813 33.1328 43.2462 32.8737 41.4581H47.7443C47.4852 43.2461 46.5912 44.8813 45.2262 46.0649C43.8609 47.2486 42.1157 47.9019 40.3085 47.9051H40.3091Z" fill="black"/>
</g>
</g>
</svg>
