<svg width="56" height="56" viewBox="0 0 56 56" fill="none" xmlns="http://www.w3.org/2000/svg">
<g id="Group 104">
<g id="Group">
<path id="Vector" d="M16.7767 38.2095H16.7791C18.8393 38.2095 20.7772 37.4044 22.2361 35.9435C23.0154 35.1646 23.6016 34.2442 23.9845 33.2453L31.1906 33.2443C32.3047 36.143 35.1099 38.2095 38.3956 38.2095H38.3969C40.456 38.2095 42.3951 37.4044 43.8532 35.9435C45.3135 34.4822 46.1183 32.5449 46.1169 30.4841C46.1146 26.2286 42.6508 22.7655 38.3946 22.7655C37.1498 22.7655 35.9522 23.0629 34.8753 23.6177C34.4255 22.9299 33.8887 22.2748 33.2473 21.6872C32.8719 21.3425 32.3071 21.3189 31.9037 21.6283C31.8611 21.661 27.6089 24.8274 23.5532 21.9314L21.4123 18.6212C22.8306 20.3498 24.9834 21.457 27.3894 21.457H27.3914C29.4528 21.457 31.3929 20.6509 32.8529 19.1896C34.3144 17.7273 35.1193 15.7882 35.1189 13.7254C35.1159 9.46505 31.6491 6 27.3901 6C25.328 6 23.3872 6.80481 21.926 8.26606C20.4644 9.72835 19.6606 11.6697 19.6609 13.7313C19.6613 14.9798 19.9665 16.1566 20.4954 17.2008L17.918 13.2153C17.131 11.9985 15.4992 11.648 14.2807 12.4364C13.0633 13.2235 12.7127 14.856 13.5005 16.0727L17.8853 22.8538C17.5225 22.801 17.1545 22.7655 16.7767 22.7655C14.7166 22.7655 12.7775 23.5703 11.3173 25.0299C9.85812 26.4899 9.05469 28.4302 9.05469 30.4907C9.05639 34.7469 12.5208 38.2096 16.777 38.2096L16.7767 38.2095ZM23.4048 9.746C24.4705 8.67927 25.8854 8.09173 27.3896 8.09173C30.496 8.09173 33.0246 10.6197 33.027 13.726C33.0273 15.2293 32.4398 16.6448 31.3731 17.7115C30.3088 18.7772 28.8949 19.3648 27.39 19.3648C24.2826 19.3648 21.7539 16.8368 21.7533 13.7305C21.752 12.2273 22.3392 10.8117 23.4049 9.746H23.4048ZM34.4056 26.4999C35.473 25.4331 36.8902 24.8456 38.3955 24.8439C41.5052 24.8439 44.0376 27.3752 44.0387 30.486C44.0397 31.99 43.4514 33.4054 42.3834 34.4752C41.3177 35.542 39.9014 36.1302 38.3969 36.1302H38.3955C35.2847 36.1302 32.7523 33.5999 32.7513 30.4901C32.7513 28.9852 33.3389 27.5676 34.4056 26.4999H34.4056ZM14.927 15.1499C14.792 14.9422 14.747 14.6933 14.7988 14.4498C14.8516 14.2053 14.9949 13.9966 15.2032 13.8622C15.6241 13.5908 16.2229 13.7227 16.492 14.1385L21.5305 21.9304L22.8264 23.9342L22.9086 24.0143C23.266 24.234 23.634 24.4249 24.0009 24.5835C24.3027 24.7131 24.6202 24.828 24.9455 24.9232C28.1644 25.8647 31.1074 24.5317 32.3903 23.7947C32.6777 24.1204 32.9314 24.4675 33.1603 24.8273C33.0866 24.8969 33.0089 24.9582 32.9372 25.0302C31.478 26.4901 30.6735 28.4305 30.6735 30.4909C30.6739 30.7153 30.6885 30.9332 30.7076 31.1518L24.4676 31.1542C24.4861 30.9322 24.5004 30.7092 24.5004 30.4841C24.499 27.5596 22.8611 25.008 20.4559 23.7002L20.3454 23.528L14.927 15.1499ZM12.7881 26.4999C13.8545 25.4331 15.2718 24.8456 16.7764 24.8439C19.8872 24.8439 22.4186 27.3752 22.4206 30.486C22.4206 31.99 21.8333 33.4054 20.7653 34.4752C19.6985 35.542 18.2826 36.1302 16.7784 36.1302H16.776C13.6656 36.1302 11.1342 33.5999 11.1328 30.4901C11.1331 28.9852 11.7207 27.5676 12.7881 26.4999H12.7881Z" fill="black"/>
<path id="Vector_2" d="M21.2971 38.3908C21.1122 38.5317 16.7127 41.7945 12.5478 38.4017C12.1563 38.0819 11.5919 38.0914 11.2103 38.4232C11.0422 38.5709 7.09831 42.0738 7.0001 48.9456C6.99634 49.2228 7.10376 49.4922 7.29985 49.6907C7.49389 49.8888 7.7609 49.9997 8.03918 49.9997L25.5142 49.9963C26.0755 49.9963 26.5345 49.5512 26.5536 48.9906C26.5624 48.7154 26.7285 42.2033 22.6318 38.4508C22.2605 38.1118 21.6982 38.0883 21.2975 38.3914L21.2971 38.3908ZM9.12823 47.9197C9.44367 44.0679 11.1126 41.633 12.0098 40.5834C15.6819 43.0121 19.6183 41.8629 21.7919 40.5609C23.8417 42.8917 24.329 46.2562 24.443 47.917L9.12823 47.9197Z" fill="black"/>
<path id="Vector_3" d="M44.2478 38.4498C43.8778 38.1112 43.3155 38.0877 42.9155 38.3908C42.7303 38.5317 38.3311 41.7945 34.1653 38.4017C33.7738 38.0819 33.2084 38.0914 32.8272 38.4232C32.6594 38.5709 28.7151 42.0738 28.6173 48.9456C28.6139 49.2228 28.7209 49.4922 28.9163 49.6907C29.1117 49.8885 29.3788 49.9993 29.657 49.9993L47.132 49.9959C47.6916 49.9959 48.1524 49.5509 48.1701 48.9902C48.1797 48.7154 48.3454 42.2029 44.248 38.4504L44.2478 38.4498ZM30.745 47.9193C31.0598 44.0675 32.7294 41.6326 33.627 40.583C37.2981 43.0117 41.2345 41.8625 43.4091 40.5605C45.4589 42.8914 45.9462 46.2558 46.0594 47.9167L30.745 47.9193Z" fill="black"/>
</g>
</g>
</svg>
