<svg width="56" height="56" viewBox="0 0 56 56" fill="none" xmlns="http://www.w3.org/2000/svg">
<g id="Group 104">
<g id="Group">
<path id="Vector" d="M43.3653 27.7978V32.9431C43.3653 34.8976 43.3704 36.8574 43.3653 38.8119C43.3653 38.9074 43.3603 39.0029 43.3553 39.0983C43.3452 39.3345 43.4156 38.8773 43.3503 39.1034C43.3402 39.1486 43.3302 39.1938 43.3201 39.234C43.3101 39.2792 43.295 39.3194 43.2799 39.3647C43.2749 39.3848 43.2649 39.4099 43.2598 39.43C43.2196 39.5305 43.2297 39.5154 43.285 39.3797C43.3 39.43 43.1694 39.6058 43.1443 39.6511C43.1141 39.7013 43.084 39.7465 43.0538 39.7917C42.9332 39.9827 43.1995 39.636 43.0488 39.8018C42.9734 39.8872 42.8981 39.9676 42.8126 40.043C42.7875 40.0681 42.7272 40.1033 42.7121 40.1334C42.8026 39.9927 42.8227 40.053 42.7272 40.1184C42.6418 40.1736 42.5564 40.2289 42.4659 40.2741C42.4458 40.2842 42.2448 40.3696 42.4006 40.3093C42.5564 40.249 42.2951 40.3445 42.2649 40.3495C42.2197 40.3646 42.1795 40.3746 42.1343 40.3847C42.1142 40.3897 42.0891 40.3947 42.069 40.3997C41.9785 40.4148 41.9785 40.4148 42.069 40.4048C42.0891 40.3997 42.1142 40.3997 42.1343 40.3947C42.0891 40.3997 42.0438 40.4048 41.9986 40.4048C41.9534 40.4098 41.9082 40.4098 41.8579 40.4098H41.8479C41.5615 40.4148 41.2751 40.4098 40.9886 40.4098H36.0343H28.6379H20.9802H15.232H13.7798H13.5235H13.4783C13.418 40.4098 13.3627 40.4048 13.3075 40.3997C13.1416 40.3897 13.3778 40.3947 13.3728 40.4098C13.3627 40.4349 13.001 40.3093 12.9809 40.3043C12.8351 40.2591 13.0261 40.3344 13.0361 40.3294C13.016 40.3394 12.9105 40.2641 12.8854 40.254C12.7949 40.2038 12.7145 40.1485 12.6291 40.0932C12.4482 39.9777 12.7296 40.2088 12.6492 40.1083C12.6141 40.0681 12.5638 40.0329 12.5236 39.9978C12.4683 39.9425 12.3075 39.8269 12.2975 39.7516C12.3226 39.7817 12.3477 39.8169 12.3729 39.847C12.3477 39.8119 12.3226 39.7717 12.2975 39.7365C12.2724 39.7013 12.2523 39.6611 12.2272 39.6209C12.197 39.5707 12.1719 39.5204 12.1468 39.4702C12.0915 39.3546 12.1518 39.3395 12.1518 39.4953C12.1518 39.4099 12.0814 39.2893 12.0613 39.2039C12.0563 39.1838 12.0161 39.0431 12.0262 39.0381C12.0412 39.1787 12.0463 39.2139 12.0412 39.1335C12.0362 39.0984 12.0362 39.0632 12.0312 39.028C12.0262 38.9476 12.0262 38.8722 12.0262 38.7969V38.0231V34.8323V28.1997V27.7977C11.6895 28.1343 11.3579 28.466 11.0212 28.8027H14.3575H22.3167H31.9596H40.2905C41.6371 28.8027 42.9837 28.8328 44.3304 28.8027H44.3857C44.9133 28.8027 45.4158 28.3404 45.3907 27.7977C45.3656 27.255 44.9485 26.7927 44.3857 26.7927H41.0493H33.0902H23.4473H15.1163C13.7697 26.7927 12.4231 26.7625 11.0764 26.7927H11.0212C10.4785 26.7927 10.0162 27.255 10.0162 27.7977V33.0435C10.0162 34.9781 10.0061 36.9125 10.0162 38.8471C10.0262 40.7665 11.5839 42.3945 13.5184 42.4146C13.7797 42.4196 14.0359 42.4146 14.2972 42.4146H19.2215H26.7184H34.4916H40.25H41.6569C42.7773 42.4146 43.8526 42.0076 44.5662 41.1132C45.0938 40.455 45.3852 39.6862 45.3902 38.837V38.1286V34.973V28.2147V27.7927C45.3902 27.2651 44.928 26.7626 44.3852 26.7877C43.8275 26.8178 43.3652 27.2349 43.3652 27.7976L43.3653 27.7978Z" fill="black"/>
<path id="Vector_2" d="M43.3657 17.0947V20.7175V26.4658V27.7973L44.3707 26.7923H41.0343H33.0752H23.4323H15.1013C13.7597 26.7923 12.4031 26.7471 11.0614 26.7923H11.0061L12.0111 27.7973V24.6217V19.1197V17.376V17.0947C12.0111 16.8133 12.0262 16.5319 12.0513 16.2505C12.0564 16.1701 12.0714 16.0897 12.0765 16.0093C12.0865 15.8937 12.0614 16.1048 12.0614 16.1048C12.0714 16.0596 12.0765 16.0143 12.0815 15.9691C12.1066 15.7983 12.1367 15.6325 12.177 15.4666C12.2473 15.1451 12.3327 14.8285 12.4382 14.517C12.4885 14.3662 12.5438 14.2205 12.599 14.0748C12.6091 14.0446 12.6242 14.0145 12.6342 13.9793C12.6845 13.8537 12.5538 14.1552 12.6091 14.0346C12.6443 13.9542 12.6794 13.8738 12.7196 13.7884C12.9859 13.2156 13.3176 12.6779 13.6944 12.1705C13.7999 12.0298 13.5738 12.3212 13.7195 12.1403C13.7698 12.08 13.815 12.0197 13.8652 11.9594C13.9707 11.8338 14.0813 11.7082 14.1969 11.5876C14.4179 11.3564 14.6491 11.1353 14.8903 10.9243C14.9506 10.8741 15.0058 10.8238 15.0661 10.7736C15.1013 10.7434 15.1365 10.7183 15.1717 10.6882C15.2571 10.6178 15.0963 10.7434 15.0963 10.7434C15.2018 10.6279 15.3726 10.5374 15.4983 10.452C15.7646 10.2711 16.0359 10.1003 16.3223 9.94951C16.458 9.87414 16.5987 9.8038 16.7394 9.73847C16.8097 9.7033 16.8801 9.67315 16.9504 9.643C17.1665 9.5425 16.7946 9.70329 17.0208 9.61285C17.3222 9.49226 17.6338 9.38674 17.9453 9.29629C18.2518 9.21087 18.5633 9.14053 18.8748 9.08525C18.9653 9.07018 19.0557 9.06013 19.1461 9.04505C19.1461 9.04505 18.9351 9.07018 19.0507 9.06013C19.0858 9.0551 19.121 9.05008 19.1562 9.05008C19.327 9.02998 19.5029 9.01993 19.6788 9.00988C20.0104 8.99481 20.347 8.99983 20.6837 8.99983H24.809H30.4769H34.6424C34.9389 8.99983 35.2404 8.99481 35.5368 9.00486C35.6976 9.00988 35.8634 9.01993 36.0242 9.035C36.1046 9.04003 36.185 9.05008 36.2654 9.06013C36.3006 9.06515 36.4111 9.06013 36.2704 9.06013C36.1096 9.06013 36.3006 9.06515 36.3408 9.07018C36.6674 9.12042 36.989 9.19077 37.3106 9.27619C37.6271 9.36161 37.9387 9.4621 38.2401 9.5827C38.2753 9.59777 38.5165 9.69826 38.3708 9.63294C38.2251 9.56762 38.4662 9.67817 38.4964 9.68822C38.6471 9.75856 38.7979 9.83393 38.9486 9.9093C39.235 10.06 39.5114 10.2259 39.7777 10.4017C39.8983 10.4821 40.0139 10.5625 40.1294 10.6479C40.1646 10.6731 40.1998 10.7032 40.2349 10.7283C40.3254 10.7937 40.1596 10.6731 40.1646 10.6731C40.2249 10.6881 40.3204 10.7987 40.3706 10.8389C40.6168 11.0449 40.853 11.261 41.0741 11.4921C41.1796 11.6026 41.2851 11.7182 41.3906 11.8338C41.461 11.9142 41.6921 12.1101 41.7072 12.2157C41.7072 12.2056 41.5615 12.0247 41.672 12.1704C41.6921 12.1956 41.7122 12.2257 41.7323 12.2508C41.7775 12.3111 41.8227 12.3764 41.868 12.4418C41.9634 12.5774 42.0539 12.7181 42.1443 12.8588C42.3152 13.1301 42.4709 13.4166 42.6116 13.703C42.6468 13.7733 42.6769 13.8437 42.7121 13.914C42.7423 13.9793 42.8126 14.2054 42.7322 13.9492C42.7825 14.11 42.8578 14.2607 42.9131 14.4215C43.0186 14.733 43.1091 15.0446 43.1844 15.3661C43.2196 15.5219 43.2498 15.6777 43.2799 15.8334C43.29 15.8987 43.3 15.9691 43.3151 16.0394C43.3452 16.2203 43.29 15.8384 43.3201 16.0796C43.3452 16.4163 43.3653 16.7529 43.3653 17.0946C43.3653 17.6222 43.8276 18.1247 44.3703 18.0996C44.9131 18.0745 45.3753 17.6575 45.3753 17.0946C45.3653 14.2356 44.1041 11.4368 41.9434 9.55759C40.0542 7.90943 37.6574 7 35.1499 7H31.9542H26.2814H21.3923C20.0256 7 18.679 7.00502 17.3474 7.39193C14.6492 8.17076 12.2976 10.1052 11.0565 12.6327C10.4083 13.9492 10.0465 15.3812 10.0063 16.8485C9.99623 17.2153 10.0013 17.5821 10.0013 17.9489V23.1243V27.5512V27.7974C10.0013 28.34 10.4635 28.8024 11.0062 28.8024H14.3426H22.3018H31.9446H40.2756C41.6222 28.8024 42.9688 28.8325 44.3155 28.8024H44.3708C44.9134 28.8024 45.3758 28.3401 45.3758 27.7974V24.1745V18.4263V17.0948C45.3758 16.5672 44.9135 16.0647 44.3708 16.0898C43.8281 16.1149 43.3658 16.5319 43.3658 17.0948L43.3657 17.0947Z" fill="black"/>
<path id="Vector_3" d="M19.3672 34.5956C19.3672 34.666 19.3622 34.7363 19.3571 34.8067C19.3521 34.9725 19.3571 34.7414 19.3672 34.7464C19.3873 34.7615 19.2968 35.0529 19.2868 35.078C19.2818 35.0981 19.2717 35.1182 19.2667 35.1433C19.2365 35.2237 19.2365 35.2288 19.2717 35.1484C19.2818 35.1283 19.2868 35.1082 19.2968 35.0881C19.2767 35.1283 19.2617 35.1685 19.2416 35.2087C19.1863 35.3142 19.1059 35.4147 19.0557 35.5202C19.0004 35.6408 19.2165 35.3443 19.0707 35.5001C19.0406 35.5302 19.0104 35.5654 18.9803 35.5956C18.9501 35.6257 18.7843 35.8267 18.7391 35.8167C18.7743 35.7915 18.8044 35.7664 18.8396 35.7413C18.8044 35.7664 18.7693 35.7915 18.7291 35.8167C18.6939 35.8418 18.6537 35.8619 18.6185 35.887C18.5683 35.9121 18.518 35.9372 18.4728 35.9624C18.2517 36.083 18.6235 35.9272 18.4376 35.9774C18.3271 36.0076 18.2216 36.0377 18.111 36.0679C17.9603 36.1081 18.1663 36.0729 18.1763 36.0629C18.1613 36.083 18.0306 36.0729 18.0005 36.0779C17.895 36.083 17.7894 36.0729 17.6839 36.0729C17.4478 36.0679 17.905 36.1282 17.6789 36.0729C17.6136 36.0578 17.5483 36.0428 17.4829 36.0277C17.4277 36.0126 17.3774 35.9925 17.3221 35.9774C17.1865 35.9372 17.5432 36.093 17.3473 35.9875C17.2468 35.9372 17.1513 35.887 17.0558 35.8267C17.0408 35.8166 16.9453 35.7614 16.9453 35.7513C16.9453 35.7664 17.1111 35.9021 16.9704 35.7664C16.885 35.681 16.7996 35.5956 16.7142 35.5101C16.5584 35.3443 16.8247 35.6961 16.7091 35.5051C16.684 35.4699 16.6589 35.4297 16.6388 35.3946C16.6086 35.3494 16.473 35.1534 16.483 35.0981C16.478 35.1283 16.5483 35.2891 16.5132 35.1534C16.4931 35.0881 16.473 35.0227 16.4529 34.9574C16.4428 34.9122 16.4328 34.867 16.4227 34.8268C16.3725 34.6308 16.4378 35.0479 16.4177 34.7866C16.4127 34.6811 16.4076 34.5755 16.4177 34.47C16.4177 34.4449 16.4227 34.4248 16.4227 34.3997C16.4328 34.2891 16.4328 34.3092 16.4127 34.46C16.4076 34.4549 16.4428 34.3193 16.4378 34.3243C16.4579 34.2288 16.5333 34.0982 16.5333 34.0027C16.5333 34.1585 16.4629 34.1434 16.5232 34.0278C16.5584 33.9575 16.5936 33.8922 16.6338 33.8218C16.6589 33.7867 16.684 33.7465 16.7041 33.7113C16.8146 33.5304 16.5885 33.8218 16.684 33.7314C16.7644 33.661 16.8297 33.5656 16.9101 33.4952C16.9302 33.4802 17.0156 33.3847 17.0357 33.3897C17.0307 33.3897 16.8599 33.5103 16.9905 33.4299C17.1061 33.3596 17.2166 33.2942 17.3372 33.2339C17.5131 33.1435 17.2819 33.2591 17.2819 33.2591C17.2819 33.244 17.4578 33.1988 17.4729 33.1937C17.5181 33.1837 17.5583 33.1686 17.6035 33.1586C17.6236 33.1536 17.6487 33.1485 17.6688 33.1435C17.7794 33.1234 17.7593 33.1284 17.6035 33.1485C17.6337 33.1083 17.8698 33.1335 17.9201 33.1335C17.9804 33.1335 18.0356 33.1385 18.0959 33.1435C18.3271 33.1536 17.8799 33.0882 18.101 33.1435C18.1311 33.1536 18.4879 33.2138 18.4929 33.254C18.4929 33.254 18.2969 33.1586 18.4376 33.2289C18.508 33.2641 18.5733 33.2993 18.6436 33.3395C18.6889 33.3696 18.7341 33.3998 18.7843 33.4299C18.9702 33.5455 18.6286 33.2842 18.7893 33.4349C18.8848 33.5254 18.9803 33.6158 19.0657 33.7113C19.1964 33.852 19.0255 33.6661 19.0305 33.661C19.0506 33.656 19.1411 33.8319 19.1562 33.852C19.1863 33.8972 19.2114 33.9475 19.2365 33.9977C19.2516 34.0278 19.2667 34.058 19.2818 34.0881C19.3119 34.1585 19.3019 34.1283 19.2466 34.0027C19.2868 34.0077 19.3471 34.3494 19.3571 34.3946C19.4074 34.5906 19.3471 34.3293 19.3521 34.3293C19.3823 34.3394 19.3672 34.5605 19.3672 34.5956C19.3722 35.1232 19.8244 35.6257 20.3722 35.6006C20.9098 35.5755 21.3872 35.1584 21.3772 34.5956C21.3571 33.1033 20.4275 31.8119 19.0306 31.2994C17.7242 30.8221 16.1313 31.2492 15.247 32.3244C14.3024 33.465 14.1164 35.1081 14.9003 36.3945C15.6842 37.6808 17.1815 38.2888 18.6437 38.0024C20.2416 37.6858 21.3621 36.1885 21.3822 34.5956C21.3872 34.068 20.9149 33.5656 20.3772 33.5906C19.8195 33.6158 19.3722 34.0328 19.3672 34.5956L19.3672 34.5956Z" fill="black"/>
<path id="Vector_4" d="M38.9844 34.5956C38.9844 34.666 38.9794 34.7363 38.9743 34.8067C38.9693 34.9725 38.9743 34.7414 38.9844 34.7464C39.0045 34.7615 38.914 35.0529 38.904 35.078C38.899 35.0981 38.8889 35.1182 38.8839 35.1433C38.8537 35.2237 38.8537 35.2288 38.8889 35.1484C38.899 35.1283 38.904 35.1082 38.914 35.0881C38.8939 35.1283 38.8789 35.1685 38.8588 35.2087C38.8035 35.3142 38.7231 35.4147 38.6728 35.5202C38.6176 35.6408 38.8336 35.3443 38.6879 35.5001C38.6578 35.5302 38.6276 35.5654 38.5975 35.5956C38.5673 35.6257 38.4015 35.8267 38.3563 35.8167C38.3915 35.7915 38.4216 35.7664 38.4568 35.7413C38.4216 35.7664 38.3864 35.7915 38.3463 35.8167C38.3111 35.8418 38.2709 35.8619 38.2357 35.887C38.1855 35.9121 38.1352 35.9372 38.09 35.9624C37.8689 36.083 38.2407 35.9272 38.0548 35.9774C37.9443 36.0076 37.8388 36.0377 37.7282 36.0679C37.5775 36.1081 37.7835 36.0729 37.7935 36.0629C37.7785 36.083 37.6478 36.0729 37.6177 36.0779C37.5122 36.083 37.4066 36.0729 37.3011 36.0729C37.065 36.0679 37.5222 36.1282 37.2961 36.0729C37.2308 36.0578 37.1654 36.0428 37.1001 36.0277C37.0449 36.0126 36.9946 35.9925 36.9393 35.9774C36.8037 35.9372 37.1604 36.093 36.9645 35.9875C36.864 35.9372 36.7685 35.887 36.673 35.8267C36.6579 35.8166 36.5625 35.7614 36.5625 35.7513C36.5625 35.7664 36.7283 35.9021 36.5876 35.7664C36.5022 35.681 36.4168 35.5956 36.3313 35.5101C36.1756 35.3443 36.4419 35.6961 36.3263 35.5051C36.3012 35.4699 36.2761 35.4297 36.256 35.3946C36.2258 35.3494 36.0902 35.1534 36.1002 35.0981C36.0952 35.1283 36.1655 35.2891 36.1304 35.1534C36.1103 35.0881 36.0902 35.0227 36.0701 34.9574C36.06 34.9122 36.05 34.867 36.0399 34.8268C35.9897 34.6308 36.055 35.0479 36.0349 34.7866C36.0299 34.6811 36.0248 34.5755 36.0349 34.47C36.0349 34.4449 36.0399 34.4248 36.0399 34.3997C36.05 34.2891 36.05 34.3092 36.0299 34.46C36.0248 34.4549 36.06 34.3193 36.055 34.3243C36.0751 34.2288 36.1505 34.0982 36.1505 34.0027C36.1505 34.1585 36.0801 34.1434 36.1404 34.0278C36.1756 33.9575 36.2108 33.8922 36.2509 33.8218C36.2761 33.7867 36.3012 33.7465 36.3213 33.7113C36.4318 33.5304 36.2057 33.8218 36.3012 33.7314C36.3816 33.661 36.4469 33.5656 36.5273 33.4952C36.5474 33.4802 36.6328 33.3847 36.6529 33.3897C36.6479 33.3897 36.4771 33.5103 36.6077 33.4299C36.7233 33.3596 36.8338 33.2942 36.9544 33.2339C37.1303 33.1435 36.8991 33.2591 36.8991 33.2591C36.8991 33.244 37.075 33.1988 37.0901 33.1937C37.1353 33.1837 37.1755 33.1686 37.2207 33.1586C37.2408 33.1536 37.2659 33.1485 37.286 33.1435C37.3966 33.1234 37.3765 33.1284 37.2207 33.1485C37.2509 33.1083 37.487 33.1335 37.5373 33.1335C37.5976 33.1335 37.6528 33.1385 37.7131 33.1435C37.9443 33.1536 37.4971 33.0882 37.7182 33.1435C37.7483 33.1536 38.1051 33.2138 38.1101 33.254C38.1101 33.254 37.9141 33.1586 38.0548 33.2289C38.1252 33.2641 38.1905 33.2993 38.2608 33.3395C38.306 33.3696 38.3513 33.3998 38.4015 33.4299C38.5874 33.5455 38.2457 33.2842 38.4065 33.4349C38.502 33.5254 38.5975 33.6158 38.6829 33.7113C38.8135 33.852 38.6427 33.6661 38.6477 33.661C38.6678 33.656 38.7583 33.8319 38.7733 33.852C38.8035 33.8972 38.8286 33.9475 38.8537 33.9977C38.8688 34.0278 38.8839 34.058 38.899 34.0881C38.9291 34.1585 38.9191 34.1283 38.8638 34.0027C38.904 34.0077 38.9643 34.3494 38.9743 34.3946C39.0246 34.5906 38.9643 34.3293 38.9693 34.3293C38.9995 34.3394 38.9844 34.5605 38.9844 34.5956C38.9894 35.1232 39.4416 35.6257 39.9894 35.6006C40.527 35.5755 41.0044 35.1584 40.9944 34.5956C40.9743 33.1033 40.0447 31.8119 38.6478 31.2994C37.3414 30.8221 35.7485 31.2492 34.8642 32.3244C33.9196 33.465 33.7336 35.1081 34.5175 36.3945C35.3014 37.6808 36.7987 38.2888 38.2609 38.0024C39.8588 37.6858 40.9793 36.1885 40.9994 34.5956C41.0044 34.068 40.5321 33.5656 39.9944 33.5906C39.4366 33.6158 38.9944 34.0328 38.9844 34.5956L38.9844 34.5956Z" fill="black"/>
<path id="Vector_5" d="M18.881 41.4152V43.8322V45.1335C18.881 45.2391 18.881 45.3446 18.876 45.4501C18.876 45.4853 18.8559 45.5556 18.866 45.5908C18.8609 45.5657 18.9112 45.3546 18.871 45.5255C18.8509 45.6159 18.8358 45.7013 18.8057 45.7868C18.7906 45.832 18.7755 45.8722 18.7655 45.9124C18.7102 46.1033 18.7906 45.8521 18.7956 45.8571C18.8157 45.9074 18.67 46.1033 18.6449 46.1536C18.6298 46.1837 18.5293 46.3747 18.4992 46.3747C18.4941 46.3747 18.665 46.1837 18.5343 46.3244C18.5042 46.3546 18.474 46.3897 18.4439 46.4249C18.3836 46.4902 18.3183 46.5505 18.2529 46.6108C18.2479 46.6158 18.1675 46.6962 18.1524 46.6962C18.258 46.6158 18.2831 46.5957 18.2228 46.6359C18.1977 46.656 18.1675 46.6761 18.1424 46.6912C18.067 46.7415 17.9917 46.7817 17.9113 46.8269C17.8962 46.8369 17.7957 46.8872 17.7907 46.8872C17.7856 46.8822 18.0319 46.8018 17.8459 46.8621C17.7605 46.8922 17.6751 46.9223 17.5897 46.9424C17.5445 46.9525 17.4992 46.9625 17.459 46.9726C17.4239 46.9776 17.3937 46.9877 17.3585 46.9927C17.2832 47.0078 17.3133 47.0027 17.454 46.9826C17.4188 47.063 16.9716 46.9625 16.8963 46.9826C16.9214 46.9776 17.1374 47.0279 16.9616 46.9877C16.9164 46.9776 16.8711 46.9726 16.8259 46.9575C16.7154 46.9324 16.6098 46.8972 16.5043 46.862C16.3586 46.8118 16.5546 46.8922 16.5596 46.8872C16.5546 46.8922 16.434 46.8269 16.439 46.8269C16.3586 46.7867 16.2832 46.7415 16.2079 46.6912C16.1928 46.6812 16.0973 46.6209 16.0973 46.6158C16.0973 46.6108 16.2883 46.7817 16.1426 46.651C16.0622 46.5756 15.9767 46.5053 15.9014 46.4249C15.8712 46.3947 15.8411 46.3596 15.8109 46.3244C15.7054 46.2139 15.836 46.3696 15.8461 46.3746C15.8109 46.3696 15.7205 46.1887 15.7004 46.1536C15.6552 46.0782 15.615 45.9978 15.5748 45.9174C15.5044 45.7767 15.5999 45.9727 15.5999 45.9727C15.5848 45.9727 15.5496 45.827 15.5446 45.8119C15.5145 45.7164 15.4944 45.6159 15.4692 45.5154C15.4341 45.3597 15.4692 45.5757 15.4743 45.5807C15.4692 45.5757 15.4642 45.435 15.4642 45.4401C15.4592 45.3798 15.4592 45.3245 15.4592 45.2642V44.2241V41.4103C15.1225 41.7469 14.7909 42.0785 14.4542 42.4152H19.1975H19.8809C20.4085 42.4152 20.911 41.953 20.8859 41.4103C20.8608 40.8675 20.4437 40.4053 19.8809 40.4053H15.1376H14.4542C13.9115 40.4053 13.4492 40.8675 13.4492 41.4103V44.0633V45.2491C13.4542 46.028 13.6753 46.8068 14.1477 47.4349C14.8109 48.3242 15.7556 48.8569 16.856 48.9774C17.881 49.088 18.9061 48.6961 19.6699 48.0227C20.4236 47.3595 20.8557 46.3645 20.8858 45.3697C20.8959 45.0682 20.8858 44.7667 20.8858 44.4652V41.4102C20.8858 40.8826 20.4235 40.3801 19.8808 40.4052C19.3432 40.4353 18.8809 40.8524 18.8809 41.4151L18.881 41.4152Z" fill="black"/>
<path id="Vector_6" d="M40.4682 41.4141V43.831V45.1324C40.4682 45.2379 40.4682 45.3435 40.4632 45.449C40.4632 45.4892 40.4481 45.5495 40.4531 45.5897C40.4481 45.5595 40.4983 45.3585 40.4581 45.5243C40.4381 45.6148 40.418 45.7002 40.3928 45.7856C40.3778 45.8309 40.3627 45.8711 40.3476 45.9113C40.2923 46.0821 40.3526 45.8711 40.3727 45.856C40.3074 45.9113 40.2572 46.0771 40.2119 46.1525C40.1868 46.1926 40.1617 46.2278 40.1366 46.263C40.0612 46.3786 40.1717 46.268 40.1717 46.2228C40.1717 46.273 40.026 46.3886 39.9908 46.4238C39.9255 46.4891 39.8602 46.5444 39.7899 46.6097C39.6592 46.7303 39.81 46.5846 39.8351 46.5795C39.7949 46.5846 39.6994 46.67 39.6642 46.6951C39.5889 46.7454 39.5085 46.7856 39.4281 46.8308C39.3929 46.8459 39.3326 46.866 39.3025 46.8911C39.3226 46.871 39.5185 46.8157 39.3527 46.866C39.2673 46.8911 39.1768 46.9263 39.0914 46.9464C39.0462 46.9564 39.001 46.9665 38.9557 46.9765C38.9206 46.9815 38.8854 46.9916 38.8552 46.9966C38.7799 47.0117 38.81 47.0066 38.9507 46.9865C38.9005 47.077 38.4784 46.9614 38.393 46.9865C38.4181 46.9815 38.6342 47.0318 38.4533 46.9916C38.408 46.9815 38.3628 46.9765 38.3176 46.9614C38.2071 46.9363 38.0965 46.9011 37.986 46.866C37.8654 46.8258 37.9608 46.9011 38.0362 46.8911C38.0161 46.8911 37.9206 46.8358 37.9106 46.8308C37.8302 46.7906 37.7498 46.7454 37.6744 46.6951C37.6342 46.67 37.5991 46.6449 37.5589 46.6197C37.4634 46.5594 37.4986 46.6298 37.5991 46.6549C37.5237 46.6348 37.4031 46.4841 37.3478 46.4288C37.2976 46.3735 37.2323 46.263 37.1669 46.2278C37.187 46.2429 37.2976 46.4188 37.2021 46.268C37.177 46.2278 37.1519 46.1926 37.1267 46.1575C37.0765 46.0821 37.0363 46.0017 36.9961 45.9213C36.9358 45.8057 36.9609 45.9364 37.0162 45.9766C36.986 45.9515 36.971 45.851 36.9559 45.8158C36.9257 45.7203 36.9006 45.6198 36.8755 45.5193C36.8403 45.3686 36.8705 45.5746 36.8805 45.5847C36.8705 45.5796 36.8705 45.444 36.8705 45.444C36.8654 45.3837 36.8654 45.3284 36.8654 45.2681V44.228V41.4142L35.8605 42.4192H40.7696H41.4681C41.9957 42.4192 42.4981 41.9569 42.4731 41.4142C42.448 40.8714 42.0309 40.4092 41.4681 40.4092H36.5589H35.8605C35.3178 40.4092 34.8555 40.8714 34.8555 41.4142V44.0672V45.253C34.8605 46.1273 35.162 46.9112 35.7046 47.5895C36.3528 48.4036 37.3327 48.8708 38.3526 48.9814C39.3927 49.0919 40.4178 48.6899 41.2066 48.0266C41.9804 47.3734 42.4427 46.3785 42.4728 45.3736C42.4829 45.0721 42.4728 44.7706 42.4728 44.4691V41.4141C42.4728 40.8865 42.0106 40.384 41.4679 40.4091C40.9302 40.4342 40.4679 40.8513 40.4679 41.4141L40.4682 41.4141Z" fill="black"/>
<path id="Vector_7" d="M43.8699 13.1755H40.639H32.9311H23.5602H15.5005C14.1891 13.1755 12.8726 13.1454 11.5612 13.1755H11.5059C10.9783 13.1755 10.4758 13.6378 10.5009 14.1805C10.526 14.7232 10.9431 15.1855 11.5059 15.1855H14.7368H22.4447H31.8156H39.8753C41.1867 15.1855 42.5033 15.2156 43.8147 15.1855H43.8699C44.3975 15.1855 44.9 14.7232 44.8749 14.1805C44.8498 13.6378 44.4328 13.1755 43.8699 13.1755Z" fill="black"/>
<path id="Vector_8" d="M26.7007 26.7926H23.1332H17.4502H16.1538L17.1588 27.7976C17.189 27.5514 17.1186 28.0287 17.1638 27.7876C17.1739 27.7423 17.1789 27.6971 17.189 27.6519C17.2141 27.5263 17.2392 27.4057 17.2744 27.2801C17.3045 27.1695 17.3347 27.059 17.3749 26.9534C17.395 26.8982 17.4101 26.8479 17.4302 26.7927C17.4452 26.7525 17.4603 26.7072 17.4804 26.667C17.4653 26.7072 17.4503 26.7424 17.4302 26.7826C17.4302 26.6972 17.5357 26.5565 17.5759 26.4761C17.6311 26.3656 17.6914 26.26 17.7568 26.1545C17.812 26.059 17.8774 25.9636 17.9377 25.8731C17.9578 25.843 18.003 25.7475 18.0331 25.7375C17.9427 25.853 17.9326 25.8681 17.998 25.7827C18.013 25.7676 18.0281 25.7475 18.0382 25.7324C18.1839 25.5515 18.3447 25.3807 18.5155 25.2249C18.5959 25.1496 18.6813 25.0792 18.7667 25.0039C18.7768 24.9988 18.7818 24.9888 18.7919 24.9838C18.8773 24.9184 18.8622 24.9285 18.7466 25.0189C18.7667 24.9787 18.8672 24.9335 18.9074 24.9034C19.0984 24.7677 19.2994 24.6521 19.5104 24.5416C19.5606 24.5165 19.6109 24.4913 19.6611 24.4662C19.6812 24.4562 19.8722 24.3506 19.7265 24.4361C19.5807 24.5165 19.7717 24.421 19.7918 24.4109C19.8571 24.3858 19.9174 24.3657 19.9827 24.3406C20.2088 24.2652 20.445 24.2049 20.6761 24.1547C20.7314 24.1446 20.7917 24.1346 20.847 24.1245C21.0781 24.0843 20.6711 24.1396 20.8219 24.1296C20.9525 24.1195 21.0781 24.1044 21.2087 24.0994C21.46 24.0894 21.7062 24.0994 21.9524 24.1195C22.073 24.1296 22.0981 24.0693 21.9273 24.1145C21.9725 24.1044 22.0529 24.1346 22.0981 24.1446C22.2237 24.1647 22.3443 24.1949 22.47 24.225C22.7011 24.2853 22.9272 24.3607 23.1483 24.4461C23.284 24.4964 22.9222 24.3356 23.1232 24.4361C23.1734 24.4612 23.2237 24.4813 23.2739 24.5064C23.3945 24.5667 23.5101 24.632 23.6256 24.6974C23.7211 24.7526 23.8166 24.8129 23.907 24.8782C23.9522 24.9084 23.9975 24.9436 24.0427 24.9737C24.2236 25.0993 23.9171 24.8632 24.0226 24.9586C24.2035 25.1245 24.3894 25.2752 24.5602 25.4511C24.6457 25.5415 24.7261 25.632 24.8014 25.7274C24.8165 25.7425 24.8316 25.7626 24.8416 25.7777C24.9069 25.8631 24.8969 25.848 24.8065 25.7325C24.8316 25.7375 24.907 25.8731 24.922 25.8932C25.0728 26.1143 25.2084 26.3455 25.324 26.5867C25.3491 26.6369 25.3692 26.6872 25.3943 26.7374C25.4245 26.8077 25.4144 26.7776 25.3592 26.652C25.3742 26.6922 25.3943 26.7374 25.4094 26.7776C25.4597 26.9032 25.4999 27.0339 25.5401 27.1645C25.5803 27.2951 25.6104 27.4308 25.6406 27.5665C25.6506 27.6117 25.6607 27.6569 25.6657 27.7021C25.6757 27.7474 25.6808 27.7926 25.6908 27.8378C25.6707 27.6871 25.6707 27.667 25.6808 27.7775C25.7411 28.3001 26.0978 28.8076 26.6858 28.7825C27.1782 28.7624 27.756 28.3353 27.6907 27.7775C27.54 26.4912 27.0777 25.3506 26.2637 24.3406C25.5251 23.4211 24.495 22.7578 23.3896 22.381C21.1135 21.6122 18.4604 22.2855 16.8223 24.0392C15.8475 25.0793 15.2998 26.3706 15.134 27.7776C15.0687 28.3203 15.6465 28.7826 16.139 28.7826H19.7065H25.3895H26.6858C27.2134 28.7826 27.7159 28.3203 27.6908 27.7776C27.6808 27.255 27.2637 26.7927 26.701 26.7927L26.7007 26.7926Z" fill="black"/>
</g>
</g>
</svg>
