<svg width="56" height="56" viewBox="0 0 56 56" fill="none" xmlns="http://www.w3.org/2000/svg">
<g id="Group 104">
<g id="Group 105">
<path id="Vector" d="M41.3663 17.4926C44.0239 24.9441 40.1377 33.139 32.6865 35.7966C25.235 38.4542 17.0401 34.5681 14.3825 27.1169C11.7249 19.6654 15.6106 11.4706 23.0622 8.81284C30.5137 6.15516 38.7086 10.0413 41.3663 17.4926" stroke="black" stroke-width="1.50863" stroke-linecap="round" stroke-linejoin="round"/>
<path id="Vector_2" d="M35.4182 23.8125L34.6639 29.0927H21.0863L20.332 23.8125" stroke="black" stroke-width="1.50862" stroke-linecap="round" stroke-linejoin="round"/>
<path id="Vector_3" d="M28.1484 16.2695L30.8943 23.8126" stroke="black" stroke-width="1.50862" stroke-linecap="round" stroke-linejoin="round"/>
<path id="Vector_4" d="M24.8594 23.8126L27.6052 16.2695" stroke="black" stroke-width="1.50862" stroke-linecap="round" stroke-linejoin="round"/>
<path id="Vector_5" d="M36.0665 19.2852L35.418 23.811" stroke="black" stroke-width="1.50862" stroke-linecap="round" stroke-linejoin="round"/>
<path id="Vector_6" d="M30.8906 23.811L35.4165 19.2852" stroke="black" stroke-width="1.50862" stroke-linecap="round" stroke-linejoin="round"/>
<path id="Vector_7" d="M20.332 19.2852L24.8579 23.811" stroke="black" stroke-width="1.50862" stroke-linecap="round" stroke-linejoin="round"/>
<path id="Vector_8" d="M20.3322 23.811L19.6836 19.2852" stroke="black" stroke-width="1.50862" stroke-linecap="round" stroke-linejoin="round"/>
<path id="Vector_9" d="M29.3844 14.7606C29.3844 15.5937 28.7089 16.2692 27.8758 16.2692C27.0427 16.2692 26.3672 15.5937 26.3672 14.7606C26.3672 13.9275 27.0427 13.252 27.8758 13.252C28.7089 13.252 29.3844 13.9275 29.3844 14.7606Z" stroke="black" stroke-width="1.50862" stroke-linecap="round" stroke-linejoin="round"/>
<path id="Vector_10" d="M21.0876 17.7782C21.0876 18.6113 20.412 19.2868 19.5789 19.2868C18.7458 19.2868 18.0703 18.6113 18.0703 17.7782C18.0703 16.945 18.7458 16.2695 19.5789 16.2695C20.412 16.2695 21.0876 16.945 21.0876 17.7782Z" stroke="black" stroke-width="1.50862" stroke-linecap="round" stroke-linejoin="round"/>
<path id="Vector_11" d="M37.6813 17.7782C37.6813 18.6113 37.0058 19.2868 36.1727 19.2868C35.3396 19.2868 34.6641 18.6113 34.6641 17.7782C34.6641 16.945 35.3396 16.2695 36.1727 16.2695C37.0058 16.2695 37.6813 16.945 37.6813 17.7782Z" stroke="black" stroke-width="1.50862" stroke-linecap="round" stroke-linejoin="round"/>
<path id="Vector_12" d="M26.3652 36.6352L18.0678 51.7214L15.8048 45.687H8.26172L16.5591 32.1094" stroke="black" stroke-width="1.50862" stroke-linecap="round" stroke-linejoin="round"/>
<path id="Vector_13" d="M29.3828 36.6352L37.6802 51.7214L39.9432 45.687H47.4863L39.1888 32.1094" stroke="black" stroke-width="1.50862" stroke-linecap="round" stroke-linejoin="round"/>
<path id="Vector_14" d="M45.9766 23.8125H49.7481" stroke="black" stroke-width="1.50862" stroke-linecap="round" stroke-linejoin="round"/>
<path id="Vector_15" d="M45.9766 20.7942L48.4883 18.5312" stroke="black" stroke-width="1.50862" stroke-linecap="round" stroke-linejoin="round"/>
<path id="Vector_16" d="M45.9766 26.8301L48.4883 29.093" stroke="black" stroke-width="1.50862" stroke-linecap="round" stroke-linejoin="round"/>
<path id="Vector_17" d="M9.77155 23.8125H6" stroke="black" stroke-width="1.50862" stroke-linecap="round" stroke-linejoin="round"/>
<path id="Vector_18" d="M9.76959 20.7942L7.25781 18.5312" stroke="black" stroke-width="1.50862" stroke-linecap="round" stroke-linejoin="round"/>
<path id="Vector_19" d="M9.76959 26.8301L7.25781 29.093" stroke="black" stroke-width="1.50862" stroke-linecap="round" stroke-linejoin="round"/>
</g>
</g>
</svg>
