<svg width="56" height="56" viewBox="0 0 56 56" fill="none" xmlns="http://www.w3.org/2000/svg">
<g id="Group 104">
<g id="Group">
<path id="Vector" d="M40.8597 48.9997H15.5504C10.8305 48.9997 7 45.1691 7 40.4492V25.4684C7 20.7484 10.8306 16.918 15.5504 16.918H40.8597C45.5796 16.918 49.4101 20.7485 49.4101 25.4684V40.38C49.4105 45.1686 45.5795 48.9991 40.8597 48.9991V48.9997ZM15.5504 17.6022C11.2406 17.6022 7.68357 21.1592 7.68357 25.4686V40.3802C7.68357 44.6895 11.2405 48.2466 15.55 48.2466H40.8592C45.1686 48.2466 48.7256 44.6897 48.7256 40.3802L48.7261 25.4686C48.7261 21.1593 45.1691 17.6022 40.8597 17.6022H15.5504Z" fill="black"/>
<path id="Vector_2" d="M40.6556 17.397H37.9192V16.5763C37.9192 12.814 34.841 9.73584 31.0787 9.73584H25.4011C21.6388 9.73584 18.5606 12.814 18.5606 16.5763V17.3287H15.8242V16.5763C15.8242 11.3093 20.1336 7 25.4006 7H31.0781C36.3451 7 40.6545 11.3093 40.6545 16.5763L40.6556 17.397Z" fill="black"/>
<path id="Vector_3" d="M36.8234 30.0532H30.6671V23.8281H25.7423V29.9845H19.6542L19.5859 34.8414H25.7423V41.0661H30.6671V34.9097H36.7552L36.8234 30.0532Z" fill="black"/>
<path id="Vector_4" d="M10.4201 40.5181C10.8989 42.4334 12.0618 44.0068 13.7035 45.0327C14.6611 45.6486 15.4822 44.1434 14.5929 43.5279C13.2934 42.7073 12.4723 41.4757 12.1305 40.0393C11.8565 39.0134 10.2148 39.4922 10.42 40.5181L10.4201 40.5181Z" fill="black"/>
<path id="Vector_5" d="M16.2347 47.0167C17.3293 47.0167 17.3293 45.3066 16.2347 45.3066C15.1405 45.3066 15.1405 47.0167 16.2347 47.0167Z" fill="black"/>
</g>
</g>
</svg>
