<svg width="75" height="75" viewBox="0 0 75 75" fill="none" xmlns="http://www.w3.org/2000/svg">
<g id="Group 113">
<g id="Group">
<path id="Vector" d="M27.6581 46.746H27.6603C29.5366 46.746 31.3017 46.0127 32.6304 44.6821C33.3401 43.9727 33.874 43.1344 34.2228 42.2247L40.7859 42.2238C41.8007 44.8638 44.3556 46.746 47.3481 46.746H47.3494C49.2247 46.746 50.9908 46.0127 52.3189 44.6821C53.6488 43.3512 54.3818 41.5867 54.3806 39.7098C54.3784 35.834 51.2237 32.6799 47.3472 32.6799C46.2135 32.6799 45.1227 32.9507 44.1419 33.456C43.7323 32.8296 43.2434 32.2329 42.6592 31.6978C42.3172 31.3838 41.8029 31.3624 41.4354 31.6441C41.3966 31.6739 37.5238 34.5578 33.83 31.9202L31.8801 28.9053C33.1718 30.4797 35.1326 31.4881 37.3239 31.4881H37.3257C39.2033 31.4881 40.9702 30.7539 42.2999 29.423C43.6311 28.0911 44.3641 26.3251 44.3638 24.4463C44.361 20.5661 41.2035 17.4102 37.3245 17.4102C35.4464 17.4102 33.6788 18.1432 32.3479 19.474C31.0167 20.8059 30.2846 22.5741 30.285 24.4516C30.2853 25.5887 30.5633 26.6606 31.045 27.6116L28.6976 23.9817C27.9807 22.8735 26.4945 22.5543 25.3848 23.2723C24.276 23.9892 23.9567 25.476 24.6741 26.5842L28.6678 32.7603C28.3373 32.7122 28.0022 32.6799 27.6581 32.6799C25.7817 32.6799 24.0157 33.4129 22.6858 34.7423C21.3567 36.0719 20.625 37.8392 20.625 39.7158C20.6266 43.5923 23.7819 46.7461 27.6584 46.7461L27.6581 46.746ZM33.6948 20.8219C34.6654 19.8504 35.954 19.3153 37.3241 19.3153C40.1533 19.3153 42.4564 21.6177 42.4585 24.4469C42.4588 25.816 41.9237 27.1053 40.9522 28.0768C39.9828 29.0474 38.6951 29.5826 37.3244 29.5826C34.4943 29.5826 32.1912 27.2801 32.1907 24.4509C32.1894 23.0818 32.7243 21.7925 33.6949 20.8219H33.6948ZM43.7141 36.0811C44.6863 35.1095 45.9771 34.5744 47.348 34.5728C50.1803 34.5728 52.4868 36.8783 52.4877 39.7116C52.4887 41.0813 51.9529 42.3705 50.9801 43.3449C50.0095 44.3164 48.7196 44.8522 47.3493 44.8522H47.348C44.5148 44.8522 42.2083 42.5476 42.2074 39.7153C42.2074 38.3447 42.7426 37.0535 43.7141 36.0811H43.7141ZM25.9734 25.7437C25.8504 25.5546 25.8094 25.3278 25.8566 25.1061C25.9048 24.8834 26.0352 24.6933 26.225 24.5709C26.6083 24.3237 27.1537 24.4439 27.3987 24.8225L31.9878 31.9193L33.168 33.7443L33.2429 33.8173C33.5684 34.0173 33.9035 34.1912 34.2377 34.3357C34.5126 34.4537 34.8018 34.5584 35.0981 34.645C38.0297 35.5025 40.7102 34.2884 41.8786 33.6172C42.1404 33.9139 42.3715 34.23 42.5799 34.5577C42.5128 34.6211 42.442 34.677 42.3768 34.7425C41.0477 36.0722 40.315 37.8394 40.315 39.716C40.3153 39.9204 40.3287 40.1189 40.3461 40.318L34.6628 40.3202C34.6796 40.118 34.6926 39.9148 34.6926 39.7098C34.6914 37.0462 33.1996 34.7223 31.009 33.5312L30.9084 33.3744L25.9734 25.7437ZM24.0254 36.0811C24.9966 35.1095 26.2874 34.5744 27.6578 34.5728C30.491 34.5728 32.7966 36.8783 32.7984 39.7116C32.7984 41.0813 32.2635 42.3705 31.2908 43.3449C30.3192 44.3164 29.0296 44.8522 27.6596 44.8522H27.6574C24.8245 44.8522 22.519 42.5476 22.5177 39.7153C22.518 38.3447 23.0532 37.0535 24.0253 36.0811H24.0254Z" fill="white"/>
<path id="Vector_2" d="M31.7715 46.912C31.6032 47.0402 27.5962 50.012 23.8028 46.9219C23.4463 46.6306 22.9322 46.6393 22.5847 46.9415C22.4316 47.076 18.8395 50.2663 18.7501 56.525C18.7467 56.7775 18.8445 57.0229 19.0231 57.2037C19.1998 57.3841 19.443 57.4851 19.6965 57.4851L35.6124 57.482C36.1236 57.482 36.5417 57.0767 36.559 56.566C36.5671 56.3154 36.7184 50.3843 32.9872 46.9665C32.649 46.6578 32.1368 46.6364 31.7719 46.9125L31.7715 46.912ZM20.6883 55.5907C20.9756 52.0825 22.4957 49.8649 23.3129 48.9089C26.6573 51.1209 30.2425 50.0742 32.2222 48.8884C34.0891 51.0113 34.5329 54.0756 34.6367 55.5882L20.6883 55.5907Z" fill="white"/>
<path id="Vector_3" d="M52.6736 46.9657C52.3366 46.6573 51.8244 46.6359 51.4601 46.912C51.2914 47.0402 47.2848 50.012 43.4906 46.9219C43.1341 46.6306 42.6191 46.6393 42.2719 46.9415C42.1191 47.076 38.5267 50.2663 38.4376 56.525C38.4345 56.7775 38.532 57.0229 38.71 57.2037C38.8879 57.3838 39.1311 57.4848 39.3846 57.4848L55.3005 57.4817C55.8101 57.4817 56.2298 57.0763 56.2459 56.5657C56.2546 56.3154 56.4056 50.384 52.6738 46.9662L52.6736 46.9657ZM40.3755 55.5903C40.6622 52.0822 42.1828 49.8645 43.0004 48.9086C46.3439 51.1206 49.9291 50.0739 51.9097 48.8881C53.7766 51.011 54.2204 54.0753 54.3236 55.5879L40.3755 55.5903Z" fill="white"/>
</g>
</g>
</svg>
