<svg width="75" height="75" viewBox="0 0 75 75" fill="none" xmlns="http://www.w3.org/2000/svg">
<g id="Group 114">
<g id="Group">
<path id="Vector" d="M58.9195 46.9749C58.9207 46.9609 58.9235 46.9481 58.9235 46.9331C58.9241 46.9209 58.9275 46.9103 58.9275 46.8975C58.9275 46.7905 58.9067 46.689 58.8756 46.593C58.8711 46.579 58.8668 46.564 58.8616 46.55C58.8193 46.4363 58.758 46.3342 58.6803 46.2434C58.6742 46.2367 58.6729 46.2284 58.6669 46.2217C58.6629 46.2178 58.6574 46.2162 58.6534 46.2117C58.5702 46.1224 58.4712 46.0495 58.3596 45.9959C58.3502 45.9913 58.3428 45.9852 58.3334 45.9818C58.2279 45.934 58.1121 45.9066 57.9905 45.8971C57.9777 45.8965 57.967 45.8938 57.9548 45.8938C57.942 45.8931 57.9308 45.8898 57.917 45.8898H57.0493C56.5619 36.8423 49.5602 29.4404 40.5117 27.9977C40.8083 27.4841 40.9918 26.8964 40.9918 26.2618C40.9918 24.3352 39.4242 22.7676 37.4975 22.7676C35.5709 22.7676 34.0033 24.3352 34.0033 26.2618C34.0033 26.8729 34.1746 27.439 34.4517 27.9391C25.2169 29.2284 18.0218 36.7128 17.5279 45.889H17.0801C17.0673 45.889 17.056 45.8924 17.0432 45.893C17.0298 45.893 17.0176 45.8957 17.0048 45.8969C16.8838 45.9058 16.7689 45.9332 16.6641 45.9811C16.6546 45.985 16.6467 45.9911 16.6379 45.9951C16.5263 46.0496 16.4275 46.1222 16.3434 46.2121C16.3401 46.2155 16.3355 46.2167 16.3312 46.2209C16.3257 46.227 16.3245 46.235 16.319 46.2411C16.2404 46.3319 16.1785 46.4346 16.1361 46.5495C16.1307 46.5635 16.1273 46.5769 16.1227 46.5919C16.092 46.6894 16.0703 46.7903 16.0703 46.897C16.0703 46.9092 16.0737 46.9205 16.0737 46.9327C16.0737 46.9467 16.0764 46.9601 16.0776 46.975C16.0871 47.0948 16.1139 47.2082 16.1608 47.3124C16.1654 47.3225 16.1715 47.3313 16.177 47.3414C16.2316 47.4517 16.3035 47.5505 16.3922 47.6331C16.3961 47.6371 16.3977 47.6425 16.4016 47.6465L21.2379 52.0161C21.2446 52.0229 21.254 52.0241 21.2614 52.0302C21.3461 52.1021 21.4415 52.1625 21.547 52.2042C21.5592 52.2088 21.571 52.2115 21.5832 52.2155C21.6875 52.2524 21.7969 52.2758 21.9133 52.2758H53.0806C53.1971 52.2758 53.3071 52.2524 53.4113 52.2155C53.4235 52.2115 53.4354 52.2088 53.4482 52.2042C53.5531 52.1625 53.6485 52.1033 53.7332 52.0302C53.7405 52.0241 53.7494 52.0222 53.7567 52.0161L58.5929 47.6465C58.5969 47.6425 58.5984 47.6371 58.603 47.6331C58.6917 47.5505 58.7636 47.4517 58.8176 47.3414C58.8231 47.3313 58.8298 47.3225 58.8337 47.3124C58.8843 47.2082 58.9111 47.0939 58.92 46.9747L58.9195 46.9749ZM52.6946 50.2588H22.3037L19.6995 47.9061H55.298L52.6946 50.2588ZM37.4999 24.7838C38.3146 24.7838 38.9776 25.4467 38.9776 26.2615C38.9776 27.0763 38.3147 27.7392 37.4999 27.7392C36.6851 27.7392 36.0222 27.0763 36.0222 26.2615C36.0222 25.4467 36.6851 24.7838 37.4999 24.7838ZM37.2902 29.7561C46.7396 29.7561 54.4863 36.9055 55.0294 45.8894L19.5494 45.8891C20.0932 36.9056 27.8401 29.7558 37.2894 29.7558L37.2902 29.7561Z" fill="white"/>
<path id="Vector_2" d="M26.5667 35.4975C24.5352 37.2138 22.9606 39.4053 22.0141 41.8367C21.8124 42.3549 22.0693 42.9405 22.5884 43.1416C22.7088 43.1886 22.8325 43.2108 22.9541 43.2108C23.3583 43.2108 23.7387 42.9676 23.8939 42.5683C24.7186 40.4508 26.0927 38.5388 27.8682 37.0383C28.2937 36.6786 28.3477 36.0428 27.988 35.617C27.628 35.1924 26.9922 35.1384 26.5667 35.4975L26.5667 35.4975Z" fill="white"/>
</g>
</g>
</svg>
