<svg width="75" height="75" viewBox="0 0 75 75" fill="none" xmlns="http://www.w3.org/2000/svg">
<g id="Group 115">
<g id="Group">
<path id="Vector" d="M50.625 25.8049V22.4998C50.625 22.2512 50.5264 22.013 50.3506 21.8369C50.1745 21.6611 49.9363 21.5625 49.6877 21.5625H48.7501V20.6249H50.625C51.1429 20.6249 51.5626 20.2052 51.5626 19.6873C51.5626 19.1697 51.1429 18.75 50.625 18.75H44.9999C44.4823 18.75 44.0626 19.1697 44.0626 19.6873C44.0626 20.2052 44.4823 20.6249 44.9999 20.6249H46.8748L46.8752 21.5625H45.9375C45.4199 21.5625 44.9999 21.9822 44.9999 22.4998V25.8048C43.357 26.3868 41.9345 27.4629 40.9274 28.8851C39.9201 30.3077 39.378 32.0072 39.3749 33.7499V36.5624H35.6251V33.7499C35.622 32.0071 35.0799 30.3077 34.0726 28.8851C33.0656 27.4629 31.6431 26.3868 30.0001 25.8048V22.4998C30.0001 22.2512 29.9012 22.013 29.7254 21.8369C29.5496 21.6611 29.3111 21.5625 29.0625 21.5625H28.1248V20.6249H30.0001C30.5177 20.6249 30.9374 20.2052 30.9374 19.6873C30.9374 19.1697 30.5177 18.75 30.0001 18.75H24.375C23.8571 18.75 23.4374 19.1697 23.4374 19.6873C23.4374 20.2052 23.8571 20.6249 24.375 20.6249H26.2499V21.5625H25.3123C24.7947 21.5625 24.375 21.9822 24.375 22.4998V25.8048C22.7321 26.3868 21.3096 27.4629 20.3022 28.8851C19.2952 30.3077 18.7528 32.0072 18.75 33.7499V48.7502C18.75 51.7646 20.3581 54.5501 22.9688 56.0575C25.5791 57.5645 28.7957 57.5645 31.4063 56.0575C34.0167 54.5501 35.6251 51.7646 35.6251 48.7502V45.9377H39.3752V48.7502H39.3749C39.3749 51.7646 40.9833 54.5501 43.5937 56.0575C46.2043 57.5645 49.4209 57.5645 52.0312 56.0575C54.6419 54.5501 56.25 51.7646 56.25 48.7502V33.7499C56.2472 32.0071 55.7048 30.3077 54.6978 28.8851C53.6905 27.4629 52.268 26.3868 50.625 25.8048L50.625 25.8049ZM41.2505 44.9999V34.6876H54.3753V47.8124H41.2505V44.9999ZM46.8755 25.3123V23.4374H48.7504V25.3123H46.8755ZM47.8131 27.1872L47.8128 27.1875C49.3895 27.1903 50.9122 27.76 52.1035 28.7928C53.2944 29.8255 54.0744 31.2521 54.3005 32.8125H41.3259C41.5519 31.2521 42.332 29.8255 43.5229 28.7928C44.7141 27.76 46.2368 27.1904 47.8133 27.1875L47.8131 27.1872ZM20.6249 34.6874H33.7497V47.8122H20.6249V34.6874ZM26.2499 25.3121V23.4372H28.1249V25.3121H26.2499ZM27.1876 27.187V27.1873C28.7639 27.1901 30.2866 27.7599 31.4779 28.7926C32.6688 29.8254 33.4489 31.252 33.6749 32.8123H20.7004C20.9264 31.252 21.7065 29.8253 22.8974 28.7926C24.0886 27.7599 25.6113 27.1902 27.188 27.1873L27.1876 27.187ZM27.1876 55.3122V55.3125C25.6109 55.3096 24.0882 54.7396 22.8969 53.7069C21.706 52.6742 20.9259 51.2476 20.6999 49.6874H33.6744C33.4484 51.2475 32.6684 52.6742 31.4775 53.7069C30.2862 54.7397 28.7635 55.3097 27.1871 55.3125L27.1876 55.3122ZM35.6251 44.0621V38.4374H39.3752V44.0624L35.6251 44.0621ZM47.8121 55.3122C46.2358 55.3093 44.7131 54.7393 43.5218 53.7066C42.3309 52.6739 41.5508 51.2473 41.3248 49.6871H54.2993C54.0733 51.2472 53.2933 52.6739 52.1024 53.7066C50.9111 54.7394 49.3884 55.3093 47.8117 55.3122H47.8121Z" fill="white"/>
</g>
</g>
</svg>
