<svg width="75" height="75" viewBox="0 0 75 75" fill="none" xmlns="http://www.w3.org/2000/svg">
<g id="Group 116">
<g id="Group 105">
<path id="Vector" d="M50.8801 27.5C53.3952 34.552 49.7174 42.3075 42.6658 44.8226C35.6139 47.3377 27.8583 43.66 25.3432 36.6083C22.8281 29.5564 26.5055 21.801 33.5575 19.2857C40.6095 16.7705 48.365 20.4483 50.8801 27.5" stroke="white" stroke-width="1.42773" stroke-linecap="round" stroke-linejoin="round"/>
<path id="Vector_2" d="M45.2538 33.4824L44.54 38.4795H31.6904L30.9766 33.4824" stroke="white" stroke-width="1.42773" stroke-linecap="round" stroke-linejoin="round"/>
<path id="Vector_3" d="M38.3672 26.3438L40.9658 33.4824" stroke="white" stroke-width="1.42773" stroke-linecap="round" stroke-linejoin="round"/>
<path id="Vector_4" d="M35.2578 33.4824L37.8564 26.3438" stroke="white" stroke-width="1.42773" stroke-linecap="round" stroke-linejoin="round"/>
<path id="Vector_5" d="M45.8677 29.1992L45.2539 33.4824" stroke="white" stroke-width="1.42773" stroke-linecap="round" stroke-linejoin="round"/>
<path id="Vector_6" d="M40.9688 33.4824L45.2519 29.1992" stroke="white" stroke-width="1.42773" stroke-linecap="round" stroke-linejoin="round"/>
<path id="Vector_7" d="M30.9766 29.1992L35.2597 33.4824" stroke="white" stroke-width="1.42773" stroke-linecap="round" stroke-linejoin="round"/>
<path id="Vector_8" d="M30.9732 33.4824L30.3594 29.1992" stroke="white" stroke-width="1.42773" stroke-linecap="round" stroke-linejoin="round"/>
<path id="Vector_9" d="M39.5391 24.916C39.5391 25.7045 38.8998 26.3437 38.1113 26.3437C37.3229 26.3437 36.6836 25.7044 36.6836 24.916C36.6836 24.1276 37.3229 23.4883 38.1113 23.4883C38.8998 23.4883 39.5391 24.1276 39.5391 24.916Z" stroke="white" stroke-width="1.42773" stroke-linecap="round" stroke-linejoin="round"/>
<path id="Vector_10" d="M31.6875 27.7715C31.6875 28.5599 31.0482 29.1992 30.2598 29.1992C29.4713 29.1992 28.832 28.5599 28.832 27.7715C28.832 26.983 29.4713 26.3438 30.2598 26.3438C31.0482 26.3438 31.6875 26.983 31.6875 27.7715Z" stroke="white" stroke-width="1.42773" stroke-linecap="round" stroke-linejoin="round"/>
<path id="Vector_11" d="M47.3945 27.7715C47.3945 28.5599 46.7552 29.1992 45.9668 29.1992C45.1784 29.1992 44.5391 28.5599 44.5391 27.7715C44.5391 26.983 45.1784 26.3438 45.9668 26.3438C46.7552 26.3438 47.3945 26.983 47.3945 27.7715Z" stroke="white" stroke-width="1.42773" stroke-linecap="round" stroke-linejoin="round"/>
<path id="Vector_12" d="M36.6835 45.6172L28.831 59.8945L26.6894 54.1835H19.5508L27.4033 41.334" stroke="white" stroke-width="1.42773" stroke-linecap="round" stroke-linejoin="round"/>
<path id="Vector_13" d="M39.5391 45.6172L47.3916 59.8945L49.5332 54.1835H56.6718L48.8193 41.334" stroke="white" stroke-width="1.42773" stroke-linecap="round" stroke-linejoin="round"/>
<path id="Vector_14" d="M55.2461 33.4824H58.8154" stroke="white" stroke-width="1.42773" stroke-linecap="round" stroke-linejoin="round"/>
<path id="Vector_15" d="M55.2461 30.626L57.6232 28.4844" stroke="white" stroke-width="1.42773" stroke-linecap="round" stroke-linejoin="round"/>
<path id="Vector_16" d="M55.2461 36.3379L57.6232 38.4795" stroke="white" stroke-width="1.42773" stroke-linecap="round" stroke-linejoin="round"/>
<path id="Vector_17" d="M20.9795 33.4824H17.4102" stroke="white" stroke-width="1.42773" stroke-linecap="round" stroke-linejoin="round"/>
<path id="Vector_18" d="M20.9787 30.626L18.6016 28.4844" stroke="white" stroke-width="1.42773" stroke-linecap="round" stroke-linejoin="round"/>
<path id="Vector_19" d="M20.9787 36.3379L18.6016 38.4795" stroke="white" stroke-width="1.42773" stroke-linecap="round" stroke-linejoin="round"/>
</g>
</g>
</svg>
