<svg width="75" height="75" viewBox="0 0 75 75" fill="none" xmlns="http://www.w3.org/2000/svg">
<g id="Group 117">
<g id="Group">
<path id="Vector" d="M48.0953 40.9711H27.1925C24.7712 40.9711 23.4258 39.6258 23.4258 37.2044V29.7882C23.4258 27.3669 24.7711 26.0215 27.1925 26.0215H48.0953C50.5166 26.0215 51.862 27.3501 51.8958 29.7714V37.204C51.862 39.6425 50.5166 40.9711 48.0953 40.9711ZM27.1925 27.4843C25.5782 27.4843 24.8888 28.1737 24.8888 29.7881V37.204C24.8888 38.8183 25.5782 39.5077 27.1925 39.5077H48.0953C49.7096 39.5077 50.3991 38.8183 50.4326 37.1872V29.7881C50.4158 28.1737 49.7097 27.4843 48.0953 27.4843H27.1925Z" fill="white"/>
<path id="Vector_2" d="M48.0953 58.325H27.1925C24.7712 58.325 23.4258 56.9797 23.4258 54.5583V38.2464C23.4258 37.8427 23.7454 37.5234 24.1487 37.5234C24.5524 37.5234 24.8717 37.843 24.8717 38.2464V54.5583C24.8717 56.1726 25.5611 56.8621 27.1754 56.8621H48.0782C49.6925 56.8621 50.382 56.1726 50.4155 54.5415V38.2472C50.4155 37.8436 50.7351 37.5243 51.1555 37.5243C51.5759 37.5243 51.8955 37.8439 51.8955 38.2472V54.5591C51.862 56.9802 50.5167 58.3256 48.0953 58.3256L48.0953 58.325Z" fill="white"/>
<path id="Vector_3" d="M30.4682 27.2317C30.1151 27.2317 29.7955 26.9795 29.7452 26.6096C29.6779 26.1725 29.6612 25.7353 29.6779 25.3484C29.6441 23.2295 30.4344 21.3294 32.0152 19.7485C33.5961 18.1676 35.5129 17.3942 37.6653 17.4112C39.801 17.3777 41.7181 18.1679 43.2987 19.7485C44.8628 21.2955 45.6363 23.196 45.6363 25.3989V25.9369C45.6363 26.0043 45.6196 26.0884 45.6028 26.1557C45.5522 26.5255 45.233 26.8619 44.8628 26.8116C44.4591 26.8116 44.1399 26.492 44.1399 26.1054C44.1399 26.0548 44.1399 25.954 44.1734 25.8364V25.3989C44.1734 23.5829 43.5513 22.0694 42.2732 20.7914C40.9952 19.5133 39.5155 18.8912 37.7665 18.8912H37.5648C35.799 18.8912 34.3194 19.5133 33.0413 20.7914C31.7298 22.1029 31.1074 23.5997 31.1412 25.3989C31.1244 25.752 31.1412 26.0548 31.1917 26.3912C31.2591 26.7948 30.973 27.1647 30.5864 27.232C30.5352 27.215 30.5017 27.2317 30.4682 27.2317H30.4682Z" fill="white"/>
<path id="Vector_4" d="M35.4297 40.8027V44.2163C35.4464 45.2756 35.9848 45.8139 37.044 45.8139H38.2885C39.3478 45.8139 39.8861 45.2759 39.8861 44.2163V40.8027" fill="white"/>
<path id="Vector_5" d="M51.1582 50.9589C50.7883 50.9589 50.4687 50.6899 50.4352 50.303C50.3846 49.8993 50.6875 49.5462 51.0911 49.496C51.9655 49.3951 52.7728 48.6048 53.479 47.1249C54.3366 45.3088 54.7738 43.1226 54.7738 40.5833C54.7738 38.0778 54.3366 35.9084 53.479 34.1427C52.7561 32.5956 51.9487 31.7716 51.0911 31.6707C50.6875 31.6201 50.4017 31.267 50.452 30.8636C50.5025 30.46 50.8556 30.1742 51.259 30.2245C52.6716 30.3759 53.8656 31.4858 54.8073 33.5205C55.7657 35.4712 56.2534 37.8591 56.2534 40.6C56.2534 43.341 55.7657 45.7627 54.8073 47.7637C53.8656 49.7311 52.6716 50.8074 51.259 50.9589H51.1581L51.1582 50.9589Z" fill="white"/>
<path id="Vector_6" d="M23.8285 50.9587H23.7445C22.3318 50.8073 21.1379 49.6974 20.1962 47.6627C19.2377 45.712 18.75 43.3241 18.75 40.5831C18.75 37.8422 19.2377 35.4204 20.1962 33.4195C21.1379 31.452 22.3318 30.3757 23.7445 30.2243C24.1314 30.1737 24.5012 30.4765 24.5515 30.8634C24.602 31.2671 24.2992 31.6202 23.9123 31.6705C23.038 31.7713 22.2306 32.5616 21.5244 34.0416C20.6669 35.8576 20.2297 38.0438 20.2297 40.5831C20.2297 43.0886 20.6669 45.258 21.5244 47.0238C22.2474 48.5708 23.0547 49.3949 23.9123 49.4958C24.316 49.5463 24.6017 49.8994 24.5515 50.3028C24.5012 50.6729 24.1819 50.9587 23.8285 50.9587L23.8285 50.9587Z" fill="white"/>
</g>
</g>
</svg>
