<svg width="75" height="75" viewBox="0 0 75 75" fill="none" xmlns="http://www.w3.org/2000/svg">
<g id="Group 104">
<g id="Group">
<path id="Vector" d="M48.6895 55.8869H26.3105C22.137 55.8869 18.75 52.4998 18.75 48.3264V35.08C18.75 30.9065 22.1371 27.5195 26.3105 27.5195H48.6895C52.863 27.5195 56.25 30.9066 56.25 35.08V48.2652C56.2504 52.4994 52.8629 55.8864 48.6895 55.8864V55.8869ZM26.3105 28.1245C22.4997 28.1245 19.3544 31.2697 19.3544 35.0802V48.2654C19.3544 52.0758 22.4996 55.221 26.3101 55.221H48.6891C52.4995 55.221 55.6448 52.0759 55.6448 48.2654L55.6452 35.0802C55.6452 31.2698 52.5 28.1245 48.6895 28.1245H26.3105Z" fill="white"/>
<path id="Vector_2" d="M48.5112 27.9433H46.0916V27.2176C46.0916 23.8909 43.3698 21.1691 40.0431 21.1691H35.0228C31.6961 21.1691 28.9743 23.8909 28.9743 27.2176V27.8829H26.5547V27.2176C26.5547 22.5604 30.3651 18.75 35.0223 18.75H40.0426C44.6998 18.75 48.5102 22.5604 48.5102 27.2176L48.5112 27.9433Z" fill="white"/>
<path id="Vector_3" d="M45.1207 39.1333H39.6771V33.6289H35.3225V39.0725H29.9393L29.8789 43.3671H35.3225V48.8711H39.6771V43.4275H45.0603L45.1207 39.1333Z" fill="white"/>
<path id="Vector_4" d="M21.7735 48.3888C22.1969 50.0824 23.2252 51.4736 24.6768 52.3807C25.5235 52.9253 26.2496 51.5944 25.4632 51.0502C24.3142 50.3245 23.5881 49.2355 23.2859 47.9654C23.0437 47.0583 21.592 47.4816 21.7735 48.3888L21.7735 48.3888Z" fill="white"/>
<path id="Vector_5" d="M26.9131 54.1332C27.881 54.1332 27.881 52.6211 26.9131 52.6211C25.9456 52.6211 25.9456 54.1332 26.9131 54.1332Z" fill="white"/>
</g>
</g>
</svg>
