<svg width="56" height="56" viewBox="0 0 56 56" fill="none" xmlns="http://www.w3.org/2000/svg">
<g id="Group 104">
<g id="Group">
<path id="Vector" d="M48.274 44.5529V26.1895C48.2728 25.0072 47.8018 23.8742 46.9641 23.0398C46.1267 22.2057 44.9916 21.7385 43.8097 21.7421H40.562L31.7146 12.8947C32.3658 11.6449 32.3171 10.1458 31.5864 8.94078C30.8554 7.73578 29.5484 7 28.139 7C26.7299 7 25.4226 7.73579 24.6919 8.94078C23.9609 10.1458 23.9125 11.6449 24.5637 12.8947L15.6819 21.7421H12.4643C11.2824 21.7385 10.1473 22.2057 9.3099 23.0398C8.47221 23.8742 8.00122 25.0072 8 26.1895V44.5529C8.0012 45.7349 8.4722 46.8682 9.3099 47.7023C10.1473 48.5367 11.2824 49.0036 12.4643 49H43.8097C44.9917 49.0036 46.1268 48.5367 46.9641 47.7023C47.8018 46.8682 48.2728 45.7349 48.274 44.5529H48.274ZM28.1371 9.15493C28.6368 9.15582 29.1155 9.35546 29.4682 9.70961C29.8211 10.0635 30.0186 10.5432 30.0178 11.0428C30.0172 11.5425 29.8181 12.0216 29.4643 12.3745C29.1104 12.7275 28.631 12.9256 28.1313 12.925C27.6316 12.9247 27.1526 12.726 26.7993 12.3724C26.4461 12.0189 26.2476 11.5398 26.2476 11.0398C26.2488 10.5395 26.4482 10.0601 26.8026 9.7066C27.1568 9.35334 27.6367 9.15491 28.137 9.15491L28.1371 9.15493ZM26.0163 14.4633C26.6514 14.8608 27.3857 15.0718 28.1349 15.0718C28.8842 15.0718 29.6185 14.8608 30.2535 14.4633L37.537 21.7468H18.7114L26.0163 14.4633ZM46.1318 44.5532C46.1307 45.167 45.8853 45.7552 45.4496 46.1879C45.0138 46.6204 44.4236 46.8616 43.8097 46.858H12.4643C11.8504 46.8616 11.2602 46.6204 10.8244 46.1879C10.3887 45.7552 10.1433 45.167 10.1421 44.5532V26.1897C10.1433 25.5785 10.3863 24.993 10.8184 24.5609C11.2506 24.1288 11.8361 23.8858 12.4472 23.8846H43.8094C44.4233 23.881 45.0135 24.1222 45.4493 24.5549C45.885 24.9874 46.1304 25.5756 46.1316 26.1897L46.1318 44.5532Z" fill="black"/>
<path id="Vector_2" d="M15.3887 27.8564C15.3887 28.5357 14.8382 29.0862 14.1592 29.0862C13.4802 29.0862 12.9297 28.5357 12.9297 27.8564C12.9297 27.1774 13.4802 26.627 14.1592 26.627C14.8382 26.627 15.3887 27.1775 15.3887 27.8564Z" fill="black"/>
<path id="Vector_3" d="M15.3887 42.9639C15.3887 43.6429 14.8382 44.1933 14.1592 44.1933C13.4802 44.1933 12.9297 43.6428 12.9297 42.9639C12.9297 42.2849 13.4802 41.7344 14.1592 41.7344C14.8382 41.7344 15.3887 42.2849 15.3887 42.9639Z" fill="black"/>
<path id="Vector_4" d="M43.3418 27.8564C43.3418 28.5357 42.7913 29.0862 42.1123 29.0862C41.4333 29.0862 40.8828 28.5357 40.8828 27.8564C40.8828 27.1774 41.4333 26.627 42.1123 26.627C42.7913 26.627 43.3418 27.1775 43.3418 27.8564Z" fill="black"/>
<path id="Vector_5" d="M43.3418 42.9639C43.3418 43.6429 42.7913 44.1933 42.1123 44.1933C41.4333 44.1933 40.8828 43.6428 40.8828 42.9639C40.8828 42.2849 41.4333 41.7344 42.1123 41.7344C42.7913 41.7344 43.3418 42.2849 43.3418 42.9639Z" fill="black"/>
<path id="Vector_6" d="M34.1624 29.2927C33.79 28.9215 33.2852 28.7129 32.7592 28.7129C32.2332 28.7129 31.7287 28.9215 31.356 29.2927L26.5405 34.0741L24.9297 32.4588H24.9294C24.5603 32.0793 24.0537 31.8644 23.5241 31.8632C23.0029 31.8695 22.5054 32.0822 22.1404 32.4546L20.5251 34.0484C20.1539 34.4211 19.9453 34.9256 19.9453 35.4516C19.9453 35.9776 20.1539 36.4821 20.5251 36.8548L25.1395 41.4691C25.5121 41.8403 26.0166 42.0486 26.5426 42.0486C27.0686 42.0486 27.5731 41.8403 27.9458 41.4691L35.7649 33.6714C36.1361 33.2987 36.3447 32.7942 36.3447 32.2683C36.3447 31.7423 36.1361 31.2378 35.7649 30.8651L34.1624 29.2927ZM26.5319 39.8454L22.1405 35.454L23.5117 34.0874L25.7696 36.3494H25.7693C25.9704 36.5508 26.2433 36.6641 26.5278 36.6641C26.8123 36.6641 27.0852 36.5508 27.286 36.3494L32.7572 30.8997L34.1368 32.2706L26.5319 39.8454Z" fill="black"/>
</g>
</g>
</svg>
