<svg width="56" height="56" viewBox="0 0 56 56" fill="none" xmlns="http://www.w3.org/2000/svg">
<g id="Group 104">
<g id="Group">
<path id="Vector" d="M25.4504 11.6336H14.3822C13.1692 11.6336 12.0061 12.1157 11.1482 12.9732C10.2903 13.8311 9.8086 14.9942 9.8086 16.2072V41.8652C8.65245 42.1294 7.69918 42.9442 7.25856 44.0455C6.81794 45.1467 6.94591 46.3942 7.60088 47.3828C8.25585 48.3718 9.35462 48.9761 10.5404 49H29.2922H29.2919C30.478 48.9761 31.5765 48.3718 32.2315 47.3828C32.8864 46.3942 33.0144 45.1467 32.5738 44.0455C32.1332 42.9442 31.1803 42.1294 30.0237 41.8652V20.0948H30.664C31.2705 20.0948 31.8524 20.3357 32.2812 20.7644C32.71 21.1932 32.9509 21.7751 32.9509 22.3816V35.4622C32.9509 37.913 34.2586 40.1777 36.3811 41.4035C38.5039 42.6289 41.119 42.6289 43.2415 41.4035C45.3643 40.1777 46.6717 37.913 46.6717 35.4622V31.8032C46.6717 30.9782 46.3441 30.1873 45.7609 29.6041C45.1777 29.0206 44.3865 28.693 43.5618 28.693C43.222 28.693 42.8963 28.558 42.6561 28.3181C42.4162 28.0779 42.2812 27.7522 42.2812 27.4124V22.0157H42.83C44.0091 22.0074 45.1576 21.6405 46.123 20.9638C47.2456 20.1864 48.0815 19.0614 48.5013 17.762L48.5929 17.4417C50.0566 13.0053 46.9464 8.2945 46.8092 8.11156L46.3517 7.42564C46.1191 7.05844 45.6603 6.9053 45.2539 7.05971L44.4308 7.38002C43.4332 7.77817 42.4826 8.28413 41.595 8.88932C39.5369 10.2615 38.1191 11.9992 37.4789 13.9205L37.3873 14.2408V14.2405C36.8842 15.743 36.9825 17.3823 37.6617 18.8141C38.2401 20.0283 39.2278 21.0001 40.4516 21.5581V27.4582C40.4516 28.2829 40.7792 29.0741 41.3627 29.6573C41.9459 30.2405 42.7368 30.5681 43.5618 30.5681C43.9012 30.5681 44.227 30.7031 44.4672 30.9433C44.7075 31.1835 44.8424 31.5093 44.8424 31.8487V35.5077C44.8424 37.3051 43.8834 38.966 42.3268 39.8647C40.7702 40.7634 38.8526 40.7634 37.2957 39.8647C35.7391 38.966 34.7804 37.3051 34.7804 35.5077V22.3814C34.7804 21.2897 34.3466 20.2426 33.5748 19.4705C32.8027 18.6988 31.7557 18.2649 30.6639 18.2649H30.0236V16.2068C30.0236 14.9939 29.5419 13.8307 28.6841 12.9728C27.8265 12.1153 26.663 11.6332 25.45 11.6332L25.4504 11.6336ZM46.8549 16.9391L46.7633 17.2594V17.2591C46.4718 18.1648 45.894 18.9516 45.1168 19.5002C44.3665 20.0152 43.4627 20.2573 42.5557 20.1861L45.8944 10.1242C46.5806 11.5419 47.724 14.3778 46.855 16.939L46.8549 16.9391ZM39.3542 17.9909C38.8823 16.9873 38.8169 15.8404 39.1711 14.7895L39.2626 14.4692C39.7657 12.9599 40.9091 11.5877 42.6472 10.3987C43.1161 10.0787 43.6049 9.78835 44.1106 9.52992L40.7719 19.5919C40.1603 19.1995 39.6697 18.6453 39.3542 17.991L39.3542 17.9909ZM14.3822 13.4632H25.4504C26.1781 13.4632 26.8761 13.7523 27.3907 14.2669C27.9057 14.7815 28.1947 15.4795 28.1947 16.2072V41.7737H11.6382V16.2072C11.6382 15.4795 11.9276 14.7815 12.4422 14.2669C12.9568 13.7522 13.6548 13.4632 14.3825 13.4632H14.3822ZM31.0759 45.3871C31.0759 45.8602 30.888 46.3139 30.5537 46.6482C30.219 46.9828 29.7654 47.1707 29.2923 47.1707H10.5404H10.5407C9.90331 47.1707 9.31468 46.8307 8.996 46.2787C8.67729 45.7268 8.67729 45.047 8.996 44.495C9.3147 43.9431 9.90329 43.6033 10.5407 43.6033H29.2926H29.2923C29.7654 43.6033 30.2191 43.7912 30.5537 44.1256C30.888 44.4602 31.0759 44.9139 31.0759 45.387V45.3871Z" fill="black"/>
<path id="Vector_2" d="M15.024 24.303H24.8116C25.0543 24.303 25.2869 24.2067 25.4586 24.035C25.6299 23.8634 25.7262 23.6308 25.7262 23.3884V17.5341C25.7262 17.2913 25.6299 17.0588 25.4586 16.8871C25.2869 16.7155 25.0543 16.6191 24.8116 16.6191H15.024C14.519 16.6191 14.1094 17.0288 14.1094 17.5341V23.3883C14.1094 23.6308 14.2057 23.8634 14.3774 24.035C14.5487 24.2067 14.7816 24.303 15.024 24.303L15.024 24.303ZM15.9387 18.4488H23.8968V22.4736L15.9387 22.4733V18.4488Z" fill="black"/>
</g>
</g>
</svg>
