<svg width="151" height="150" viewBox="0 0 151 150" fill="none" xmlns="http://www.w3.org/2000/svg">
<g id="Group 133">
<rect id="Rectangle 60" x="0.5" width="150" height="150" rx="75" fill="white" fill-opacity="0.35"/>
<g id="Group 104">
<g id="Group">
<path id="Vector" d="M59.7265 61.4271L61.8877 59.7741L61.7609 59.5195H62.269L63.413 58.6292L64.1757 59.5195H66.5914L56.675 44.7718L56.2937 44.2637L55.9124 44.8995L45.9959 59.5194H50.6997L41.0377 73.8858H46.6318L41.0377 82.149L35.9528 74.6483H39.0043L32.5207 65.2402L32.2662 64.8589L32.0116 65.2402L25.5281 74.6483H28.5795L22.3497 83.9289H25.9095L19.6797 93.2094H29.8506V93.3362L29.8497 100.584C29.8497 101.856 30.8669 102.872 32.1377 102.872C33.4094 102.872 34.4256 101.855 34.4256 100.584V92.9566H44.5965L41.2913 88.1253H52.3517L63.0307 65.6224L59.7265 61.4271ZM38.8766 84.6925L38.2408 83.8022H39.5125L38.8766 84.6925Z" fill="black"/>
<path id="Vector_2" d="M125.329 82.4043H129.143L122.405 72.4879H125.71L118.845 62.317L118.591 61.9357L118.337 62.4447L111.473 72.4878L103.463 60.6648H107.531L98.8861 47.8246L98.5047 47.3164L98.1234 47.8246L89.4788 60.5379H93.5475L87.4453 69.5649L84.0125 64.48H87.0639L80.5803 55.0719L80.324 54.8164L80.0695 55.1978L73.5859 64.6059H76.6374L74.7298 67.5297L96.0878 74.7768L101.554 87.7447V85.7112H109.564L105.114 92.3224H116.047V100.459C116.047 101.731 117.191 102.875 118.463 102.875C119.735 102.875 120.879 101.731 120.879 100.459V92.3224H131.812L125.329 82.4043ZM110.582 78.4634L106.896 73.1238H111.854L111.472 72.488H114.651L110.582 78.4634Z" fill="black"/>
<path id="Vector_3" d="M109.435 95.6268L107.4 94.6096L105.113 99.6945L95.4506 75.412L68.1169 66.5129L67.3542 65.4957L70.6595 61.5548L69.0065 60.1562L65.955 63.716L63.1581 60.1562L61.3783 61.5548L64.5566 65.6235L47.5209 100.077L45.3598 96.008L43.4531 97.0252L46.377 102.365L45.8688 103.509H106.639L106.257 102.365L109.435 95.6268ZM51.8433 101.348C63.0313 89.6513 65.3192 78.2093 65.3192 78.2093C66.8446 86.6003 75.8713 97.7874 78.923 101.348H51.8433ZM83.4996 96.7708L84.6436 92.3206L88.0764 93.0833L85.9152 101.347H85.4071L87.0601 93.5923L84.8989 93.211L83.6273 99.0596L69.2609 69.1832L93.7977 77.3197L94.0522 77.8279C90.1113 76.6839 71.9308 71.4712 71.9308 71.4712L83.4996 96.7708Z" fill="black"/>
</g>
</g>
</g>
</svg>
