<svg width="151" height="150" viewBox="0 0 151 150" fill="none" xmlns="http://www.w3.org/2000/svg">
<g id="Group 133">
<rect id="Rectangle 60" x="0.5" width="150" height="150" rx="75" fill="white" fill-opacity="0.35"/>
<g id="Group 104">
<g id="Group">
<path id="Vector" d="M131.671 103.452L128.494 99.0043C128.24 98.4964 127.859 97.9876 127.604 97.4797H130.019C130.909 97.4797 131.29 96.5897 130.909 95.5739L127.859 91.5071C127.478 90.8715 126.97 90.1092 126.588 89.3469H128.622C129.384 89.3469 129.765 88.5846 129.384 87.6946L126.843 84.2634C126.08 83.1199 125.318 81.7221 124.683 80.3243V80.1975H126.207C126.715 80.1975 126.97 79.6896 126.715 79.1808L125.063 76.8939C124.555 76.1316 124.046 75.2416 123.665 74.3526C123.411 73.5903 123.029 72.828 122.903 72.0657C122.395 70.2867 121.886 68.2532 121.886 68.2532C121.632 67.6177 121.25 67.6177 120.996 68.2532C120.996 68.2532 120.488 70.2866 119.979 72.0657C119.725 72.828 119.471 73.5903 119.217 74.3526C118.836 75.2426 118.327 76.1316 117.819 76.8939L116.167 79.1808C115.912 79.8164 116.167 80.1975 116.675 80.1975H118.199V80.3243C117.564 81.7221 116.802 82.9933 116.039 84.2634L113.498 87.6946C113.117 88.5846 113.371 89.3469 114.26 89.3469H116.294C115.913 90.1092 115.404 90.7448 115.023 91.5071L112.1 95.5739C111.846 96.0818 111.846 96.4639 111.973 96.8451L110.449 94.6849C110.068 94.0493 109.559 93.4138 109.178 92.6515H112.354C113.498 92.6515 114.007 91.508 113.498 90.2368L109.685 84.8996C109.178 84.0097 108.542 83.1206 108.033 82.104H110.702C111.719 82.104 112.1 81.214 111.592 80.0706L108.288 75.6225C107.272 74.0978 106.255 72.3188 105.493 70.5399V70.4132H107.399C108.034 70.4132 108.415 69.7776 108.034 69.0153L105.874 66.0928C105.238 65.0761 104.603 63.9326 103.968 62.7891C103.587 61.8991 103.206 60.8833 102.951 59.8665C102.316 57.4519 101.68 54.784 101.68 54.784C101.299 54.0217 100.79 54.0217 100.409 54.784C100.409 54.784 99.7737 57.453 99.1381 59.8665C98.8837 60.8833 98.5026 61.9 98.1214 62.7891C97.6135 63.9325 96.978 65.076 96.2157 66.0928L93.5484 69.0144C93.1673 69.7767 93.5484 70.4123 94.184 70.4123H96.0906V70.539C95.3283 72.318 94.3116 74.0971 93.295 75.6216L89.9913 80.0697C89.4833 81.2131 89.8645 82.1031 90.8812 82.1031H93.5502C93.0423 83.1198 92.4068 84.0088 91.898 84.8987L91.0072 86.2966C91.0072 86.1699 90.8804 86.0422 90.8804 85.7887L86.3057 79.4349C85.6701 78.4182 84.9078 77.2748 84.2723 76.1312H87.576C88.8471 76.1312 89.355 74.9877 88.7195 73.5899L84.6535 68.1252C83.51 66.3462 82.2389 64.1861 81.3498 62.0258C81.3498 62.0258 81.3498 61.8991 81.223 61.8991H83.5099C84.2722 61.8991 84.6534 61.1368 84.2722 60.2468L81.6032 56.6887C80.8409 55.4176 79.951 54.0197 79.3163 52.6218C78.8084 51.4784 78.4264 50.3349 78.0452 49.0637C77.2829 46.1412 76.5206 42.9643 76.5206 42.9643C76.1394 42.0744 75.3771 42.0744 74.9959 42.9643C74.9959 42.9643 74.2336 46.1412 73.4713 49.0637C73.0901 50.2072 72.709 51.4784 72.2002 52.6218C71.5646 54.0197 70.8023 55.4175 69.9133 56.6887L67.2442 60.2468C66.8631 61.1359 67.2442 61.8982 68.0066 61.8982H70.2935C70.2935 61.8982 70.2935 62.0249 70.1667 62.0249C69.4044 64.1851 68.1333 66.2184 66.863 68.1252L62.9239 73.589C62.2883 74.9869 62.7971 76.1303 64.0673 76.1303H67.3711C66.7355 77.2738 65.9732 78.4172 65.3377 79.434L60.7629 85.7878C60.6362 85.9146 60.6362 86.169 60.6362 86.2957L59.6195 84.8979C59.1116 84.0079 58.476 83.1188 57.9672 82.1022H60.6363C61.653 82.1022 62.0341 81.2122 61.5262 80.0688L58.2225 75.6207C57.2058 74.0961 56.1891 72.317 55.4268 70.5381V70.4114H57.3326C57.9682 70.4114 58.3493 69.7758 57.9682 69.0135L55.808 66.091C55.1724 65.0743 54.5369 63.9308 53.9022 62.7873C53.5211 61.8973 53.1399 60.8815 52.8855 59.8648C52.2499 57.4501 51.6144 54.7822 51.6144 54.7822C51.2332 54.0199 50.7244 54.0199 50.3433 54.7822C50.3433 54.7822 49.7077 57.4512 49.0722 59.8648C48.8178 60.8815 48.4366 61.8982 48.0554 62.7873C47.5475 63.9307 46.912 65.0742 46.1497 66.091L43.9895 69.0144C43.6083 69.7767 43.9895 70.4123 44.6251 70.4123H46.5308V70.539C45.7685 72.318 44.7518 74.0972 43.7352 75.6216L40.4314 80.0697C39.9235 81.2132 40.3047 82.1031 41.3214 82.1031H43.9895C43.4816 83.1198 42.846 84.0089 42.3373 84.8988L38.5248 90.2359C37.8892 91.6338 38.398 92.6506 39.6683 92.6506H42.8451C42.464 93.2861 41.9552 94.0485 41.574 94.684L39.9218 96.8442C40.0485 96.463 40.0485 96.0818 39.795 95.573L36.8725 91.5062C36.4914 90.8706 35.9826 90.1083 35.6014 89.346L37.6357 89.3469C38.398 89.3469 38.7792 88.5846 38.398 87.6946L35.8567 84.2634C35.0944 83.1199 34.3321 81.7221 33.6966 80.3243V80.1975H35.2212C35.7291 80.1975 35.9835 79.6896 35.7291 79.1808L34.0769 76.8939C33.5689 76.1316 33.0601 75.2416 32.679 74.3526C32.4246 73.5903 32.0434 72.828 31.9167 72.0657C31.4087 70.2867 30.8999 68.2532 30.8999 68.2532C30.6455 67.6177 30.2644 67.6177 30.01 68.2532C30.01 68.2532 29.5021 70.2866 28.9933 72.0657C28.7389 72.828 28.4854 73.5903 28.231 74.3526C27.8498 75.2426 27.341 76.1316 26.8331 76.8939L24.9282 79.3077C24.6738 79.9432 24.9282 80.3244 25.4361 80.3244H26.9607V80.4511C26.3252 81.849 25.5629 83.1202 24.8006 84.3902L22.2593 87.8215C21.8781 88.7115 22.1325 89.4737 23.0216 89.4737H24.9283C24.5471 90.2361 24.0383 90.8716 23.6571 91.6339L20.7346 95.7008C20.3535 96.5899 20.7346 97.4798 21.6246 97.4798H24.0393C23.7849 97.9877 23.4037 98.4965 23.1493 99.0044L19.8456 103.453C19.3376 104.596 20.1 105.232 20.7355 105.486C21.3711 105.74 24.4203 107.011 30.2662 107.011C36.1121 107.011 39.289 105.739 39.7968 105.486C40.178 105.359 40.9403 104.724 40.8135 103.834C42.847 104.342 46.1507 104.977 50.9798 104.977C58.6048 104.977 62.7974 103.325 63.433 103.071C63.6874 102.945 63.9409 102.817 64.3229 102.436C66.8642 103.071 70.6767 103.707 75.887 103.707C80.9696 103.707 84.7821 103.071 87.3233 102.436C87.5777 102.69 87.9589 102.944 88.2133 103.071C88.9756 103.453 92.9149 104.977 100.666 104.977C105.368 104.977 108.672 104.342 110.705 103.834C110.578 104.724 111.213 105.232 111.722 105.486C112.357 105.74 115.406 107.011 121.252 107.011C127.098 107.011 130.275 105.739 130.783 105.486C131.163 105.358 132.18 104.596 131.671 103.453L131.671 103.452ZM64.4482 91.2527L61.1444 95.7008L60.3821 94.6841C60.001 94.0485 59.4922 93.413 59.111 92.6507H62.2879C63.4314 92.6507 63.9401 91.5072 63.4314 90.236L62.4146 88.8382H65.9728C65.3372 89.6005 64.8293 90.4904 64.4481 91.2528L64.4482 91.2527ZM91.134 94.684L90.3717 95.7007L87.1939 91.2526C86.686 90.4903 86.1772 89.6004 85.6693 88.838H89.2274L88.2106 90.2358C87.5751 91.6337 88.0839 92.6505 89.3541 92.6505H92.531C92.0231 93.4128 91.5152 94.0484 91.134 94.6839L91.134 94.684Z" fill="black"/>
</g>
</g>
</g>
</svg>
