<svg width="105" height="105" viewBox="0 0 105 105" fill="none" xmlns="http://www.w3.org/2000/svg">
<g id="Group">
<path id="Vector" d="M83.5328 28.8505C83.2558 28.7314 82.9835 28.6366 82.7283 28.5005C82.0772 28.2035 81.5436 27.6981 81.2116 27.0641C81.1857 27.0192 81.1507 26.9802 81.1089 26.9497C81.067 26.9191 81.0192 26.8976 80.9686 26.8866C80.0936 26.7432 79.4106 26.2596 78.7811 25.6908C78.2804 25.246 77.7919 24.7842 77.2669 24.3686C76.5377 23.7974 75.6432 23.5908 74.8071 23.2554C74.6035 23.1653 74.394 23.0889 74.1801 23.0269C73.6283 22.8835 73.2613 22.4436 72.7873 22.1811C72.4082 21.9721 72.0071 21.7995 71.6377 21.5759C71.4072 21.4086 71.1857 21.2293 70.9742 21.0387C70.8672 20.9561 70.7141 20.8248 70.6217 20.8516C70.2887 20.9439 70.0335 20.7714 69.7613 20.6693C69.4891 20.5672 69.1828 20.4116 68.896 20.278C68.4683 20.0787 68.0478 19.8623 67.6151 19.68C67.1825 19.4978 66.7644 19.3641 66.3391 19.1939C66.0814 19.0943 65.8311 18.9679 65.5662 18.8901C65.0485 18.737 64.5235 18.6057 64.0009 18.4721C63.4783 18.3384 62.912 18.1828 62.3603 18.0759C61.4285 17.8944 60.4952 17.7324 59.5603 17.5898C59.1714 17.529 58.7752 17.5241 58.3814 17.4974C58.0266 17.4707 57.6717 17.4585 57.3193 17.4221C57.2023 17.4215 57.0889 17.3816 56.9972 17.3089C56.9055 17.2362 56.8409 17.1348 56.8137 17.021C56.7475 16.8497 56.6474 16.6935 56.5196 16.5616C56.488 16.5252 56.3714 16.5616 56.2182 16.5616L56.1259 16.3186L55.8026 16.7221H55.7103C55.98 15.5068 55.0491 15.062 54.3394 14.4082L53.8849 15.1373C53.8523 14.9702 53.8288 14.8014 53.8144 14.6318C53.7998 14.187 53.637 14.0023 53.1971 13.9318C53.1043 13.9247 53.0176 13.883 52.954 13.8151C52.6964 13.4068 52.4412 12.996 52.2248 12.5658C52.1332 12.3555 52.0734 12.1327 52.0474 11.9047C52.0353 11.8269 52.0936 11.6616 52.1446 11.6616C52.2556 11.6423 52.3699 11.662 52.4679 11.7175C52.5501 11.7704 52.6125 11.8491 52.6453 11.9412C52.8203 12.3908 53.5908 12.3543 53.846 12.0311C54.021 11.8075 53.9943 11.6957 53.7221 11.6203L53.3721 11.528C53.4646 11.3943 53.5892 11.2861 53.7344 11.213C53.8796 11.14 54.0409 11.1045 54.2033 11.1099C54.571 11.1127 54.936 11.1734 55.2849 11.2898C56.3519 11.7005 57.4724 11.7978 58.5856 11.9363C59.681 12.0797 60.7663 12.2916 61.8353 12.5707C63.6582 13.0349 65.4641 13.5648 67.2773 14.0679C67.3988 14.1019 67.5203 14.1554 67.6321 14.1967C67.9287 14.2964 68.2228 14.3839 68.3005 14.7557C68.3224 14.8578 68.4367 14.938 68.5071 15.028L68.1985 15.6623C68.4537 15.7134 68.6432 15.745 68.828 15.7936C69.3789 15.9617 69.8601 16.3047 70.1988 16.7707C70.595 17.2568 70.979 17.7648 71.3849 18.2484C71.474 18.3895 71.5969 18.5061 71.7425 18.5876C71.8881 18.6691 72.0518 18.7129 72.2186 18.7151C72.429 18.749 72.631 18.8224 72.8141 18.9314C73.2005 19.0846 73.587 19.2353 73.9662 19.4175C74.0632 19.4725 74.1464 19.549 74.2092 19.6412C74.4523 19.9547 74.6953 20.2853 75.1814 20.1807C75.2398 20.1807 75.3394 20.2974 75.4051 20.3728C75.8343 20.8973 76.2911 21.3987 76.7735 21.8748C77.4346 22.48 78.2318 22.7644 79.1384 22.4436C79.1714 22.4384 79.205 22.4384 79.238 22.4436C79.2513 22.5076 79.2586 22.5727 79.2599 22.638C79.2451 22.9611 79.3029 23.2834 79.4291 23.5813C79.5553 23.8791 79.7466 24.1448 79.9891 24.3589C80.4654 24.7876 80.9661 25.1885 81.4887 25.5596C82.1936 26.0773 82.9471 26.5318 83.4721 27.2609C83.6374 27.4797 83.8488 27.3047 84.0335 27.2609C84.1312 27.2276 84.2218 27.1765 84.3009 27.1103C84.8939 27.6134 85.5016 28.1116 86.0849 28.6366C86.4548 28.9747 86.7019 29.4262 86.7873 29.92C86.8335 30.163 86.9186 30.2821 87.1884 30.2675C87.247 30.271 87.304 30.2879 87.3551 30.317C87.4061 30.3461 87.4497 30.3866 87.4825 30.4353C88.4183 32.1707 89.3783 33.8939 90.2606 35.6561C90.7662 36.6696 91.1478 37.7464 91.5828 38.7939C91.6038 38.8684 91.6315 38.9408 91.6655 39.0103C92.4603 40.2255 92.7787 41.628 93.2137 42.9866C93.3766 43.4922 93.5759 43.9905 93.7412 44.496C93.7618 44.6289 93.7618 44.7642 93.7412 44.8971C93.7217 45.0056 93.7217 45.1167 93.7412 45.2252C94.3256 46.8321 94.7005 48.5076 94.8568 50.2103C95.0318 51.7609 95.2019 53.3133 95.3672 54.8672C95.3846 55.0011 95.3721 55.1372 95.3307 55.2658C95.0891 55.937 95.0124 56.6564 95.1071 57.3634C95.2496 58.6287 95.2029 59.9083 94.9686 61.1599C94.6573 63.1742 94.1892 65.1612 93.5686 67.1026C93.3588 67.7683 93.1154 68.423 92.8394 69.0641C91.8453 71.2516 90.9825 73.4853 89.7818 75.5731C87.0328 80.354 83.5231 84.4398 78.9391 87.5533C78.1856 88.0662 77.3811 88.5037 76.6009 88.9776C76.5335 89.0216 76.4563 89.0482 76.3761 89.055C76.2959 89.0618 76.2153 89.0485 76.1415 89.0165C75.9237 88.9687 75.7008 88.9482 75.478 88.9557C75.6797 88.4526 75.8985 87.8985 76.1172 87.3516C75.8134 87.1571 75.5509 87.2276 75.4464 87.5266C75.385 87.7318 75.3355 87.9403 75.2981 88.1512C75.2082 88.1345 75.1172 88.1239 75.0259 88.1196C74.6686 88.1196 74.5835 88.2679 74.5787 88.6179C74.5607 89.0537 74.5161 89.4879 74.445 89.9182C74.445 89.9936 74.338 90.0738 74.2627 90.12C71.103 92.0182 67.7512 93.4255 64.0908 93.9797C62.8366 94.1693 61.5606 94.2106 60.2919 94.2884C60.142 94.2847 59.9931 94.312 59.8542 94.3684C59.7154 94.4249 59.5897 94.5093 59.4849 94.6165C59.3793 94.7279 59.2506 94.8148 59.1079 94.871C58.9651 94.9273 58.8117 94.9516 58.6585 94.9422C57.2804 94.9738 55.9023 95.0662 54.5266 95.0929C53.2846 95.1172 52.0425 95.0929 50.8005 95.0637C49.7919 95.0321 48.7832 94.9519 47.7769 94.8766C46.2748 94.7599 44.78 94.5825 43.3557 94.055C42.3453 93.7145 41.4442 93.1104 40.7453 92.305C40.7131 92.2674 40.6733 92.2371 40.6284 92.2162C40.5836 92.1952 40.5348 92.1841 40.4852 92.1835C39.4109 92.3512 38.4946 91.9915 37.6537 91.3644C37.1019 90.9512 36.5599 90.521 36.0057 90.1127C35.2589 89.5197 34.3141 89.2337 33.3637 89.313C32.9068 89.3382 32.4533 89.221 32.0658 88.9776C31.568 88.7175 31.0452 88.5083 30.5054 88.353C28.3835 87.6603 26.2422 87.0283 24.1373 86.287C23.0224 85.8634 21.9325 85.3765 20.8731 84.8287C20.4855 84.6256 20.128 84.3695 19.8109 84.0679C19.5735 83.8262 19.3669 83.5559 19.196 83.2634C19.1255 83.154 19.0623 82.9037 19.1036 82.8745C19.2449 82.774 19.4168 82.7259 19.5898 82.7384C19.829 82.7822 20.0596 82.8642 20.2727 82.9814C20.9097 83.3327 21.6409 83.4747 22.363 83.3873C22.9804 83.2974 23.5783 83.4773 24.1689 83.6304C24.7964 83.7894 25.4316 83.916 26.0721 84.0096C26.2338 84.0305 26.3981 83.9996 26.5413 83.9215C26.6845 83.8433 26.7993 83.7219 26.8693 83.5745C26.929 83.4907 26.9703 83.3951 26.9904 83.2942C27.0105 83.1933 27.0091 83.0892 26.9861 82.9889C26.9632 82.8885 26.9192 82.7942 26.8572 82.7121C26.7952 82.6299 26.7164 82.5619 26.6262 82.5123C26.2859 82.3082 25.8971 82.1794 25.5519 81.9946C25.2443 81.8553 24.9553 81.6781 24.6915 81.4672C24.3634 81.1731 24.4241 80.9616 24.8227 80.7745C25.2214 80.5873 25.2359 80.563 25.005 80.1863C24.7328 79.7391 24.4679 79.2846 24.1981 78.8349C23.8572 78.2329 23.4129 77.6956 22.8856 77.2478C22.8278 77.1964 22.7771 77.1375 22.7349 77.0728C21.2134 74.8042 19.691 72.5357 18.1679 70.2672C17.032 68.6429 15.9901 66.955 15.047 65.2116C14.7166 64.5629 14.4582 63.8799 14.2766 63.1748C14.0068 62.1662 13.6738 61.1696 13.3457 60.178C13.0429 59.3459 12.8787 58.4698 12.8595 57.5846C12.8595 57.2759 12.9325 56.9696 12.947 56.6585C12.9767 56.3932 12.971 56.1251 12.93 55.8613C12.8313 55.5398 12.817 55.1982 12.8887 54.8696C12.9689 54.5755 12.9203 54.2498 12.9714 53.9436C13.0174 53.7429 13.0816 53.5468 13.1634 53.3578C13.5109 53.4818 13.771 53.6009 14.0432 53.6689C14.2668 53.7248 14.4029 53.5912 14.4661 53.3724C14.5436 53.0185 14.5035 52.649 14.3519 52.32C14.2984 52.2106 14.2707 52.0905 14.2707 51.9688C14.2707 51.847 14.2984 51.7269 14.3519 51.6175C14.3935 51.5241 14.4669 51.4484 14.559 51.4039C14.6511 51.3594 14.756 51.349 14.855 51.3745C15.3411 51.4644 15.3217 51.4328 15.3825 50.9443C15.538 49.6974 15.7325 48.453 15.9269 47.104C16.3547 47.4224 16.6561 47.2134 16.9842 47.0821C17.0325 47.0591 17.0747 47.0251 17.1076 46.9829C17.1405 46.9408 17.1632 46.8915 17.1738 46.8391C17.1738 46.2679 17.1738 45.6967 17.1543 45.1255C17.1543 44.8825 17.1203 44.6394 17.1009 44.3818C17.0493 44.3939 17 44.4145 16.955 44.4425C16.9211 44.48 16.8779 44.5077 16.8298 44.5231C16.7816 44.5384 16.7303 44.5408 16.681 44.53C16.6317 44.5191 16.5861 44.4954 16.5488 44.4613C16.5116 44.4272 16.484 44.3838 16.4689 44.3356C16.3012 43.971 16.1797 43.587 16.0387 43.2103H16.1262C16.2617 43.092 16.3811 42.9563 16.4811 42.8068C16.6318 42.5103 16.8578 42.5054 17.1179 42.5832C17.7839 42.7873 17.7814 42.7898 17.779 42.0971C17.779 41.9512 17.779 41.8054 17.779 41.6596C17.785 41.5127 17.7505 41.3671 17.6794 41.2385C17.6082 41.1099 17.5031 41.0033 17.3755 40.9304C17.3402 40.9154 17.3082 40.8934 17.2815 40.8658C17.2549 40.8382 17.234 40.8056 17.2202 40.7697C17.2063 40.7339 17.1998 40.6957 17.2011 40.6573C17.2023 40.619 17.2112 40.5812 17.2273 40.5464C17.5238 39.5109 17.8349 38.4804 18.0925 37.4377C18.2616 36.7519 18.3875 36.0562 18.4693 35.3547C18.5085 34.7786 18.3891 34.2028 18.1241 33.6898C18.099 33.6415 18.0838 33.5886 18.0797 33.5343C18.0755 33.48 18.0823 33.4254 18.0998 33.3738C18.3429 32.9314 18.2943 32.4818 18.2286 32.0103C18.1768 31.6382 18.1662 31.2617 18.197 30.8873C18.2238 30.5398 18.3648 30.4523 18.6832 30.5641C18.7314 30.5912 18.7852 30.607 18.8405 30.6103C18.8957 30.6137 18.951 30.6045 19.0022 30.5834C19.0534 30.5624 19.0992 30.5301 19.1361 30.4888C19.173 30.4476 19.2002 30.3985 19.2155 30.3453C19.3087 30.1662 19.3899 29.9811 19.4585 29.7912C19.4821 29.6972 19.5378 29.6145 19.6159 29.5573C19.694 29.5 19.7896 29.4719 19.8863 29.4776C20.545 29.429 21.2012 29.378 21.8575 29.3026C22.326 29.2672 22.7731 29.0919 23.1408 28.7995C23.253 28.6996 23.3291 28.5655 23.3571 28.4179C23.4835 27.6304 23.9745 27.1175 24.6186 26.7165C24.6693 26.6932 24.7244 26.6811 24.7802 26.6811C24.836 26.6811 24.8912 26.6932 24.9418 26.7165C25.1639 26.8365 25.3746 26.9764 25.5714 27.1346C25.7411 27.2802 25.9033 27.4343 26.0575 27.5964C26.3953 27.9269 26.7405 28.1578 27.2339 27.8394C27.4503 27.7415 27.6794 27.6744 27.9144 27.6401L27.9946 27.7252C27.9411 27.8531 27.8682 27.972 27.7783 28.0776C26.8328 28.9191 25.982 29.8613 25.2408 30.8873C24.7036 31.5971 24.1398 32.2873 23.6075 32.9995C23.3697 33.3295 23.1522 33.6737 22.9561 34.03C22.538 34.7592 22.1102 35.4884 21.7408 36.2346C21.4039 36.9091 21.1013 37.6003 20.8342 38.3054C20.4186 39.3748 20.0443 40.4467 19.6894 41.5186C19.5703 41.8759 19.5217 42.2478 19.4464 42.6221C19.2252 43.5432 18.9602 44.4596 18.7925 45.388C18.6826 46.0567 18.6104 46.731 18.5762 47.4078C18.4523 49.0363 18.3332 50.6648 18.2408 52.2957C18.1999 53.1593 18.2137 54.0247 18.2821 54.8866C18.3696 56.0752 18.5252 57.2589 18.6589 58.4425C18.7075 58.8363 18.8266 59.2203 18.9019 59.6092C18.923 59.673 18.9361 59.7391 18.9408 59.8061C18.9019 61.0408 19.2714 62.2002 19.5727 63.3766C19.7672 64.1252 19.8717 64.8981 20.0856 65.6419C20.1755 65.9554 20.4502 66.2155 20.6422 66.4974C20.7054 66.5898 20.8123 66.6675 20.8366 66.7672C21.1502 68.0311 21.7748 69.1467 22.4627 70.2332C23.1918 71.3901 23.9793 72.5179 24.4922 73.8012C24.5225 73.861 24.5637 73.9146 24.6137 73.9592C25.4547 74.7929 26.2908 75.6314 27.1391 76.4578C27.6957 76.9998 28.2401 77.5589 28.8405 78.0498C30.0537 79.0784 31.5933 79.6418 33.1839 79.6394C33.7946 79.6398 34.4045 79.6829 35.0092 79.7682C35.3905 79.838 35.7618 79.9539 36.1151 80.1134C37.0387 80.495 37.9502 80.9082 38.8714 81.2922C39.451 81.5224 39.9864 81.8513 40.4536 82.2644C40.5412 82.3446 40.6384 82.4103 40.7186 82.4953C41.5085 83.3168 42.4832 83.4675 43.538 83.2245C44.6512 82.962 45.7523 82.646 46.863 82.3689C47.3127 82.2547 47.7745 82.1842 48.2266 82.087C48.3486 82.0567 48.4669 82.0127 48.579 81.9557C49.0432 81.7297 49.4978 81.4866 49.9669 81.2728C50.1138 81.2068 50.2763 81.1833 50.4359 81.2047C51.081 81.3142 51.741 81.2994 52.3804 81.1609C52.4095 81.1574 52.4388 81.1574 52.4679 81.1609C52.9856 81.1609 53.5057 81.1609 54.0259 81.1439C54.2957 81.1439 54.563 81.0856 54.8304 81.054C54.8869 81.0404 54.9449 81.0338 55.003 81.0346C55.9217 81.1804 56.8064 80.8669 57.7106 80.828C57.7554 80.8283 57.8001 80.8324 57.8443 80.8401C57.8443 80.8766 57.8443 80.9057 57.8443 80.9106C56.6728 81.754 55.4648 82.5269 54.0599 82.9328C53.7755 83.0155 53.5106 83.1613 53.2311 83.2682C52.745 83.4554 52.2589 83.645 51.7582 83.8127C51.1577 83.9751 50.5908 84.2426 50.0835 84.6026C49.9985 84.6682 49.9061 84.7217 49.8016 84.7898C49.9655 84.9685 50.165 85.111 50.3873 85.2081C50.6096 85.3052 50.8497 85.3548 51.0922 85.3537C51.3071 85.3802 51.5252 85.3591 51.731 85.2919C51.9368 85.2247 52.1254 85.113 52.2832 84.9648C53.3623 83.9731 54.6675 83.3776 56.0457 82.9207C56.2317 82.8429 56.4127 82.7536 56.5877 82.6533C57.1735 82.3762 57.7495 82.0748 58.3523 81.8342C59.2224 81.4842 60.0731 81.1342 60.6832 80.3564C60.829 80.1717 61.1839 80.145 61.4439 80.0575C61.636 79.9943 61.8304 79.9432 62.0248 79.8946C62.1658 79.8606 62.3116 79.8484 62.4502 79.8071C62.5887 79.7658 62.6932 79.6953 62.8148 79.6564C63.1405 79.5544 63.4686 79.4547 63.7992 79.3696C63.9085 79.3405 64.0422 79.3818 64.1394 79.3453C65.0363 79.0318 65.9332 78.7182 66.813 78.3731C67.0747 78.249 67.3287 78.1094 67.5738 77.955C67.8047 77.836 68.0599 77.7436 68.2762 77.6148C68.6627 77.3984 69.0394 77.1627 69.4235 76.9391C69.5426 76.871 69.6665 76.8224 69.8221 76.7471C69.8221 76.8443 69.8221 76.8783 69.8221 76.8978C69.336 77.6269 68.8304 78.3561 68.0988 78.8957C68.0625 78.9277 68.0216 78.9539 67.9773 78.9734C67.4183 79.1412 67.1217 79.5981 66.7839 80.0234C66.2918 80.6304 65.6607 81.1098 64.9439 81.421C64.7446 81.5109 64.6304 81.7856 64.4578 81.963C64.376 82.0687 64.2691 82.1523 64.1467 82.2061C63.5721 82.3957 63.0506 82.7189 62.6252 83.1491C62.6036 83.174 62.5873 83.203 62.5773 83.2343C62.5673 83.2656 62.5637 83.2987 62.5669 83.3314C62.8926 83.278 63.2207 83.2342 63.5391 83.1662C64.6207 82.9426 65.695 82.68 66.7839 82.4929C67.8071 82.3179 68.8426 82.2231 69.8731 82.0943C71.3193 81.9144 72.7533 81.6738 74.0998 81.0759C75.5438 80.4025 76.8056 79.3933 77.7797 78.1325C78.8807 76.7738 79.8773 75.3325 80.9589 73.9592C82.3135 72.24 83.6908 70.5386 85.0908 68.855C85.7812 68.0385 86.3932 67.1589 86.9186 66.2276C87.2005 65.7196 87.5433 65.2554 87.8641 64.7693C87.9316 64.6507 88.0246 64.5486 88.1363 64.4703C88.7391 64.1325 88.9748 63.5346 89.2544 62.9609C89.3346 62.7957 89.4318 62.6377 89.5193 62.4748C89.6821 62.171 89.8061 61.8526 90.2193 61.7675C90.4623 61.7165 90.5863 61.5002 90.6689 61.2425C91.3764 59.0338 91.8649 56.7608 92.1273 54.4564C92.3681 52.3702 92.4186 50.2664 92.278 48.171C92.0752 44.8131 91.3664 41.5051 90.1755 38.3589C90.0542 38.0859 89.8901 37.834 89.6894 37.6127C89.5952 37.5219 89.5251 37.4089 89.4856 37.2841C89.4462 37.1593 89.4385 37.0266 89.4634 36.8981C89.4705 36.8551 89.468 36.811 89.4563 36.769C89.4445 36.7271 89.4237 36.6881 89.3953 36.655C88.4693 35.8068 87.8422 34.7422 87.2078 33.6825C86.7165 32.7979 86.1199 31.9761 85.4311 31.2349C85.345 31.1358 85.2304 31.0655 85.103 31.0338C84.9756 31.0021 84.8415 31.0103 84.7189 31.0575C84.5707 31.1037 84.4273 31.1596 84.279 31.2057C83.8366 31.3467 83.6325 31.2616 83.4405 30.8412C83.2323 30.375 83.2062 29.8478 83.3676 29.3634C83.4137 29.1908 83.4745 29.028 83.5328 28.8505ZM20.1755 36.2151C19.8158 36.1957 19.7477 36.3318 19.8693 36.745C19.9325 36.9613 20.0491 37.1144 20.2946 37.0998C20.4187 37.0858 20.5343 37.03 20.6226 36.9417C20.7109 36.8534 20.7667 36.7378 20.7807 36.6137C20.7807 36.3512 20.5717 36.2929 20.3627 36.254L20.1755 36.2151ZM19.5655 38.4634L19.5168 38.529C19.3613 38.4974 19.1571 38.4439 19.213 38.6967C19.2446 38.8377 19.4075 38.9398 19.512 39.0734C19.6085 38.938 19.6938 38.7949 19.7672 38.6457C19.7793 38.6238 19.6359 38.529 19.563 38.4658L19.5655 38.4634Z" fill="#D09C57"/>
<path id="Vector_2" d="M49.3555 51.254C49.4648 50.7679 49.5572 50.3086 49.6787 49.8638C49.6957 49.7957 49.8537 49.7277 49.9461 49.7252C50.7433 49.7252 51.5405 49.7252 52.3378 49.7252H52.6975C52.5662 49.1273 52.4544 48.5731 52.3207 48.0238C51.6402 45.0148 50.9499 42.0082 50.2912 38.9943C50.2705 38.7071 50.3146 38.4189 50.4201 38.1509C50.6218 37.3926 50.4322 37.5457 51.2003 37.5408C52.6586 37.5408 54.1364 37.5408 55.602 37.5408C55.8742 37.5408 55.9666 37.6308 56.0249 37.8811C57.2126 42.9334 58.4052 47.9841 59.6027 53.0332C59.6416 53.1936 59.6902 53.3516 59.7266 53.5193C59.7568 53.7428 59.8501 53.953 59.9956 54.1253C60.1411 54.2975 60.3329 54.4246 60.5482 54.4915C60.6762 54.5376 60.7924 54.6115 60.8884 54.7079C60.9535 54.7737 61.0024 54.8537 61.0311 54.9417C61.0599 55.0297 61.0677 55.1231 61.054 55.2147C61.0404 55.3062 61.0055 55.3933 60.9523 55.469C60.8991 55.5448 60.829 55.607 60.7475 55.6509C60.5647 55.7389 60.3645 55.7846 60.1617 55.7846C57.8673 55.7943 55.5736 55.7943 53.2808 55.7846C52.6926 55.7846 52.3523 55.3957 52.5273 54.8926C52.647 54.6776 52.8281 54.5032 53.0475 54.3919C53.4801 54.1172 53.5992 53.9058 53.5214 53.4051C53.5214 53.3492 53.5214 53.2884 53.4971 53.2325C53.378 52.6832 53.2541 52.1339 53.1423 51.5822C53.0961 51.3537 52.9843 51.2905 52.7631 51.2929C51.752 51.2929 50.7409 51.2929 49.7298 51.2929C49.618 51.2711 49.5062 51.2613 49.3555 51.254Z" fill="#D09C57"/>
<path id="Vector_3" d="M33.2963 45.5443C33.2963 48.0332 33.2963 50.5221 33.2963 53.011C33.297 53.2055 33.3125 53.3997 33.3424 53.5919C33.3547 53.7485 33.4183 53.8968 33.5233 54.0136C33.6283 54.1305 33.7689 54.2095 33.9233 54.2384C34.1133 54.2786 34.3007 54.3298 34.4848 54.3916C34.629 54.4315 34.7557 54.5186 34.8445 54.639C34.9333 54.7595 34.9791 54.9062 34.9747 55.0558C34.9702 55.2053 34.9156 55.3491 34.8198 55.464C34.7239 55.5789 34.5923 55.6583 34.4459 55.6895C34.2486 55.7373 34.0462 55.7609 33.8431 55.76C31.5746 55.76 29.2996 55.76 27.0181 55.76C26.8437 55.7596 26.6699 55.7384 26.5004 55.6968C26.3678 55.6749 26.2468 55.6077 26.1582 55.5067C26.0696 55.4056 26.0187 55.2769 26.0143 55.1426C25.9938 54.9967 26.0223 54.8481 26.0954 54.7201C26.1684 54.5921 26.2818 54.492 26.4178 54.4353C26.5593 54.3715 26.7056 54.3187 26.8553 54.2773C26.993 54.2429 27.1159 54.1649 27.2057 54.055C27.2954 53.945 27.3473 53.809 27.3535 53.6672C27.3742 53.493 27.384 53.3177 27.3827 53.1422C27.3827 48.8061 27.3827 44.4708 27.3827 40.1363C27.3835 39.9738 27.3738 39.8115 27.3535 39.6502C27.3474 39.5081 27.2957 39.3718 27.2059 39.2614C27.1161 39.1511 26.9932 39.0726 26.8553 39.0377C26.7156 38.9983 26.5784 38.9504 26.4445 38.8943C26.301 38.8392 26.1803 38.7372 26.1022 38.6048C26.0241 38.4724 25.9931 38.3174 26.0143 38.1651C26.0218 38.0226 26.0792 37.8872 26.1766 37.7828C26.2739 37.6783 26.4049 37.6115 26.5466 37.594C26.7361 37.5543 26.9291 37.5339 27.1226 37.5332C29.0379 37.5332 30.9532 37.5332 32.8685 37.5332C33.2841 37.5332 33.2841 37.5332 33.2841 37.9367L33.2963 45.5443Z" fill="#D09C57"/>
<path id="Vector_4" d="M65.8671 37.528C66.8782 37.528 67.8893 37.528 68.9004 37.528C69.0843 37.5325 69.2677 37.5479 69.4497 37.5742C69.5838 37.5828 69.7114 37.6349 69.8132 37.7227C69.915 37.8104 69.9853 37.9289 70.0136 38.0603C70.0495 38.1876 70.047 38.3226 70.0063 38.4485C69.9657 38.5743 69.8887 38.6853 69.7852 38.7676C69.688 38.8487 69.5839 38.9211 69.474 38.9839C68.9636 39.312 68.8615 39.5575 69.0147 40.1335C69.3063 41.2322 69.6029 42.321 69.897 43.4245C70.4001 45.2985 70.9056 47.1724 71.4015 49.0488C71.4483 49.2159 71.4541 49.3919 71.4185 49.5617C70.9324 51.5402 70.4292 53.5138 69.9431 55.4922C69.8921 55.7013 69.8095 55.779 69.5907 55.7766C68.8227 55.7637 68.0546 55.7637 67.2865 55.7766C67.0581 55.7766 66.973 55.6964 66.9122 55.4801C65.603 50.6676 64.2864 45.8567 62.9626 41.0474C62.8338 40.5808 62.6952 40.1141 62.5591 39.6499C62.5195 39.5093 62.4477 39.3799 62.3494 39.2719C62.2511 39.1639 62.129 39.0803 61.9928 39.0276C61.5796 38.8454 61.4119 38.5974 61.4508 38.2572C61.4754 38.0815 61.5604 37.9199 61.6913 37.8001C61.8221 37.6804 61.9906 37.6099 62.1678 37.6009C62.4852 37.5588 62.8052 37.5385 63.1254 37.5401C64.0345 37.5231 64.9483 37.528 65.8671 37.528Z" fill="#D09C57"/>
<path id="Vector_5" d="M37.5659 46.8569L38.4701 47.0344C39.2673 47.166 40.0191 47.4943 40.6576 47.9896C40.9774 48.2385 41.2347 48.5586 41.4089 48.9244C41.5832 49.2903 41.6697 49.6917 41.6614 50.0969C41.6614 50.9524 41.6614 51.808 41.6614 52.6635C41.6614 52.8847 41.6079 53.1715 41.8923 53.2663C42.1767 53.3611 42.2739 53.0962 42.41 52.9309C42.7163 52.5663 43.025 52.4448 43.3118 52.6271C43.4901 52.7247 43.6224 52.889 43.6798 53.0839C43.7372 53.2789 43.715 53.4887 43.618 53.6674C43.0541 54.9045 42.1378 55.7625 40.7791 56.0299C39.785 56.2219 38.7788 56.2219 37.8333 55.7868C36.618 55.2205 36.0298 54.1875 35.952 52.8896C35.8888 51.7837 35.9229 50.6753 35.9156 49.567C35.9156 49.0809 35.8427 48.6142 35.4902 48.274C35.2444 48.0636 34.9629 47.8989 34.659 47.7878C34.4888 47.7149 34.4159 47.6517 34.4159 47.4622C34.4159 47.1608 34.4159 46.8594 34.4159 46.558C34.4159 46.3976 34.4718 46.3149 34.6395 46.2809C35.5534 46.0622 35.8548 45.7437 35.8937 44.7958C35.935 43.4274 35.9107 42.0566 35.8937 40.6858C35.9106 40.3264 35.8013 39.9724 35.5847 39.6852C35.3681 39.398 35.0578 39.1956 34.7076 39.1132C34.6585 39.1054 34.6116 39.0877 34.5696 39.0611C34.5276 39.0346 34.4914 38.9999 34.4632 38.959C34.435 38.9181 34.4155 38.8719 34.4057 38.8232C34.3959 38.7745 34.396 38.7243 34.4062 38.6757C34.4256 38.367 34.4062 38.0535 34.4208 37.7448C34.4208 37.6743 34.5326 37.5503 34.5909 37.5528C35.9472 37.5819 37.3253 37.4896 38.6305 37.9538C40.152 38.4958 41.3041 39.4437 41.6444 41.1135C42.06 43.1868 41.4305 45.0705 39.5687 46.0403C38.951 46.321 38.3172 46.5645 37.6704 46.7694L37.5659 46.8108V46.8569Z" fill="#D09C57"/>
<path id="Vector_6" d="M75.7467 55.7615C75.3578 55.7615 74.9689 55.7615 74.58 55.7615C74.3613 55.7615 74.2762 55.6837 74.2227 55.482C73.6021 53.1276 72.9791 50.7732 72.3536 48.4188C71.9915 47.0504 71.6244 45.682 71.2744 44.3087C71.2255 44.1244 71.2213 43.9311 71.2623 43.7448C71.7363 41.7639 72.2345 39.7855 72.7036 37.807C72.7059 37.7623 72.7178 37.7186 72.7385 37.6788C72.7591 37.6391 72.788 37.6042 72.8232 37.5766C72.8585 37.549 72.8992 37.5292 72.9427 37.5186C72.9862 37.5081 73.0315 37.5069 73.0755 37.5153C73.8047 37.5323 74.5338 37.5299 75.263 37.5153C75.3001 37.5088 75.3381 37.51 75.3747 37.5189C75.4112 37.5278 75.4456 37.5442 75.4755 37.567C75.5054 37.5899 75.5303 37.6187 75.5485 37.6516C75.5667 37.6845 75.5779 37.7209 75.5814 37.7584C76.6103 41.6716 77.6393 45.5848 78.6682 49.498C78.6994 49.6484 78.6952 49.804 78.656 49.9525C78.2015 51.7875 77.7349 53.6226 77.2804 55.4601C77.2269 55.6764 77.1418 55.7664 76.9109 55.7566C76.5244 55.7493 76.1356 55.7615 75.7467 55.7615Z" fill="#D09C57"/>
<path id="Vector_7" d="M25.8155 26.0569L24.9648 25.1455C25.2808 24.7979 25.5701 24.4576 25.8885 24.149C26.0491 23.9955 26.2393 23.8764 26.4475 23.799C26.6905 23.7115 26.676 23.5899 26.5593 23.4295C26.4654 23.3083 26.3622 23.1945 26.2506 23.0892C26.1439 22.9899 26.0605 22.8683 26.0063 22.733C25.9521 22.5977 25.9284 22.4521 25.9371 22.3066C26.6832 22.5958 27.2228 22.2094 27.7527 21.7962C27.8669 21.7087 27.9957 21.6236 28.0978 21.5264C28.3637 21.2863 28.712 21.1583 29.0701 21.1691C29.3617 21.1691 29.6898 21.1691 29.7992 20.8823C29.9183 20.8823 30.0082 20.8823 30.0641 20.8483C30.1511 20.7811 30.2252 20.6988 30.2829 20.6052C30.4798 20.3208 30.7034 20.1556 31.068 20.3306C31.1263 20.3573 31.2527 20.2819 31.3232 20.2236C31.5881 20.0024 31.836 19.7618 32.1058 19.5479C32.2784 19.4118 32.2395 19.2611 32.1763 19.108C32.1131 18.9549 32.0256 18.8649 31.9721 18.724C31.8725 18.4809 31.9721 18.3253 32.2346 18.3229C32.7985 18.3229 33.3624 18.3229 33.936 18.3229C34.203 18.2973 34.4684 18.2567 34.7308 18.2014C34.6093 18.0726 34.5558 18.0069 34.4878 17.9583C34.3918 17.875 34.32 17.7674 34.2798 17.6469C34.2396 17.5263 34.2325 17.3972 34.2593 17.2729C34.3176 16.9181 34.3808 16.9205 34.7308 16.9399C35.2521 16.9528 35.7738 16.9391 36.2937 16.8986C36.6996 16.8816 37.1055 16.8306 37.5089 16.8281C37.5691 16.8382 37.626 16.8625 37.675 16.8988C37.724 16.9351 37.7637 16.9825 37.7909 17.0372C38.0339 17.6618 38.503 17.9875 39.1496 17.8441C39.4761 17.7331 39.7925 17.594 40.0951 17.4285C40.1937 17.3723 40.3082 17.35 40.4207 17.3653C41.8677 17.8844 43.411 18.0794 44.9416 17.9365C44.9998 17.9316 45.0583 17.9316 45.1166 17.9365C45.1435 17.9409 45.1697 17.949 45.1944 17.9608C45.1944 17.9851 45.1944 18.0167 45.1944 18.0191C44.8298 18.1528 44.4652 18.2792 44.103 18.4128C43.9062 18.4858 43.7141 18.5708 43.5173 18.6438C43.126 18.7872 42.7346 18.9306 42.336 19.0618C41.8329 19.2271 41.3249 19.3778 40.8169 19.5358C40.36 19.6792 39.8957 19.8031 39.4485 19.9733C39.2164 20.089 38.9931 20.2214 38.7801 20.3694C38.5614 20.491 38.3256 20.5858 38.1117 20.7146C37.7957 20.9066 37.4944 21.1181 37.1857 21.3222C37.1417 21.3599 37.0904 21.388 37.035 21.4049C36.4954 21.4972 36.1041 21.891 35.6374 22.1122C35.1707 22.3333 34.7235 22.625 34.252 22.8413C33.3964 23.2472 32.6891 23.8573 31.9576 24.4358C31.5468 24.759 31.1069 25.0458 30.6937 25.3667C30.5041 25.5149 30.3558 25.7142 30.1735 25.8747C29.9305 26.0861 29.6874 26.2903 29.4103 26.4774C29.3148 26.5371 29.2006 26.5596 29.0895 26.5406C28.2461 26.3705 27.3881 26.249 26.6589 25.7337C26.5398 25.651 26.253 25.7944 26.0513 25.8552C25.9711 25.8844 25.9152 25.9694 25.8155 26.0569ZM37.21 17.3969C36.9427 17.393 36.6756 17.4077 36.4103 17.4406C36.1527 17.4917 36.0992 17.6837 36.2232 17.9024C36.3034 18.0507 36.369 18.2038 36.4468 18.3691L36.9621 18.5003L37.21 17.3969Z" fill="#D09C57"/>
<path id="Vector_8" d="M49.6422 41.0195C49.8658 41.9334 50.0724 42.7671 50.2644 43.6056C50.2769 43.7207 50.2627 43.8372 50.2231 43.9459C49.4583 46.7556 48.6926 49.5637 47.9262 52.3702C47.8656 52.5848 47.8313 52.806 47.8241 53.0289C47.8091 53.2705 47.8665 53.511 47.989 53.7198C48.1116 53.9285 48.2937 54.0959 48.512 54.2004C48.7088 54.305 48.9203 54.3852 49.1172 54.4872C49.2676 54.5504 49.3899 54.6661 49.4615 54.8128C49.533 54.9594 49.5488 55.127 49.5061 55.2845C49.4707 55.4224 49.3892 55.5442 49.2752 55.6295C49.1611 55.7148 49.0213 55.7586 48.879 55.7536C48.5606 55.7779 48.2397 55.7706 47.9067 55.7706C46.9831 55.7706 46.0595 55.7706 45.1359 55.7706C44.8955 55.7711 44.658 55.7179 44.4408 55.615C44.3411 55.5686 44.2561 55.4958 44.195 55.4044C44.1339 55.313 44.0991 55.2066 44.0943 55.0968C44.0896 54.9869 44.115 54.8779 44.168 54.7816C44.2209 54.6852 44.2993 54.6053 44.3946 54.5504C44.498 54.4767 44.6108 54.417 44.73 54.373C45.1444 54.2251 45.5162 53.9778 45.8129 53.6528C46.1095 53.3277 46.3219 52.9349 46.4314 52.5088C46.8567 51.0674 47.2529 49.6164 47.6467 48.1654C48.2883 45.8693 48.9195 43.5805 49.5401 41.299C49.5595 41.231 49.5814 41.1654 49.6422 41.0195Z" fill="#D09C57"/>
<path id="Vector_9" d="M68.9954 66.213C68.6964 66.4561 68.485 66.6408 68.2662 66.8134C67.1627 67.6689 65.1065 67.5158 64.5669 65.5665C64.1938 64.3661 64.2671 63.0712 64.7735 61.9207C64.931 61.5915 65.1625 61.3031 65.4498 61.0781C65.7371 60.8531 66.0725 60.6975 66.4299 60.6234C66.7872 60.5492 67.1568 60.5587 67.5099 60.6509C67.863 60.7431 68.19 60.9157 68.4655 61.155C68.57 61.2498 68.6818 61.3349 68.8374 61.4589C68.8374 61.296 68.852 61.1939 68.852 61.0918C68.852 60.1196 68.8641 59.1304 68.852 58.1484C68.852 57.8568 68.9565 57.7401 69.2263 57.7255C69.2943 57.7255 69.3624 57.7109 69.4304 57.7109C69.9166 57.7109 69.9603 57.7717 69.9603 58.2505C69.9603 61.0683 69.9603 63.8854 69.9603 66.7016C69.9603 66.8547 69.9166 67.1221 69.8509 67.1366C69.6093 67.1743 69.3634 67.1743 69.1218 67.1366C69.0804 67.1366 69.0318 66.9787 69.0245 66.8936C68.9856 66.6943 68.9954 66.4925 68.9954 66.213ZM68.852 63.921C68.852 63.5807 68.852 63.2405 68.852 62.9002C68.8557 62.7866 68.8224 62.6749 68.7572 62.5818C68.4955 62.283 68.204 62.0118 67.887 61.7724C67.1141 61.2523 66.2197 61.4807 65.8283 62.3241C65.5889 62.8366 65.4648 63.3954 65.4648 63.9611C65.4648 64.5268 65.5889 65.0856 65.8283 65.5981C65.9176 65.8223 66.0716 66.0149 66.2708 66.1512C66.4699 66.2876 66.7051 66.3615 66.9464 66.3637C67.5322 66.3953 67.9575 66.0939 68.361 65.7196C68.6891 65.4134 68.9516 65.0901 68.8666 64.5894C68.8436 64.3682 68.8387 64.1455 68.852 63.9234V63.921Z" fill="#D09C57"/>
<path id="Vector_10" d="M51.7562 61.6316C51.9069 61.5004 52.0551 61.3642 52.2082 61.2379C53.1051 60.4868 54.2499 60.3604 55.1249 60.9049C55.5914 61.1988 55.9326 61.6551 56.0825 62.1858C56.4589 63.3307 56.4375 64.5691 56.0218 65.7004C55.8318 66.2653 55.4348 66.7374 54.9108 67.0215C54.3868 67.3056 53.7746 67.3807 53.1975 67.2316C52.8784 67.1235 52.5764 66.9705 52.3006 66.7771C52.1408 66.6646 51.9897 66.5403 51.8485 66.4052C51.8315 66.5608 51.8096 66.6677 51.8096 66.7747C51.8096 67.6011 51.8096 68.4274 51.8096 69.2514C51.8096 69.5261 51.7076 69.633 51.4329 69.6403C50.7305 69.6549 50.7305 69.6622 50.7305 68.95C50.7305 66.3444 50.7305 63.7397 50.7305 61.1358C50.7305 60.9924 50.8058 60.742 50.8787 60.7274C51.1148 60.7013 51.3535 60.7128 51.586 60.7615C51.6225 60.7615 51.6589 60.9097 51.6614 60.9899C51.6735 61.1917 51.6614 61.3934 51.6614 61.5951L51.7562 61.6316ZM55.2659 63.892C55.1937 63.4067 55.0889 62.9268 54.9523 62.4556C54.8926 62.2479 54.7833 62.0578 54.634 61.9016C54.4846 61.7454 54.2996 61.6277 54.0949 61.5586C53.8901 61.4896 53.6716 61.4712 53.4582 61.5051C53.2447 61.539 53.0427 61.6241 52.8694 61.7531C52.5396 61.9895 52.2372 62.2617 51.9676 62.5649C51.8741 62.6732 51.8217 62.8108 51.8194 62.9538C51.8048 63.6125 51.8194 64.2736 51.8194 64.9323C51.8147 65.0659 51.8558 65.1972 51.936 65.3042C52.1907 65.5959 52.4741 65.8614 52.7819 66.0965C52.9431 66.2195 53.1298 66.3048 53.3283 66.3462C53.5268 66.3876 53.7321 66.384 53.929 66.3358C54.1259 66.2876 54.3096 66.1958 54.4665 66.0674C54.6234 65.9389 54.7495 65.777 54.8357 65.5934C55.0956 65.0623 55.2421 64.4829 55.2659 63.892Z" fill="#D09C57"/>
<path id="Vector_11" d="M26.0957 62.7442C26.0957 61.49 26.0957 60.2358 26.0957 58.9841C26.0957 58.498 26.2148 58.3813 26.6984 58.3789H30.5168C30.8741 58.3789 30.913 58.4348 30.913 58.865C30.913 59.2952 30.8693 59.3049 30.5023 59.3049C29.53 59.3049 28.5408 59.3049 27.5589 59.3049C27.3158 59.3049 27.2186 59.3754 27.2234 59.6331C27.2405 60.3622 27.2429 61.072 27.2234 61.7914C27.2234 62.0758 27.3304 62.1341 27.5807 62.1293C28.3974 62.1293 29.2141 62.1293 30.0307 62.1293C30.3953 62.1293 30.4391 62.1827 30.4366 62.5959C30.4342 63.0091 30.3929 63.0383 30.0429 63.0383C29.2068 63.0383 28.3707 63.0383 27.5346 63.0383C27.2915 63.0383 27.221 63.1209 27.2259 63.3567C27.2259 64.2025 27.2405 65.0581 27.2259 65.8942C27.2259 66.1761 27.3304 66.232 27.5832 66.2296C28.5748 66.2296 29.5641 66.2296 30.5557 66.2296C30.93 66.2296 30.9714 66.2782 30.9738 66.6817C30.9762 67.0852 30.9422 67.1678 30.5533 67.1678H26.6644C26.1977 67.1678 26.0859 67.0536 26.0859 66.5772C26.0932 65.289 26.0957 64.0178 26.0957 62.7442Z" fill="#D09C57"/>
<path id="Vector_12" d="M74.931 64.1465C74.3088 64.1465 73.6866 64.1465 73.0668 64.1465C72.8456 64.1465 72.7727 64.2194 72.7873 64.4333C72.8651 65.5028 73.305 66.4021 74.7779 66.4094C75.4006 66.4038 76.0157 66.2723 76.5863 66.0229C76.912 65.8868 76.98 65.9354 76.9946 66.2854C77.0116 66.7351 76.963 66.8226 76.5401 66.9757C75.6872 67.2969 74.7633 67.3809 73.8665 67.2187C73.3711 67.1486 72.9092 66.9283 72.5428 66.5876C72.1765 66.2469 71.9233 65.8021 71.8175 65.3132C71.5349 64.3247 71.5775 63.2715 71.939 62.309C72.4251 61.0719 73.5116 60.4934 74.8144 60.5809C76.8002 60.7146 77.3033 62.2458 77.2595 63.7042C77.2595 64.0201 77.0918 64.1392 76.7588 64.1416L74.931 64.1465ZM74.4692 63.3542C74.9554 63.3542 75.422 63.3542 75.896 63.3542C75.9859 63.3542 76.139 63.2715 76.139 63.2059C76.1848 62.8267 76.0929 62.4438 75.8801 62.1266C75.6674 61.8095 75.3478 61.5792 74.9797 61.4778C73.8713 61.2347 73.0182 61.8496 72.8043 63.0455C72.763 63.2885 72.8213 63.3687 73.0619 63.3639C73.5359 63.3469 74.0026 63.3542 74.4692 63.3542Z" fill="#D09C57"/>
<path id="Vector_13" d="M79.2367 47.4635C79.0592 46.7683 78.9377 46.1291 78.7263 45.519C78.5318 44.9527 78.6558 44.4374 78.7919 43.8978C79.069 42.7968 79.3412 41.6957 79.5988 40.5898C79.7738 39.8607 79.5721 39.4159 78.9183 39.0246C78.7433 38.9201 78.561 38.8253 78.3933 38.7086C78.2855 38.6324 78.2041 38.5245 78.1606 38.3999C78.117 38.2753 78.1134 38.1402 78.1502 38.0135C78.1695 37.8916 78.2309 37.7804 78.3237 37.6991C78.4165 37.6179 78.5349 37.5717 78.6582 37.5687C78.8015 37.5465 78.9459 37.5327 79.0908 37.5273C80.1214 37.5273 81.152 37.5273 82.1825 37.5273C82.3453 37.5333 82.5076 37.5487 82.6686 37.5735C82.7855 37.5763 82.8978 37.6194 82.9864 37.6956C83.0751 37.7719 83.1345 37.8764 83.1547 37.9916C83.1965 38.1232 83.1912 38.2652 83.1397 38.3934C83.0883 38.5215 82.9939 38.6278 82.8728 38.694C82.8398 38.7145 82.8057 38.7332 82.7707 38.7499C81.6648 39.1704 81.1617 40.0648 80.8822 41.1367C80.3572 43.1573 79.8338 45.1771 79.312 47.1961C79.3047 47.2641 79.2829 47.3273 79.2367 47.4635Z" fill="#D09C57"/>
<path id="Vector_14" d="M61.6681 66.4348L61.3619 66.69C61.0175 66.9863 60.6003 67.1852 60.1532 67.2659C59.7062 67.3467 59.2457 67.3065 58.8195 67.1494C58.5031 67.0586 58.2223 66.8729 58.0149 66.6172C57.8076 66.3616 57.6837 66.0485 57.6601 65.7202C57.5678 64.9449 57.7962 64.2959 58.5011 63.8778C59.0324 63.5917 59.6258 63.4407 60.2292 63.4379C60.5865 63.4209 60.9462 63.4258 61.306 63.4258C61.4712 63.4258 61.5685 63.3723 61.549 63.1827C61.5415 62.9118 61.518 62.6415 61.4785 62.3733C61.3667 61.8216 60.9584 61.5202 60.3386 61.474C59.7139 61.4472 59.0945 61.598 58.5521 61.9091C58.382 61.9966 58.1924 62.2226 57.9955 61.965C57.9234 61.8322 57.9019 61.6777 57.9349 61.5302C57.968 61.3827 58.0535 61.2522 58.1754 61.1629C58.5667 60.952 58.9844 60.7943 59.4174 60.6938C59.9319 60.6039 60.4567 60.5892 60.9754 60.6501C62.04 60.7862 62.6039 61.4789 62.6209 62.6358C62.6452 64.0553 62.6209 65.4747 62.6209 66.8942C62.6209 67.1056 62.5382 67.2004 62.3317 67.198H62.2733C61.673 67.198 61.6657 67.198 61.6851 66.6657C61.6848 66.5884 61.6791 66.5113 61.6681 66.4348ZM61.5539 64.9765C61.5539 64.1792 61.5539 64.1792 60.8442 64.1792C60.7762 64.1731 60.7079 64.1731 60.64 64.1792C60.1827 64.2373 59.7314 64.3349 59.291 64.4709C58.8462 64.6459 58.7174 65.0737 58.7709 65.5403C58.7847 65.7462 58.8657 65.9418 59.0014 66.0972C59.137 66.2526 59.3199 66.3592 59.5219 66.4008C59.7669 66.4663 60.024 66.4717 60.2715 66.4167C60.519 66.3617 60.7496 66.2479 60.9438 66.0848C61.34 65.7858 61.7362 65.4747 61.5539 64.9765Z" fill="#D09C57"/>
<path id="Vector_15" d="M47.6764 66.4223C47.4965 66.5657 47.3799 66.6653 47.2584 66.7553C46.9217 67.0251 46.5215 67.2041 46.096 67.2751C45.6705 67.3462 45.2338 67.307 44.8278 67.1612C44.5092 67.0787 44.2239 66.8996 44.0111 66.6485C43.7983 66.3974 43.6684 66.0866 43.6393 65.7587C43.5396 64.9469 43.7681 64.2737 44.5167 63.8507C45.0388 63.5828 45.6166 63.4413 46.2035 63.4375C46.5511 63.4205 46.9035 63.4205 47.2535 63.4375C47.4552 63.4375 47.5379 63.3598 47.5257 63.1629C47.5136 62.966 47.5257 62.7157 47.4893 62.4945C47.3993 61.882 46.9837 61.5393 46.3177 61.4907C45.673 61.4653 45.0347 61.6274 44.4802 61.9573C44.4032 62.0144 44.3143 62.0534 44.2202 62.0716C44.1715 62.0716 44.1234 62.0609 44.0793 62.0403C44.0352 62.0198 43.9962 61.9898 43.9649 61.9525C43.9043 61.8097 43.8954 61.6502 43.9397 61.5016C43.9841 61.3529 44.079 61.2244 44.208 61.1382C44.8742 60.7472 45.6413 60.562 46.4125 60.6059C46.7036 60.6166 46.9924 60.6614 47.2729 60.7396C47.6388 60.8192 47.9664 61.0219 48.2008 61.3138C48.4353 61.6058 48.5624 61.9693 48.5611 62.3438C48.6073 63.316 48.5879 64.3052 48.5952 65.2872C48.5952 65.8122 48.5952 66.3372 48.5952 66.8622C48.5952 67.132 48.4906 67.2389 48.233 67.2171H48.0872C47.6861 67.2171 47.6667 67.1952 47.6643 66.7844L47.6764 66.4223ZM46.7042 64.1837L46.6872 64.1132C46.2248 64.191 45.7684 64.3006 45.3212 64.4414C45.1118 64.5283 44.9394 64.6857 44.8338 64.8863C44.7281 65.0869 44.6959 65.3181 44.7427 65.54C44.7639 65.7594 44.8576 65.9655 45.0091 66.1257C45.1605 66.2859 45.361 66.3911 45.5788 66.4247C46.2156 66.5657 47.1927 66.1209 47.4795 65.5521C47.5055 65.5001 47.5188 65.4426 47.5184 65.3844C47.5184 65.0539 47.5354 64.7233 47.5184 64.3952C47.5047 64.3472 47.4789 64.3035 47.4437 64.2682C47.4084 64.2329 47.3647 64.2072 47.3167 64.1934C47.1138 64.1755 46.9099 64.1722 46.7066 64.1837H46.7042Z" fill="#D09C57"/>
<path id="Vector_16" d="M27.2948 14.4941C27.0903 15.1131 26.6668 15.636 26.1038 15.9646C25.6177 16.2636 25.083 16.5261 24.5677 16.7934C23.8167 17.1823 23.1094 17.615 22.6427 18.3514C22.6046 18.4074 22.5527 18.4526 22.492 18.4827C21.0823 19.1875 19.9375 20.2351 18.8024 21.307C17.7233 22.3254 16.6149 23.3073 15.5163 24.316C15.3736 24.4565 15.2567 24.621 15.1712 24.8021C15.1252 24.9046 15.0581 24.9964 14.9744 25.0713C14.8906 25.1463 14.7921 25.2028 14.6851 25.2372C14.442 25.3271 14.199 25.4511 13.9219 25.5823C13.9632 25.4631 14.0111 25.3463 14.0653 25.2323C14.6649 24.186 15.4132 23.2322 16.2868 22.4007C17.5912 21.1044 18.9183 19.8341 20.2681 18.5896C20.6115 18.3052 20.9937 18.0711 21.4031 17.8945C22.0424 17.5809 22.6184 17.2309 23.0024 16.5917C23.1834 16.3382 23.4294 16.1384 23.7146 16.0132C24.4437 15.6535 25.1948 15.3303 25.9434 15.0094C26.3712 14.8271 26.8087 14.6789 27.2948 14.4941Z" fill="#D09C57"/>
<path id="Vector_17" d="M82.8296 65.3823C82.8452 65.7546 82.7394 66.1218 82.5281 66.4287C82.3167 66.7356 82.0114 66.9655 81.6581 67.0837C81.2172 67.2527 80.7463 67.3292 80.2746 67.3083C79.8029 67.2874 79.3406 67.1696 78.9164 66.9622C78.7447 66.8788 78.6115 66.7329 78.5441 66.5543C78.4768 66.3757 78.4804 66.1781 78.5543 66.0021C78.6466 65.7809 78.7973 65.8879 78.9383 65.9438C79.3698 66.133 79.8161 66.2866 80.2727 66.4032C80.5798 66.4337 80.8899 66.3938 81.1793 66.2865C81.3295 66.2326 81.462 66.1383 81.5621 66.0139C81.6622 65.8896 81.7261 65.7401 81.7467 65.5818C81.7673 65.4235 81.7438 65.2626 81.6789 65.1167C81.6139 64.9709 81.51 64.8458 81.3786 64.7553C81.1826 64.6297 80.977 64.52 80.7636 64.4271C80.4039 64.2643 80.0345 64.1306 79.6723 63.9532C79.3569 63.8059 79.0934 63.5666 78.9166 63.2667C78.7398 62.9668 78.658 62.6204 78.682 62.2731C78.7059 61.9258 78.8345 61.5939 79.0507 61.3211C79.267 61.0483 79.5608 60.8474 79.8935 60.7448C80.26 60.6138 80.6488 60.5564 81.0375 60.576C81.4263 60.5956 81.8073 60.6918 82.1588 60.8591C82.3145 60.9378 82.4347 61.0725 82.4951 61.2362C82.5556 61.3999 82.5518 61.5804 82.4845 61.7414C82.4043 61.9407 82.29 61.8605 82.1588 61.8094C81.8489 61.6561 81.5228 61.5379 81.1866 61.457C80.8715 61.4153 80.5511 61.4478 80.2508 61.5518C80.1196 61.5985 80.0028 61.6786 79.9121 61.7843C79.8214 61.89 79.7598 62.0175 79.7336 62.1543C79.7073 62.2911 79.7172 62.4324 79.7623 62.5641C79.8074 62.6959 79.8861 62.8136 79.9907 62.9056C80.2257 63.0914 80.4849 63.2443 80.7612 63.3601C81.155 63.5473 81.573 63.6858 81.9571 63.89C82.2372 64.0203 82.4708 64.233 82.6268 64.4997C82.7827 64.7664 82.8535 65.0743 82.8296 65.3823Z" fill="#D09C57"/>
<path id="Vector_18" d="M34.2003 67.3024C33.6538 67.3019 33.1151 67.1728 32.6278 66.9256C32.3555 66.7822 32.183 66.1965 32.3628 65.9534C32.4041 65.8951 32.5889 65.8951 32.6837 65.9315C32.9826 66.0458 33.2573 66.2208 33.5611 66.318C34.0357 66.4902 34.5587 66.471 35.0194 66.2645C35.1622 66.2066 35.2867 66.1113 35.3797 65.9885C35.4728 65.8657 35.531 65.7201 35.5482 65.567C35.5654 65.4139 35.5409 65.259 35.4773 65.1187C35.4138 64.9784 35.3135 64.8578 35.1871 64.7697C34.9537 64.6142 34.7053 64.4823 34.4458 64.376C34.0593 64.1937 33.6534 64.0503 33.284 63.8388C33.0019 63.6892 32.7722 63.4571 32.6254 63.1735C32.4786 62.89 32.4218 62.5684 32.4625 62.2517C32.4745 61.9481 32.5722 61.6542 32.7442 61.4039C32.9162 61.1536 33.1556 60.9571 33.4347 60.8371C33.8286 60.655 34.2578 60.562 34.6917 60.5645C35.1256 60.567 35.5537 60.6651 35.9455 60.8517C36.1011 60.9378 36.2186 61.0795 36.2745 61.2484C36.3303 61.4174 36.3205 61.6011 36.2468 61.7631C36.2153 61.8166 36.05 61.8287 35.9649 61.802C35.6377 61.6601 35.3006 61.5423 34.9562 61.4496C34.65 61.405 34.3375 61.4342 34.0448 61.5346C33.9081 61.5807 33.7864 61.6628 33.6924 61.7722C33.5985 61.8816 33.5358 62.0143 33.5109 62.1564C33.486 62.2984 33.4999 62.4445 33.5511 62.5794C33.6022 62.7142 33.6888 62.8327 33.8017 62.9225C34.0761 63.1193 34.3731 63.2825 34.6864 63.4086C35.0437 63.5836 35.4156 63.71 35.7729 63.8947C37.0538 64.585 36.7791 66.369 35.7486 66.928C35.2711 67.1782 34.7393 67.3067 34.2003 67.3024Z" fill="#D09C57"/>
<path id="Vector_19" d="M38.9116 64.0189C38.9649 64.4191 39.0412 64.816 39.1401 65.2074C39.4658 66.2866 40.4283 66.5394 41.3008 66.2404C41.6253 66.0904 41.9359 65.9123 42.2293 65.7081C42.3144 65.6595 42.4456 65.589 42.504 65.623C42.5623 65.6571 42.6036 65.798 42.6231 65.8977C42.6704 66.1033 42.6419 66.3191 42.5428 66.5054C42.4436 66.6916 42.2805 66.8357 42.0835 66.9112C41.3816 67.2845 40.5688 67.3924 39.7939 67.2151C39.4135 67.1425 39.059 66.9708 38.7662 66.7173C38.4734 66.4638 38.2528 66.1374 38.1265 65.7713C37.6731 64.6073 37.6879 63.3129 38.1678 62.1595C38.8168 60.604 40.98 60.0692 42.312 61.1095C42.4472 61.2272 42.543 61.3835 42.5865 61.5574C42.6299 61.7313 42.619 61.9143 42.555 62.0817C42.5171 62.1194 42.4702 62.1468 42.4187 62.1613C42.3672 62.1758 42.3129 62.1768 42.2609 62.1644C42.1224 62.1133 42.0179 61.9699 41.8793 61.9067C41.5868 61.7393 41.2716 61.6148 40.9435 61.5373C39.9713 61.4085 39.3224 61.8751 39.089 62.8498C38.9967 63.2168 38.9724 63.5984 38.9116 64.0189Z" fill="#D09C57"/>
<path id="Vector_20" d="M43.3611 10.3473C43.4024 10.6317 43.3611 10.8091 43.0427 10.8334C42.7243 10.8577 42.4545 10.9598 42.1628 11.0254C42.117 11.0425 42.0683 11.0508 42.0194 11.0497C41.2611 10.8674 40.5781 11.2247 39.8611 11.3487C38.4028 11.5917 36.9444 11.8348 35.4861 12.107C34.0278 12.3792 32.6594 12.7244 31.3809 13.4462C31.3157 13.4877 31.2393 13.508 31.1622 13.5046C30.6372 13.4365 30.1729 13.6261 29.7038 13.823C29.4486 13.9112 29.187 13.9795 28.9212 14.0271L28.875 13.908C29.0669 13.7703 29.2665 13.6438 29.4729 13.5289C29.9654 13.3229 30.4451 13.0875 30.9094 12.824C31.5875 12.3695 32.3507 12.1896 33.1115 11.9733C34.3996 11.6063 35.6757 11.2004 36.9639 10.8407C37.6981 10.6457 38.4586 10.5685 39.217 10.6122C39.322 10.6277 39.4292 10.6194 39.5306 10.5879C40.2427 10.2671 40.9889 10.3303 41.7424 10.3449L43.3611 10.3473Z" fill="#D09C57"/>
<path id="Vector_21" d="M50.9177 11.5426C50.0014 12.1406 49.0972 11.8027 48.1979 11.5256C48.1549 11.5054 48.1175 11.4748 48.0891 11.4367C48.0607 11.3985 48.0421 11.3539 48.0351 11.3069C48.0497 11.1076 47.9524 11.0638 47.792 11.0638C47.1819 11.0638 46.5767 11.1003 45.9594 11.0906C45.4278 11.092 44.8968 11.0579 44.3698 10.9885C44.1838 10.9672 44.0104 10.8835 43.878 10.7511C43.7456 10.6187 43.6619 10.4454 43.6406 10.2593C43.8399 10.2301 44.0247 10.1913 44.2142 10.1791C47.1356 10.008 50.0661 10.275 52.9083 10.9715C53.0785 11.0128 53.2559 11.0395 53.0736 11.3166C52.5875 10.9593 52.1403 11.3555 51.6736 11.4503C51.6177 11.4503 51.5642 11.5937 51.5497 11.6788C51.5457 11.7742 51.5213 11.8676 51.4781 11.9527C51.4348 12.0378 51.3738 12.1127 51.2991 12.1721C51.2244 12.2316 51.1378 12.2743 51.0452 12.2974C50.9525 12.3205 50.856 12.3233 50.7622 12.3058C50.6783 12.2888 50.5967 12.2619 50.5191 12.2256C50.55 12.13 50.5941 12.0392 50.6504 11.9558C50.7507 11.8486 50.8579 11.7479 50.9712 11.6545L50.9177 11.5426Z" fill="#D09C57"/>
<path id="Vector_22" d="M13.5075 26.1016C13.5075 26.1477 13.5464 26.2304 13.522 26.2863C13.3859 26.5974 13.3641 26.9401 13.0967 27.2148C12.8829 27.4889 12.7011 27.7866 12.5547 28.1019C12.4111 28.3847 12.2487 28.6575 12.0686 28.9186C11.9117 29.072 11.7361 29.2051 11.546 29.3148L11.4609 29.2345C11.479 29.1509 11.5059 29.0695 11.5411 28.9915C11.7672 28.6075 11.9859 28.2186 12.2411 27.854C12.6373 27.2585 13.07 26.6946 13.5075 26.1016Z" fill="#D09C57"/>
<path id="Vector_23" d="M84.3422 18.601C84.3422 19.0166 83.7856 19.5562 83.37 19.5198C83.1659 19.5028 83.0419 19.4177 83.1148 19.1771C83.1555 18.9869 83.2351 18.8071 83.3484 18.649C83.4617 18.4909 83.6064 18.3579 83.7735 18.2583C83.831 18.2175 83.8991 18.1943 83.9696 18.1917C84.04 18.189 84.1097 18.207 84.1701 18.2434C84.2305 18.2798 84.279 18.333 84.3095 18.3965C84.3401 18.46 84.3515 18.5311 84.3422 18.601Z" fill="#D09C57"/>
<path id="Vector_24" d="M17.3436 80.452C16.9936 79.6937 17.0714 78.9742 17.3436 78.2305C17.7787 78.894 17.7811 79.9951 17.3436 80.452Z" fill="#D09C57"/>
<path id="Vector_25" d="M14.0957 43.1505C13.9691 43.1468 13.8473 43.1007 13.7499 43.0197C13.6526 42.9386 13.5852 42.8272 13.5586 42.7033C13.5707 42.5652 13.6069 42.4303 13.6655 42.3047C13.7719 42.3209 13.8747 42.3555 13.9694 42.4068C14.117 42.5087 14.2426 42.6393 14.3388 42.7908C14.4579 42.9925 14.3388 43.153 14.0957 43.1505Z" fill="#D09C57"/>
<path id="Vector_26" d="M27.6562 76.1831C27.7 75.7771 27.7778 75.6726 28.0038 75.7504C28.0533 75.7724 28.0969 75.8059 28.1307 75.8482C28.1645 75.8905 28.1877 75.9403 28.1983 75.9935C28.1958 76.2074 27.9528 76.2754 27.6562 76.1831Z" fill="#D09C57"/>
<path id="Vector_27" d="M11.668 53.4275L12.1055 53.0508L12.2027 53.165L11.7579 53.532L11.668 53.4275Z" fill="#D09C57"/>
<path id="Vector_28" d="M20.1716 36.2162L20.3709 36.2551C20.58 36.294 20.7768 36.3524 20.789 36.6148C20.7749 36.7389 20.7192 36.8546 20.6309 36.9429C20.5426 37.0312 20.427 37.0869 20.3029 37.101C20.0598 37.1155 19.9407 36.9624 19.8775 36.7461C19.7414 36.3353 19.8095 36.1992 20.1716 36.2162Z" fill="#D09C57"/>
<path id="Vector_29" d="M19.5611 38.4648C19.634 38.528 19.7774 38.6228 19.7653 38.6471C19.6911 38.7965 19.605 38.9396 19.5076 39.0749C19.4031 38.951 19.2403 38.8319 19.2087 38.6982C19.1528 38.4551 19.3569 38.4989 19.5125 38.5305L19.5611 38.4648Z" fill="#D09C57"/>
<path id="Vector_30" d="M37.2104 17.3989L36.9673 18.5024L36.4593 18.3711C36.3816 18.2058 36.3159 18.0527 36.2357 17.9044C36.1118 17.6784 36.1652 17.4937 36.4229 17.4426C36.6841 17.4102 36.9472 17.3956 37.2104 17.3989Z" fill="#D09C57"/>
</g>
</svg>
