<svg width="100" height="100" viewBox="0 0 100 100" fill="none" xmlns="http://www.w3.org/2000/svg">
<g id="like-tag">
<g id="Group">
<path id="Vector" d="M39.9922 57.8291L46.6354 62.9869C47.5019 63.8534 49.4413 64.2658 50.7204 64.2658H58.8903C61.4485 64.2658 64.2544 62.3266 64.9146 59.7683L70.0724 44.1298C71.1452 41.1177 69.2058 38.5595 65.9874 38.5595H57.4048C56.1257 38.5595 55.0529 37.4867 55.2593 36.0013L56.332 29.1516C56.7447 27.2123 55.4655 25.0666 53.5262 24.4477C51.7932 23.7875 49.6475 24.6539 48.8223 25.9331L40.0335 39.0133" stroke="#333A04" stroke-width="4.12622" stroke-miterlimit="10"/>
<path id="Vector_2" d="M29.0586 57.8319V36.8291C29.0586 33.8169 30.3377 32.7441 33.3498 32.7441H35.4955C38.5076 32.7441 39.7868 33.8169 39.7868 36.8291V57.8319C39.7868 60.844 38.5076 61.9168 35.4955 61.9168H33.3498C30.3377 61.9168 29.0586 60.844 29.0586 57.8319Z" stroke="#333A04" stroke-width="4.12622" stroke-linecap="round" stroke-linejoin="round"/>
</g>
<path id="Vector_3" d="M74.4519 78.7005H71.316C68.015 78.7005 64.879 79.9796 62.5683 82.2903L55.5125 89.2639C52.2941 92.4411 47.0538 92.4411 43.8353 89.2639L36.7795 82.2903C34.4688 79.9796 31.2916 78.7005 28.0319 78.7005H24.9373C18.0877 78.7005 12.5586 73.2128 12.5586 66.4458V21.4286C12.5586 14.6616 18.0877 9.17383 24.9373 9.17383H74.4519C81.3014 9.17383 86.8305 14.6616 86.8305 21.4286V66.4458C86.8305 73.1715 81.3014 78.7005 74.4519 78.7005Z" stroke="#333A04" stroke-width="4.12622" stroke-miterlimit="10" stroke-linecap="round" stroke-linejoin="round"/>
</g>
</svg>
