<svg width="209" height="191" viewBox="0 0 209 191" fill="none" xmlns="http://www.w3.org/2000/svg">
<g id="Group">
<path id="Vector" d="M165.944 52.481C165.393 52.2643 164.852 52.0919 164.345 51.8443C163.052 51.3041 161.992 50.3847 161.332 49.2313C161.281 49.1497 161.211 49.0788 161.128 49.0232C161.045 48.9677 160.95 48.9286 160.849 48.9086C159.111 48.6477 157.754 47.7679 156.504 46.7333C155.509 45.9242 154.538 45.0842 153.495 44.3281C152.047 43.2891 150.27 42.9133 148.609 42.3032C148.204 42.1392 147.788 42.0004 147.363 41.8876C146.267 41.6267 145.538 40.8265 144.596 40.349C143.843 39.9687 143.046 39.6548 142.313 39.248C141.855 38.9438 141.415 38.6177 140.994 38.2709C140.782 38.1206 140.478 37.8819 140.294 37.9305C139.633 38.0985 139.126 37.7846 138.585 37.5989C138.044 37.4132 137.436 37.1302 136.866 36.8871C136.016 36.5245 135.181 36.131 134.321 35.7994C133.462 35.4678 132.631 35.2247 131.786 34.9152C131.274 34.7339 130.777 34.504 130.251 34.3625C129.222 34.084 128.179 33.8452 127.141 33.6021C126.103 33.3589 124.978 33.0759 123.882 32.8814C122.031 32.5513 120.177 32.2565 118.319 31.9971C117.547 31.8866 116.76 31.8777 115.977 31.8291C115.272 31.7805 114.568 31.7584 113.867 31.6921C113.635 31.691 113.41 31.6185 113.228 31.4862C113.045 31.3539 112.917 31.1695 112.863 30.9625C112.731 30.651 112.533 30.3668 112.279 30.1269C112.216 30.0606 111.984 30.1269 111.68 30.1269L111.497 29.6848L110.854 30.4187H110.671C111.207 28.2081 109.357 27.399 107.948 26.2096L107.045 27.536C106.98 27.232 106.933 26.925 106.905 26.6164C106.876 25.8073 106.552 25.4713 105.678 25.3431C105.494 25.3301 105.322 25.2544 105.195 25.1308C104.683 24.3881 104.176 23.6409 103.747 22.8583C103.565 22.4757 103.446 22.0704 103.394 21.6557C103.37 21.5142 103.486 21.2136 103.587 21.2136C103.808 21.1783 104.035 21.2143 104.23 21.3153C104.393 21.4115 104.517 21.5545 104.582 21.722C104.93 22.54 106.46 22.4737 106.967 21.8856C107.315 21.4789 107.262 21.2755 106.721 21.1384L106.026 20.9704C106.21 20.7274 106.457 20.5304 106.746 20.3975C107.034 20.2647 107.354 20.2002 107.677 20.2099C108.408 20.2151 109.133 20.3255 109.826 20.5371C111.946 21.2843 114.172 21.4612 116.383 21.7132C118.559 21.9741 120.715 22.3595 122.839 22.8671C126.46 23.7116 130.048 24.6755 133.65 25.5907C133.891 25.6526 134.133 25.7498 134.355 25.825C134.944 26.0063 135.528 26.1654 135.683 26.8419C135.726 27.0276 135.953 27.1735 136.093 27.3371L135.48 28.491C135.987 28.5839 136.364 28.6414 136.731 28.7298C137.825 29.0357 138.781 29.6596 139.454 30.5071C140.241 31.3914 141.004 32.3155 141.81 33.1953C141.987 33.4519 142.232 33.664 142.521 33.8123C142.81 33.9605 143.135 34.0402 143.467 34.0442C143.884 34.1058 144.286 34.2393 144.65 34.4377C145.417 34.7162 146.185 34.9903 146.938 35.3219C147.131 35.4219 147.296 35.5611 147.421 35.7287C147.904 36.299 148.387 36.9003 149.353 36.7102C149.468 36.7102 149.666 36.9224 149.797 37.0595C150.65 38.0136 151.557 38.9257 152.515 39.7919C153.829 40.8928 155.412 41.4101 157.213 40.8265C157.279 40.817 157.346 40.817 157.411 40.8265C157.438 40.9429 157.452 41.0613 157.455 41.1802C157.425 41.7679 157.54 42.3542 157.791 42.8959C158.042 43.4377 158.422 43.921 158.903 44.3104C159.85 45.0904 160.845 45.8197 161.883 46.4946C163.283 47.4363 164.78 48.2631 165.823 49.5895C166.151 49.9874 166.571 49.669 166.938 49.5895C167.132 49.5288 167.312 49.4359 167.469 49.3153C168.648 50.2305 169.855 51.1369 171.014 52.0919C171.748 52.7069 172.239 53.5281 172.409 54.4264C172.501 54.8685 172.67 55.0851 173.206 55.0586C173.322 55.0649 173.436 55.0956 173.537 55.1486C173.638 55.2015 173.725 55.2751 173.79 55.3637C175.649 58.5205 177.556 61.6552 179.309 64.8606C180.313 66.7043 181.071 68.6629 181.936 70.5685C181.977 70.7039 182.032 70.8356 182.1 70.962C183.679 73.1727 184.311 75.7237 185.176 78.1952C185.499 79.1149 185.895 80.0212 186.224 80.9409C186.265 81.1826 186.265 81.4287 186.224 81.6704C186.185 81.8678 186.185 82.0699 186.224 82.2673C187.385 85.1903 188.129 88.2381 188.44 91.3353C188.788 94.1561 189.126 96.9799 189.454 99.8065C189.488 100.05 189.464 100.298 189.381 100.532C188.901 101.752 188.749 103.061 188.937 104.347C189.22 106.649 189.128 108.977 188.662 111.253C188.044 114.917 187.114 118.532 185.881 122.063C185.464 123.274 184.98 124.465 184.432 125.631C182.457 129.611 180.743 133.674 178.358 137.472C172.897 146.168 165.924 153.6 156.818 159.264C155.321 160.197 153.722 160.993 152.172 161.855C152.039 161.935 151.885 161.983 151.726 161.996C151.567 162.008 151.406 161.984 151.26 161.926C150.827 161.839 150.384 161.802 149.942 161.815C150.342 160.9 150.777 159.892 151.212 158.897C150.608 158.543 150.087 158.672 149.879 159.215C149.757 159.589 149.659 159.968 149.584 160.352C149.406 160.321 149.225 160.302 149.044 160.294C148.334 160.294 148.165 160.564 148.155 161.201C148.119 161.993 148.031 162.783 147.89 163.566C147.89 163.703 147.677 163.849 147.527 163.933C141.25 167.386 134.592 169.946 127.32 170.954C124.828 171.299 122.293 171.374 119.773 171.516C119.475 171.509 119.179 171.558 118.903 171.661C118.628 171.764 118.378 171.917 118.17 172.112C117.96 172.315 117.704 172.473 117.421 172.575C117.137 172.678 116.832 172.722 116.528 172.705C113.79 172.762 111.052 172.93 108.319 172.979C105.852 173.023 103.385 172.979 100.917 172.926C98.9133 172.868 96.9094 172.723 94.9104 172.586C91.9263 172.373 88.9568 172.051 86.1272 171.091C84.1199 170.472 82.3297 169.373 80.9413 167.908C80.8774 167.839 80.7982 167.784 80.7091 167.746C80.62 167.708 80.523 167.688 80.4247 167.687C78.2904 167.992 76.4701 167.337 74.7994 166.197C73.7033 165.445 72.6265 164.663 71.5256 163.92C70.0419 162.841 68.1649 162.321 66.2769 162.465C65.3692 162.511 64.4683 162.298 63.6985 161.855C62.7095 161.382 61.6709 161.001 60.5985 160.719C56.3832 159.459 52.1292 158.309 47.9477 156.961C45.7327 156.19 43.5676 155.304 41.4629 154.308C40.6929 153.938 39.9827 153.473 39.3528 152.924C38.8811 152.484 38.4708 151.993 38.1312 151.461C37.9912 151.262 37.8656 150.806 37.9477 150.753C38.2284 150.57 38.5699 150.483 38.9134 150.506C39.3887 150.585 39.8469 150.734 40.2703 150.948C41.5355 151.587 42.9883 151.845 44.4228 151.686C45.6493 151.522 46.8371 151.85 48.0105 152.128C49.2569 152.417 50.5189 152.648 51.7912 152.818C52.1127 152.856 52.439 152.8 52.7235 152.658C53.0079 152.516 53.236 152.295 53.375 152.026C53.4936 151.874 53.5756 151.7 53.6156 151.517C53.6556 151.333 53.6527 151.144 53.6071 150.961C53.5615 150.779 53.4742 150.607 53.351 150.458C53.2278 150.308 53.0714 150.184 52.8921 150.094C52.2161 149.723 51.4436 149.489 50.7579 149.153C50.1468 148.899 49.5726 148.577 49.0486 148.193C48.3967 147.658 48.5175 147.274 49.3093 146.933C50.1012 146.593 50.1302 146.548 49.6715 145.863C49.1307 145.05 48.6044 144.223 48.0684 143.405C47.3911 142.31 46.5085 141.333 45.461 140.518C45.3461 140.424 45.2455 140.317 45.1616 140.2C42.1389 136.073 39.1146 131.946 36.0887 127.82C33.8322 124.865 31.7622 121.795 29.8888 118.624C29.2323 117.443 28.719 116.201 28.3582 114.919C27.8222 113.084 27.1607 111.271 26.5088 109.467C25.9074 107.953 25.5812 106.36 25.5431 104.75C25.5431 104.188 25.688 103.631 25.7169 103.065C25.7759 102.582 25.7645 102.095 25.6831 101.615C25.4869 101.03 25.4586 100.409 25.601 99.811C25.7604 99.276 25.6638 98.6835 25.7652 98.1265C25.8566 97.7614 25.9843 97.4047 26.1467 97.0609C26.8372 97.2864 27.3538 97.5031 27.8946 97.6268C28.3388 97.7285 28.6092 97.4854 28.7348 97.0874C28.8886 96.4437 28.8089 95.7716 28.5078 95.173C28.4016 94.9741 28.3464 94.7556 28.3464 94.5341C28.3464 94.3127 28.4016 94.0942 28.5078 93.8953C28.5905 93.7253 28.7362 93.5876 28.9192 93.5066C29.1022 93.4257 29.3106 93.4067 29.5074 93.4531C30.4731 93.6167 30.4344 93.5593 30.5552 92.6706C30.8642 90.4025 31.2505 88.1387 31.6368 85.6849C32.4866 86.2641 33.0853 85.8839 33.7372 85.6451C33.8331 85.6032 33.917 85.5414 33.9824 85.4647C34.0478 85.388 34.0928 85.2984 34.1138 85.203C34.1138 84.164 34.1138 83.125 34.0752 82.086C34.0752 81.6439 34.0076 81.2017 33.969 80.7331C33.8665 80.7552 33.7686 80.7925 33.6792 80.8436C33.6118 80.9117 33.526 80.9622 33.4304 80.9901C33.3348 81.018 33.2328 81.0223 33.1348 81.0026C33.0368 80.9829 32.9462 80.9398 32.8723 80.8777C32.7983 80.8156 32.7435 80.7367 32.7135 80.6491C32.3804 79.9859 32.1389 79.2873 31.8589 78.602H32.0327C32.3019 78.3868 32.539 78.1401 32.7377 77.8681C33.037 77.3287 33.4861 77.3198 34.0028 77.4613C35.3258 77.8327 35.321 77.8371 35.3161 76.5771C35.3161 76.3118 35.3161 76.0465 35.3161 75.7812C35.3281 75.5141 35.2596 75.2491 35.1183 75.0152C34.9769 74.7813 34.7681 74.5875 34.5146 74.4548C34.4444 74.4275 34.3809 74.3876 34.3279 74.3374C34.2749 74.2872 34.2334 74.2277 34.2059 74.1626C34.1785 74.0975 34.1656 74.0279 34.168 73.9581C34.1704 73.8883 34.1881 73.8197 34.22 73.7563C34.8091 71.8728 35.4272 69.9982 35.939 68.1014C36.2749 66.854 36.5249 65.5885 36.6874 64.3124C36.7654 63.2645 36.5283 62.217 36.0018 61.2838C35.9518 61.1959 35.9217 61.0997 35.9134 61.0009C35.9051 60.9021 35.9188 60.8028 35.9535 60.709C36.4364 59.9043 36.3398 59.0864 36.2094 58.2287C36.1065 57.552 36.0854 56.867 36.1466 56.186C36.1998 55.5538 36.4798 55.3946 37.1124 55.598C37.2083 55.6473 37.3151 55.676 37.4249 55.6821C37.5346 55.6882 37.6445 55.6715 37.7462 55.6332C37.8479 55.595 37.9389 55.5361 38.0122 55.4611C38.0856 55.3861 38.1395 55.2969 38.1698 55.2001C38.3552 54.8743 38.5165 54.5375 38.6527 54.192C38.6996 54.0212 38.8102 53.8707 38.9653 53.7666C39.1205 53.6625 39.3105 53.6112 39.5025 53.6217C40.811 53.5333 42.1148 53.4404 43.4185 53.3033C44.3492 53.239 45.2374 52.9201 45.968 52.3881C46.191 52.2065 46.3421 51.9625 46.3977 51.694C46.6488 50.2615 47.6242 49.3286 48.9037 48.5991C49.0044 48.5566 49.114 48.5347 49.2248 48.5347C49.3357 48.5347 49.4452 48.5566 49.5459 48.5991C49.9871 48.8173 50.4057 49.0719 50.7965 49.3596C51.1337 49.6245 51.456 49.9049 51.7623 50.1996C52.4334 50.8009 53.1191 51.2209 54.0993 50.6417C54.5292 50.4636 54.9843 50.3416 55.4513 50.2792L55.6106 50.4339C55.5044 50.6666 55.3594 50.8829 55.1809 51.075C53.3026 52.6058 51.6122 54.3196 50.1399 56.186C49.0727 57.4771 47.9525 58.7327 46.8951 60.0281C46.4228 60.6285 45.9906 61.2546 45.601 61.9028C44.7705 63.2292 43.9207 64.5555 43.1867 65.9129C42.5174 67.1399 41.9163 68.3972 41.3857 69.6798C40.56 71.6252 39.8164 73.575 39.1114 75.5248C38.8748 76.1747 38.7782 76.8512 38.6285 77.5321C38.1891 79.2077 37.6628 80.8746 37.3296 82.5635C37.1112 83.7798 36.9678 85.0065 36.8999 86.2376C36.6536 89.1999 36.417 92.1621 36.2336 95.1288C36.1523 96.6999 36.1797 98.274 36.3156 99.8419C36.4895 102.004 36.7985 104.157 37.0641 106.31C37.1606 107.027 37.3972 107.725 37.5469 108.432C37.5889 108.548 37.6148 108.669 37.6242 108.791C37.5469 111.037 38.2809 113.146 38.8796 115.286C39.2659 116.647 39.4735 118.053 39.8984 119.406C40.0771 119.977 40.6227 120.45 41.0042 120.962C41.1297 121.13 41.3422 121.272 41.3905 121.453C42.0134 123.752 43.2543 125.782 44.6208 127.758C46.0694 129.863 47.6338 131.914 48.6527 134.248C48.7129 134.357 48.7948 134.455 48.8941 134.536C50.5648 136.052 52.2258 137.578 53.911 139.081C55.0167 140.067 56.0983 141.084 57.291 141.977C59.7013 143.848 62.7598 144.873 65.9196 144.868C67.1329 144.869 68.3446 144.947 69.5459 145.103C70.3033 145.23 71.0411 145.44 71.7429 145.731C73.5778 146.425 75.3885 147.176 77.2185 147.875C78.37 148.294 79.4336 148.892 80.3619 149.643C80.5357 149.789 80.7289 149.909 80.8882 150.063C82.4575 151.558 84.3938 151.832 86.4894 151.39C88.7008 150.912 90.8882 150.338 93.0949 149.834C93.9881 149.626 94.9056 149.497 95.8037 149.321C96.0462 149.266 96.2811 149.185 96.5038 149.082C97.4261 148.671 98.329 148.229 99.2609 147.84C99.5529 147.72 99.8757 147.677 100.193 147.716C101.474 147.915 102.785 147.888 104.056 147.636C104.113 147.63 104.172 147.63 104.23 147.636C105.258 147.636 106.291 147.636 107.325 147.605C107.861 147.605 108.392 147.499 108.923 147.442C109.035 147.417 109.15 147.405 109.266 147.406C111.091 147.672 112.849 147.101 114.645 147.03C114.734 147.031 114.823 147.038 114.91 147.053C114.91 147.119 114.91 147.172 114.91 147.181C112.583 148.715 110.183 150.121 107.392 150.859C106.827 151.01 106.301 151.275 105.746 151.469C104.78 151.81 103.814 152.155 102.82 152.46C101.627 152.755 100.5 153.242 99.4927 153.897C99.3237 154.016 99.1402 154.113 98.9326 154.237C99.2583 154.562 99.6547 154.821 100.096 154.998C100.538 155.175 101.015 155.265 101.497 155.263C101.923 155.311 102.357 155.273 102.766 155.151C103.175 155.028 103.549 154.825 103.863 154.555C106.006 152.752 108.599 151.668 111.337 150.837C111.707 150.696 112.066 150.533 112.414 150.351C113.578 149.847 114.722 149.299 115.92 148.861C117.648 148.224 119.338 147.587 120.55 146.173C120.84 145.837 121.545 145.788 122.061 145.629C122.443 145.514 122.829 145.421 123.215 145.333C123.496 145.271 123.785 145.249 124.061 145.173C124.336 145.098 124.543 144.97 124.785 144.899C125.432 144.714 126.084 144.532 126.74 144.378C126.958 144.325 127.223 144.4 127.416 144.333C129.198 143.763 130.98 143.193 132.728 142.565C133.248 142.339 133.752 142.085 134.239 141.804C134.698 141.588 135.205 141.42 135.635 141.185C136.402 140.792 137.151 140.363 137.914 139.956C138.15 139.833 138.397 139.744 138.706 139.607C138.706 139.784 138.706 139.846 138.706 139.881C137.74 141.208 136.736 142.534 135.282 143.515C135.21 143.574 135.129 143.621 135.041 143.657C133.93 143.962 133.341 144.793 132.67 145.567C131.692 146.671 130.438 147.543 129.015 148.109C128.619 148.273 128.392 148.772 128.049 149.095C127.886 149.287 127.674 149.439 127.431 149.537C126.289 149.882 125.253 150.47 124.408 151.253C124.365 151.298 124.333 151.351 124.313 151.408C124.293 151.465 124.286 151.525 124.292 151.584C124.939 151.487 125.591 151.408 126.224 151.284C128.372 150.877 130.507 150.399 132.67 150.059C134.703 149.741 136.76 149.568 138.807 149.334C141.68 149.007 144.529 148.569 147.204 147.481C150.073 146.257 152.579 144.421 154.514 142.127C156.702 139.656 158.681 137.034 160.83 134.536C163.521 131.409 166.257 128.314 169.039 125.251C170.41 123.766 171.626 122.166 172.67 120.472C173.23 119.548 173.911 118.703 174.548 117.819C174.682 117.603 174.867 117.418 175.089 117.275C176.286 116.661 176.755 115.573 177.31 114.529C177.469 114.229 177.662 113.941 177.836 113.645C178.16 113.093 178.406 112.513 179.227 112.359C179.71 112.266 179.956 111.872 180.12 111.404C181.526 107.386 182.496 103.251 183.017 99.0593C183.496 95.2644 183.596 91.4375 183.317 87.6259C182.914 81.5177 181.506 75.5002 179.14 69.7771C178.899 69.2805 178.573 68.8223 178.174 68.4198C177.987 68.2546 177.848 68.0491 177.769 67.8221C177.691 67.595 177.676 67.3537 177.725 67.1199C177.739 67.0416 177.734 66.9615 177.711 66.8851C177.688 66.8088 177.646 66.738 177.59 66.6778C175.75 65.1347 174.505 63.1982 173.244 61.2705C172.268 59.6615 171.083 58.1665 169.715 56.8183C169.544 56.6379 169.316 56.5102 169.063 56.4525C168.81 56.3947 168.543 56.4098 168.3 56.4955C168.005 56.5795 167.72 56.6812 167.426 56.7652C166.547 57.0217 166.142 56.8669 165.76 56.102C165.346 55.2541 165.295 54.295 165.615 53.4139C165.707 53.1 165.828 52.8037 165.944 52.481ZM40.0771 65.8775C39.3625 65.8421 39.2273 66.0897 39.4687 66.8414C39.5942 67.2349 39.826 67.5134 40.3137 67.4869C40.5602 67.4613 40.7899 67.3599 40.9654 67.1993C41.1408 67.0387 41.2515 66.8283 41.2794 66.6026C41.2794 66.1251 40.8642 66.019 40.4489 65.9483L40.0771 65.8775ZM38.8651 69.9672L38.7686 70.0866C38.4595 70.0291 38.0539 69.9319 38.165 70.3917C38.2278 70.6481 38.5513 70.8338 38.7589 71.077C38.9506 70.8306 39.1202 70.5703 39.2659 70.2988C39.29 70.259 39.0052 70.0866 38.8603 69.9716L38.8651 69.9672Z" fill="#D09C57"/>
<path id="Vector_2" d="M98.0469 93.2319C98.2642 92.3477 98.4476 91.5121 98.6891 90.703C98.7229 90.5792 99.0367 90.4554 99.2202 90.451C100.804 90.451 102.388 90.451 103.972 90.451H104.686C104.425 89.3633 104.203 88.3553 103.938 87.356C102.586 81.8825 101.214 76.4133 99.9059 70.9309C99.8648 70.4084 99.9522 69.8842 100.162 69.3967C100.563 68.0173 100.186 68.2958 101.712 68.287C104.609 68.287 107.545 68.287 110.456 68.287C110.997 68.287 111.181 68.4506 111.296 68.906C113.656 78.0964 116.025 87.2838 118.404 96.4683C118.481 96.7601 118.578 97.0475 118.65 97.3526C118.71 97.7591 118.896 98.1415 119.185 98.4548C119.474 98.7681 119.855 98.9993 120.282 99.1211C120.537 99.205 120.768 99.3393 120.958 99.5146C121.088 99.6343 121.185 99.7799 121.242 99.94C121.299 100.1 121.315 100.27 121.287 100.437C121.26 100.603 121.191 100.761 121.085 100.899C120.98 101.037 120.84 101.15 120.678 101.23C120.315 101.39 119.918 101.473 119.515 101.473C114.957 101.491 110.4 101.491 105.845 101.473C104.677 101.473 104.001 100.766 104.348 99.8506C104.586 99.4595 104.946 99.1424 105.381 98.9398C106.241 98.4402 106.478 98.0556 106.323 97.1448C106.323 97.0431 106.323 96.9326 106.275 96.8309C106.038 95.8317 105.792 94.8325 105.57 93.8288C105.478 93.4132 105.256 93.2983 104.817 93.3027C102.808 93.3027 100.799 93.3027 98.7905 93.3027C98.5684 93.2629 98.3462 93.2452 98.0469 93.2319Z" fill="#D09C57"/>
<path id="Vector_3" d="M66.1512 82.846C66.1512 87.3735 66.1512 91.9009 66.1512 96.4283C66.1527 96.7821 66.1834 97.1354 66.2429 97.485C66.2673 97.7699 66.3936 98.0395 66.6022 98.2521C66.8108 98.4647 67.0901 98.6084 67.397 98.661C67.7743 98.7342 68.1467 98.8272 68.5124 98.9396C68.7989 99.0122 69.0505 99.1707 69.2269 99.3897C69.4034 99.6088 69.4944 99.8758 69.4855 100.148C69.4766 100.42 69.3683 100.681 69.1778 100.89C68.9874 101.099 68.7258 101.244 68.4351 101.301C68.0431 101.388 67.641 101.431 67.2376 101.429C62.7309 101.429 58.2114 101.429 53.679 101.429C53.3324 101.428 52.9871 101.39 52.6505 101.314C52.387 101.274 52.1467 101.152 51.9706 100.968C51.7945 100.784 51.6935 100.55 51.6848 100.306C51.6441 100.04 51.7007 99.77 51.8458 99.5372C51.9908 99.3044 52.2161 99.1222 52.4863 99.0192C52.7676 98.9031 53.0581 98.807 53.3555 98.7318C53.629 98.6691 53.8732 98.5273 54.0515 98.3273C54.2299 98.1273 54.3329 97.88 54.3453 97.622C54.3864 97.3051 54.4058 96.9862 54.4033 96.667C54.4033 88.7794 54.4033 80.8933 54.4033 73.0087C54.4049 72.7131 54.3856 72.4177 54.3453 72.1244C54.3332 71.8659 54.2303 71.6179 54.052 71.4171C53.8737 71.2164 53.6294 71.0737 53.3555 71.0102C53.0779 70.9385 52.8054 70.8514 52.5394 70.7494C52.2543 70.6492 52.0146 70.4635 51.8594 70.2227C51.7043 69.9818 51.6427 69.7 51.6848 69.423C51.6997 69.1636 51.8138 68.9174 52.0071 68.7274C52.2005 68.5374 52.4608 68.4158 52.7422 68.384C53.1186 68.3118 53.502 68.2747 53.8866 68.2734C57.6915 68.2734 61.4964 68.2734 65.3014 68.2734C66.127 68.2734 66.127 68.2734 66.127 69.0074L66.1512 82.846Z" fill="#D09C57"/>
<path id="Vector_4" d="M130.855 68.2648C132.863 68.2648 134.872 68.2648 136.881 68.2648C137.246 68.2731 137.61 68.3011 137.972 68.3488C138.238 68.3645 138.492 68.4594 138.694 68.619C138.896 68.7786 139.036 68.9942 139.092 69.2331C139.163 69.4646 139.158 69.7103 139.078 69.9392C138.997 70.1681 138.844 70.3701 138.638 70.5197C138.445 70.6673 138.239 70.7989 138.02 70.9132C137.006 71.5101 136.803 71.9566 137.108 73.0045C137.687 75.0029 138.276 76.9837 138.86 78.9909C139.86 82.3997 140.864 85.8086 141.849 89.2218C141.942 89.5258 141.954 89.8458 141.883 90.1547C140.917 93.7536 139.918 97.3437 138.952 100.943C138.851 101.323 138.687 101.464 138.252 101.46C136.726 101.436 135.2 101.436 133.675 101.46C133.221 101.46 133.052 101.314 132.931 100.921C130.33 92.1664 127.714 83.4152 125.085 74.6669C124.829 73.818 124.553 72.9691 124.283 72.1246C124.204 71.869 124.062 71.6336 123.866 71.4371C123.671 71.2407 123.429 71.0885 123.158 70.9928C122.337 70.6612 122.004 70.2102 122.081 69.5912C122.13 69.2717 122.299 68.9777 122.559 68.7599C122.819 68.542 123.154 68.4139 123.506 68.3975C124.136 68.3209 124.772 68.284 125.408 68.2869C127.214 68.256 129.029 68.2648 130.855 68.2648Z" fill="#D09C57"/>
<path id="Vector_5" d="M74.6246 85.2334L76.4208 85.5561C78.0046 85.7956 79.4982 86.3928 80.7665 87.2937C81.4019 87.7464 81.913 88.3287 82.2592 88.9942C82.6054 89.6597 82.7771 90.39 82.7607 91.127C82.7607 92.6833 82.7607 94.2396 82.7607 95.7959C82.7607 96.1982 82.6545 96.7199 83.2195 96.8924C83.7844 97.0648 83.9775 96.5829 84.2479 96.2822C84.8563 95.619 85.4696 95.398 86.0394 95.7296C86.3936 95.9071 86.6565 96.2059 86.7706 96.5606C86.8846 96.9153 86.8404 97.2969 86.6478 97.6219C85.5275 99.8723 83.7072 101.433 81.008 101.919C79.0331 102.269 77.0341 102.269 75.1557 101.477C72.7414 100.447 71.5729 98.568 71.4184 96.2071C71.2929 94.1954 71.3605 92.1793 71.346 90.1631C71.346 89.2789 71.2011 88.43 70.501 87.811C70.0127 87.4283 69.4534 87.1288 68.8496 86.9268C68.5116 86.7941 68.3668 86.6792 68.3668 86.3343C68.3668 85.7861 68.3668 85.2378 68.3668 84.6896C68.3668 84.3978 68.4778 84.2474 68.811 84.1855C70.6265 83.7876 71.2253 83.2084 71.3025 81.4841C71.3846 78.9949 71.3363 76.5013 71.3025 74.0077C71.3362 73.354 71.119 72.7102 70.6887 72.1877C70.2583 71.6652 69.6419 71.2971 68.9462 71.1471C68.8487 71.1329 68.7555 71.1007 68.672 71.0525C68.5886 71.0042 68.5167 70.941 68.4607 70.8666C68.4047 70.7922 68.3658 70.7082 68.3464 70.6196C68.3269 70.531 68.3273 70.4397 68.3474 70.3513C68.3861 69.7898 68.3474 69.2194 68.3764 68.6579C68.3764 68.5297 68.5985 68.3042 68.7144 68.3087C71.4088 68.3617 74.1466 68.1937 76.7395 69.0382C79.7622 70.0241 82.0509 71.7484 82.7269 74.7859C83.5526 78.5572 82.302 81.9837 78.6033 83.7478C77.3763 84.2584 76.117 84.7013 74.8322 85.0742L74.6246 85.1494V85.2334Z" fill="#D09C57"/>
<path id="Vector_6" d="M150.48 101.433C149.707 101.433 148.935 101.433 148.162 101.433C147.728 101.433 147.559 101.292 147.452 100.925C146.219 96.642 144.982 92.3592 143.739 88.0765C143.02 85.5873 142.291 83.0981 141.595 80.6C141.498 80.2648 141.49 79.9131 141.571 79.5743C142.513 75.9709 143.503 72.372 144.434 68.7731C144.439 68.6917 144.463 68.6122 144.504 68.54C144.545 68.4677 144.602 68.4043 144.672 68.354C144.742 68.3037 144.823 68.2678 144.909 68.2485C144.996 68.2293 145.086 68.2273 145.173 68.2425C146.622 68.2735 148.07 68.2691 149.519 68.2425C149.593 68.2306 149.668 68.2328 149.741 68.249C149.813 68.2652 149.882 68.295 149.941 68.3366C150.001 68.3781 150.05 68.4305 150.086 68.4904C150.122 68.5503 150.145 68.6165 150.151 68.6847C152.196 75.8029 154.24 82.9212 156.284 90.0395C156.346 90.3131 156.337 90.5961 156.26 90.8663C155.357 94.2044 154.43 97.5425 153.527 100.885C153.42 101.278 153.251 101.442 152.793 101.424C152.025 101.411 151.252 101.433 150.48 101.433Z" fill="#D09C57"/>
<path id="Vector_7" d="M51.2838 47.401L49.5938 45.743C50.2215 45.1107 50.7961 44.4917 51.4286 43.9302C51.7477 43.6511 52.1256 43.4344 52.5392 43.2936C53.022 43.1344 52.9931 42.9133 52.7613 42.6215C52.5747 42.4009 52.3697 42.194 52.1481 42.0025C51.9361 41.8219 51.7704 41.6006 51.6627 41.3545C51.555 41.1084 51.5081 40.8436 51.5252 40.5789C53.0076 41.105 54.0795 40.402 55.1321 39.6504C55.3591 39.4912 55.615 39.3365 55.8178 39.1597C56.3459 38.7229 57.0379 38.49 57.7492 38.5097C58.3286 38.5097 58.9805 38.5097 59.1978 37.988C59.4344 37.988 59.613 37.988 59.7241 37.9261C59.8969 37.8039 60.0441 37.6541 60.1587 37.484C60.5498 36.9667 60.994 36.666 61.7183 36.9844C61.8342 37.033 62.0853 36.8959 62.2253 36.7898C62.7516 36.3875 63.2441 35.9498 63.7801 35.5607C64.1229 35.3131 64.0457 35.039 63.9201 34.7605C63.7946 34.4819 63.6207 34.3183 63.5145 34.0619C63.3165 33.6198 63.5145 33.3368 64.036 33.3324C65.1562 33.3324 66.2765 33.3324 67.416 33.3324C67.9464 33.2857 68.4736 33.2119 68.995 33.1113C68.7535 32.877 68.6473 32.7576 68.5121 32.6692C68.3215 32.5176 68.1788 32.3219 68.0989 32.1026C68.0191 31.8833 68.005 31.6484 68.0582 31.4224C68.1741 30.7769 68.2996 30.7813 68.995 30.8167C70.0306 30.8402 71.0669 30.8151 72.0997 30.7415C72.9061 30.7106 73.7125 30.6177 74.514 30.6133C74.6335 30.6317 74.7466 30.6757 74.8439 30.7418C74.9413 30.8079 75.0202 30.8942 75.0741 30.9935C75.557 32.1298 76.4889 32.7222 77.7733 32.4614C78.422 32.2594 79.0505 32.0065 79.6516 31.7053C79.8477 31.6031 80.075 31.5627 80.2986 31.5904C83.1732 32.5347 86.2391 32.8894 89.2798 32.6294C89.3955 32.6206 89.5118 32.6206 89.6274 32.6294C89.681 32.6374 89.733 32.6523 89.782 32.6736C89.782 32.7178 89.782 32.7753 89.782 32.7797C89.0577 33.0229 88.3334 33.2528 87.6139 33.496C87.2228 33.6286 86.8414 33.7834 86.4502 33.916C85.6728 34.1768 84.8954 34.4377 84.1035 34.6765C83.104 34.9771 82.0949 35.2512 81.0857 35.5386C80.1779 35.7995 79.2557 36.025 78.3672 36.3344C77.9061 36.545 77.4624 36.7858 77.0394 37.0551C76.6048 37.2762 76.1364 37.4486 75.7115 37.6829C75.0838 38.0322 74.485 38.4169 73.8718 38.7883C73.7844 38.8567 73.6825 38.9079 73.5724 38.9386C72.5005 39.1066 71.7231 39.8228 70.796 40.2252C69.8689 40.6275 68.9805 41.1581 68.0437 41.5516C66.3441 42.2899 64.939 43.3997 63.4855 44.4519C62.6695 45.04 61.7956 45.5617 60.9747 46.1453C60.5981 46.415 60.3035 46.7775 59.9414 47.0694C59.4585 47.454 58.9757 47.8254 58.4252 48.1658C58.2353 48.2744 58.0085 48.3153 57.7878 48.2808C56.1123 47.9713 54.4078 47.7502 52.9593 46.8129C52.7227 46.6626 52.1529 46.9235 51.7521 47.034C51.5928 47.087 51.4817 47.2418 51.2838 47.401ZM73.9201 31.6479C73.3892 31.6409 72.8584 31.6675 72.3315 31.7275C71.8197 31.8203 71.7134 32.1696 71.9597 32.5675C72.119 32.8372 72.2494 33.1157 72.4039 33.4164L73.4276 33.6551L73.9201 31.6479Z" fill="#D09C57"/>
<path id="Vector_8" d="M98.6241 74.6172C99.0683 76.2796 99.4788 77.7961 99.8602 79.3214C99.885 79.5308 99.8569 79.7426 99.7781 79.9404C98.2588 85.0514 96.7378 90.1595 95.2151 95.2646C95.0948 95.655 95.0267 96.0574 95.0123 96.4628C94.9825 96.9022 95.0965 97.3398 95.34 97.7195C95.5835 98.0992 95.9452 98.4037 96.3788 98.5939C96.7699 98.784 97.19 98.9299 97.5811 99.1156C97.88 99.2306 98.123 99.441 98.2651 99.7077C98.4072 99.9745 98.4387 100.279 98.3537 100.566C98.2834 100.817 98.1216 101.038 97.895 101.193C97.6684 101.349 97.3907 101.428 97.1079 101.419C96.4754 101.463 95.838 101.45 95.1765 101.45C93.3417 101.45 91.5068 101.45 89.6719 101.45C89.1944 101.451 88.7226 101.354 88.291 101.167C88.093 101.083 87.9241 100.95 87.8027 100.784C87.6813 100.618 87.6121 100.424 87.6027 100.224C87.5932 100.025 87.6438 99.8262 87.749 99.651C87.8542 99.4757 88.0099 99.3303 88.1992 99.2306C88.4047 99.0963 88.6288 98.9878 88.8656 98.9078C89.6888 98.6387 90.4275 98.1888 91.0168 97.5976C91.606 97.0064 92.028 96.2919 92.2456 95.5167C93.0906 92.8948 93.8776 90.2553 94.6598 87.6158C95.9346 83.4391 97.1884 79.2758 98.4213 75.1256C98.4599 75.0018 98.5034 74.8825 98.6241 74.6172Z" fill="#D09C57"/>
<path id="Vector_9" d="M137.069 120.446C136.475 120.888 136.055 121.224 135.62 121.538C133.428 123.095 129.343 122.816 128.271 119.27C127.53 117.087 127.676 114.731 128.682 112.638C128.995 112.039 129.454 111.515 130.025 111.106C130.596 110.696 131.262 110.413 131.972 110.278C132.682 110.143 133.416 110.161 134.118 110.328C134.819 110.496 135.469 110.81 136.016 111.245C136.224 111.418 136.446 111.573 136.755 111.798C136.755 111.502 136.784 111.316 136.784 111.131C136.784 109.362 136.808 107.563 136.784 105.776C136.784 105.246 136.992 105.034 137.528 105.007C137.663 105.007 137.798 104.98 137.933 104.98C138.899 104.98 138.986 105.091 138.986 105.962C138.986 111.088 138.986 116.212 138.986 121.335C138.986 121.613 138.899 122.1 138.769 122.126C138.289 122.195 137.8 122.195 137.32 122.126C137.238 122.126 137.141 121.839 137.127 121.684C137.05 121.322 137.069 120.955 137.069 120.446ZM136.784 116.277C136.784 115.658 136.784 115.039 136.784 114.42C136.791 114.213 136.725 114.01 136.596 113.841C136.076 113.297 135.497 112.804 134.867 112.368C133.332 111.422 131.555 111.838 130.777 113.372C130.302 114.304 130.055 115.321 130.055 116.35C130.055 117.379 130.302 118.395 130.777 119.328C130.955 119.735 131.261 120.086 131.656 120.334C132.052 120.582 132.519 120.716 132.998 120.72C134.162 120.778 135.007 120.23 135.809 119.549C136.461 118.992 136.982 118.404 136.813 117.493C136.767 117.09 136.758 116.685 136.784 116.281V116.277Z" fill="#D09C57"/>
<path id="Vector_10" d="M102.819 112.11C103.118 111.871 103.413 111.624 103.717 111.394C105.499 110.028 107.773 109.798 109.511 110.788C110.438 111.323 111.116 112.153 111.414 113.118C112.161 115.201 112.119 117.454 111.293 119.511C110.916 120.539 110.127 121.398 109.086 121.915C108.045 122.432 106.829 122.568 105.682 122.297C105.048 122.1 104.448 121.822 103.9 121.47C103.583 121.266 103.283 121.039 103.002 120.794C102.969 121.077 102.925 121.271 102.925 121.466C102.925 122.969 102.925 124.472 102.925 125.971C102.925 126.471 102.722 126.665 102.177 126.678C100.781 126.705 100.781 126.718 100.781 125.423C100.781 120.683 100.781 115.945 100.781 111.208C100.781 110.947 100.931 110.492 101.076 110.466C101.545 110.418 102.019 110.439 102.481 110.527C102.553 110.527 102.626 110.797 102.631 110.943C102.655 111.31 102.631 111.677 102.631 112.044L102.819 112.11ZM109.791 116.222C109.648 115.339 109.44 114.466 109.168 113.609C109.05 113.231 108.833 112.885 108.536 112.601C108.239 112.317 107.872 112.103 107.465 111.978C107.058 111.852 106.624 111.818 106.2 111.88C105.776 111.942 105.375 112.097 105.03 112.331C104.375 112.761 103.774 113.256 103.239 113.808C103.053 114.005 102.949 114.255 102.944 114.515C102.915 115.714 102.944 116.916 102.944 118.114C102.935 118.357 103.017 118.596 103.176 118.791C103.682 119.322 104.245 119.804 104.857 120.232C105.177 120.456 105.548 120.611 105.942 120.686C106.336 120.762 106.744 120.755 107.135 120.667C107.527 120.58 107.892 120.413 108.203 120.179C108.515 119.945 108.766 119.651 108.937 119.317C109.453 118.351 109.744 117.297 109.791 116.222Z" fill="#D09C57"/>
<path id="Vector_11" d="M51.8396 114.136C51.8396 111.855 51.8396 109.573 51.8396 107.296C51.8396 106.412 52.0762 106.2 53.0371 106.195H60.6228C61.3326 106.195 61.4099 106.297 61.4099 107.08C61.4099 107.862 61.323 107.88 60.5938 107.88C58.6624 107.88 56.6972 107.88 54.7464 107.88C54.2636 107.88 54.0704 108.008 54.0801 108.477C54.1139 109.803 54.1187 111.094 54.0801 112.403C54.0801 112.92 54.2925 113.026 54.7899 113.017C56.4123 113.017 58.0347 113.017 59.6571 113.017C60.3814 113.017 60.4683 113.115 60.4635 113.866C60.4586 114.618 60.3766 114.671 59.6812 114.671C58.0202 114.671 56.3592 114.671 54.6981 114.671C54.2153 114.671 54.0753 114.821 54.0849 115.25C54.0849 116.789 54.1139 118.345 54.0849 119.866C54.0849 120.379 54.2925 120.481 54.7947 120.476C56.7648 120.476 58.73 120.476 60.7001 120.476C61.4437 120.476 61.5258 120.565 61.5306 121.298C61.5354 122.032 61.4678 122.183 60.6952 122.183H52.9695C52.0424 122.183 51.8203 121.975 51.8203 121.108C51.8348 118.765 51.8396 116.453 51.8396 114.136Z" fill="#D09C57"/>
<path id="Vector_12" d="M148.857 116.687C147.621 116.687 146.385 116.687 145.153 116.687C144.714 116.687 144.569 116.82 144.598 117.209C144.753 119.154 145.627 120.79 148.553 120.803C149.79 120.793 151.012 120.554 152.145 120.101C152.792 119.853 152.928 119.941 152.956 120.578C152.99 121.396 152.894 121.555 152.054 121.834C150.359 122.418 148.524 122.571 146.742 122.276C145.758 122.148 144.84 121.748 144.113 121.128C143.385 120.508 142.882 119.699 142.672 118.809C142.11 117.011 142.195 115.096 142.913 113.345C143.879 111.094 146.037 110.042 148.625 110.201C152.57 110.444 153.57 113.23 153.483 115.883C153.483 116.457 153.15 116.674 152.488 116.678L148.857 116.687ZM147.94 115.246C148.905 115.246 149.832 115.246 150.774 115.246C150.953 115.246 151.257 115.096 151.257 114.976C151.348 114.287 151.165 113.59 150.742 113.013C150.32 112.436 149.685 112.017 148.954 111.833C146.752 111.391 145.057 112.509 144.632 114.684C144.55 115.127 144.666 115.272 145.144 115.264C146.085 115.233 147.012 115.246 147.94 115.246Z" fill="#D09C57"/>
<path id="Vector_13" d="M157.412 86.3399C157.059 85.0754 156.818 83.9126 156.398 82.8028C156.011 81.7727 156.258 80.8354 156.528 79.8538C157.078 77.851 157.619 75.8481 158.131 73.8365C158.479 72.5101 158.078 71.701 156.779 70.9891C156.431 70.799 156.069 70.6266 155.736 70.4144C155.522 70.2758 155.36 70.0795 155.274 69.8529C155.187 69.6262 155.18 69.3805 155.253 69.1499C155.292 68.9282 155.413 68.7259 155.598 68.5781C155.782 68.4303 156.017 68.3463 156.262 68.3408C156.547 68.3004 156.834 68.2753 157.122 68.2656C159.169 68.2656 161.217 68.2656 163.264 68.2656C163.587 68.2764 163.91 68.3045 164.23 68.3496C164.462 68.3546 164.685 68.4331 164.861 68.5718C165.037 68.7104 165.155 68.9006 165.195 69.1101C165.278 69.3495 165.268 69.6079 165.165 69.8409C165.063 70.074 164.876 70.2673 164.635 70.3878C164.57 70.4251 164.502 70.4591 164.432 70.4895C162.235 71.2544 161.236 72.8815 160.681 74.8313C159.638 78.5068 158.598 82.1809 157.561 85.8535C157.547 85.9773 157.503 86.0923 157.412 86.3399Z" fill="#D09C57"/>
<path id="Vector_14" d="M122.509 120.847L121.9 121.312C121.216 121.851 120.387 122.212 119.499 122.359C118.611 122.506 117.697 122.433 116.85 122.147C116.221 121.982 115.663 121.644 115.251 121.179C114.839 120.714 114.593 120.145 114.547 119.548C114.363 118.137 114.817 116.957 116.217 116.196C117.273 115.676 118.452 115.401 119.65 115.396C120.36 115.365 121.075 115.374 121.789 115.374C122.118 115.374 122.311 115.277 122.272 114.932C122.257 114.439 122.211 113.947 122.132 113.459C121.91 112.456 121.099 111.908 119.868 111.824C118.627 111.775 117.396 112.049 116.319 112.615C115.981 112.774 115.604 113.185 115.213 112.717C115.07 112.475 115.027 112.194 115.093 111.926C115.158 111.657 115.328 111.42 115.57 111.258C116.348 110.874 117.177 110.587 118.038 110.404C119.06 110.241 120.102 110.214 121.133 110.325C123.248 110.572 124.368 111.832 124.402 113.937C124.45 116.519 124.402 119.101 124.402 121.683C124.402 122.068 124.237 122.24 123.827 122.236H123.711C122.519 122.236 122.504 122.236 122.543 121.267C122.542 121.127 122.531 120.987 122.509 120.847ZM122.282 118.195C122.282 116.744 122.282 116.744 120.872 116.744C120.737 116.733 120.601 116.733 120.466 116.744C119.558 116.85 118.661 117.028 117.787 117.275C116.903 117.593 116.647 118.371 116.753 119.22C116.781 119.595 116.942 119.951 117.211 120.233C117.481 120.516 117.844 120.71 118.245 120.786C118.732 120.905 119.243 120.915 119.734 120.815C120.226 120.715 120.684 120.507 121.07 120.211C121.857 119.667 122.644 119.101 122.282 118.195Z" fill="#D09C57"/>
<path id="Vector_15" d="M94.7164 120.826C94.3591 121.087 94.1274 121.268 93.8859 121.432C93.2172 121.923 92.4221 122.248 91.5768 122.377C90.7314 122.507 89.864 122.435 89.0574 122.17C88.4244 122.02 87.8576 121.694 87.4348 121.238C87.0121 120.781 86.7541 120.215 86.6962 119.619C86.4982 118.142 86.9521 116.918 88.4393 116.148C89.4766 115.661 90.6245 115.404 91.7903 115.397C92.4808 115.366 93.181 115.366 93.8763 115.397C94.277 115.397 94.4412 115.255 94.4171 114.897C94.3929 114.539 94.4171 114.084 94.3446 113.681C94.166 112.567 93.3403 111.944 92.0173 111.855C90.7364 111.809 89.4685 112.104 88.3669 112.704C88.2138 112.808 88.0372 112.879 87.8502 112.912C87.7535 112.912 87.6581 112.893 87.5705 112.855C87.4829 112.818 87.4053 112.763 87.3432 112.695C87.2227 112.436 87.205 112.145 87.2931 111.875C87.3813 111.605 87.5698 111.371 87.8261 111.214C89.1496 110.503 90.6734 110.166 92.2056 110.246C92.7838 110.265 93.3575 110.347 93.9149 110.489C94.6418 110.634 95.2924 111.002 95.7582 111.534C96.224 112.065 96.4767 112.726 96.474 113.407C96.5658 115.176 96.5272 116.975 96.5416 118.761C96.5416 119.716 96.5416 120.671 96.5416 121.626C96.5416 122.117 96.334 122.312 95.8222 122.272H95.5325C94.7358 122.272 94.6971 122.232 94.6923 121.485L94.7164 120.826ZM92.785 116.754L92.7512 116.626C91.8327 116.767 90.926 116.967 90.0376 117.223C89.6216 117.381 89.279 117.667 89.0692 118.032C88.8593 118.397 88.7954 118.818 88.8884 119.221C88.9305 119.62 89.1167 119.995 89.4175 120.287C89.7183 120.578 90.1165 120.769 90.5494 120.83C91.8145 121.087 93.7556 120.278 94.3253 119.243C94.377 119.149 94.4034 119.044 94.4026 118.938C94.4026 118.337 94.4364 117.736 94.4026 117.139C94.3753 117.051 94.3242 116.972 94.254 116.908C94.1839 116.844 94.0971 116.797 94.0018 116.772C93.5988 116.739 93.1938 116.733 92.7898 116.754H92.785Z" fill="#D09C57"/>
<path id="Vector_16" d="M54.2191 26.3633C53.813 27.4892 52.9716 28.4404 51.8531 29.0382C50.8874 29.582 49.8251 30.0595 48.8015 30.5458C47.3095 31.2532 45.9043 32.0402 44.9773 33.3799C44.9015 33.4817 44.7984 33.5639 44.6779 33.6186C41.8773 34.9008 39.6031 36.8064 37.3481 38.7562C35.2042 40.6087 33.0024 42.3949 30.8199 44.2297C30.5363 44.4852 30.3042 44.7846 30.1342 45.114C30.0428 45.3005 29.9096 45.4673 29.7432 45.6037C29.5768 45.74 29.3811 45.8428 29.1685 45.9054C28.6857 46.069 28.2028 46.2945 27.6523 46.5332C27.7345 46.3164 27.8296 46.1038 27.9372 45.8966C29.1285 43.9932 30.6151 42.2582 32.3505 40.7458C34.9419 38.3877 37.5783 36.0769 40.2597 33.8132C40.942 33.2958 41.7013 32.87 42.5147 32.5487C43.7846 31.9783 44.929 31.3417 45.6919 30.1789C46.0513 29.7178 46.5401 29.3542 47.1067 29.1266C48.5552 28.4722 50.0473 27.8842 51.5345 27.3006C52.3843 26.969 53.2534 26.6993 54.2191 26.3633Z" fill="#D09C57"/>
<path id="Vector_17" d="M164.547 118.933C164.577 119.611 164.367 120.279 163.947 120.837C163.528 121.395 162.921 121.813 162.219 122.028C161.343 122.336 160.408 122.475 159.471 122.437C158.534 122.399 157.615 122.184 156.772 121.807C156.431 121.656 156.167 121.39 156.033 121.065C155.899 120.74 155.906 120.381 156.053 120.061C156.237 119.658 156.536 119.853 156.816 119.955C157.673 120.299 158.56 120.578 159.467 120.79C160.077 120.846 160.693 120.773 161.268 120.578C161.566 120.48 161.83 120.308 162.028 120.082C162.227 119.856 162.354 119.584 162.395 119.296C162.436 119.008 162.39 118.715 162.26 118.45C162.131 118.185 161.925 117.957 161.664 117.793C161.275 117.564 160.866 117.365 160.442 117.196C159.728 116.9 158.994 116.656 158.274 116.334C157.648 116.066 157.124 115.63 156.773 115.085C156.422 114.539 156.259 113.909 156.307 113.278C156.354 112.646 156.61 112.042 157.039 111.546C157.469 111.05 158.053 110.684 158.714 110.498C159.442 110.259 160.214 110.155 160.986 110.19C161.759 110.226 162.516 110.401 163.214 110.705C163.523 110.848 163.762 111.094 163.882 111.391C164.002 111.689 163.995 112.017 163.861 112.31C163.702 112.673 163.475 112.527 163.214 112.434C162.598 112.155 161.95 111.94 161.282 111.793C160.657 111.717 160.02 111.776 159.423 111.965C159.163 112.05 158.931 112.196 158.751 112.388C158.57 112.581 158.448 112.813 158.396 113.061C158.344 113.31 158.363 113.567 158.453 113.807C158.543 114.047 158.699 114.261 158.907 114.428C159.374 114.766 159.889 115.044 160.437 115.255C161.22 115.595 162.05 115.847 162.813 116.219C163.37 116.456 163.834 116.843 164.144 117.328C164.453 117.813 164.594 118.373 164.547 118.933Z" fill="#D09C57"/>
<path id="Vector_18" d="M67.9454 122.425C66.8597 122.424 65.7895 122.189 64.8213 121.739C64.2805 121.478 63.9376 120.413 64.295 119.971C64.377 119.865 64.744 119.865 64.9323 119.931C65.5262 120.139 66.0719 120.457 66.6755 120.634C67.6183 120.947 68.6573 120.912 69.5726 120.537C69.8562 120.431 70.1035 120.258 70.2884 120.035C70.4733 119.811 70.5889 119.546 70.623 119.268C70.6572 118.989 70.6085 118.708 70.4823 118.452C70.356 118.197 70.1569 117.978 69.9058 117.818C69.442 117.535 68.9487 117.295 68.4331 117.101C67.6653 116.77 66.8589 116.509 66.125 116.124C65.5646 115.852 65.1082 115.43 64.8166 114.914C64.525 114.398 64.4121 113.813 64.4929 113.237C64.5168 112.685 64.7108 112.15 65.0526 111.695C65.3944 111.24 65.87 110.882 66.4244 110.664C67.2069 110.333 68.0595 110.163 68.9216 110.168C69.7836 110.173 70.634 110.351 71.4123 110.69C71.7215 110.847 71.9549 111.105 72.0659 111.412C72.1769 111.719 72.1573 112.054 72.011 112.348C71.9483 112.446 71.6199 112.468 71.4509 112.419C70.8009 112.161 70.1312 111.947 69.4471 111.778C68.8386 111.697 68.2179 111.75 67.6363 111.933C67.3648 112.017 67.123 112.166 66.9364 112.365C66.7497 112.564 66.6251 112.805 66.5757 113.064C66.5263 113.322 66.5539 113.588 66.6556 113.833C66.7572 114.078 66.9292 114.294 67.1535 114.457C67.6986 114.815 68.2887 115.112 68.9111 115.342C69.6209 115.66 70.3596 115.89 71.0694 116.226C73.6141 117.482 73.0685 120.727 71.0212 121.744C70.0726 122.199 69.0162 122.433 67.9454 122.425Z" fill="#D09C57"/>
<path id="Vector_19" d="M77.3005 116.453C77.4063 117.181 77.5579 117.903 77.7543 118.615C78.4014 120.578 80.3135 121.038 82.047 120.494C82.6914 120.221 83.3086 119.897 83.8915 119.526C84.0605 119.438 84.3212 119.309 84.4371 119.371C84.553 119.433 84.6351 119.69 84.6737 119.871C84.7678 120.245 84.7112 120.637 84.5142 120.976C84.3172 121.315 83.9932 121.577 83.6018 121.714C82.2075 122.394 80.5927 122.59 79.0532 122.267C78.2975 122.135 77.5932 121.823 77.0116 121.362C76.4299 120.9 75.9916 120.307 75.7408 119.641C74.8401 117.523 74.8695 115.169 75.8229 113.071C77.1121 110.241 81.4096 109.269 84.0557 111.161C84.3243 111.375 84.5146 111.659 84.601 111.976C84.6873 112.292 84.6655 112.625 84.5385 112.929C84.4632 112.998 84.37 113.048 84.2677 113.074C84.1655 113.1 84.0576 113.102 83.9543 113.08C83.679 112.987 83.4714 112.726 83.1962 112.611C82.615 112.306 81.9889 112.08 81.3372 111.939C79.4057 111.705 78.1165 112.554 77.653 114.327C77.4695 114.994 77.4212 115.688 77.3005 116.453Z" fill="#D09C57"/>
<path id="Vector_20" d="M86.1416 18.8204C86.2236 19.3376 86.1416 19.6604 85.509 19.7046C84.8765 19.7488 84.3405 19.9345 83.7611 20.0539C83.67 20.085 83.5734 20.1 83.4762 20.0981C81.9697 19.7665 80.6128 20.4164 79.1884 20.6419C76.2913 21.0841 73.3941 21.5262 70.497 22.0214C67.5998 22.5166 64.8814 23.1444 62.3415 24.4575C62.212 24.5328 62.0603 24.5699 61.907 24.5636C60.864 24.4398 59.9417 24.7847 59.0098 25.1428C58.5029 25.3033 57.983 25.4275 57.455 25.5142L57.3633 25.2976C57.7445 25.0471 58.1411 24.8168 58.5511 24.6078C59.5295 24.2331 60.4825 23.805 61.4048 23.3257C62.752 22.4989 64.2681 22.1717 65.7795 21.7782C68.3386 21.1106 70.8736 20.3722 73.4328 19.7179C74.8913 19.3631 76.4022 19.2228 77.9089 19.3023C78.1175 19.3305 78.3304 19.3154 78.5317 19.2581C79.9465 18.6745 81.4289 18.7894 82.9257 18.8159L86.1416 18.8204Z" fill="#D09C57"/>
<path id="Vector_21" d="M101.152 20.9974C99.3317 22.0851 97.5355 21.4705 95.7489 20.9665C95.6634 20.9296 95.5891 20.8741 95.5327 20.8046C95.4763 20.7352 95.4394 20.6542 95.4254 20.5686C95.4544 20.206 95.2612 20.1265 94.9425 20.1265C93.7305 20.1265 92.5282 20.1928 91.3018 20.1751C90.2458 20.1777 89.1908 20.1156 88.1439 19.9894C87.7743 19.9506 87.4299 19.7984 87.1669 19.5576C86.9038 19.3167 86.7376 19.0014 86.6953 18.663C87.0913 18.6099 87.4582 18.5392 87.8349 18.5171C93.6384 18.2058 99.4602 18.6916 105.107 19.9584C105.445 20.0336 105.797 20.0822 105.435 20.5863C104.469 19.9363 103.581 20.657 102.654 20.8294C102.543 20.8294 102.436 21.0903 102.407 21.245C102.4 21.4186 102.351 21.5885 102.265 21.7434C102.179 21.8982 102.058 22.0343 101.91 22.1425C101.761 22.2507 101.589 22.3284 101.405 22.3704C101.221 22.4123 101.029 22.4176 100.843 22.3857C100.676 22.3547 100.514 22.3057 100.36 22.2398C100.421 22.0658 100.509 21.9006 100.621 21.7491C100.82 21.554 101.033 21.3709 101.258 21.2008L101.152 20.9974Z" fill="#D09C57"/>
<path id="Vector_22" d="M26.8391 47.4805C26.8391 47.5645 26.9164 47.7148 26.8681 47.8165C26.5977 48.3824 26.5542 49.0058 26.0231 49.5054C25.5984 50.0042 25.2372 50.5456 24.9463 51.1192C24.661 51.6336 24.3383 52.1299 23.9806 52.6048C23.6689 52.8839 23.3201 53.126 22.9424 53.3254L22.7734 53.1795C22.8094 53.0274 22.8628 52.8792 22.9328 52.7374C23.3818 52.0388 23.8164 51.3314 24.3234 50.6682C25.1105 49.585 25.97 48.5593 26.8391 47.4805Z" fill="#D09C57"/>
<path id="Vector_23" d="M167.551 33.8369C167.551 34.5929 166.445 35.5745 165.619 35.5081C165.214 35.4772 164.967 35.3225 165.112 34.8847C165.193 34.5388 165.351 34.2118 165.576 33.9242C165.801 33.6367 166.089 33.3947 166.421 33.2135C166.535 33.1392 166.67 33.0971 166.81 33.0923C166.95 33.0874 167.089 33.1201 167.209 33.1863C167.329 33.2525 167.425 33.3493 167.486 33.4649C167.546 33.5805 167.569 33.7098 167.551 33.8369Z" fill="#D09C57"/>
<path id="Vector_24" d="M34.4497 146.346C33.7544 144.966 33.9089 143.658 34.4497 142.305C35.314 143.512 35.3189 145.515 34.4497 146.346Z" fill="#D09C57"/>
<path id="Vector_25" d="M28.0046 78.4917C27.753 78.485 27.5111 78.4012 27.3176 78.2537C27.1242 78.1062 26.9903 77.9036 26.9375 77.6782C26.9616 77.427 27.0335 77.1816 27.15 76.9531C27.3613 76.9827 27.5655 77.0455 27.7535 77.1388C28.0468 77.3243 28.2964 77.5619 28.4875 77.8374C28.7241 78.2044 28.4875 78.4962 28.0046 78.4917Z" fill="#D09C57"/>
<path id="Vector_26" d="M54.9375 138.58C55.0244 137.842 55.1789 137.652 55.628 137.793C55.7264 137.833 55.8128 137.894 55.88 137.971C55.9473 138.048 55.9933 138.139 56.0143 138.236C56.0094 138.625 55.5266 138.748 54.9375 138.58Z" fill="#D09C57"/>
<path id="Vector_27" d="M23.1758 97.1892L24.0449 96.5039L24.2381 96.7117L23.3544 97.3793L23.1758 97.1892Z" fill="#D09C57"/>
<path id="Vector_28" d="M40.0768 65.8775L40.4727 65.9483C40.888 66.019 41.2791 66.1251 41.3032 66.6026C41.2753 66.8283 41.1646 67.0387 40.9891 67.1993C40.8137 67.3599 40.584 67.4613 40.3375 67.4869C39.8546 67.5134 39.618 67.2349 39.4925 66.8414C39.2221 66.0942 39.3573 65.8466 40.0768 65.8775Z" fill="#D09C57"/>
<path id="Vector_29" d="M38.8595 69.9707C39.0044 70.0857 39.2893 70.2581 39.2651 70.3023C39.1178 70.574 38.9467 70.8342 38.7533 71.0805C38.5457 70.855 38.2221 70.6383 38.1594 70.3952C38.0483 69.953 38.4539 70.0326 38.7629 70.0901L38.8595 69.9707Z" fill="#D09C57"/>
<path id="Vector_30" d="M73.9225 31.6473L73.4396 33.6546L72.4305 33.4158C72.2759 33.1152 72.1456 32.8366 71.9862 32.5669C71.74 32.1558 71.8462 31.8197 72.358 31.7269C72.8769 31.6679 73.3996 31.6413 73.9225 31.6473Z" fill="#D09C57"/>
</g>
</svg>
