<svg width="143" height="143" viewBox="0 0 143 143" fill="none" xmlns="http://www.w3.org/2000/svg">
<g id="Group">
<path id="Vector" d="M113.76 39.2926C113.383 39.1304 113.012 39.0013 112.664 38.816C111.778 38.4115 111.051 37.7231 110.599 36.8596C110.564 36.7985 110.516 36.7455 110.459 36.7038C110.402 36.6622 110.337 36.633 110.268 36.618C109.076 36.4227 108.146 35.764 107.289 34.9894C106.607 34.3836 105.941 33.7547 105.226 33.1886C104.233 32.4107 103.015 32.1294 101.877 31.6726C101.599 31.5498 101.314 31.4459 101.022 31.3614C100.271 31.1661 99.7712 30.567 99.1257 30.2095C98.6094 29.9248 98.0632 29.6898 97.56 29.3852C97.2461 29.1575 96.9445 28.9133 96.6563 28.6537C96.5107 28.5411 96.3022 28.3624 96.1764 28.3988C95.7229 28.5246 95.3753 28.2896 95.0046 28.1505C94.6338 28.0115 94.2167 27.7997 93.8261 27.6176C93.2436 27.3462 92.6709 27.0516 92.0817 26.8033C91.4925 26.555 90.9231 26.373 90.3438 26.1413C89.9929 26.0055 89.652 25.8334 89.2912 25.7275C88.5861 25.5189 87.8711 25.3402 87.1594 25.1581C86.4477 24.9761 85.6765 24.7642 84.925 24.6186C83.6561 24.3714 82.385 24.1507 81.1117 23.9565C80.5821 23.8738 80.0425 23.8672 79.5063 23.8307C79.023 23.7943 78.5397 23.7778 78.0597 23.7281C77.9004 23.7273 77.7459 23.673 77.6211 23.574C77.4963 23.475 77.4083 23.3369 77.3712 23.182C77.281 22.9487 77.1447 22.7359 76.9707 22.5563C76.9276 22.5067 76.7687 22.5563 76.5602 22.5563L76.4344 22.2253L75.9942 22.7748H75.8684C76.2358 21.1197 74.968 20.5139 74.0014 19.6235L73.3824 20.6166C73.338 20.389 73.306 20.1591 73.2864 19.928C73.2666 19.3223 73.0448 19.0707 72.4456 18.9747C72.3193 18.965 72.2012 18.9083 72.1146 18.8158C71.7637 18.2597 71.4162 17.7003 71.1216 17.1144C70.9968 16.8279 70.9153 16.5245 70.8799 16.214C70.8634 16.1081 70.9428 15.883 71.0123 15.883C71.1635 15.8566 71.3191 15.8835 71.4526 15.9591C71.5646 16.0311 71.6496 16.1382 71.6942 16.2637C71.9326 16.876 72.9819 16.8264 73.3295 16.3861C73.5678 16.0816 73.5314 15.9293 73.1606 15.8267L72.684 15.7009C72.81 15.519 72.9797 15.3715 73.1775 15.272C73.3753 15.1726 73.5948 15.1243 73.8161 15.1316C74.3169 15.1354 74.814 15.2181 75.2891 15.3765C76.7423 15.936 78.2683 16.0684 79.7843 16.257C81.2762 16.4524 82.7543 16.7409 84.21 17.121C86.6927 17.7532 89.1522 18.4749 91.6216 19.1601C91.7871 19.2064 91.9526 19.2792 92.1048 19.3355C92.5087 19.4712 92.9092 19.5904 93.0151 20.0969C93.0449 20.2359 93.2005 20.3451 93.2965 20.4676L92.8761 21.3316C93.2237 21.4011 93.4819 21.4441 93.7335 21.5103C94.4838 21.7393 95.1391 22.2064 95.6004 22.841C96.14 23.503 96.663 24.1949 97.2158 24.8536C97.3371 25.0457 97.5045 25.2045 97.7028 25.3155C97.9011 25.4265 98.1239 25.4862 98.3512 25.4892C98.6377 25.5352 98.9129 25.6352 99.1622 25.7838C99.6885 25.9923 100.215 26.1975 100.731 26.4458C100.863 26.5207 100.977 26.6248 101.062 26.7503C101.393 27.1773 101.724 27.6275 102.386 27.4852C102.466 27.4852 102.601 27.6441 102.691 27.7467C103.275 28.461 103.898 29.1439 104.554 29.7924C105.455 30.6166 106.541 31.0039 107.775 30.567C107.82 30.5599 107.866 30.5599 107.911 30.567C107.929 30.6541 107.939 30.7428 107.941 30.8318C107.921 31.2718 107.999 31.7108 108.171 32.1164C108.343 32.522 108.604 32.8839 108.934 33.1754C109.583 33.7594 110.264 34.3054 110.976 34.8106C111.936 35.5157 112.962 36.1347 113.677 37.1278C113.902 37.4257 114.19 37.1873 114.442 37.1278C114.575 37.0823 114.698 37.0128 114.806 36.9225C115.614 37.6077 116.441 38.2863 117.236 39.0013C117.74 39.4618 118.076 40.0766 118.192 40.7491C118.255 41.0801 118.371 41.2423 118.739 41.2225C118.818 41.2271 118.896 41.2502 118.966 41.2898C119.035 41.3294 119.094 41.3845 119.139 41.4509C120.414 43.8143 121.721 46.1613 122.923 48.5611C123.611 49.9415 124.131 51.4079 124.723 52.8346C124.752 52.936 124.79 53.0346 124.836 53.1292C125.918 54.7843 126.352 56.6943 126.945 58.5447C127.166 59.2332 127.438 59.9118 127.663 60.6003C127.691 60.7813 127.691 60.9655 127.663 61.1465C127.636 61.2943 127.636 61.4456 127.663 61.5933C128.459 63.7818 128.969 66.0636 129.182 68.3825C129.421 70.4944 129.652 72.6085 129.877 74.7248C129.901 74.9073 129.884 75.0926 129.828 75.2677C129.499 76.1818 129.394 77.1615 129.523 78.1244C129.717 79.8477 129.654 81.5903 129.335 83.2949C128.911 86.0382 128.273 88.7442 127.428 91.3883C127.142 92.2949 126.811 93.1865 126.435 94.0596C125.081 97.0388 123.906 100.081 122.271 102.924C118.527 109.435 113.747 115 107.504 119.24C106.478 119.939 105.382 120.535 104.319 121.18C104.228 121.24 104.122 121.276 104.013 121.285C103.904 121.295 103.794 121.277 103.694 121.233C103.397 121.168 103.094 121.14 102.79 121.15C103.065 120.465 103.363 119.71 103.661 118.965C103.247 118.701 102.889 118.797 102.747 119.204C102.664 119.483 102.596 119.767 102.545 120.055C102.423 120.032 102.299 120.017 102.174 120.011C101.688 120.011 101.572 120.213 101.565 120.69C101.541 121.284 101.48 121.875 101.383 122.461C101.383 122.564 101.238 122.673 101.135 122.736C96.8318 125.321 92.267 127.238 87.2819 127.992C85.5738 128.251 83.836 128.307 82.1081 128.413C81.904 128.408 81.7011 128.445 81.5121 128.522C81.323 128.599 81.1518 128.714 81.0091 128.86C80.8653 129.011 80.69 129.13 80.4956 129.206C80.3011 129.283 80.0922 129.316 79.8836 129.303C78.0068 129.346 76.1299 129.472 74.2563 129.508C72.5648 129.542 70.8733 129.508 69.1818 129.469C67.8081 129.426 66.4343 129.316 65.0639 129.214C63.0182 129.055 60.9825 128.813 59.0427 128.095C57.6666 127.631 56.4393 126.808 55.4876 125.712C55.4437 125.66 55.3894 125.619 55.3284 125.591C55.2673 125.562 55.2008 125.547 55.1334 125.546C53.6703 125.775 52.4223 125.285 51.277 124.431C50.5256 123.868 49.7874 123.282 49.0327 122.726C48.0155 121.918 46.7288 121.529 45.4345 121.637C44.8122 121.671 44.1947 121.511 43.6669 121.18C42.9889 120.826 42.2769 120.541 41.5417 120.329C38.652 119.386 35.7357 118.525 32.8691 117.516C31.3506 116.939 29.8663 116.276 28.4235 115.53C27.8956 115.253 27.4087 114.904 26.9769 114.493C26.6535 114.164 26.3722 113.796 26.1394 113.398C26.0435 113.249 25.9574 112.908 26.0137 112.868C26.2061 112.731 26.4402 112.666 26.6757 112.683C27.0015 112.742 27.3156 112.854 27.6059 113.014C28.4733 113.492 29.4692 113.686 30.4526 113.567C31.2934 113.444 32.1077 113.689 32.9121 113.898C33.7666 114.114 34.6317 114.287 35.504 114.414C35.7243 114.442 35.948 114.4 36.143 114.294C36.3381 114.188 36.4944 114.022 36.5897 113.821C36.671 113.707 36.7272 113.577 36.7547 113.44C36.7821 113.302 36.7801 113.161 36.7488 113.024C36.7176 112.887 36.6577 112.759 36.5732 112.647C36.4888 112.535 36.3816 112.442 36.2587 112.375C35.7953 112.097 35.2656 111.921 34.7956 111.67C34.3766 111.48 33.983 111.239 33.6238 110.952C33.1769 110.551 33.2597 110.263 33.8025 110.008C34.3454 109.753 34.3653 109.72 34.0508 109.207C33.6801 108.598 33.3192 107.979 32.9518 107.367C32.4875 106.547 31.8824 105.815 31.1643 105.205C31.0856 105.135 31.0166 105.055 30.9591 104.967C28.8869 101.877 26.8136 98.7877 24.7392 95.6982C23.1923 93.486 21.7733 91.1872 20.489 88.813C20.0389 87.9295 19.687 86.9993 19.4396 86.0391C19.0722 84.6653 18.6187 83.3082 18.1718 81.9576C17.7596 80.8244 17.5359 79.6312 17.5098 78.4256C17.5098 78.0052 17.6091 77.5882 17.629 77.1645C17.6694 76.8031 17.6616 76.438 17.6058 76.0787C17.4713 75.6408 17.4519 75.1757 17.5495 74.7282C17.6588 74.3276 17.5925 73.8841 17.6621 73.467C17.7247 73.1936 17.8123 72.9266 17.9236 72.6692C18.3969 72.838 18.7511 73.0002 19.1219 73.0929C19.4264 73.1691 19.6118 72.987 19.6978 72.6891C19.8033 72.2071 19.7487 71.7039 19.5422 71.2558C19.4694 71.1068 19.4316 70.9432 19.4316 70.7775C19.4316 70.6117 19.4694 70.4481 19.5422 70.2991C19.5989 70.1719 19.6988 70.0688 19.8242 70.0082C19.9497 69.9476 20.0925 69.9334 20.2275 69.9681C20.8895 70.0906 20.863 70.0476 20.9458 69.3822C21.1576 67.6841 21.4224 65.9893 21.6872 64.1521C22.2698 64.5858 22.6803 64.3011 23.1272 64.1223C23.1929 64.0909 23.2505 64.0447 23.2953 63.9872C23.3401 63.9298 23.3709 63.8627 23.3854 63.7913C23.3854 63.0134 23.3854 62.2355 23.3589 61.4576C23.3589 61.1266 23.3125 60.7956 23.2861 60.4447C23.2158 60.4613 23.1487 60.4892 23.0875 60.5275C23.0412 60.5784 22.9824 60.6163 22.9168 60.6372C22.8513 60.6581 22.7814 60.6613 22.7142 60.6465C22.647 60.6317 22.585 60.5995 22.5342 60.553C22.4835 60.5065 22.446 60.4475 22.4254 60.3818C22.197 59.8853 22.0315 59.3623 21.8395 58.8492H21.9587C22.1433 58.6881 22.3058 58.5033 22.442 58.2997C22.6472 57.8959 22.955 57.8892 23.3092 57.9952C24.2162 58.2732 24.2129 58.2765 24.2096 57.3331C24.2096 57.1345 24.2096 56.9359 24.2096 56.7373C24.2178 56.5373 24.1709 56.3389 24.074 56.1638C23.9771 55.9887 23.8339 55.8435 23.6601 55.7442C23.612 55.7238 23.5685 55.6939 23.5321 55.6563C23.4958 55.6187 23.4674 55.5742 23.4485 55.5255C23.4297 55.4767 23.4209 55.4246 23.4225 55.3724C23.4242 55.3201 23.4363 55.2687 23.4582 55.2212C23.862 53.8111 24.2857 52.4076 24.6366 50.9875C24.8669 50.0536 25.0383 49.1061 25.1497 48.1507C25.2032 47.3661 25.0406 46.5819 24.6797 45.8832C24.6454 45.8174 24.6248 45.7454 24.6191 45.6714C24.6134 45.5975 24.6227 45.5231 24.6466 45.4529C24.9776 44.8504 24.9114 44.238 24.822 43.5959C24.7514 43.0892 24.737 42.5764 24.779 42.0666C24.8154 41.5932 25.0074 41.474 25.441 41.6263C25.5067 41.6632 25.58 41.6847 25.6552 41.6893C25.7305 41.6938 25.8058 41.6813 25.8755 41.6527C25.9453 41.624 26.0076 41.58 26.0579 41.5238C26.1082 41.4676 26.1451 41.4008 26.1659 41.3284C26.293 41.0845 26.4036 40.8323 26.497 40.5737C26.5291 40.4458 26.6049 40.3331 26.7113 40.2551C26.8176 40.1772 26.9479 40.1388 27.0795 40.1467C27.9766 40.0804 28.8704 40.0109 29.7641 39.9083C30.4022 39.8601 31.0111 39.6214 31.5119 39.2231C31.6648 39.0871 31.7683 38.9044 31.8065 38.7034C31.9786 37.6309 32.6473 36.9325 33.5245 36.3863C33.5935 36.3545 33.6686 36.338 33.7446 36.338C33.8206 36.338 33.8957 36.3545 33.9647 36.3863C34.2672 36.5497 34.5541 36.7402 34.8221 36.9556C35.0532 37.154 35.2742 37.3639 35.4841 37.5846C35.9442 38.0348 36.4143 38.3492 37.0862 37.9156C37.381 37.7823 37.693 37.6909 38.0131 37.6441L38.1223 37.76C38.0495 37.9342 37.9501 38.0961 37.8277 38.24C36.5401 39.3861 35.3813 40.6692 34.3719 42.0666C33.6403 43.0331 32.8724 43.9732 32.1474 44.9431C31.8237 45.3926 31.5274 45.8613 31.2603 46.3466C30.691 47.3397 30.1084 48.3327 29.6052 49.349C29.1464 50.2676 28.7343 51.2089 28.3705 52.1692C27.8045 53.6257 27.2947 55.0855 26.8114 56.5453C26.6492 57.0319 26.583 57.5384 26.4804 58.0481C26.1792 59.3027 25.8184 60.5506 25.59 61.8151C25.4402 62.7258 25.3419 63.6442 25.2954 64.5659C25.1265 66.7837 24.9643 69.0015 24.8385 71.2227C24.7828 72.3989 24.8016 73.5775 24.8948 74.7513C25.014 76.37 25.2258 77.9821 25.4079 79.5941C25.4741 80.1304 25.6363 80.6534 25.7389 81.183C25.7677 81.2698 25.7854 81.3599 25.7919 81.4511C25.7389 83.1327 26.2421 84.7117 26.6525 86.3138C26.9173 87.3333 27.0597 88.386 27.351 89.3989C27.4735 89.8259 27.8475 90.1801 28.109 90.5641C28.1951 90.6899 28.3407 90.7958 28.3738 90.9315C28.8008 92.6528 29.6516 94.1722 30.5883 95.6518C31.5814 97.2275 32.6539 98.7634 33.3523 100.511C33.3937 100.593 33.4498 100.666 33.5179 100.726C34.6632 101.862 35.8019 103.004 36.9571 104.129C37.7152 104.867 38.4567 105.629 39.2743 106.297C40.9266 107.698 43.0234 108.466 45.1896 108.462C46.0213 108.463 46.852 108.521 47.6755 108.638C48.1948 108.733 48.7005 108.891 49.1817 109.108C50.4395 109.627 51.6808 110.19 52.9354 110.713C53.7248 111.027 54.4539 111.475 55.0903 112.037C55.2095 112.146 55.3419 112.236 55.4511 112.352C56.527 113.471 57.8543 113.676 59.291 113.345C60.807 112.987 62.3065 112.557 63.8193 112.18C64.4317 112.024 65.0606 111.928 65.6763 111.796C65.8426 111.754 66.0036 111.694 66.1563 111.617C66.7885 111.309 67.4075 110.978 68.0464 110.687C68.2466 110.597 68.4678 110.565 68.6853 110.594C69.5637 110.743 70.4626 110.723 71.3334 110.534C71.373 110.53 71.413 110.53 71.4526 110.534C72.1577 110.534 72.866 110.534 73.5744 110.511C73.9419 110.511 74.306 110.432 74.6701 110.389C74.747 110.37 74.826 110.361 74.9051 110.362C76.1564 110.561 77.3613 110.134 78.5927 110.081C78.6537 110.081 78.7146 110.087 78.7747 110.097C78.7747 110.147 78.7747 110.187 78.7747 110.193C77.1792 111.342 75.534 112.395 73.6208 112.948C73.2335 113.06 72.8727 113.259 72.492 113.404C71.83 113.659 71.1679 113.917 70.486 114.146C69.6683 114.367 68.8961 114.731 68.2053 115.222C68.0894 115.311 67.9637 115.384 67.8213 115.477C68.0446 115.72 68.3163 115.914 68.619 116.046C68.9217 116.179 69.2487 116.246 69.579 116.245C69.8717 116.281 70.1687 116.252 70.449 116.16C70.7294 116.069 70.9861 115.917 71.201 115.715C72.6707 114.364 74.4483 113.553 76.3252 112.931C76.5786 112.825 76.8251 112.703 77.0634 112.567C77.8611 112.19 78.6456 111.779 79.4666 111.451C80.6516 110.975 81.8102 110.498 82.641 109.439C82.8396 109.187 83.3229 109.151 83.6771 109.032C83.9386 108.946 84.2034 108.876 84.4682 108.81C84.6602 108.763 84.8588 108.747 85.0475 108.691C85.2362 108.634 85.3785 108.538 85.5441 108.485C85.9876 108.346 86.4345 108.211 86.8847 108.095C87.0336 108.055 87.2157 108.111 87.3481 108.062C88.5696 107.635 89.791 107.208 90.9893 106.738C91.3457 106.569 91.6917 106.378 92.0254 106.168C92.3399 106.006 92.6874 105.88 92.982 105.705C93.5084 105.41 94.0214 105.089 94.5444 104.785C94.7066 104.692 94.8755 104.626 95.0873 104.523C95.0873 104.656 95.0873 104.702 95.0873 104.728C94.4253 105.721 93.7368 106.714 92.7404 107.449C92.691 107.493 92.6352 107.529 92.5749 107.555C91.8136 107.784 91.4097 108.406 90.9496 108.985C90.2794 109.812 89.4199 110.465 88.4438 110.889C88.1723 111.011 88.0168 111.385 87.7817 111.627C87.6703 111.771 87.5246 111.884 87.358 111.958C86.5755 112.216 85.8653 112.656 85.2859 113.242C85.2565 113.276 85.2343 113.315 85.2207 113.358C85.207 113.401 85.2022 113.446 85.2064 113.49C85.65 113.418 86.0969 113.358 86.5305 113.265C88.0035 112.961 89.4666 112.603 90.9496 112.348C92.3432 112.11 93.7533 111.981 95.1568 111.806C97.1264 111.561 99.0794 111.233 100.913 110.419C102.88 109.502 104.598 108.127 105.925 106.41C107.424 104.56 108.782 102.597 110.255 100.726C112.099 98.3849 113.975 96.0678 115.882 93.775C116.822 92.663 117.656 91.4649 118.371 90.1967C118.755 89.5048 119.222 88.8726 119.659 88.2105C119.751 88.0491 119.877 87.9101 120.03 87.8034C120.85 87.3433 121.172 86.529 121.552 85.7478C121.661 85.5227 121.794 85.3075 121.913 85.0857C122.135 84.672 122.304 84.2383 122.866 84.1225C123.197 84.0529 123.366 83.7583 123.479 83.4075C124.442 80.3994 125.108 77.3038 125.465 74.1654C125.793 71.3242 125.862 68.459 125.67 65.6053C125.394 61.0321 124.429 56.5269 122.807 52.2421C122.642 51.8703 122.418 51.5272 122.145 51.2258C122.016 51.1021 121.921 50.9483 121.867 50.7784C121.813 50.6084 121.803 50.4277 121.837 50.2526C121.847 50.194 121.843 50.1341 121.827 50.0769C121.811 50.0197 121.783 49.9667 121.744 49.9216C120.483 48.7664 119.629 47.3165 118.765 45.8733C118.096 44.6686 117.283 43.5493 116.345 42.5399C116.228 42.4049 116.072 42.3093 115.899 42.266C115.725 42.2228 115.542 42.2341 115.375 42.2983C115.174 42.3612 114.978 42.4373 114.776 42.5002C114.174 42.6922 113.896 42.5763 113.634 42.0037C113.351 41.3688 113.315 40.6508 113.535 39.9911C113.598 39.756 113.681 39.5343 113.76 39.2926ZM27.4735 49.3225C26.9835 49.296 26.8909 49.4814 27.0564 50.0441C27.1424 50.3387 27.3013 50.5473 27.6357 50.5274C27.8046 50.5082 27.9621 50.4323 28.0824 50.3121C28.2026 50.1918 28.2785 50.0343 28.2977 49.8654C28.2977 49.5079 28.013 49.4284 27.7283 49.3755L27.4735 49.3225ZM26.6426 52.3844L26.5764 52.4738C26.3645 52.4307 26.0865 52.3579 26.1626 52.7022C26.2057 52.8942 26.4274 53.0332 26.5698 53.2153C26.7012 53.0308 26.8174 52.836 26.9173 52.6327C26.9339 52.6029 26.7386 52.4738 26.6393 52.3877L26.6426 52.3844Z" fill="#333A04"/>
<path id="Vector_2" d="M67.2148 69.8024C67.3638 69.1404 67.4896 68.5148 67.6551 67.909C67.6783 67.8163 67.8934 67.7236 68.0192 67.7203C69.105 67.7203 70.1907 67.7203 71.2764 67.7203H71.7663C71.5876 66.906 71.4353 66.1513 71.2533 65.4032C70.3264 61.3052 69.3863 57.2105 68.4893 53.1058C68.4611 52.7147 68.521 52.3221 68.6647 51.9572C68.9395 50.9244 68.6813 51.133 69.7273 51.1264C71.7134 51.1264 73.726 51.1264 75.722 51.1264C76.0928 51.1264 76.2185 51.2488 76.298 51.5898C77.9156 58.4706 79.5398 65.3491 81.1706 72.2255C81.2235 72.444 81.2897 72.6591 81.3394 72.8875C81.3804 73.1919 81.5075 73.4782 81.7057 73.7127C81.9039 73.9473 82.165 74.1204 82.4582 74.2116C82.6326 74.2744 82.7908 74.375 82.9217 74.5062C83.0103 74.5958 83.0768 74.7048 83.116 74.8247C83.1551 74.9445 83.1658 75.0718 83.1472 75.1964C83.1285 75.3211 83.0811 75.4397 83.0086 75.5428C82.9362 75.646 82.8406 75.7308 82.7297 75.7906C82.4808 75.9103 82.2081 75.9725 81.9319 75.9726C78.8071 75.9858 75.6834 75.9858 72.5608 75.9726C71.7597 75.9726 71.2963 75.443 71.5346 74.7578C71.6975 74.465 71.9442 74.2275 72.243 74.0759C72.8322 73.7018 72.9944 73.4138 72.8885 72.7319C72.8885 72.6558 72.8885 72.573 72.8554 72.4969C72.6932 71.7488 72.5244 71.0007 72.3721 70.2493C72.3092 69.9381 72.1569 69.8521 71.8557 69.8554C70.4787 69.8554 69.1017 69.8554 67.7246 69.8554C67.5723 69.8256 67.4201 69.8124 67.2148 69.8024Z" fill="#333A04"/>
<path id="Vector_3" d="M45.348 62.0256C45.348 65.4152 45.348 68.8049 45.348 72.1945C45.3491 72.4594 45.3701 72.7239 45.4109 72.9857C45.4277 73.199 45.5142 73.4008 45.6572 73.56C45.8002 73.7192 45.9917 73.8268 46.2021 73.8662C46.4607 73.9209 46.7161 73.9905 46.9667 74.0747C47.1631 74.129 47.3356 74.2477 47.4566 74.4117C47.5775 74.5757 47.64 74.7756 47.6339 74.9793C47.6278 75.183 47.5535 75.3788 47.4229 75.5352C47.2924 75.6917 47.1131 75.7999 46.9137 75.8423C46.645 75.9074 46.3693 75.9397 46.0928 75.9383C43.0033 75.9383 39.905 75.9383 36.7978 75.9383C36.5602 75.9379 36.3235 75.909 36.0928 75.8523C35.9121 75.8225 35.7474 75.731 35.6267 75.5934C35.506 75.4557 35.4367 75.2805 35.4307 75.0975C35.4028 74.8988 35.4417 74.6965 35.5411 74.5222C35.6405 74.3478 35.795 74.2114 35.9802 74.1343C36.173 74.0474 36.3722 73.9754 36.576 73.9191C36.7636 73.8722 36.9309 73.766 37.0532 73.6163C37.1755 73.4666 37.2461 73.2814 37.2546 73.0883C37.2828 72.851 37.2961 72.6122 37.2944 72.3733C37.2944 66.4679 37.2944 60.5636 37.2944 54.6604C37.2955 54.4391 37.2822 54.218 37.2546 53.9984C37.2463 53.8049 37.1758 53.6192 37.0535 53.4689C36.9313 53.3186 36.7638 53.2118 36.576 53.1642C36.3858 53.1106 36.199 53.0453 36.0166 52.9689C35.8212 52.8939 35.6568 52.7549 35.5505 52.5746C35.4441 52.3943 35.4019 52.1833 35.4307 51.9759C35.4409 51.7817 35.5192 51.5973 35.6517 51.4551C35.7843 51.3129 35.9627 51.2218 36.1557 51.198C36.4137 51.1439 36.6765 51.1162 36.9402 51.1152C39.5486 51.1152 42.157 51.1152 44.7654 51.1152C45.3315 51.1152 45.3315 51.1152 45.3315 51.6647L45.348 62.0256Z" fill="#333A04"/>
<path id="Vector_4" d="M89.7056 51.1083C91.0827 51.1083 92.4597 51.1083 93.8368 51.1083C94.0871 51.1144 94.3369 51.1355 94.5849 51.1712C94.7675 51.1829 94.9413 51.2539 95.0799 51.3734C95.2185 51.4929 95.3143 51.6543 95.3528 51.8332C95.4017 52.0066 95.3982 52.1905 95.3428 52.3619C95.2875 52.5333 95.1827 52.6845 95.0417 52.7965C94.9094 52.907 94.7676 53.0056 94.618 53.0911C93.9228 53.538 93.7838 53.8723 93.9923 54.6568C94.3896 56.153 94.7934 57.636 95.1939 59.1388C95.8791 61.691 96.5677 64.2431 97.2429 66.7986C97.3067 67.0262 97.3146 67.2658 97.2661 67.497C96.6041 70.1915 95.9189 72.8794 95.2568 75.5739C95.1873 75.8586 95.0748 75.9645 94.7768 75.9612C93.7308 75.9435 92.6848 75.9435 91.6388 75.9612C91.3276 75.9612 91.2118 75.852 91.129 75.5574C89.3459 69.0032 87.5529 62.4512 85.75 55.9015C85.5745 55.2659 85.3858 54.6303 85.2005 53.9981C85.1465 53.8067 85.0487 53.6304 84.9149 53.4833C84.781 53.3363 84.6147 53.2224 84.4292 53.1507C83.8665 52.9024 83.6381 52.5648 83.691 52.1014C83.7246 51.8621 83.8404 51.642 84.0186 51.4789C84.1968 51.3158 84.4263 51.2199 84.6675 51.2076C85.0999 51.1503 85.5356 51.1226 85.9717 51.1248C87.2098 51.1017 88.4544 51.1083 89.7056 51.1083Z" fill="#333A04"/>
<path id="Vector_5" d="M51.1576 63.814L52.389 64.0557C53.4747 64.235 54.4986 64.6821 55.3681 65.3566C55.8037 65.6955 56.154 66.1315 56.3914 66.6297C56.6287 67.128 56.7465 67.6747 56.7352 68.2265C56.7352 69.3917 56.7352 70.5569 56.7352 71.7221C56.7352 72.0233 56.6624 72.4139 57.0497 72.543C57.437 72.6721 57.5694 72.3113 57.7548 72.0862C58.1718 71.5897 58.5922 71.4242 58.9828 71.6724C59.2257 71.8053 59.406 72.029 59.4841 72.2946C59.5623 72.5602 59.532 72.8459 59.3999 73.0892C58.632 74.7741 57.384 75.9426 55.5336 76.3067C54.1798 76.5682 52.8093 76.5682 51.5217 75.9757C49.8666 75.2044 49.0655 73.7976 48.9596 72.0299C48.8735 70.5238 48.9199 69.0143 48.9099 67.5049C48.9099 66.8428 48.8106 66.2073 48.3307 65.7439C47.9959 65.4573 47.6125 65.2331 47.1986 65.0818C46.9669 64.9825 46.8676 64.8965 46.8676 64.6383C46.8676 64.2278 46.8676 63.8173 46.8676 63.4069C46.8676 63.1884 46.9437 63.0759 47.1721 63.0295C48.4167 62.7316 48.8272 62.298 48.8802 61.007C48.9364 59.1434 48.9033 57.2764 48.8802 55.4095C48.9032 54.92 48.7544 54.438 48.4593 54.0468C48.1643 53.6557 47.7417 53.3801 47.2648 53.2678C47.198 53.2571 47.134 53.233 47.0768 53.1969C47.0196 53.1608 46.9703 53.1134 46.932 53.0577C46.8936 53.002 46.8669 52.9391 46.8536 52.8728C46.8402 52.8065 46.8405 52.7381 46.8543 52.6719C46.8808 52.2515 46.8543 51.8245 46.8742 51.4041C46.8742 51.3081 47.0264 51.1393 47.1059 51.1426C48.953 51.1823 50.8299 51.0566 52.6074 51.6888C54.6796 52.427 56.2486 53.718 56.7121 55.992C57.2781 58.8156 56.4208 61.381 53.8852 62.7018C53.044 63.0841 52.1807 63.4157 51.2999 63.6949L51.1576 63.7511V63.814Z" fill="#333A04"/>
<path id="Vector_6" d="M103.157 75.9431C102.627 75.9431 102.098 75.9431 101.568 75.9431C101.27 75.9431 101.154 75.8371 101.082 75.5624C100.236 72.3559 99.3878 69.1495 98.536 65.943C98.0428 64.0794 97.543 62.2157 97.0663 60.3455C96.9996 60.0945 96.994 59.8312 97.0497 59.5775C97.6952 56.8797 98.3738 54.1852 99.0127 51.4907C99.0159 51.4298 99.032 51.3703 99.0601 51.3162C99.0882 51.2621 99.1276 51.2146 99.1756 51.177C99.2236 51.1393 99.2791 51.1124 99.3383 51.098C99.3976 51.0836 99.4592 51.0821 99.5191 51.0935C100.512 51.1167 101.505 51.1134 102.498 51.0935C102.549 51.0846 102.601 51.0862 102.65 51.0984C102.7 51.1105 102.747 51.1328 102.788 51.1639C102.828 51.195 102.862 51.2342 102.887 51.2791C102.912 51.3239 102.927 51.3735 102.932 51.4245C104.333 56.7539 105.735 62.0833 107.136 67.4127C107.178 67.6175 107.173 67.8295 107.119 68.0317C106.5 70.5309 105.865 73.0301 105.246 75.5326C105.173 75.8272 105.057 75.9497 104.743 75.9364C104.216 75.9265 103.687 75.9431 103.157 75.9431Z" fill="#333A04"/>
<path id="Vector_7" d="M35.1586 35.4887L34 34.2474C34.4303 33.774 34.8242 33.3106 35.2579 32.8902C35.4766 32.6812 35.7357 32.519 36.0192 32.4135C36.3502 32.2944 36.3304 32.1289 36.1715 31.9104C36.0436 31.7452 35.903 31.5903 35.7511 31.447C35.6058 31.3117 35.4922 31.1461 35.4183 30.9618C35.3445 30.7775 35.3123 30.5792 35.3241 30.3811C36.3403 30.775 37.0752 30.2487 37.7968 29.6859C37.9524 29.5668 38.1278 29.4509 38.2668 29.3185C38.6289 28.9915 39.1033 28.8172 39.5909 28.8319C39.9881 28.8319 40.435 28.8319 40.584 28.4413C40.7462 28.4413 40.8686 28.4413 40.9448 28.395C41.0632 28.3035 41.1641 28.1913 41.2427 28.064C41.5108 27.6767 41.8153 27.4516 42.3119 27.6899C42.3913 27.7263 42.5634 27.6237 42.6594 27.5443C43.0203 27.243 43.3579 26.9153 43.7253 26.624C43.9603 26.4387 43.9074 26.2334 43.8213 26.0249C43.7353 25.8163 43.6161 25.6939 43.5433 25.5019C43.4075 25.1709 43.5433 24.959 43.9008 24.9557C44.6687 24.9557 45.4367 24.9557 46.2179 24.9557C46.5815 24.9207 46.9429 24.8655 47.3003 24.7902C47.1348 24.6147 47.062 24.5254 46.9693 24.4592C46.8386 24.3457 46.7408 24.1992 46.6861 24.035C46.6313 23.8708 46.6217 23.6949 46.6581 23.5257C46.7376 23.0424 46.8237 23.0457 47.3003 23.0722C48.0103 23.0898 48.7207 23.071 49.4288 23.0159C49.9816 22.9927 50.5344 22.9232 51.0839 22.9199C51.1658 22.9337 51.2433 22.9667 51.31 23.0162C51.3768 23.0656 51.4309 23.1302 51.4678 23.2046C51.7989 24.0553 52.4377 24.4989 53.3182 24.3036C53.763 24.1524 54.1938 23.963 54.6059 23.7375C54.7403 23.661 54.8962 23.6307 55.0495 23.6515C57.0201 24.3584 59.1219 24.624 61.2064 24.4294C61.2857 24.4228 61.3654 24.4228 61.4447 24.4294C61.4814 24.4353 61.5171 24.4465 61.5507 24.4625C61.5507 24.4956 61.5507 24.5386 61.5507 24.5419C61.0541 24.724 60.5576 24.8961 60.0644 25.0782C59.7963 25.1775 59.5348 25.2933 59.2666 25.3926C58.7337 25.5879 58.2008 25.7832 57.6579 25.962C56.9727 26.1871 56.2809 26.3923 55.589 26.6075C54.9667 26.8028 54.3345 26.9716 53.7254 27.2033C53.4093 27.3609 53.1051 27.5412 52.8151 27.7429C52.5172 27.9084 52.1961 28.0375 51.9048 28.2129C51.4745 28.4744 51.064 28.7624 50.6436 29.0405C50.5837 29.0917 50.5138 29.13 50.4384 29.153C49.7035 29.2788 49.1706 29.815 48.535 30.1163C47.8995 30.4175 47.2904 30.8147 46.6482 31.1093C45.483 31.6621 44.5198 32.493 43.5234 33.2808C42.964 33.7211 42.3648 34.1117 41.8021 34.5486C41.5439 34.7505 41.342 35.022 41.0937 35.2404C40.7627 35.5284 40.4317 35.8065 40.0543 36.0614C39.9242 36.1427 39.7687 36.1733 39.6174 36.1474C38.4688 35.9157 37.3003 35.7502 36.3072 35.0484C36.145 34.9359 35.7544 35.1312 35.4797 35.214C35.3704 35.2537 35.2943 35.3695 35.1586 35.4887ZM50.6767 23.6945C50.3128 23.6893 49.9489 23.7092 49.5877 23.7541C49.2368 23.8236 49.164 24.0851 49.3328 24.383C49.442 24.5849 49.5314 24.7935 49.6373 25.0186L50.3391 25.1973L50.6767 23.6945Z" fill="#333A04"/>
<path id="Vector_8" d="M67.6111 55.8652C67.9156 57.1099 68.197 58.2453 68.4585 59.3873C68.4755 59.544 68.4562 59.7026 68.4022 59.8507C67.3606 63.6773 66.3179 67.5016 65.2741 71.3238C65.1916 71.6161 65.1449 71.9173 65.1351 72.2209C65.1146 72.5499 65.1928 72.8775 65.3597 73.1617C65.5266 73.446 65.7746 73.674 66.0719 73.8164C66.34 73.9587 66.628 74.0679 66.8961 74.207C67.1009 74.2931 67.2676 74.4506 67.365 74.6503C67.4624 74.85 67.484 75.0783 67.4257 75.2927C67.3775 75.4806 67.2666 75.6464 67.1113 75.7626C66.9559 75.8788 66.7656 75.9384 66.5717 75.9316C66.1381 75.9647 65.7011 75.9548 65.2476 75.9548C63.9898 75.9548 62.7319 75.9548 61.474 75.9548C61.1466 75.9554 60.8232 75.883 60.5273 75.7429C60.3916 75.6797 60.2758 75.5805 60.1926 75.456C60.1094 75.3316 60.0619 75.1866 60.0555 75.0371C60.049 74.8875 60.0837 74.739 60.1558 74.6078C60.2279 74.4766 60.3347 74.3677 60.4644 74.293C60.6053 74.1925 60.7589 74.1113 60.9212 74.0514C61.4856 73.8499 61.992 73.5131 62.3959 73.0705C62.7999 72.6278 63.0892 72.0929 63.2383 71.5125C63.8176 69.5495 64.3572 67.5734 64.8934 65.5972C65.7673 62.4702 66.6269 59.3531 67.4721 56.2459C67.4986 56.1532 67.5283 56.0638 67.6111 55.8652Z" fill="#333A04"/>
<path id="Vector_9" d="M93.9682 90.1767C93.5611 90.5077 93.2731 90.7593 92.9752 90.9943C91.4723 92.1595 88.6719 91.951 87.937 89.2962C87.4289 87.6613 87.5288 85.8979 88.2184 84.3309C88.433 83.8826 88.7482 83.4899 89.1395 83.1834C89.5308 82.877 89.9876 82.665 90.4742 82.5641C90.9609 82.4632 91.4643 82.476 91.9452 82.6016C92.4261 82.7272 92.8714 82.9622 93.2466 83.2882C93.3889 83.4173 93.5412 83.5331 93.7531 83.702C93.7531 83.4802 93.7729 83.3412 93.7729 83.2021C93.7729 81.8781 93.7895 80.5308 93.7729 79.1935C93.7729 78.7963 93.9153 78.6374 94.2827 78.6175C94.3754 78.6175 94.4681 78.5977 94.5607 78.5977C95.2228 78.5977 95.2824 78.6804 95.2824 79.3325C95.2824 83.1701 95.2824 87.0066 95.2824 90.842C95.2824 91.0506 95.2228 91.4147 95.1334 91.4346C94.8044 91.4858 94.4694 91.4858 94.1403 91.4346C94.0841 91.4346 94.0179 91.2194 94.0079 91.1036C93.955 90.8321 93.9682 90.5574 93.9682 90.1767ZM93.7729 87.0552C93.7729 86.5918 93.7729 86.1283 93.7729 85.6649C93.778 85.5102 93.7327 85.358 93.6438 85.2313C93.2875 84.8244 92.8904 84.455 92.4588 84.129C91.4061 83.4206 90.188 83.7318 89.655 84.8804C89.3289 85.5784 89.1599 86.3394 89.1599 87.1098C89.1599 87.8802 89.3289 88.6412 89.655 89.3392C89.7766 89.6446 89.9864 89.9068 90.2576 90.0925C90.5287 90.2782 90.8491 90.379 91.1777 90.3819C91.9755 90.425 92.5548 90.0145 93.1043 89.5047C93.5511 89.0877 93.9086 88.6474 93.7928 87.9655C93.7615 87.6642 93.7548 87.3609 93.7729 87.0585V87.0552Z" fill="#333A04"/>
<path id="Vector_10" d="M70.4867 83.9356C70.692 83.7569 70.8939 83.5715 71.1024 83.3994C72.3239 82.3765 73.883 82.2044 75.0746 82.9459C75.71 83.3462 76.1746 83.9677 76.3789 84.6903C76.8915 86.2496 76.8623 87.9363 76.2961 89.4769C76.0374 90.2463 75.4967 90.8892 74.7831 91.2761C74.0694 91.6631 73.2357 91.7653 72.4497 91.5623C72.0152 91.415 71.6039 91.2066 71.2282 90.9433C71.0106 90.7901 70.8048 90.6208 70.6125 90.4368C70.5894 90.6487 70.5596 90.7943 70.5596 90.94C70.5596 92.0654 70.5596 93.1909 70.5596 94.3131C70.5596 94.6871 70.4205 94.8327 70.0465 94.8427C69.0898 94.8625 69.0898 94.8725 69.0898 93.9026C69.0898 90.3541 69.0898 86.8066 69.0898 83.2603C69.0898 83.065 69.1925 82.7241 69.2918 82.7042C69.6133 82.6686 69.9384 82.6843 70.255 82.7506C70.3047 82.7506 70.3543 82.9525 70.3576 83.0617C70.3742 83.3365 70.3576 83.6112 70.3576 83.886L70.4867 83.9356ZM75.2666 87.0141C75.1683 86.3531 75.0257 85.6996 74.8396 85.0578C74.7582 84.7749 74.6094 84.516 74.406 84.3033C74.2027 84.0906 73.9507 83.9303 73.6718 83.8363C73.3929 83.7422 73.0954 83.7172 72.8047 83.7633C72.514 83.8094 72.2389 83.9254 72.0028 84.1011C71.5537 84.423 71.1418 84.7938 70.7747 85.2067C70.6474 85.3541 70.5759 85.5416 70.5728 85.7364C70.5529 86.6334 70.5728 87.5338 70.5728 88.4308C70.5664 88.6128 70.6225 88.7916 70.7317 88.9373C71.0786 89.3346 71.4645 89.6962 71.8836 90.0164C72.1032 90.1839 72.3575 90.3001 72.6278 90.3564C72.8982 90.4128 73.1777 90.408 73.4459 90.3423C73.7142 90.2766 73.9643 90.1517 74.1779 89.9767C74.3916 89.8018 74.5634 89.5812 74.6807 89.3312C75.0347 88.6079 75.2342 87.8187 75.2666 87.0141Z" fill="#333A04"/>
<path id="Vector_11" d="M35.5367 85.4529C35.5367 83.7448 35.5367 82.0368 35.5367 80.332C35.5367 79.67 35.6989 79.5111 36.3576 79.5078H41.5579C42.0445 79.5078 42.0975 79.5839 42.0975 80.1698C42.0975 80.7558 42.0379 80.769 41.5381 80.769C40.214 80.769 38.8667 80.769 37.5294 80.769C37.1984 80.769 37.066 80.865 37.0726 81.2159C37.0958 82.2089 37.0991 83.1755 37.0726 84.1553C37.0726 84.5426 37.2183 84.622 37.5592 84.6154C38.6714 84.6154 39.7837 84.6154 40.8959 84.6154C41.3924 84.6154 41.452 84.6883 41.4487 85.251C41.4454 85.8137 41.3891 85.8534 40.9124 85.8534C39.7737 85.8534 38.635 85.8534 37.4963 85.8534C37.1653 85.8534 37.0693 85.966 37.0759 86.2871C37.0759 87.439 37.0958 88.6042 37.0759 89.7429C37.0759 90.1269 37.2183 90.203 37.5625 90.1997C38.9131 90.1997 40.2603 90.1997 41.6109 90.1997C42.1206 90.1997 42.1769 90.2659 42.1802 90.8154C42.1835 91.3649 42.1372 91.4774 41.6076 91.4774H36.3113C35.6757 91.4774 35.5234 91.3219 35.5234 90.6731C35.5334 88.9187 35.5367 87.1874 35.5367 85.4529Z" fill="#333A04"/>
<path id="Vector_12" d="M102.047 87.3619C101.199 87.3619 100.352 87.3619 99.5076 87.3619C99.2064 87.3619 99.1071 87.4612 99.127 87.7525C99.2329 89.209 99.832 90.4338 101.838 90.4437C102.686 90.4361 103.524 90.2571 104.301 89.9174C104.744 89.732 104.837 89.7982 104.857 90.2749C104.88 90.8873 104.814 91.0064 104.238 91.215C103.076 91.6524 101.818 91.7668 100.597 91.546C99.9221 91.4505 99.293 91.1505 98.794 90.6865C98.2951 90.2225 97.9504 89.6167 97.8062 88.9508C97.4214 87.6045 97.4794 86.1702 97.9717 84.8594C98.6338 83.1745 100.113 82.3867 101.888 82.5059C104.592 82.6879 105.277 84.7734 105.218 86.7595C105.218 87.1898 104.989 87.352 104.536 87.3553L102.047 87.3619ZM101.418 86.2828C102.08 86.2828 102.715 86.2828 103.361 86.2828C103.483 86.2828 103.692 86.1703 103.692 86.0809C103.754 85.5645 103.629 85.0429 103.339 84.611C103.049 84.1791 102.614 83.8655 102.113 83.7273C100.603 83.3963 99.4414 84.2338 99.1501 85.8624C99.0939 86.1934 99.1733 86.3027 99.501 86.296C100.147 86.2729 100.782 86.2828 101.418 86.2828Z" fill="#333A04"/>
<path id="Vector_13" d="M107.912 64.6414C107.671 63.6947 107.505 62.8241 107.217 61.9933C106.952 61.222 107.121 60.5202 107.307 59.7854C107.684 58.2859 108.055 56.7863 108.406 55.2802C108.644 54.2872 108.369 53.6814 107.479 53.1485C107.24 53.0061 106.992 52.877 106.764 52.7181C106.617 52.6144 106.506 52.4674 106.447 52.2977C106.388 52.128 106.383 51.944 106.433 51.7714C106.459 51.6055 106.543 51.454 106.669 51.3433C106.795 51.2326 106.957 51.1698 107.125 51.1657C107.32 51.1354 107.516 51.1166 107.714 51.1094C109.117 51.1094 110.521 51.1094 111.924 51.1094C112.146 51.1175 112.367 51.1385 112.586 51.1723C112.746 51.176 112.899 51.2348 113.019 51.3386C113.14 51.4424 113.221 51.5848 113.248 51.7416C113.305 51.9209 113.298 52.1143 113.228 52.2888C113.158 52.4633 113.029 52.608 112.864 52.6983C112.82 52.7262 112.773 52.7516 112.725 52.7744C111.219 53.3471 110.534 54.5652 110.153 56.025C109.438 58.7769 108.726 61.5276 108.015 64.2773C108.005 64.37 107.975 64.456 107.912 64.6414Z" fill="#333A04"/>
<path id="Vector_14" d="M83.9851 90.4772L83.568 90.8248C83.099 91.2283 82.5307 91.4991 81.9219 91.6091C81.3131 91.7191 80.686 91.6643 80.1055 91.4504C79.6746 91.3267 79.2921 91.0738 79.0097 90.7257C78.7273 90.3775 78.5587 89.9511 78.5266 89.504C78.4008 88.448 78.7119 87.5642 79.6719 86.9949C80.3954 86.6052 81.2037 86.3994 82.0254 86.3957C82.512 86.3725 83.0019 86.3792 83.4918 86.3792C83.7169 86.3792 83.8493 86.3063 83.8228 86.0481C83.8127 85.6791 83.7806 85.3111 83.7269 84.9458C83.5746 84.1944 83.0185 83.784 82.1744 83.7211C81.3237 83.6845 80.48 83.89 79.7414 84.3136C79.5097 84.4328 79.2515 84.7406 78.9834 84.3897C78.8851 84.2088 78.8558 83.9984 78.9008 83.7976C78.9459 83.5967 79.0622 83.419 79.2283 83.2974C79.7612 83.0102 80.3301 82.7953 80.9198 82.6585C81.6205 82.5361 82.3352 82.516 83.0416 82.5989C84.4915 82.7843 85.2595 83.7277 85.2826 85.3033C85.3157 87.2365 85.2826 89.1697 85.2826 91.1028C85.2826 91.3908 85.1701 91.5199 84.8887 91.5166H84.8093C83.9917 91.5166 83.9817 91.5166 84.0082 90.7916C84.0078 90.6864 84.0001 90.5813 83.9851 90.4772ZM83.8295 88.4911C83.8295 87.4053 83.8295 87.4053 82.8629 87.4053C82.7704 87.397 82.6773 87.397 82.5848 87.4053C81.9621 87.4844 81.3474 87.6173 80.7477 87.8025C80.1419 88.0409 79.9665 88.6235 80.0393 89.259C80.0582 89.5393 80.1684 89.8057 80.3532 90.0174C80.5379 90.229 80.787 90.3743 81.0622 90.4308C81.3958 90.52 81.7459 90.5275 82.083 90.4526C82.4201 90.3777 82.7342 90.2226 82.9986 90.0005C83.5382 89.5934 84.0777 89.1696 83.8295 88.4911Z" fill="#333A04"/>
<path id="Vector_15" d="M64.9306 90.4612C64.6857 90.6565 64.5268 90.7922 64.3613 90.9146C63.9028 91.2821 63.3578 91.5259 62.7783 91.6227C62.1987 91.7195 61.6041 91.666 61.0511 91.4675C60.6171 91.3551 60.2286 91.1112 59.9388 90.7692C59.6489 90.4273 59.4721 90.004 59.4324 89.5575C59.2967 88.4519 59.6078 87.535 60.6274 86.959C61.3385 86.5941 62.1254 86.4014 62.9246 86.3962C63.398 86.3731 63.878 86.3731 64.3546 86.3962C64.6294 86.3962 64.7419 86.2903 64.7254 86.0222C64.7088 85.7541 64.7254 85.4131 64.6757 85.1119C64.5533 84.2777 63.9872 83.811 63.0802 83.7448C62.2022 83.7103 61.3329 83.931 60.5777 84.3803C60.4728 84.458 60.3517 84.5112 60.2235 84.5359C60.1573 84.5359 60.0918 84.5214 60.0318 84.4934C59.9717 84.4653 59.9185 84.4245 59.876 84.3737C59.7933 84.1793 59.7812 83.9621 59.8416 83.7596C59.9021 83.5572 60.0313 83.3822 60.207 83.2648C61.1143 82.7323 62.1589 82.4801 63.2093 82.5399C63.6057 82.5543 63.999 82.6154 64.3811 82.7219C64.8794 82.8303 65.3255 83.1063 65.6448 83.504C65.9641 83.9016 66.1373 84.3967 66.1355 84.9067C66.1984 86.2307 66.1719 87.578 66.1819 88.9153C66.1819 89.6303 66.1819 90.3453 66.1819 91.0603C66.1819 91.4277 66.0395 91.5734 65.6886 91.5436H65.49C64.9439 91.5436 64.9174 91.5138 64.9141 90.9544L64.9306 90.4612ZM63.6065 87.4125L63.5834 87.3165C62.9537 87.4224 62.3321 87.5717 61.723 87.7634C61.4379 87.8818 61.2031 88.0961 61.0592 88.3693C60.9153 88.6425 60.8715 88.9574 60.9352 89.2596C60.9641 89.5584 61.0917 89.8391 61.2979 90.0573C61.5042 90.2755 61.7772 90.4188 62.0739 90.4645C62.9412 90.6565 64.2719 90.0507 64.6625 89.2761C64.6979 89.2052 64.716 89.127 64.7154 89.0477C64.7154 88.5975 64.7386 88.1473 64.7154 87.7005C64.6967 87.6351 64.6617 87.5756 64.6136 87.5275C64.5656 87.4795 64.506 87.4444 64.4407 87.4257C64.1644 87.4013 63.8868 87.3968 63.6098 87.4125H63.6065Z" fill="#333A04"/>
<path id="Vector_16" d="M37.1697 19.7383C36.8912 20.5812 36.3144 21.2934 35.5477 21.7409C34.8856 22.1481 34.1574 22.5056 33.4556 22.8697C32.4328 23.3993 31.4695 23.9886 30.834 24.9915C30.7821 25.0678 30.7114 25.1294 30.6287 25.1703C28.7088 26.1302 27.1497 27.5569 25.6039 29.0167C24.1342 30.4037 22.6247 31.741 21.1285 33.1147C20.9341 33.306 20.775 33.5301 20.6585 33.7768C20.5958 33.9164 20.5045 34.0413 20.3904 34.1434C20.2764 34.2455 20.1421 34.3224 19.9964 34.3693C19.6654 34.4918 19.3344 34.6606 18.957 34.8393C19.0133 34.677 19.0785 34.5179 19.1523 34.3627C19.969 32.9376 20.9881 31.6387 22.1778 30.5063C23.9543 28.7409 25.7617 27.0108 27.5999 25.3159C28.0676 24.9286 28.5882 24.6098 29.1458 24.3692C30.0164 23.9422 30.8009 23.4655 31.3239 22.595C31.5703 22.2498 31.9054 21.9776 32.2938 21.8071C33.2868 21.3172 34.3097 20.877 35.3292 20.44C35.9118 20.1918 36.5076 19.9899 37.1697 19.7383Z" fill="#333A04"/>
<path id="Vector_17" d="M112.804 89.043C112.825 89.55 112.681 90.0502 112.393 90.4681C112.106 90.886 111.69 91.1991 111.209 91.3602C110.608 91.5904 109.967 91.6945 109.325 91.666C108.682 91.6375 108.052 91.4771 107.475 91.1947C107.241 91.0811 107.059 90.8823 106.968 90.6391C106.876 90.3959 106.881 90.1268 106.982 89.8871C107.107 89.5859 107.313 89.7316 107.505 89.8077C108.092 90.0653 108.7 90.2746 109.322 90.4333C109.74 90.4749 110.162 90.4206 110.557 90.2744C110.761 90.201 110.942 90.0726 111.078 89.9032C111.214 89.7339 111.301 89.5302 111.329 89.3146C111.357 89.0991 111.325 88.8799 111.237 88.6813C111.149 88.4827 111.007 88.3124 110.828 88.189C110.561 88.018 110.281 87.8686 109.991 87.7421C109.501 87.5204 108.997 87.3383 108.504 87.0967C108.075 86.8961 107.716 86.5702 107.475 86.1618C107.234 85.7533 107.123 85.2816 107.155 84.8086C107.188 84.3356 107.363 83.8836 107.658 83.512C107.952 83.1405 108.352 82.8669 108.805 82.7272C109.305 82.5487 109.834 82.4706 110.364 82.4973C110.893 82.524 111.412 82.655 111.891 82.8828C112.103 82.9899 112.266 83.1734 112.349 83.3964C112.431 83.6193 112.426 83.8651 112.334 84.0844C112.225 84.3558 112.069 84.2466 111.891 84.1771C111.468 83.9682 111.024 83.8072 110.566 83.6971C110.137 83.6404 109.701 83.6846 109.292 83.8262C109.113 83.8898 108.954 83.999 108.831 84.1429C108.707 84.2868 108.623 84.4605 108.588 84.6468C108.552 84.8331 108.565 85.0255 108.627 85.2049C108.688 85.3844 108.795 85.5447 108.938 85.67C109.258 85.923 109.611 86.1313 109.987 86.289C110.523 86.5439 111.093 86.7325 111.616 87.0106C111.997 87.188 112.316 87.4777 112.528 87.8409C112.74 88.2041 112.837 88.6236 112.804 89.043Z" fill="#333A04"/>
<path id="Vector_18" d="M46.5756 91.6588C45.8313 91.6582 45.0977 91.4824 44.4339 91.1457C44.0632 90.9504 43.8281 90.1527 44.0731 89.8217C44.1294 89.7422 44.381 89.7422 44.51 89.7919C44.9172 89.9474 45.2913 90.1858 45.705 90.3182C46.3514 90.5527 47.0637 90.5266 47.6911 90.2454C47.8856 90.1665 48.0551 90.0367 48.1819 89.8695C48.3086 89.7023 48.3879 89.504 48.4113 89.2955C48.4347 89.087 48.4013 88.876 48.3148 88.6849C48.2282 88.4938 48.0917 88.3296 47.9195 88.2096C47.6016 87.9978 47.2634 87.8182 46.9099 87.6733C46.3836 87.4251 45.8308 87.2298 45.3277 86.9418C44.9435 86.738 44.6306 86.4219 44.4307 86.0357C44.2308 85.6495 44.1534 85.2116 44.2088 84.7802C44.2252 84.3669 44.3582 83.9666 44.5925 83.6257C44.8268 83.2847 45.1529 83.0171 45.5329 82.8537C46.0694 82.6058 46.6538 82.4791 47.2448 82.4825C47.8358 82.4859 48.4188 82.6194 48.9523 82.8736C49.1643 82.9909 49.3243 83.1839 49.4004 83.4139C49.4765 83.644 49.463 83.8943 49.3628 84.1149C49.3198 84.1877 49.0947 84.2043 48.9788 84.1679C48.5332 83.9746 48.0741 83.8142 47.6051 83.6879C47.188 83.6272 46.7624 83.6669 46.3638 83.8037C46.1776 83.8665 46.0119 83.9782 45.8839 84.1272C45.756 84.2762 45.6705 84.457 45.6367 84.6504C45.6028 84.8439 45.6217 85.0429 45.6914 85.2265C45.7611 85.4102 45.879 85.5716 46.0327 85.6939C46.4065 85.9619 46.811 86.1842 47.2376 86.3559C47.7242 86.5942 48.2307 86.7664 48.7173 87.0179C50.4618 87.958 50.0877 90.3877 48.6842 91.149C48.0339 91.4897 47.3097 91.6648 46.5756 91.6588Z" fill="#333A04"/>
<path id="Vector_19" d="M52.9908 87.1862C53.0634 87.7312 53.1673 88.2717 53.302 88.8048C53.7455 90.2746 55.0564 90.6188 56.2447 90.2117C56.6865 90.0073 57.1097 89.7648 57.5092 89.4867C57.6251 89.4205 57.8038 89.3245 57.8833 89.3709C57.9627 89.4172 58.019 89.6092 58.0455 89.7449C58.11 90.0249 58.0712 90.3188 57.9361 90.5725C57.8011 90.8261 57.5789 91.0225 57.3106 91.1253C56.3548 91.6336 55.2477 91.7805 54.1924 91.539C53.6743 91.4402 53.1915 91.2063 52.7928 90.8611C52.394 90.5158 52.0935 90.0714 51.9216 89.5728C51.3041 87.9875 51.3243 86.2247 51.9779 84.6539C52.8617 82.5354 55.8078 81.8071 57.6218 83.2239C57.8059 83.3841 57.9364 83.597 57.9956 83.8338C58.0548 84.0706 58.0399 84.3199 57.9528 84.5479C57.9012 84.5993 57.8373 84.6366 57.7672 84.6563C57.6971 84.676 57.6231 84.6774 57.5523 84.6605C57.3636 84.591 57.2212 84.3957 57.0326 84.3096C56.6341 84.0815 56.2049 83.9121 55.7581 83.8065C54.434 83.631 53.5502 84.2666 53.2325 85.594C53.1067 86.0938 53.0736 86.6135 52.9908 87.1862Z" fill="#333A04"/>
<path id="Vector_20" d="M59.0529 14.0918C59.1092 14.4791 59.0529 14.7207 58.6193 14.7538C58.1856 14.7869 57.8182 14.926 57.421 15.0153C57.3586 15.0386 57.2923 15.0499 57.2257 15.0484C56.1929 14.8002 55.2628 15.2868 54.2862 15.4556C52.3001 15.7866 50.314 16.1176 48.3279 16.4884C46.3418 16.8591 44.4782 17.3292 42.737 18.3123C42.6482 18.3687 42.5442 18.3964 42.4391 18.3917C41.7241 18.299 41.0919 18.5572 40.453 18.8254C40.1054 18.9455 39.7491 19.0385 39.3871 19.1034L39.3242 18.9412C39.5856 18.7537 39.8575 18.5813 40.1385 18.4248C40.8093 18.1443 41.4625 17.8237 42.0948 17.4649C43.0184 16.8459 44.0578 16.6009 45.0939 16.3063C46.8483 15.8065 48.5861 15.2537 50.3405 14.7638C51.3404 14.4981 52.3762 14.3931 53.4091 14.4526C53.5521 14.4737 53.698 14.4624 53.8361 14.4195C54.8059 13.9826 55.8222 14.0686 56.8483 14.0885L59.0529 14.0918Z" fill="#333A04"/>
<path id="Vector_21" d="M69.3443 15.7203C68.0964 16.5346 66.865 16.0745 65.6402 15.6971C65.5816 15.6695 65.5307 15.6279 65.492 15.576C65.4533 15.524 65.428 15.4633 65.4184 15.3992C65.4383 15.1278 65.3059 15.0682 65.0874 15.0682C64.2565 15.0682 63.4323 15.1179 62.5915 15.1046C61.8676 15.1065 61.1444 15.0601 60.4266 14.9656C60.1733 14.9366 59.9372 14.8226 59.7569 14.6423C59.5766 14.462 59.4626 14.2259 59.4336 13.9725C59.705 13.9328 59.9566 13.8798 60.2148 13.8633C64.1934 13.6302 68.1844 13.9939 72.0553 14.9424C72.287 14.9987 72.5287 15.0351 72.2804 15.4125C71.6184 14.9259 71.0093 15.4654 70.3738 15.5945C70.2976 15.5945 70.2248 15.7898 70.2049 15.9057C70.1996 16.0356 70.1663 16.1628 70.1074 16.2788C70.0485 16.3947 69.9654 16.4966 69.8637 16.5776C69.762 16.6586 69.6441 16.7168 69.5179 16.7482C69.3917 16.7796 69.2603 16.7835 69.1324 16.7597C69.0182 16.7365 68.9071 16.6998 68.8014 16.6505C68.8434 16.5202 68.9036 16.3965 68.9802 16.283C69.1169 16.137 69.2628 15.9999 69.4171 15.8726L69.3443 15.7203Z" fill="#333A04"/>
<path id="Vector_22" d="M18.4005 35.5469C18.4005 35.6098 18.4534 35.7223 18.4203 35.7984C18.2349 36.2222 18.2052 36.6889 17.841 37.0629C17.5499 37.4364 17.3023 37.8417 17.1029 38.2712C16.9072 38.6563 16.6861 39.0278 16.4408 39.3834C16.2272 39.5924 15.9881 39.7737 15.7291 39.9229L15.6133 39.8137C15.6379 39.6998 15.6746 39.5889 15.7225 39.4827C16.0304 38.9597 16.3283 38.43 16.6759 37.9335C17.2154 37.1225 17.8046 36.3546 18.4005 35.5469Z" fill="#333A04"/>
<path id="Vector_23" d="M114.864 25.3332C114.864 25.8993 114.106 26.6341 113.54 26.5845C113.262 26.5613 113.093 26.4455 113.193 26.1178C113.248 25.8587 113.357 25.6139 113.511 25.3986C113.665 25.1833 113.862 25.0022 114.09 24.8665C114.168 24.8109 114.261 24.7794 114.357 24.7757C114.453 24.7721 114.548 24.7966 114.63 24.8462C114.712 24.8957 114.778 24.9682 114.82 25.0547C114.862 25.1413 114.877 25.238 114.864 25.3332Z" fill="#333A04"/>
<path id="Vector_24" d="M23.6198 109.567C23.1431 108.534 23.2491 107.554 23.6198 106.541C24.2123 107.445 24.2156 108.944 23.6198 109.567Z" fill="#333A04"/>
<path id="Vector_25" d="M19.2003 58.7652C19.0278 58.7602 18.862 58.6974 18.7294 58.587C18.5967 58.4766 18.505 58.3249 18.4688 58.1562C18.4853 57.9681 18.5346 57.7844 18.6144 57.6133C18.7593 57.6354 18.8993 57.6825 19.0282 57.7523C19.2292 57.8912 19.4003 58.069 19.5313 58.2753C19.6935 58.5501 19.5313 58.7685 19.2003 58.7652Z" fill="#333A04"/>
<path id="Vector_26" d="M37.6641 103.755C37.7236 103.202 37.8296 103.059 38.1374 103.165C38.2049 103.195 38.2641 103.241 38.3102 103.298C38.3563 103.356 38.3879 103.424 38.4022 103.496C38.3989 103.788 38.0679 103.88 37.6641 103.755Z" fill="#333A04"/>
<path id="Vector_27" d="M15.8906 72.765L16.4865 72.252L16.6189 72.4075L16.0131 72.9074L15.8906 72.765Z" fill="#333A04"/>
<path id="Vector_28" d="M27.4735 49.3222L27.7449 49.3752C28.0296 49.4281 28.2977 49.5076 28.3143 49.8651C28.2951 50.0341 28.2192 50.1916 28.099 50.3118C27.9787 50.4321 27.8212 50.508 27.6522 50.5271C27.3212 50.547 27.159 50.3384 27.073 50.0438C26.8876 49.4844 26.9803 49.299 27.4735 49.3222Z" fill="#333A04"/>
<path id="Vector_29" d="M26.6413 52.3867C26.7406 52.4728 26.9359 52.6019 26.9193 52.635C26.8184 52.8384 26.701 53.0332 26.5684 53.2176C26.4261 53.0488 26.2043 52.8866 26.1613 52.7045C26.0852 52.3735 26.3632 52.4331 26.5751 52.4761L26.6413 52.3867Z" fill="#333A04"/>
<path id="Vector_30" d="M50.6761 23.694L50.345 25.1968L49.6532 25.018C49.5473 24.793 49.4579 24.5844 49.3487 24.3825C49.1799 24.0746 49.2527 23.8231 49.6036 23.7536C49.9593 23.7094 50.3176 23.6895 50.6761 23.694Z" fill="#333A04"/>
</g>
</svg>
