<svg width="85" height="90" viewBox="0 0 85 90" fill="none" xmlns="http://www.w3.org/2000/svg">
<g id="Group">
<path id="Vector" d="M1.47516 76.4816H84.0355C84.5663 76.4816 84.9953 76.054 84.9953 75.5219C84.9953 74.9912 84.5663 74.5622 84.0355 74.5622L63.8837 74.5629V72.4809H65.7336C66.2643 72.4809 66.6933 72.0532 66.6933 71.5211V68.0644C66.6933 67.5337 66.2643 67.1047 65.7336 67.1047H43.0358V64.8258C43.0358 64.2951 42.6062 63.8661 42.0761 63.8661H37.724L33.0124 43.5344C36.2656 43.2486 39.3302 45.3776 40.1092 48.6441C40.2324 49.1601 40.7557 49.4787 41.265 49.3529C41.5046 49.2946 41.696 49.1487 41.8252 48.9607C42.1277 48.7398 42.285 48.3503 42.192 47.9635C41.2911 44.1903 43.0975 40.8614 46.4886 40.0501C50.0791 39.1961 53.6957 41.4201 54.5524 45.0106C54.5945 45.186 54.6936 45.3272 54.8127 45.4483C55.0249 45.8004 55.4324 45.9991 55.8487 45.9001C56.364 45.7762 56.6806 45.2589 56.5588 44.7443C55.0764 38.5349 51.2656 33.2732 45.8253 29.9302C40.7898 26.8362 34.9192 25.7326 29.1481 26.7613L28.2346 22.818C28.1154 22.302 27.6021 21.9794 27.0834 22.0992C26.5674 22.219 26.2455 22.7343 26.366 23.2503L27.2755 27.1741C14.745 30.4428 7.04317 43.1875 10.0637 55.8427C10.1681 56.2831 10.5623 56.5796 10.996 56.5796C11.0696 56.5796 11.1446 56.5709 11.2195 56.5535C11.2838 56.5381 11.3346 56.5006 11.3922 56.4759C11.423 56.4692 11.4538 56.4712 11.4845 56.4631C12.0005 56.3393 12.3184 55.822 12.1953 55.3073C11.3386 51.7168 13.5633 48.0981 17.1537 47.2435C18.8931 46.8279 20.6902 47.113 22.2146 48.0527C23.7385 48.9903 24.8053 50.4619 25.2189 52.1973C25.2477 52.3171 25.3012 52.4235 25.3688 52.5219C25.3909 52.5533 25.4204 52.5774 25.4465 52.6062C25.498 52.6665 25.5509 52.7166 25.6144 52.7608C25.6506 52.7836 25.6894 52.8043 25.7289 52.821C25.7931 52.8525 25.8574 52.8806 25.9277 52.896C25.9718 52.9074 26.0147 52.9154 26.0622 52.9181C26.093 52.9208 26.1218 52.9335 26.1525 52.9335C26.2262 52.9335 26.3011 52.9248 26.3761 52.9074C26.8914 52.7856 27.21 52.2682 27.0868 51.7529C26.3058 48.4735 28.0974 45.1768 31.1453 43.9768L35.7551 63.8682H31.6466L29.8992 59.3673C29.8035 59.119 29.6087 58.9223 29.3611 58.8245C29.1135 58.7248 28.8371 58.7342 28.5962 58.846L25.5336 60.2862C25.0866 60.497 24.8724 61.0123 25.0384 61.4781L28.748 71.8463C28.8846 72.2271 29.2459 72.4821 29.6509 72.4821H30.9492V74.5641H1.47535C0.945971 74.5641 0.515625 74.9931 0.515625 75.5238C0.516294 76.0539 0.945286 76.4822 1.47535 76.4822L1.47516 76.4816ZM32.8696 74.5629V72.4809H37.7511L38.2337 74.5629H32.8696ZM61.9648 74.5629H40.2042L39.7217 72.4809H61.9655L61.9648 74.5629H61.9648ZM41.1174 65.7857V67.1048H38.4759L38.1707 65.7857H41.1174ZM36.2011 65.7857L36.5063 67.1048H32.9038L32.3924 65.7857H36.2011Z" fill="black"/>
<path id="Vector_2" d="M84.0349 78.7199C81.1745 78.7199 79.6761 79.6776 78.3549 80.5216C77.0954 81.3274 76.0118 82.0215 73.7097 82.0215C71.4087 82.0215 70.322 81.3248 69.0624 80.5216C67.7413 79.677 66.2435 78.7199 63.3824 78.7199C60.524 78.7199 59.0262 79.6776 57.7065 80.5216C56.4469 81.3274 55.3647 82.0215 53.0638 82.0215C50.7628 82.0215 49.6779 81.3248 48.4192 80.5216C47.0981 79.677 45.6017 78.7199 42.7418 78.7199C39.8827 78.7199 38.3856 79.6776 37.0658 80.5216C35.8083 81.3274 34.7227 82.0215 32.4238 82.0215C30.1263 82.0215 29.0408 81.3248 27.7839 80.5216C26.4648 79.6764 24.9689 78.7188 22.1086 78.7188C19.2482 78.7188 17.7524 79.6764 16.4333 80.5216C15.1764 81.3254 14.0916 82.0215 11.7933 82.0215C9.49444 82.0215 8.4082 81.3248 7.15133 80.5216C5.83089 79.677 4.33501 78.7199 1.47535 78.7199C0.945971 78.7199 0.515625 79.1489 0.515625 79.6797C0.515625 80.2111 0.945286 80.6394 1.47535 80.6394C3.77425 80.6394 4.85911 81.3361 6.11735 82.1392C7.43779 82.9845 8.93367 83.9421 11.7947 83.9421C14.6539 83.9421 16.1496 82.9844 17.47 82.1392C18.7269 81.3354 19.8117 80.6394 22.1106 80.6394C24.4095 80.6394 25.4944 81.3361 26.7513 82.1392C28.0704 82.9845 29.5662 83.9421 32.4266 83.9421C35.2869 83.9421 36.7835 82.9844 38.1039 82.1392C39.3615 81.3354 40.447 80.6394 42.7459 80.6394C45.0448 80.6394 46.1318 81.3361 47.3898 82.1392C48.7103 82.9838 50.2074 83.9409 53.0679 83.9409C55.9263 83.9409 57.4248 82.9832 58.7452 82.1373C60.0048 81.3335 61.087 80.6375 63.3872 80.6375C65.6868 80.6375 66.7744 81.3342 68.0346 82.1373C69.3557 82.9826 70.8535 83.9402 73.7145 83.9402C76.5748 83.9402 78.0733 82.9825 79.3944 82.1373C80.654 81.3335 81.7375 80.6375 84.0397 80.6375C84.5711 80.6375 84.9994 80.2098 84.9994 79.6778C84.9987 79.1471 84.5671 78.7201 84.035 78.7201L84.0349 78.7199Z" fill="black"/>
<path id="Vector_3" d="M84.0349 84.7773C81.1745 84.7773 79.6761 85.735 78.3549 86.579C77.0954 87.3841 76.0118 88.0788 73.7097 88.0788C71.4087 88.0788 70.322 87.3834 69.0624 86.579C67.7413 85.7344 66.2435 84.7773 63.3824 84.7773C60.524 84.7773 59.0262 85.735 57.7065 86.579C56.4469 87.3841 55.3647 88.0788 53.0638 88.0788C50.7628 88.0788 49.6779 87.3834 48.4192 86.579C47.0981 85.7344 45.6017 84.7773 42.7418 84.7773C39.8827 84.7773 38.3856 85.735 37.0658 86.579C35.8083 87.3841 34.7227 88.0788 32.4238 88.0788C30.1263 88.0788 29.0408 87.3834 27.7839 86.579C26.4648 85.733 24.9689 84.7754 22.1086 84.7754C19.2482 84.7754 17.7524 85.7331 16.4333 86.579C15.1764 87.3828 14.0916 88.0788 11.7933 88.0788C9.49444 88.0788 8.4082 87.3834 7.15133 86.579C5.83089 85.7344 4.33501 84.7773 1.47535 84.7773C0.945971 84.7773 0.515625 85.2063 0.515625 85.737C0.515625 86.2677 0.945286 86.6967 1.47535 86.6967C3.77425 86.6967 4.85911 87.3921 6.11735 88.1965C7.43779 89.0418 8.93367 89.9994 11.7947 89.9994C14.6539 89.9994 16.1496 89.0417 17.47 88.1965C18.7269 87.3927 19.8117 86.6967 22.1106 86.6967C24.4095 86.6967 25.4944 87.3921 26.7513 88.1965C28.0704 89.0418 29.5662 89.9994 32.4266 89.9994C35.2869 89.9994 36.7835 89.0417 38.1039 88.1965C39.3615 87.3927 40.447 86.6967 42.7459 86.6967C45.0448 86.6967 46.1318 87.3921 47.3898 88.1965C48.7103 89.0418 50.2074 89.9982 53.0679 89.9982C55.9263 89.9982 57.4248 89.0419 58.7452 88.1953C60.0048 87.3915 61.087 86.6955 63.3872 86.6955C65.6868 86.6955 66.7744 87.3929 68.0346 88.1953C69.3557 89.0399 70.8535 89.997 73.7145 89.997C76.5748 89.997 78.0733 89.0393 79.3944 88.1953C80.654 87.3902 81.7375 86.6955 84.0397 86.6955C84.5711 86.6955 84.9994 86.2685 84.9994 85.7358C84.9987 85.2057 84.5671 84.7774 84.035 84.7774L84.0349 84.7773Z" fill="black"/>
<path id="Vector_4" d="M36.1794 8.73179V8.67357C36.1794 3.89107 32.2891 0 27.5059 0C24.3812 0 21.5602 1.65239 20.0208 4.29729C19.2391 3.82747 18.343 3.57651 17.408 3.57651C14.8655 3.57651 12.7506 5.44914 12.3725 7.88854C11.8237 7.72858 11.2528 7.64559 10.6759 7.64559C7.32437 7.64559 4.59766 10.3721 4.59766 13.7225C4.59833 17.0533 7.45133 19.8696 10.827 19.8696C10.8451 19.8696 34.4346 19.8382 34.5528 19.786C37.3389 19.3309 39.4739 16.9141 39.4739 14.0022C39.4759 11.7408 38.1775 9.70561 36.1792 8.73177L36.1794 8.73179ZM32.1518 9.82001C32.0588 9.84879 31.9644 9.86217 31.8714 9.86217C31.4598 9.86217 31.0797 9.59648 30.9538 9.1822C30.5664 7.91194 29.5825 6.9054 28.3231 6.49318C27.1887 6.12307 25.9512 6.26497 24.9313 6.88738C24.4782 7.16245 23.8872 7.01855 23.6148 6.5668C23.3384 6.11372 23.4817 5.52411 23.9341 5.2477C25.4345 4.3335 27.2515 4.12201 28.9213 4.66812C30.7751 5.27515 32.2208 6.75424 32.7896 8.62276C32.9449 9.13005 32.6584 9.66545 32.1518 9.82006L32.1518 9.82001Z" fill="black"/>
<path id="Vector_5" d="M77.5849 8.73313V8.67357C77.5849 3.89107 73.6931 0 68.9134 0C65.7852 0 62.9677 1.65239 61.4257 4.29729C60.6454 3.82747 59.7479 3.57651 58.8123 3.57651C56.2704 3.57651 54.1548 5.44914 53.7767 7.88854C53.2286 7.72858 52.6564 7.64559 52.0802 7.64559C48.7279 7.64559 46 10.3721 46 13.7225C46.0047 17.0533 48.855 19.8696 52.2328 19.8696C52.2509 19.8696 75.8403 19.8382 75.9586 19.786C78.7447 19.3302 80.8797 16.9141 80.8797 14.0022C80.8817 11.7415 79.5826 9.7063 77.585 8.73314L77.5849 8.73313ZM73.5552 9.82068C73.4615 9.84946 73.3678 9.86285 73.2761 9.86285C72.8639 9.86285 72.4857 9.59581 72.3579 9.18287C71.9731 7.91262 70.9879 6.90744 69.729 6.49385C68.5946 6.12374 67.3585 6.26564 66.3386 6.88805C65.8875 7.16312 65.2965 7.02123 65.0201 6.56747C64.7437 6.11439 64.8869 5.52478 65.3394 5.24837C66.8392 4.33417 68.6554 4.12268 70.3247 4.6688C72.1792 5.27715 73.6242 6.75491 74.1944 8.62343C74.347 9.13072 74.0612 9.66612 73.5552 9.82073L73.5552 9.82068Z" fill="black"/>
<path id="Vector_6" d="M12.0132 23.0339C12.0132 22.5046 11.5835 22.0742 11.0535 22.0742C10.5241 22.0742 10.0938 22.5039 10.0938 23.0339V27.3467C10.0938 27.876 10.5234 28.3064 11.0535 28.3064C11.5828 28.3064 12.0132 27.8767 12.0132 27.3467V23.0339Z" fill="black"/>
<path id="Vector_7" d="M19.707 23.0339V25.191C19.707 25.7204 20.1367 26.1507 20.6668 26.1507C21.1961 26.1507 21.6265 25.721 21.6265 25.191V23.0339C21.6265 22.5046 21.1968 22.0742 20.6668 22.0742C20.1374 22.0742 19.707 22.5039 19.707 23.0339Z" fill="black"/>
<path id="Vector_8" d="M10.9285 32.5312C10.3991 32.5312 9.96875 32.9609 9.96875 33.491V35.7551C9.96875 36.2845 10.3984 36.7148 10.9285 36.7148C11.4578 36.7148 11.8882 36.2852 11.8882 35.7551V33.491C11.8882 32.9609 11.4585 32.5312 10.9285 32.5312Z" fill="black"/>
<path id="Vector_9" d="M4.7566 32.8059C5.28597 32.8059 5.71632 32.3762 5.71632 31.8461V27.8855C5.71632 27.3561 5.28666 26.9258 4.7566 26.9258C4.22722 26.9258 3.79688 27.3554 3.79688 27.8855V31.8461C3.79754 32.3755 4.22721 32.8059 4.7566 32.8059Z" fill="black"/>
<path id="Vector_10" d="M72.3164 23.0339V27.8841C72.3164 28.4135 72.7441 28.8438 73.2761 28.8438C73.8068 28.8438 74.2358 28.4142 74.2358 27.8841V23.0339C74.2358 22.5046 73.8068 22.0742 73.2761 22.0742C72.7447 22.0742 72.3164 22.5039 72.3164 23.0339Z" fill="black"/>
<path id="Vector_11" d="M58.8398 27.3464V33.4895C58.8398 34.0188 59.2675 34.4492 59.7996 34.4492C60.3303 34.4492 60.7593 34.0195 60.7593 33.4895V27.3464C60.7593 26.8171 60.3303 26.3867 59.7996 26.3867C59.2682 26.3867 58.8398 26.817 58.8398 27.3464Z" fill="black"/>
<path id="Vector_12" d="M46.9675 26.1489C47.4983 26.1489 47.9273 25.7193 47.9273 25.1892V21.9968C47.9273 21.4675 47.4983 21.0371 46.9675 21.0371C46.4361 21.0371 46.0078 21.4668 46.0078 21.9968V25.1892C46.0078 25.7193 46.4361 26.1489 46.9675 26.1489Z" fill="black"/>
<path id="Vector_13" d="M68.1277 58.5207C68.6591 58.5207 69.0874 58.0917 69.0874 57.561V51.9734C69.0874 51.4427 68.6598 51.0137 68.1277 51.0137C67.597 51.0137 67.168 51.4427 67.168 51.9734V57.561C67.1686 58.0917 67.6003 58.5207 68.1277 58.5207Z" fill="black"/>
<path id="Vector_14" d="M68.0796 41.4824V36.8933C68.0796 36.3639 67.6519 35.9336 67.1199 35.9336C66.5885 35.9336 66.1602 36.3633 66.1602 36.8933V41.4824C66.1602 42.0118 66.5878 42.4421 67.1199 42.4421C67.6499 42.4421 68.0796 42.0131 68.0796 41.4824Z" fill="black"/>
<path id="Vector_15" d="M74.6133 38.905V43.0271C74.6133 43.5564 75.0409 43.9868 75.573 43.9868C76.1037 43.9868 76.5327 43.5571 76.5327 43.0271V38.905C76.5327 38.3757 76.1037 37.9453 75.573 37.9453C75.0409 37.946 74.6133 38.3756 74.6133 38.905Z" fill="black"/>
<path id="Vector_16" d="M4.7566 55.7273C5.28597 55.7273 5.71632 55.2983 5.71632 54.7676V49.2664C5.71632 48.735 5.28666 48.3066 4.7566 48.3066C4.22722 48.3066 3.79688 48.7343 3.79688 49.2664L3.79754 54.7683C3.79754 55.2983 4.22721 55.7273 4.7566 55.7273V55.7273Z" fill="black"/>
<path id="Vector_17" d="M4.7566 43.4995C5.28597 43.4995 5.71632 43.0698 5.71632 42.5398V39.1882C5.71632 38.6589 5.28666 38.2285 4.7566 38.2285C4.22722 38.2285 3.79688 38.6582 3.79688 39.1882V42.5398C3.79754 43.0698 4.22721 43.4995 4.7566 43.4995Z" fill="black"/>
</g>
</svg>
