<svg width="91" height="89" viewBox="0 0 91 89" fill="none" xmlns="http://www.w3.org/2000/svg">
<g id="Group">
<path id="Vector" d="M10.7305 88.0572C16.6023 81.2226 32.3703 74.9459 50.1164 74.9551C67.8615 74.9635 83.7045 81.2551 89.5354 88.0959L10.7305 88.0572Z" fill="black"/>
<path id="Vector_2" d="M28.812 51.0957C27.8332 51.6813 26.8447 52.2494 25.8438 52.7992L37.2028 72.5506C38.3975 72.3635 39.6388 72.2464 40.8692 72.1118L28.812 51.0957Z" fill="black"/>
<path id="Vector_3" d="M15.784 31.7793L9.32957 43.3186L14.666 42.0874C14.7314 42.0645 14.7991 42.047 14.8676 42.0356C15.5673 41.9353 16.2167 42.4189 16.3209 43.1178C16.4251 43.8175 15.9452 44.4693 15.2463 44.578L7.64656 46.328L0.699219 58.7448C18.6647 54.555 33.9349 45.762 46.5684 32.4732L15.784 31.7793Z" fill="black"/>
<path id="Vector_4" d="M73.076 11.3887C69.4947 11.3887 66.5547 14.3211 66.5547 17.8933C66.5547 21.4655 69.4949 24.3979 73.076 24.3979C76.6572 24.3979 79.5974 21.4655 79.5974 17.8933C79.5974 14.3211 76.658 11.3887 73.076 11.3887Z" fill="black"/>
<path id="Vector_5" d="M72.8822 0.0122108C72.0434 0.108036 71.4175 0.826719 71.438 1.66784V4.86038C71.438 5.76158 72.1711 6.49243 73.0746 6.49243C73.9781 6.49243 74.7112 5.76158 74.7112 4.86038V1.66784C74.7234 1.1948 74.5287 0.740023 74.1773 0.422132C73.826 0.103482 73.3529 -0.0455735 72.8822 0.0122108H72.8822Z" fill="black"/>
<path id="Vector_6" d="M73.0501 29.2698C72.6151 29.2744 72.2006 29.4516 71.8979 29.7626C71.5952 30.0737 71.4294 30.4927 71.4378 30.9255V34.1417C71.4378 35.0437 72.1702 35.7746 73.0736 35.7746C73.9779 35.7746 74.7103 35.0437 74.7103 34.1417V30.9255C74.7186 30.4844 74.546 30.0577 74.2334 29.7459C73.9201 29.4333 73.4927 29.2615 73.0501 29.2698H73.0501Z" fill="black"/>
<path id="Vector_7" d="M86.1398 16.2598C85.2363 16.2598 84.5039 16.9906 84.5039 17.8926C84.5039 18.7938 85.2363 19.5246 86.1398 19.5246H89.365C90.2685 19.5246 91.0009 18.7938 91.0009 17.8926C91.0009 16.9906 90.2685 16.2598 89.365 16.2598H86.1398Z" fill="black"/>
<path id="Vector_8" d="M56.8632 16.2598C55.9589 16.2598 55.2266 16.9906 55.2266 17.8926C55.2266 18.7938 55.9589 19.5246 56.8632 19.5246H60.0635C60.967 19.5246 61.7001 18.7938 61.7001 17.8926C61.7001 16.9906 60.967 16.2598 60.0635 16.2598H56.8632Z" fill="black"/>
<path id="Vector_9" d="M61.5441 4.76371C60.8741 4.75915 60.2695 5.16374 60.0201 5.78432C59.7699 6.40414 59.9265 7.11369 60.4133 7.57228L62.675 9.82875L62.6757 9.82799C63.313 10.4645 64.3473 10.4645 64.9854 9.82799C65.6234 9.1922 65.6234 8.16019 64.9854 7.5244L62.7236 5.26794C62.4156 4.94625 61.9898 4.76449 61.5441 4.76449L61.5441 4.76371Z" fill="black"/>
<path id="Vector_10" d="M82.1213 25.4768C81.4923 25.5437 80.9592 25.9673 80.7531 26.5643C80.547 27.1606 80.7052 27.8222 81.16 28.261L83.446 30.5175C83.732 30.8879 84.164 31.1175 84.6317 31.148C85.1001 31.1784 85.558 31.0057 85.8895 30.6749C86.2211 30.3441 86.3938 29.887 86.3641 29.4208C86.3337 28.9539 86.1033 28.5227 85.7321 28.2375L83.4704 25.9575H83.4696C83.119 25.5985 82.6216 25.4213 82.122 25.4768H82.1213Z" fill="black"/>
<path id="Vector_11" d="M84.5512 4.76293C84.1306 4.78194 83.7344 4.96294 83.4439 5.26714L81.1579 7.52361V7.52285C80.8483 7.82781 80.6734 8.24305 80.6719 8.6773C80.6704 9.1108 80.843 9.52756 81.1502 9.83404C81.4582 10.1413 81.8758 10.3132 82.3108 10.3116C82.7458 10.3101 83.1625 10.136 83.4683 9.82719L85.73 7.57072C86.2243 7.10605 86.3779 6.38431 86.1156 5.75918C85.8532 5.13405 85.2296 4.73706 84.5504 4.76291L84.5512 4.76293Z" fill="black"/>
<path id="Vector_12" d="M63.6405 25.4768C63.2747 25.524 62.9355 25.6936 62.6785 25.9575L60.4168 28.2375C60.0723 28.5341 59.8677 28.96 59.8525 29.4133C59.8373 29.8666 60.0114 30.3054 60.3347 30.624C60.6579 30.9434 61.0997 31.113 61.5537 31.0925C62.0085 31.0727 62.4329 30.8643 62.7265 30.5183L64.9882 28.2618H64.9889C65.4977 27.7744 65.6346 27.0154 65.3281 26.3819C65.0209 25.7484 64.3402 25.3833 63.6413 25.4776L63.6405 25.4768Z" fill="black"/>
</g>
</svg>
