<svg width="151" height="150" viewBox="0 0 151 150" fill="none" xmlns="http://www.w3.org/2000/svg">
<g id="Group 133">
<rect id="Rectangle 60" x="0.5" width="150" height="150" rx="75" fill="white" fill-opacity="0.35"/>
<g id="Group">
<path id="Vector" d="M124.018 97.2933C122.687 97.2933 121.628 98.3517 121.628 99.6833V106.239H106.23V66.4279C106.23 55.7067 97.5229 47.0003 86.802 47.0003H84.3437V42.2544H91.8895C93.2211 42.2544 94.2795 41.196 94.2795 39.8644V32.2162C94.2795 30.8846 93.2211 29.8262 91.8895 29.8262C90.5579 29.8262 89.4994 30.8846 89.4994 32.2162V37.4744H40.058V32.2162C40.058 30.8846 38.9996 29.8262 37.668 29.8262C36.3364 29.8262 35.278 30.8846 35.278 32.2162V39.8644C35.278 41.196 36.3364 42.2544 37.668 42.2544H46.9891V47.0003H44.1893C33.4681 47.0003 24.7617 55.707 24.7617 66.4279V108.63C24.7617 109.962 25.8202 111.02 27.1518 111.02H35.4829C36.5755 116.142 41.1167 119.966 46.5796 119.966C52.0426 119.966 56.5497 116.142 57.6763 111.02H74.987C76.0796 116.142 80.6208 119.966 86.0837 119.966C91.5467 119.966 96.0538 116.142 97.1804 111.02H124.086C125.417 111.02 126.476 109.962 126.476 108.63V99.6845C126.407 98.3529 125.349 97.2945 124.017 97.2945L124.018 97.2933ZM51.7698 42.2546H79.5626V47.0006H51.7698V42.2546ZM33.742 80.1551V63.6295C33.742 62.2979 34.8005 61.2395 36.1321 61.2395H52.6233C53.9549 61.2395 55.0134 62.2979 55.0134 63.6295V80.1208C55.0134 81.4524 53.9549 82.5108 52.6233 82.5108H36.1321C34.8005 82.545 33.742 81.4524 33.742 80.1549V80.1551ZM46.614 115.187C43.8484 115.187 41.4582 113.446 40.5024 111.021C40.3658 110.646 40.2292 110.27 40.1609 109.86C40.1609 109.826 40.1609 109.758 40.1268 109.724C40.0926 109.553 40.0585 109.416 40.0585 109.246C40.0243 109.041 40.0243 108.836 40.0243 108.597C40.0243 104.978 42.9607 102.041 46.5799 102.041C50.1991 102.041 53.1355 104.978 53.1355 108.597C53.1355 108.802 53.1355 109.041 53.1013 109.246C53.1013 109.416 53.0672 109.553 53.033 109.724C53.033 109.758 53.033 109.826 52.9989 109.86C52.9647 110.065 52.9306 110.236 52.8623 110.441C52.794 110.646 52.7257 110.816 52.6574 111.021C51.7356 113.445 49.3797 115.187 46.6142 115.187H46.614ZM86.0504 115.187C83.2848 115.187 80.8946 113.446 79.9387 111.021C79.8022 110.646 79.6656 110.27 79.5973 109.86C79.5973 109.826 79.5973 109.758 79.5632 109.724C79.529 109.553 79.4949 109.416 79.4949 109.246C79.4607 109.041 79.4607 108.836 79.4607 108.597C79.4607 104.978 82.397 102.041 86.0163 102.041C89.6355 102.041 92.5718 104.978 92.5718 108.597C92.5718 108.802 92.5718 109.041 92.5377 109.246C92.5377 109.416 92.5035 109.553 92.4694 109.724C92.4694 109.758 92.4694 109.826 92.4353 109.86C92.4011 110.065 92.367 110.236 92.2987 110.441C92.2304 110.646 92.1621 110.816 92.0938 111.021C91.2061 113.445 88.816 115.187 86.0505 115.187H86.0504ZM97.3859 80.1551C97.3859 81.4867 96.3275 82.5452 94.9959 82.5452H62.4241C61.0925 82.5452 60.0341 81.4867 60.0341 80.1551V63.6295C60.0341 62.2979 61.0925 61.2395 62.4241 61.2395H94.9959C96.3275 61.2395 97.3859 62.2979 97.3859 63.6295V80.1551Z" fill="black"/>
</g>
</g>
</svg>
