<svg width="107" height="76" viewBox="0 0 107 76" fill="none" xmlns="http://www.w3.org/2000/svg">
<g id="Group">
<path id="Vector" d="M60.7899 49.9741C60.3425 47.9598 61.0139 45.8331 62.5808 44.4896C64.4835 42.6986 66.1628 40.9076 67.8413 39.1174C67.0574 38.3336 66.4984 37.3264 66.2744 36.2076C65.827 34.1933 66.386 32.0666 67.9529 30.6113C69.1842 29.3801 70.4153 28.149 71.6464 26.9178L55.3059 1.17518C54.2987 -0.391726 51.7239 -0.391726 50.7168 1.17518L39.1885 19.5308L33.4806 10.4651C32.4734 8.89821 29.8986 8.89821 28.8915 10.4651L1.13417 54.7872C0.574391 55.5711 0.57439 56.6899 1.02253 57.5854C1.46989 58.4809 2.36538 58.9282 3.37335 58.9282H58.8879C59.112 58.4808 59.4477 58.0327 59.8951 57.697C61.2379 56.4658 62.4691 55.2347 63.7003 54.0035C62.1334 53.1088 61.1254 51.6535 60.7899 49.975V49.9741ZM36.838 30.8346C34.2639 30.7229 33.4801 29.4917 31.1301 29.0436C28.7792 28.5963 27.8846 30.8346 25.8696 30.8346C25.0858 30.8346 24.0786 30.3872 23.0715 29.8274L31.0185 17.068L39.0771 29.8274C38.5173 30.3872 37.7335 30.8346 36.838 30.8346ZM53.0669 23.3356C50.2688 22.7759 49.0376 25.4624 46.6868 25.4624C45.6796 25.4624 44.1127 24.6786 42.8815 23.8955L53.0669 7.77817L63.2522 24.007C62.3567 24.7909 61.238 25.5739 60.0068 25.5739C56.7606 25.2382 55.7535 23.8954 53.0669 23.3356Z" fill="black"/>
<path id="Vector_2" d="M106.456 60.8315C103.098 57.6976 100.3 54.6754 97.8379 51.8773C99.5165 51.5416 101.196 50.9818 103.21 50.3104C104.33 49.8631 104.665 48.4078 103.77 47.624C99.9646 44.042 96.8307 40.5726 94.2559 37.4387C95.3754 37.2146 96.4942 36.8789 97.8379 36.4315C98.9574 36.0958 99.2931 34.5289 98.5093 33.7452C94.8158 30.1632 91.9059 26.806 89.8909 24.0079C89.4435 24.232 88.8838 24.3436 88.4356 24.3436C87.6518 24.3436 86.8687 24.1196 86.1974 23.7839L84.7421 23L83.2868 23.7839C82.6154 24.2312 81.8316 24.3436 81.0485 24.3436C80.4888 24.3436 80.0414 24.232 79.5933 24.0079C77.3566 26.8068 74.5585 30.1648 70.7524 33.746C69.8569 34.5298 70.3051 36.0968 71.4239 36.4323C72.7667 36.8797 73.8862 37.1038 75.0059 37.4395C72.4318 40.5734 69.2979 44.0428 65.4919 47.6248C64.5964 48.4087 64.9321 49.9756 66.0517 50.3112C68.0659 50.9826 69.8569 51.4308 71.4238 51.8781C68.9615 54.6762 66.1634 57.6984 62.8054 60.8323C61.9099 61.6161 62.2457 63.1831 63.3652 63.5187C69.0732 65.4213 74.5577 66.6526 79.9299 66.9881L79.3701 73.8155C79.2584 74.9351 80.1539 75.9423 81.2727 75.9423H87.876C88.9956 75.9423 89.8903 74.9352 89.7787 73.8155L89.3321 67.0997C94.8166 66.6523 100.189 65.5328 105.897 63.6302C107.128 63.1821 107.352 61.7268 106.456 60.8313L106.456 60.8315ZM74.8936 61.3913C73.6624 61.3913 72.6553 60.3841 72.6553 59.2645C72.6553 58.0333 73.6624 57.1377 74.8936 57.1377C76.1247 57.1377 77.0203 58.1449 77.0203 59.2645C77.0203 60.3841 76.1248 61.3913 74.8936 61.3913ZM78.5871 45.8337C77.3559 45.8337 76.4603 44.8266 76.4603 43.707C76.4603 42.4758 77.4675 41.4687 78.5871 41.4687C79.8183 41.4687 80.8254 42.4758 80.8254 43.707C80.8254 44.8266 79.8182 45.8337 78.5871 45.8337ZM84.7423 54.8994C83.5111 54.8994 82.6156 53.8923 82.6156 52.6611C82.6156 51.43 83.6227 50.5344 84.7423 50.5344C85.9735 50.5344 86.8691 51.5415 86.8691 52.6611C86.8691 53.8924 85.862 54.8994 84.7423 54.8994ZM84.7423 34.6411C83.5111 34.6411 82.6156 33.634 82.6156 32.4028C82.6156 31.1717 83.6227 30.276 84.7423 30.276C85.9735 30.276 86.8691 31.2832 86.8691 32.4028C86.8691 33.634 85.862 34.6411 84.7423 34.6411ZM88.5484 43.7068C88.5484 42.4756 89.5555 41.4685 90.7867 41.4685C92.0179 41.4685 92.9134 42.4756 92.9134 43.7068C92.9134 44.9379 91.9063 45.8335 90.7867 45.8335C89.5555 45.8335 88.5484 44.8264 88.5484 43.7068ZM94.4804 61.3909C93.2492 61.3909 92.3536 60.3837 92.3536 59.2641C92.3536 58.0329 93.3608 57.1373 94.4804 57.1373C95.7116 57.1373 96.7187 58.1445 96.7187 59.2641C96.7187 60.3837 95.7115 61.3909 94.4804 61.3909Z" fill="black"/>
<path id="Vector_3" d="M80.0432 15.6137C80.2673 15.8378 80.3789 16.1735 80.2673 16.3976L79.7075 19.4197C79.4834 20.5393 80.603 21.3223 81.6101 20.7626L84.2965 19.1957C84.5206 19.084 84.8563 19.084 85.192 19.1957L87.8784 20.7626C88.8855 21.3224 90.0051 20.4269 89.781 19.4197L89.1096 16.3976C88.9979 16.0618 89.1096 15.8378 89.3336 15.6137L91.5719 13.4869C92.3558 12.7031 91.9076 11.3602 90.9005 11.2487L87.8783 10.9129C87.5426 10.9129 87.3185 10.6889 87.2069 10.4656L85.9757 7.66747C85.5283 6.66032 84.0731 6.66032 83.6249 7.66747L82.3937 10.4656C82.282 10.6896 82.058 10.9129 81.7222 10.9129L78.476 11.2487C77.3565 11.3603 76.9091 12.7039 77.8046 13.4869L80.0432 15.6137Z" fill="black"/>
</g>
</svg>
